<svg xmlns="http://www.w3.org/2000/svg" viewBox="0 0 300 200" width="300" height="200">
  <defs>
    <linearGradient id="bgGrad" x1="0%" y1="0%" x2="100%" y2="100%">
      <stop offset="0%" style="stop-color:#0a0e1a;stop-opacity:1" />
      <stop offset="100%" style="stop-color:#0d1520;stop-opacity:1" />
    </linearGradient>

    <linearGradient id="pathGrad" gradientUnits="userSpaceOnUse"
      x1="20" y1="160" x2="270" y2="50">
      <stop offset="0%" style="stop-color:#d97706;stop-opacity:0.6" />
      <stop offset="50%" style="stop-color:#f59e0b;stop-opacity:1" />
      <stop offset="100%" style="stop-color:#fbbf24;stop-opacity:1" />
    </linearGradient>

    <filter id="pathGlow" x="-20%" y="-20%" width="140%" height="140%">
      <feGaussianBlur stdDeviation="3" result="blur" />
      <feMerge>
        <feMergeNode in="blur" />
        <feMergeNode in="blur" />
        <feMergeNode in="SourceGraphic" />
      </feMerge>
    </filter>

    <filter id="softGlow" x="-30%" y="-30%" width="160%" height="160%">
      <feGaussianBlur stdDeviation="5" result="blur" />
      <feMerge>
        <feMergeNode in="blur" />
        <feMergeNode in="SourceGraphic" />
      </feMerge>
    </filter>

    <filter id="targetGlow" x="-50%" y="-50%" width="200%" height="200%">
      <feGaussianBlur stdDeviation="6" result="blur" />
      <feMerge>
        <feMergeNode in="blur" />
        <feMergeNode in="blur" />
        <feMergeNode in="SourceGraphic" />
      </feMerge>
    </filter>

    <filter id="iconGlow" x="-30%" y="-30%" width="160%" height="160%">
      <feGaussianBlur stdDeviation="2.5" result="blur" />
      <feMerge>
        <feMergeNode in="blur" />
        <feMergeNode in="SourceGraphic" />
      </feMerge>
    </filter>

    <radialGradient id="targetRadial" cx="50%" cy="50%" r="50%">
      <stop offset="0%" style="stop-color:#fbbf24;stop-opacity:1" />
      <stop offset="40%" style="stop-color:#f59e0b;stop-opacity:0.8" />
      <stop offset="100%" style="stop-color:#d97706;stop-opacity:0" />
    </radialGradient>

    <radialGradient id="dotGrad" cx="50%" cy="50%" r="50%">
      <stop offset="0%" style="stop-color:#fde68a;stop-opacity:1" />
      <stop offset="100%" style="stop-color:#f59e0b;stop-opacity:0.7" />
    </radialGradient>
  </defs>

  <!-- Background -->
  <rect width="300" height="200" fill="url(#bgGrad)" />

  <!-- Topographic contour lines -->
  <g opacity="0.09" stroke="#4ade80" stroke-width="0.6" fill="none">
    <ellipse cx="150" cy="100" rx="130" ry="70" />
    <ellipse cx="150" cy="100" rx="110" ry="56" />
    <ellipse cx="150" cy="100" rx="90" ry="44" />
    <ellipse cx="150" cy="100" rx="70" ry="32" />
    <ellipse cx="150" cy="100" rx="50" ry="22" />
    <ellipse cx="150" cy="100" rx="30" ry="13" />
  </g>
  <g opacity="0.05" stroke="#60a5fa" stroke-width="0.4" fill="none">
    <path d="M0,80 Q75,60 150,90 Q225,120 300,70" />
    <path d="M0,110 Q75,90 150,115 Q225,140 300,100" />
    <path d="M0,140 Q75,120 150,145 Q225,165 300,130" />
    <path d="M0,50 Q75,35 150,60 Q225,85 300,45" />
  </g>

  <!-- Grid dots (circuit board feel) -->
  <g opacity="0.12" fill="#475569">
    <circle cx="30" cy="30" r="1" /><circle cx="60" cy="30" r="1" /><circle cx="90" cy="30" r="1" />
    <circle cx="120" cy="30" r="1" /><circle cx="150" cy="30" r="1" /><circle cx="180" cy="30" r="1" />
    <circle cx="210" cy="30" r="1" /><circle cx="240" cy="30" r="1" /><circle cx="270" cy="30" r="1" />
    <circle cx="30" cy="55" r="1" /><circle cx="60" cy="55" r="1" /><circle cx="90" cy="55" r="1" />
    <circle cx="120" cy="55" r="1" /><circle cx="150" cy="55" r="1" /><circle cx="180" cy="55" r="1" />
    <circle cx="210" cy="55" r="1" /><circle cx="240" cy="55" r="1" /><circle cx="270" cy="55" r="1" />
    <circle cx="30" cy="80" r="1" /><circle cx="60" cy="80" r="1" /><circle cx="90" cy="80" r="1" />
    <circle cx="120" cy="80" r="1" /><circle cx="150" cy="80" r="1" /><circle cx="180" cy="80" r="1" />
    <circle cx="210" cy="80" r="1" /><circle cx="240" cy="80" r="1" /><circle cx="270" cy="80" r="1" />
    <circle cx="30" cy="105" r="1" /><circle cx="60" cy="105" r="1" /><circle cx="90" cy="105" r="1" />
    <circle cx="120" cy="105" r="1" /><circle cx="150" cy="105" r="1" /><circle cx="180" cy="105" r="1" />
    <circle cx="210" cy="105" r="1" /><circle cx="240" cy="105" r="1" /><circle cx="270" cy="105" r="1" />
    <circle cx="30" cy="130" r="1" /><circle cx="60" cy="130" r="1" /><circle cx="90" cy="130" r="1" />
    <circle cx="120" cy="130" r="1" /><circle cx="150" cy="130" r="1" /><circle cx="180" cy="130" r="1" />
    <circle cx="210" cy="130" r="1" /><circle cx="240" cy="130" r="1" /><circle cx="270" cy="130" r="1" />
    <circle cx="30" cy="155" r="1" /><circle cx="60" cy="155" r="1" /><circle cx="90" cy="155" r="1" />
    <circle cx="120" cy="155" r="1" /><circle cx="150" cy="155" r="1" /><circle cx="180" cy="155" r="1" />
    <circle cx="210" cy="155" r="1" /><circle cx="240" cy="155" r="1" /><circle cx="270" cy="155" r="1" />
  </g>

  <!-- Ambient path glow (wide, soft) -->
  <path d="M 22,155 C 40,155 55,130 70,115 C 85,100 95,85 110,78
           C 125,71 135,80 150,90 C 165,100 172,112 185,108
           C 198,104 205,90 220,80 C 235,70 248,58 268,52"
    stroke="#f59e0b" stroke-width="14" fill="none" opacity="0.15" filter="url(#softGlow)" />

  <!-- Main serpentine path — dark border -->
  <path d="M 22,155 C 40,155 55,130 70,115 C 85,100 95,85 110,78
           C 125,71 135,80 150,90 C 165,100 172,112 185,108
           C 198,104 205,90 220,80 C 235,70 248,58 268,52"
    stroke="#92400e" stroke-width="5" fill="none" stroke-linecap="round" />

  <!-- Main serpentine path — bright amber core -->
  <path d="M 22,155 C 40,155 55,130 70,115 C 85,100 95,85 110,78
           C 125,71 135,80 150,90 C 165,100 172,112 185,108
           C 198,104 205,90 220,80 C 235,70 248,58 268,52"
    stroke="url(#pathGrad)" stroke-width="2.5" fill="none" stroke-linecap="round"
    filter="url(#pathGlow)" />

  <!-- Circuit dashes overlay -->
  <path d="M 22,155 C 40,155 55,130 70,115 C 85,100 95,85 110,78
           C 125,71 135,80 150,90 C 165,100 172,112 185,108
           C 198,104 205,90 220,80 C 235,70 248,58 268,52"
    stroke="#fde68a" stroke-width="1.2" fill="none" stroke-linecap="round"
    stroke-dasharray="4 8" opacity="0.7" />

  <!-- Company Icon 1 — Building/Corp (start) -->
  <g transform="translate(13, 138)" filter="url(#iconGlow)">
    <rect x="0" y="0" width="18" height="18" rx="3" fill="#1e293b" stroke="#f59e0b" stroke-width="1.2" opacity="0.9"/>
    <rect x="3" y="8" width="12" height="8" fill="none" stroke="#fbbf24" stroke-width="0.8"/>
    <rect x="6" y="5" width="6" height="11" fill="none" stroke="#fbbf24" stroke-width="0.8"/>
    <rect x="7" y="2" width="4" height="14" fill="none" stroke="#fbbf24" stroke-width="0.8"/>
    <line x1="9" y1="2" x2="9" y2="16" stroke="#fbbf24" stroke-width="0.5" opacity="0.5"/>
    <rect x="5" y="10" width="2" height="2" fill="#f59e0b" opacity="0.8"/>
    <rect x="11" y="10" width="2" height="2" fill="#f59e0b" opacity="0.8"/>
    <rect x="5" y="14" width="2" height="2" fill="#f59e0b" opacity="0.5"/>
    <rect x="11" y="14" width="2" height="2" fill="#f59e0b" opacity="0.5"/>
    <circle cx="9" cy="2" r="1.5" fill="#fbbf24"/>
  </g>

  <!-- Circuit node — point 1 -->
  <circle cx="22" cy="155" r="3.5" fill="url(#dotGrad)" filter="url(#iconGlow)" />
  <circle cx="22" cy="155" r="1.5" fill="#fff8" />

  <!-- Company Icon 2 — Gear/Tech -->
  <g transform="translate(63, 98)" filter="url(#iconGlow)">
    <rect x="0" y="0" width="18" height="18" rx="3" fill="#1e293b" stroke="#f59e0b" stroke-width="1.2" opacity="0.9"/>
    <circle cx="9" cy="9" r="4.5" fill="none" stroke="#fbbf24" stroke-width="1.2"/>
    <circle cx="9" cy="9" r="2" fill="#f59e0b" opacity="0.8"/>
    <line x1="9" y1="3" x2="9" y2="5" stroke="#fbbf24" stroke-width="1.5" stroke-linecap="round"/>
    <line x1="9" y1="13" x2="9" y2="15" stroke="#fbbf24" stroke-width="1.5" stroke-linecap="round"/>
    <line x1="3" y1="9" x2="5" y2="9" stroke="#fbbf24" stroke-width="1.5" stroke-linecap="round"/>
    <line x1="13" y1="9" x2="15" y2="9" stroke="#fbbf24" stroke-width="1.5" stroke-linecap="round"/>
    <line x1="4.9" y1="4.9" x2="6.3" y2="6.3" stroke="#fbbf24" stroke-width="1.2" stroke-linecap="round"/>
    <line x1="11.7" y1="11.7" x2="13.1" y2="13.1" stroke="#fbbf24" stroke-width="1.2" stroke-linecap="round"/>
    <line x1="13.1" y1="4.9" x2="11.7" y2="6.3" stroke="#fbbf24" stroke-width="1.2" stroke-linecap="round"/>
    <line x1="6.3" y1="11.7" x2="4.9" y2="13.1" stroke="#fbbf24" stroke-width="1.2" stroke-linecap="round"/>
  </g>

  <!-- Circuit node — point 2 -->
  <circle cx="70" cy="115" r="3" fill="url(#dotGrad)" filter="url(#iconGlow)" />
  <circle cx="70" cy="115" r="1.2" fill="#fff8" />

  <!-- Company Icon 3 — Network/Graph -->
  <g transform="translate(103, 61)" filter="url(#iconGlow)">
    <rect x="0" y="0" width="18" height="18" rx="3" fill="#1e293b" stroke="#f59e0b" stroke-width="1.2" opacity="0.9"/>
    <circle cx="9" cy="5" r="2" fill="none" stroke="#fbbf24" stroke-width="1"/>
    <circle cx="4" cy="13" r="2" fill="none" stroke="#fbbf24" stroke-width="1"/>
    <circle cx="14" cy="13" r="2" fill="none" stroke="#fbbf24" stroke-width="1"/>
    <line x1="9" y1="7" x2="5" y2="11" stroke="#fbbf24" stroke-width="0.8" opacity="0.8"/>
    <line x1="9" y1="7" x2="13" y2="11" stroke="#fbbf24" stroke-width="0.8" opacity="0.8"/>
    <line x1="6" y1="13" x2="12" y2="13" stroke="#fbbf24" stroke-width="0.8" opacity="0.8"/>
    <circle cx="9" cy="5" r="1" fill="#f59e0b"/>
    <circle cx="4" cy="13" r="1" fill="#f59e0b"/>
    <circle cx="14" cy="13" r="1" fill="#f59e0b"/>
  </g>

  <!-- Circuit node — point 3 -->
  <circle cx="110" cy="78" r="3" fill="url(#dotGrad)" filter="url(#iconGlow)" />
  <circle cx="110" cy="78" r="1.2" fill="#fff8" />

  <!-- Company Icon 4 — Person/Contact -->
  <g transform="translate(143, 82)" filter="url(#iconGlow)">
    <rect x="0" y="0" width="18" height="18" rx="3" fill="#1e293b" stroke="#f59e0b" stroke-width="1.2" opacity="0.9"/>
    <circle cx="9" cy="6" r="3" fill="none" stroke="#fbbf24" stroke-width="1.2"/>
    <path d="M3,16 C3,11 15,11 15,16" fill="none" stroke="#fbbf24" stroke-width="1.2" stroke-linecap="round"/>
    <circle cx="9" cy="6" r="1.5" fill="#f59e0b" opacity="0.7"/>
  </g>

  <!-- Circuit node — point 4 -->
  <circle cx="150" cy="90" r="3.5" fill="url(#dotGrad)" filter="url(#iconGlow)" />
  <circle cx="150" cy="90" r="1.5" fill="#fff8" />

  <!-- Company Icon 5 — Chart/Analytics -->
  <g transform="translate(177, 100)" filter="url(#iconGlow)">
    <rect x="0" y="0" width="18" height="18" rx="3" fill="#1e293b" stroke="#f59e0b" stroke-width="1.2" opacity="0.9"/>
    <rect x="3" y="11" width="3" height="5" fill="#f59e0b" opacity="0.7"/>
    <rect x="7.5" y="7" width="3" height="9" fill="#f59e0b" opacity="0.9"/>
    <rect x="12" y="4" width="3" height="12" fill="#fbbf24"/>
    <line x1="2" y1="16" x2="16" y2="16" stroke="#fbbf24" stroke-width="0.8"/>
    <polyline points="4.5,10 9,6 13.5,3" fill="none" stroke="#fde68a" stroke-width="0.8" opacity="0.6"/>
  </g>

  <!-- Circuit node — point 5 -->
  <circle cx="185" cy="108" r="3" fill="url(#dotGrad)" filter="url(#iconGlow)" />
  <circle cx="185" cy="108" r="1.2" fill="#fff8" />

  <!-- Company Icon 6 — Mail/Outreach -->
  <g transform="translate(213, 62)" filter="url(#iconGlow)">
    <rect x="0" y="0" width="18" height="18" rx="3" fill="#1e293b" stroke="#f59e0b" stroke-width="1.2" opacity="0.9"/>
    <rect x="2" y="5" width="14" height="10" rx="1" fill="none" stroke="#fbbf24" stroke-width="1.1"/>
    <polyline points="2,5 9,11 16,5" fill="none" stroke="#fbbf24" stroke-width="1.1" stroke-linecap="round" stroke-linejoin="round"/>
    <circle cx="13" cy="4" r="1" fill="#fbbf24" opacity="0.9"/>
    <circle cx="15.5" cy="2.5" r="0.8" fill="#fde68a" opacity="0.7"/>
  </g>

  <!-- Circuit node — point 6 -->
  <circle cx="220" cy="80" r="3" fill="url(#dotGrad)" filter="url(#iconGlow)" />
  <circle cx="220" cy="80" r="1.2" fill="#fff8" />

  <!-- TARGET — Glowing bullseye -->
  <circle cx="268" cy="52" r="22" fill="url(#targetRadial)" opacity="0.35" filter="url(#targetGlow)" />
  <circle cx="268" cy="52" r="16" fill="url(#targetRadial)" opacity="0.25" />
  <circle cx="268" cy="52" r="14" fill="none" stroke="#f59e0b" stroke-width="1.2" opacity="0.4" />
  <circle cx="268" cy="52" r="10" fill="none" stroke="#fbbf24" stroke-width="1.5" opacity="0.65" filter="url(#iconGlow)"/>
  <circle cx="268" cy="52" r="6" fill="none" stroke="#fde68a" stroke-width="2" filter="url(#iconGlow)" opacity="0.9"/>
  <circle cx="268" cy="52" r="3.5" fill="#fbbf24" filter="url(#targetGlow)" />
  <circle cx="268" cy="52" r="1.8" fill="#fff" opacity="0.95" />

  <!-- Target crosshairs -->
  <line x1="268" y1="36" x2="268" y2="43" stroke="#f59e0b" stroke-width="1" opacity="0.7" stroke-linecap="round"/>
  <line x1="268" y1="61" x2="268" y2="68" stroke="#f59e0b" stroke-width="1" opacity="0.7" stroke-linecap="round"/>
  <line x1="252" y1="52" x2="259" y2="52" stroke="#f59e0b" stroke-width="1" opacity="0.7" stroke-linecap="round"/>
  <line x1="277" y1="52" x2="284" y2="52" stroke="#f59e0b" stroke-width="1" opacity="0.7" stroke-linecap="round"/>

  <!-- Wordmark -->
  <text x="150" y="183" font-family="'Helvetica Neue', Arial, sans-serif" font-size="13"
    font-weight="700" fill="#f59e0b" text-anchor="middle" letter-spacing="2.5"
    filter="url(#pathGlow)">AGENTIC LEAD GEN</text>

  <line x1="60" y1="189" x2="240" y2="189" stroke="#f59e0b" stroke-width="0.4" opacity="0.4"/>

  <text x="150" y="198" font-family="'Helvetica Neue', Arial, sans-serif" font-size="6.5"
    fill="#92400e" text-anchor="middle" letter-spacing="3" font-weight="400">CIRCUIT SERPENTINE PATH</text>

  <!-- Corner circuit traces -->
  <g stroke="#1e40af" stroke-width="0.5" fill="none" opacity="0.2">
    <path d="M0,0 L15,0 L15,8 L22,8" />
    <path d="M300,0 L285,0 L285,8 L278,8" />
    <path d="M0,200 L15,200 L15,192 L22,192" />
    <path d="M300,200 L285,200 L285,192 L278,192" />
  </g>
  <g fill="#1e40af" opacity="0.3">
    <circle cx="22" cy="8" r="1.5"/>
    <circle cx="278" cy="8" r="1.5"/>
    <circle cx="22" cy="192" r="1.5"/>
    <circle cx="278" cy="192" r="1.5"/>
  </g>
</svg>
