<svg xmlns="http://www.w3.org/2000/svg" viewBox="0 0 300 200" width="300" height="200">
  <defs>
    <!-- Deep space background gradient -->
    <radialGradient id="bgGrad" cx="50%" cy="50%" r="70%">
      <stop offset="0%" stop-color="#0d0020"/>
      <stop offset="60%" stop-color="#06000f"/>
      <stop offset="100%" stop-color="#000005"/>
    </radialGradient>

    <!-- Particle trail gradient A — purple to electric white -->
    <linearGradient id="trailA" x1="0%" y1="0%" x2="100%" y2="0%">
      <stop offset="0%"   stop-color="#1a003a" stop-opacity="0"/>
      <stop offset="20%"  stop-color="#6600cc" stop-opacity="0.6"/>
      <stop offset="45%"  stop-color="#cc44ff" stop-opacity="1"/>
      <stop offset="55%"  stop-color="#ffffff" stop-opacity="1"/>
      <stop offset="80%"  stop-color="#6600cc" stop-opacity="0.6"/>
      <stop offset="100%" stop-color="#1a003a" stop-opacity="0"/>
    </linearGradient>

    <!-- Particle trail gradient B — electric blue to violet -->
    <linearGradient id="trailB" x1="100%" y1="0%" x2="0%" y2="0%">
      <stop offset="0%"   stop-color="#001a3a" stop-opacity="0"/>
      <stop offset="20%"  stop-color="#0044ff" stop-opacity="0.6"/>
      <stop offset="45%"  stop-color="#44aaff" stop-opacity="1"/>
      <stop offset="55%"  stop-color="#ffffff" stop-opacity="1"/>
      <stop offset="80%"  stop-color="#0044ff" stop-opacity="0.6"/>
      <stop offset="100%" stop-color="#001a3a" stop-opacity="0"/>
    </linearGradient>

    <!-- Entanglement glow at center -->
    <radialGradient id="entangleGlow" cx="50%" cy="50%" r="50%">
      <stop offset="0%"  stop-color="#ffffff" stop-opacity="0.9"/>
      <stop offset="25%" stop-color="#dd88ff" stop-opacity="0.6"/>
      <stop offset="60%" stop-color="#6600cc" stop-opacity="0.2"/>
      <stop offset="100%" stop-color="#6600cc" stop-opacity="0"/>
    </radialGradient>

    <!-- Outer node glow purple -->
    <radialGradient id="nodeGlowL" cx="50%" cy="50%" r="50%">
      <stop offset="0%"  stop-color="#ffffff" stop-opacity="1"/>
      <stop offset="30%" stop-color="#cc44ff" stop-opacity="0.8"/>
      <stop offset="70%" stop-color="#6600cc" stop-opacity="0.3"/>
      <stop offset="100%" stop-color="#6600cc" stop-opacity="0"/>
    </radialGradient>

    <!-- Outer node glow blue -->
    <radialGradient id="nodeGlowR" cx="50%" cy="50%" r="50%">
      <stop offset="0%"  stop-color="#ffffff" stop-opacity="1"/>
      <stop offset="30%" stop-color="#44aaff" stop-opacity="0.8"/>
      <stop offset="70%" stop-color="#0044ff" stop-opacity="0.3"/>
      <stop offset="100%" stop-color="#0044ff" stop-opacity="0"/>
    </radialGradient>

    <!-- Text glow filter -->
    <filter id="textGlow" x="-20%" y="-50%" width="140%" height="200%">
      <feGaussianBlur in="SourceGraphic" stdDeviation="2.5" result="blur"/>
      <feMerge>
        <feMergeNode in="blur"/>
        <feMergeNode in="SourceGraphic"/>
      </feMerge>
    </filter>

    <!-- Soft blur for glow halos -->
    <filter id="softGlow" x="-50%" y="-50%" width="200%" height="200%">
      <feGaussianBlur in="SourceGraphic" stdDeviation="5"/>
    </filter>

    <filter id="coreGlow" x="-80%" y="-80%" width="360%" height="360%">
      <feGaussianBlur in="SourceGraphic" stdDeviation="8"/>
    </filter>

    <!-- Clip to viewBox -->
    <clipPath id="bounds">
      <rect width="300" height="200"/>
    </clipPath>
  </defs>

  <!-- Background -->
  <rect width="300" height="200" fill="url(#bgGrad)"/>

  <g clip-path="url(#bounds)">

    <!-- ========== AMBIENT STAR FIELD ========== -->
    <g opacity="0.55">
      <circle cx="14"  cy="18"  r="0.7" fill="#ffffff"/>
      <circle cx="42"  cy="8"   r="0.5" fill="#cc99ff"/>
      <circle cx="78"  cy="22"  r="0.6" fill="#ffffff"/>
      <circle cx="110" cy="12"  r="0.4" fill="#aaaaff"/>
      <circle cx="145" cy="5"   r="0.7" fill="#ffffff"/>
      <circle cx="172" cy="17"  r="0.5" fill="#cc99ff"/>
      <circle cx="205" cy="9"   r="0.6" fill="#ffffff"/>
      <circle cx="240" cy="20"  r="0.4" fill="#aaaaff"/>
      <circle cx="268" cy="7"   r="0.7" fill="#ffffff"/>
      <circle cx="290" cy="15"  r="0.5" fill="#cc99ff"/>
      <circle cx="8"   cy="55"  r="0.5" fill="#ffffff"/>
      <circle cx="30"  cy="70"  r="0.6" fill="#aaaaff"/>
      <circle cx="60"  cy="48"  r="0.4" fill="#cc99ff"/>
      <circle cx="88"  cy="65"  r="0.5" fill="#ffffff"/>
      <circle cx="122" cy="55"  r="0.7" fill="#aaaaff"/>
      <circle cx="180" cy="62"  r="0.5" fill="#ffffff"/>
      <circle cx="215" cy="50"  r="0.4" fill="#cc99ff"/>
      <circle cx="255" cy="68"  r="0.6" fill="#ffffff"/>
      <circle cx="285" cy="55"  r="0.5" fill="#aaaaff"/>
      <circle cx="18"  cy="148" r="0.6" fill="#ffffff"/>
      <circle cx="52"  cy="158" r="0.4" fill="#cc99ff"/>
      <circle cx="85"  cy="145" r="0.5" fill="#aaaaff"/>
      <circle cx="115" cy="162" r="0.7" fill="#ffffff"/>
      <circle cx="185" cy="155" r="0.5" fill="#cc99ff"/>
      <circle cx="220" cy="145" r="0.4" fill="#ffffff"/>
      <circle cx="258" cy="160" r="0.6" fill="#aaaaff"/>
      <circle cx="288" cy="148" r="0.5" fill="#ffffff"/>
      <circle cx="35"  cy="185" r="0.5" fill="#aaaaff"/>
      <circle cx="75"  cy="192" r="0.4" fill="#ffffff"/>
      <circle cx="135" cy="188" r="0.6" fill="#cc99ff"/>
      <circle cx="190" cy="195" r="0.4" fill="#ffffff"/>
      <circle cx="240" cy="188" r="0.5" fill="#aaaaff"/>
      <circle cx="275" cy="192" r="0.6" fill="#ffffff"/>
    </g>

    <!-- ========== SPIRAL TRAIL A — PURPLE (top arc, left→right) ========== -->
    <!-- Composed as a sequence of arcs that spiral inward to center then out -->

    <!-- Glow layer (blurred, thick) -->
    <g filter="url(#softGlow)" opacity="0.55">
      <!-- Upper wave of trail A -->
      <path d="M 28,100
               C 38,72  58,55  80,68
               C 102,81 108,108 120,108
               C 132,108 138,85  150,82
               C 162,79  168,95  180,95
               C 192,95  202,82  220,88
               C 238,94  252,108 272,100"
            fill="none" stroke="#cc44ff" stroke-width="4" stroke-linecap="round"/>
      <!-- Lower wave of trail A -->
      <path d="M 28,100
               C 38,128 58,145  80,132
               C 102,119 108,92  120,92
               C 132,92  138,115 150,118
               C 162,121 168,105 180,105
               C 192,105 202,118 220,112
               C 238,106 252,92  272,100"
            fill="none" stroke="#cc44ff" stroke-width="4" stroke-linecap="round"/>
    </g>

    <!-- Sharp layer trail A upper -->
    <path d="M 28,100
             C 38,72  58,55  80,68
             C 102,81 108,108 120,108
             C 132,108 138,85  150,82
             C 162,79  168,95  180,95
             C 192,95  202,82  220,88
             C 238,94  252,108 272,100"
          fill="none" stroke="url(#trailA)" stroke-width="1.6" stroke-linecap="round" opacity="0.95"/>

    <!-- Sharp layer trail A lower -->
    <path d="M 28,100
             C 38,128 58,145  80,132
             C 102,119 108,92  120,92
             C 132,92  138,115 150,118
             C 162,121 168,105 180,105
             C 192,105 202,118 220,112
             C 238,106 252,92  272,100"
          fill="none" stroke="url(#trailA)" stroke-width="1.6" stroke-linecap="round" opacity="0.95"/>

    <!-- ========== SPIRAL TRAIL B — BLUE (lower arc, right→left, phase-shifted) ========== -->

    <!-- Glow layer -->
    <g filter="url(#softGlow)" opacity="0.5">
      <path d="M 272,100
               C 262,66   242,48  218,62
               C 194,76   190,106 178,106
               C 166,106  160,79  150,76
               C 140,73   134,92  122,92
               C 110,92   100,76  82,82
               C 64,88    48,104  28,100"
            fill="none" stroke="#44aaff" stroke-width="4" stroke-linecap="round"/>
      <path d="M 272,100
               C 262,134  242,152 218,138
               C 194,124  190,94  178,94
               C 166,94   160,121 150,124
               C 140,127  134,108 122,108
               C 110,108  100,124  82,118
               C 64,112   48,96   28,100"
            fill="none" stroke="#44aaff" stroke-width="4" stroke-linecap="round"/>
    </g>

    <!-- Sharp trail B upper -->
    <path d="M 272,100
             C 262,66   242,48  218,62
             C 194,76   190,106 178,106
             C 166,106  160,79  150,76
             C 140,73   134,92  122,92
             C 110,92   100,76  82,82
             C 64,88    48,104  28,100"
          fill="none" stroke="url(#trailB)" stroke-width="1.6" stroke-linecap="round" opacity="0.95"/>

    <!-- Sharp trail B lower -->
    <path d="M 272,100
             C 262,134  242,152 218,138
             C 194,124  190,94  178,94
             C 166,94   160,121 150,124
             C 140,127  134,108 122,108
             C 110,108  100,124  82,118
             C 64,112   48,96   28,100"
          fill="none" stroke="url(#trailB)" stroke-width="1.6" stroke-linecap="round" opacity="0.95"/>

    <!-- ========== ORBITAL RINGS at entanglement nexus (center) ========== -->
    <!-- Faint ellipses suggesting quantum orbital -->
    <ellipse cx="150" cy="100" rx="22" ry="8"
             fill="none" stroke="#cc44ff" stroke-width="0.8" opacity="0.35"
             transform="rotate(-30 150 100)"/>
    <ellipse cx="150" cy="100" rx="22" ry="8"
             fill="none" stroke="#44aaff" stroke-width="0.8" opacity="0.35"
             transform="rotate(30 150 100)"/>
    <ellipse cx="150" cy="100" rx="22" ry="8"
             fill="none" stroke="#ffffff" stroke-width="0.6" opacity="0.2"/>

    <!-- ========== CENTER ENTANGLEMENT NEXUS ========== -->
    <!-- Deep glow halo -->
    <circle cx="150" cy="100" r="22" fill="url(#entangleGlow)" filter="url(#coreGlow)" opacity="0.7"/>
    <!-- Mid halo -->
    <circle cx="150" cy="100" r="10" fill="#cc44ff" opacity="0.18" filter="url(#softGlow)"/>
    <!-- Core bright node -->
    <circle cx="150" cy="100" r="4.5" fill="#ffffff" opacity="0.95"/>
    <!-- Inner ring -->
    <circle cx="150" cy="100" r="7"
            fill="none" stroke="#ffffff" stroke-width="0.8" opacity="0.55"/>
    <!-- Outer ring -->
    <circle cx="150" cy="100" r="14"
            fill="none" stroke="#cc44ff" stroke-width="0.6" stroke-dasharray="3 4" opacity="0.45"/>

    <!-- Cross-hair quantum lines through center -->
    <line x1="135" y1="100" x2="165" y2="100" stroke="#ffffff" stroke-width="0.7" opacity="0.4"/>
    <line x1="150" y1="85"  x2="150" y2="115" stroke="#ffffff" stroke-width="0.7" opacity="0.4"/>
    <line x1="140" y1="90"  x2="160" y2="110" stroke="#ffffff" stroke-width="0.5" opacity="0.25"/>
    <line x1="160" y1="90"  x2="140" y2="110" stroke="#ffffff" stroke-width="0.5" opacity="0.25"/>

    <!-- ========== LEFT QUANTUM NODE (particle A) ========== -->
    <!-- Outer glow -->
    <circle cx="28" cy="100" r="18" fill="url(#nodeGlowL)" filter="url(#softGlow)" opacity="0.6"/>
    <!-- Orbital ring -->
    <ellipse cx="28" cy="100" rx="14" ry="5"
             fill="none" stroke="#cc44ff" stroke-width="0.8" opacity="0.5"
             transform="rotate(-20 28 100)"/>
    <ellipse cx="28" cy="100" rx="14" ry="5"
             fill="none" stroke="#9922ff" stroke-width="0.8" opacity="0.5"
             transform="rotate(20 28 100)"/>
    <!-- Node core -->
    <circle cx="28" cy="100" r="5.5" fill="#ffffff" opacity="0.95"/>
    <circle cx="28" cy="100" r="3"   fill="#ffffff"/>
    <!-- Outer dashed ring -->
    <circle cx="28" cy="100" r="10"
            fill="none" stroke="#cc44ff" stroke-width="0.7" stroke-dasharray="2.5 3" opacity="0.5"/>

    <!-- ========== RIGHT QUANTUM NODE (particle B) ========== -->
    <circle cx="272" cy="100" r="18" fill="url(#nodeGlowR)" filter="url(#softGlow)" opacity="0.6"/>
    <ellipse cx="272" cy="100" rx="14" ry="5"
             fill="none" stroke="#44aaff" stroke-width="0.8" opacity="0.5"
             transform="rotate(-20 272 100)"/>
    <ellipse cx="272" cy="100" rx="14" ry="5"
             fill="none" stroke="#0066ff" stroke-width="0.8" opacity="0.5"
             transform="rotate(20 272 100)"/>
    <circle cx="272" cy="100" r="5.5" fill="#ffffff" opacity="0.95"/>
    <circle cx="272" cy="100" r="3"   fill="#ffffff"/>
    <circle cx="272" cy="100" r="10"
            fill="none" stroke="#44aaff" stroke-width="0.7" stroke-dasharray="2.5 3" opacity="0.5"/>

    <!-- ========== SMALL QUANTUM PARTICLE DOTS along trails ========== -->
    <!-- Trail A particles -->
    <circle cx="80"  cy="68"  r="2.2" fill="#cc44ff" opacity="0.85"/>
    <circle cx="120" cy="108" r="1.8" fill="#dd66ff" opacity="0.8"/>
    <circle cx="180" cy="95"  r="2.0" fill="#cc44ff" opacity="0.85"/>
    <circle cx="220" cy="88"  r="1.8" fill="#dd66ff" opacity="0.8"/>

    <circle cx="80"  cy="132" r="2.2" fill="#cc44ff" opacity="0.85"/>
    <circle cx="120" cy="92"  r="1.8" fill="#dd66ff" opacity="0.8"/>
    <circle cx="180" cy="105" r="2.0" fill="#cc44ff" opacity="0.85"/>
    <circle cx="220" cy="112" r="1.8" fill="#dd66ff" opacity="0.8"/>

    <!-- Trail B particles -->
    <circle cx="218" cy="62"  r="2.2" fill="#44aaff" opacity="0.85"/>
    <circle cx="178" cy="106" r="1.8" fill="#66ccff" opacity="0.8"/>
    <circle cx="122" cy="92"  r="2.0" fill="#44aaff" opacity="0.85"/>
    <circle cx="82"  cy="82"  r="1.8" fill="#66ccff" opacity="0.8"/>

    <circle cx="218" cy="138" r="2.2" fill="#44aaff" opacity="0.85"/>
    <circle cx="178" cy="94"  r="1.8" fill="#66ccff" opacity="0.8"/>
    <circle cx="122" cy="108" r="2.0" fill="#44aaff" opacity="0.85"/>
    <circle cx="82"  cy="118" r="1.8" fill="#66ccff" opacity="0.8"/>

    <!-- ========== TYPOGRAPHY ========== -->
    <!-- "AGENTIC" main wordmark -->
    <text x="150" y="166"
          font-family="'Helvetica Neue', Helvetica, Arial, sans-serif"
          font-size="15"
          font-weight="800"
          letter-spacing="6"
          text-anchor="middle"
          fill="#ffffff"
          filter="url(#textGlow)"
          opacity="0.97">AGENTIC</text>

    <!-- "LEAD GEN" sub-label -->
    <text x="150" y="182"
          font-family="'Helvetica Neue', Helvetica, Arial, sans-serif"
          font-size="8.5"
          font-weight="400"
          letter-spacing="4.5"
          text-anchor="middle"
          fill="#cc88ff"
          opacity="0.82">LEAD  GEN</text>

    <!-- Thin rule lines flanking text -->
    <line x1="48"  y1="159" x2="108" y2="159" stroke="#6600cc" stroke-width="0.6" opacity="0.5"/>
    <line x1="192" y1="159" x2="252" y2="159" stroke="#6600cc" stroke-width="0.6" opacity="0.5"/>

    <!-- Diamond accent at center of rules -->
    <rect x="147" y="156.5" width="6" height="6"
          fill="none" stroke="#cc44ff" stroke-width="0.7" opacity="0.6"
          transform="rotate(45 150 159.5)"/>

  </g>
</svg>
