<svg xmlns="http://www.w3.org/2000/svg" viewBox="0 0 300 200" width="300" height="200">
  <defs>
    <!-- Background gradient -->
    <linearGradient id="bgGrad" x1="0%" y1="0%" x2="0%" y2="100%">
      <stop offset="0%" style="stop-color:#0a0a12;stop-opacity:1"/>
      <stop offset="100%" style="stop-color:#12080f;stop-opacity:1"/>
    </linearGradient>

    <!-- Phoenix body gradient -->
    <linearGradient id="phoenixGrad" x1="50%" y1="100%" x2="50%" y2="0%">
      <stop offset="0%" style="stop-color:#dc2626;stop-opacity:1"/>
      <stop offset="35%" style="stop-color:#ea580c;stop-opacity:1"/>
      <stop offset="65%" style="stop-color:#f97316;stop-opacity:1"/>
      <stop offset="100%" style="stop-color:#fbbf24;stop-opacity:1"/>
    </linearGradient>

    <!-- Wing gradient -->
    <linearGradient id="wingGrad" x1="0%" y1="100%" x2="100%" y2="0%">
      <stop offset="0%" style="stop-color:#991b1b;stop-opacity:1"/>
      <stop offset="50%" style="stop-color:#ea580c;stop-opacity:1"/>
      <stop offset="100%" style="stop-color:#fbbf24;stop-opacity:0.85"/>
    </linearGradient>

    <!-- Wing gradient right -->
    <linearGradient id="wingGradR" x1="100%" y1="100%" x2="0%" y2="0%">
      <stop offset="0%" style="stop-color:#991b1b;stop-opacity:1"/>
      <stop offset="50%" style="stop-color:#ea580c;stop-opacity:1"/>
      <stop offset="100%" style="stop-color:#fbbf24;stop-opacity:0.85"/>
    </linearGradient>

    <!-- Flame base gradient -->
    <linearGradient id="flameGrad" x1="50%" y1="100%" x2="50%" y2="0%">
      <stop offset="0%" style="stop-color:#7f1d1d;stop-opacity:0.9"/>
      <stop offset="60%" style="stop-color:#dc2626;stop-opacity:0.8"/>
      <stop offset="100%" style="stop-color:#f97316;stop-opacity:0.3"/>
    </linearGradient>

    <!-- Data stream glow filter -->
    <filter id="glow" x="-30%" y="-30%" width="160%" height="160%">
      <feGaussianBlur stdDeviation="1.8" result="coloredBlur"/>
      <feMerge>
        <feMergeNode in="coloredBlur"/>
        <feMergeNode in="SourceGraphic"/>
      </feMerge>
    </filter>

    <!-- Body glow -->
    <filter id="bodyGlow" x="-40%" y="-40%" width="180%" height="180%">
      <feGaussianBlur stdDeviation="3" result="coloredBlur"/>
      <feMerge>
        <feMergeNode in="coloredBlur"/>
        <feMergeNode in="SourceGraphic"/>
      </feMerge>
    </filter>

    <!-- Outer radiance -->
    <radialGradient id="radiance" cx="50%" cy="52%" r="38%">
      <stop offset="0%" style="stop-color:#f97316;stop-opacity:0.18"/>
      <stop offset="70%" style="stop-color:#dc2626;stop-opacity:0.07"/>
      <stop offset="100%" style="stop-color:#dc2626;stop-opacity:0"/>
    </radialGradient>

    <!-- Clip for text area -->
    <clipPath id="logoClip">
      <rect x="0" y="0" width="300" height="200"/>
    </clipPath>
  </defs>

  <!-- Background -->
  <rect width="300" height="200" fill="url(#bgGrad)"/>

  <!-- Radiance halo behind phoenix -->
  <ellipse cx="150" cy="104" rx="62" ry="52" fill="url(#radiance)"/>

  <!-- === FLAME BASE === -->
  <!-- Central flame column -->
  <path d="M138 162 Q142 140 140 125 Q148 142 150 155 Q152 142 160 125 Q158 140 162 162 Z"
        fill="url(#flameGrad)" opacity="0.9"/>

  <!-- Left flame tongue -->
  <path d="M128 162 Q130 148 127 138 Q135 150 136 162 Z"
        fill="url(#flameGrad)" opacity="0.75"/>

  <!-- Right flame tongue -->
  <path d="M172 162 Q170 148 173 138 Q165 150 164 162 Z"
        fill="url(#flameGrad)" opacity="0.75"/>

  <!-- Flame base platform -->
  <path d="M118 165 Q134 155 150 158 Q166 155 182 165 L180 170 Q150 162 120 170 Z"
        fill="#7f1d1d" opacity="0.7"/>

  <!-- === DATA STREAM FEATHERS — LEFT WING === -->
  <!-- Wing structure — large left sweep -->
  <path d="M150 120 Q128 108 98 92 Q112 96 118 88 Q104 82 88 70 Q106 76 114 68 Q102 60 90 50 Q108 58 118 52 Q110 44 108 34 Q122 46 126 56 Q130 46 128 36 Q138 52 138 64 Q142 56 140 44 Q148 60 146 74 Q150 70 150 58 Q156 74 152 88 Z"
        fill="url(#wingGrad)" filter="url(#glow)"/>

  <!-- Data stream lines — left feathers -->
  <line x1="130" y1="118" x2="100" y2="95" stroke="#fbbf24" stroke-width="0.7" opacity="0.65" filter="url(#glow)"/>
  <line x1="126" y1="112" x2="92" y2="84" stroke="#f97316" stroke-width="0.55" opacity="0.55" filter="url(#glow)"/>
  <line x1="122" y1="104" x2="96" y2="74" stroke="#fbbf24" stroke-width="0.7" opacity="0.6" filter="url(#glow)"/>
  <line x1="118" y1="95" x2="100" y2="62" stroke="#f97316" stroke-width="0.55" opacity="0.5" filter="url(#glow)"/>
  <line x1="116" y1="86" x2="108" y2="50" stroke="#fbbf24" stroke-width="0.6" opacity="0.55" filter="url(#glow)"/>
  <line x1="122" y1="76" x2="116" y2="42" stroke="#fbbf24" stroke-width="0.5" opacity="0.45" filter="url(#glow)"/>
  <line x1="130" y1="70" x2="126" y2="40" stroke="#f97316" stroke-width="0.5" opacity="0.4" filter="url(#glow)"/>
  <!-- bit stream dots on left feather -->
  <circle cx="106" cy="87" r="0.8" fill="#fbbf24" opacity="0.8"/>
  <circle cx="98" cy="76" r="0.7" fill="#f97316" opacity="0.7"/>
  <circle cx="104" cy="65" r="0.8" fill="#fbbf24" opacity="0.7"/>
  <circle cx="112" cy="54" r="0.7" fill="#fbbf24" opacity="0.65"/>
  <circle cx="120" cy="46" r="0.6" fill="#f97316" opacity="0.6"/>

  <!-- === DATA STREAM FEATHERS — RIGHT WING === -->
  <path d="M150 120 Q172 108 202 92 Q188 96 182 88 Q196 82 212 70 Q194 76 186 68 Q198 60 210 50 Q192 58 182 52 Q190 44 192 34 Q178 46 174 56 Q170 46 172 36 Q162 52 162 64 Q158 56 160 44 Q152 60 154 74 Q150 70 150 58 Q144 74 148 88 Z"
        fill="url(#wingGradR)" filter="url(#glow)"/>

  <!-- Data stream lines — right feathers -->
  <line x1="170" y1="118" x2="200" y2="95" stroke="#fbbf24" stroke-width="0.7" opacity="0.65" filter="url(#glow)"/>
  <line x1="174" y1="112" x2="208" y2="84" stroke="#f97316" stroke-width="0.55" opacity="0.55" filter="url(#glow)"/>
  <line x1="178" y1="104" x2="204" y2="74" stroke="#fbbf24" stroke-width="0.7" opacity="0.6" filter="url(#glow)"/>
  <line x1="182" y1="95" x2="200" y2="62" stroke="#f97316" stroke-width="0.55" opacity="0.5" filter="url(#glow)"/>
  <line x1="184" y1="86" x2="192" y2="50" stroke="#fbbf24" stroke-width="0.6" opacity="0.55" filter="url(#glow)"/>
  <line x1="178" y1="76" x2="184" y2="42" stroke="#fbbf24" stroke-width="0.5" opacity="0.45" filter="url(#glow)"/>
  <line x1="170" y1="70" x2="174" y2="40" stroke="#f97316" stroke-width="0.5" opacity="0.4" filter="url(#glow)"/>
  <!-- bit stream dots on right feather -->
  <circle cx="194" cy="87" r="0.8" fill="#fbbf24" opacity="0.8"/>
  <circle cx="202" cy="76" r="0.7" fill="#f97316" opacity="0.7"/>
  <circle cx="196" cy="65" r="0.8" fill="#fbbf24" opacity="0.7"/>
  <circle cx="188" cy="54" r="0.7" fill="#fbbf24" opacity="0.65"/>
  <circle cx="180" cy="46" r="0.6" fill="#f97316" opacity="0.6"/>

  <!-- === PHOENIX BODY (geometric) === -->
  <g filter="url(#bodyGlow)">
    <!-- Tail feathers (geometric triangles downward) -->
    <polygon points="150,138 144,158 150,148" fill="#ea580c" opacity="0.9"/>
    <polygon points="150,138 156,158 150,148" fill="#dc2626" opacity="0.9"/>
    <polygon points="144,140 136,160 143,150" fill="#b91c1c" opacity="0.7"/>
    <polygon points="156,140 164,160 157,150" fill="#b91c1c" opacity="0.7"/>

    <!-- Body core — pentagon/diamond shape -->
    <polygon points="150,78 162,95 158,120 150,126 142,120 138,95"
             fill="url(#phoenixGrad)" opacity="0.97"/>

    <!-- Body highlight facets -->
    <polygon points="150,78 162,95 150,100" fill="#fbbf24" opacity="0.22"/>
    <polygon points="150,78 138,95 150,100" fill="#f97316" opacity="0.15"/>
    <polygon points="150,100 162,95 158,120 150,114" fill="#ea580c" opacity="0.3"/>
    <polygon points="150,100 138,95 142,120 150,114" fill="#dc2626" opacity="0.28"/>

    <!-- Chest data circuit lines -->
    <line x1="145" y1="100" x2="155" y2="100" stroke="#fbbf24" stroke-width="0.6" opacity="0.6"/>
    <line x1="143" y1="106" x2="157" y2="106" stroke="#fbbf24" stroke-width="0.5" opacity="0.5"/>
    <line x1="144" y1="112" x2="156" y2="112" stroke="#f97316" stroke-width="0.5" opacity="0.45"/>
    <circle cx="150" cy="100" r="1" fill="#fef3c7" opacity="0.8"/>
    <circle cx="145" cy="106" r="0.7" fill="#fbbf24" opacity="0.7"/>
    <circle cx="155" cy="106" r="0.7" fill="#fbbf24" opacity="0.7"/>

    <!-- Neck -->
    <polygon points="148,78 152,78 154,68 146,68" fill="url(#phoenixGrad)" opacity="0.95"/>

    <!-- HEAD — geometric hexagonal -->
    <polygon points="150,52 160,58 160,70 150,76 140,70 140,58"
             fill="url(#phoenixGrad)" opacity="1"/>
    <!-- Head facets -->
    <polygon points="150,52 160,58 150,60" fill="#fef3c7" opacity="0.3"/>
    <polygon points="150,52 140,58 150,60" fill="#fbbf24" opacity="0.2"/>

    <!-- Eye — data node -->
    <circle cx="154" cy="63" r="3.2" fill="#1a0505" opacity="0.95"/>
    <circle cx="154" cy="63" r="2" fill="#fbbf24" opacity="0.9"/>
    <circle cx="154" cy="63" r="1" fill="#fff" opacity="0.95"/>
    <circle cx="146" cy="63" r="3.2" fill="#1a0505" opacity="0.95"/>
    <circle cx="146" cy="63" r="2" fill="#fbbf24" opacity="0.9"/>
    <circle cx="146" cy="63" r="1" fill="#fff" opacity="0.95"/>

    <!-- Beak (geometric triangle) -->
    <polygon points="150,69 145,74 155,74" fill="#f59e0b" opacity="0.95"/>

    <!-- Crown feathers (data stream upward) -->
    <line x1="150" y1="52" x2="150" y2="38" stroke="#fbbf24" stroke-width="1" opacity="0.8" filter="url(#glow)"/>
    <line x1="147" y1="54" x2="143" y2="40" stroke="#f97316" stroke-width="0.8" opacity="0.7" filter="url(#glow)"/>
    <line x1="153" y1="54" x2="157" y2="40" stroke="#f97316" stroke-width="0.8" opacity="0.7" filter="url(#glow)"/>
    <line x1="145" y1="56" x2="138" y2="44" stroke="#ea580c" stroke-width="0.6" opacity="0.55" filter="url(#glow)"/>
    <line x1="155" y1="56" x2="162" y2="44" stroke="#ea580c" stroke-width="0.6" opacity="0.55" filter="url(#glow)"/>
    <!-- Crown tips (diamond nodes) -->
    <polygon points="150,36 152,40 150,38 148,40" fill="#fef3c7" opacity="0.9"/>
    <polygon points="143,38 145,42 143,40 141,42" fill="#fbbf24" opacity="0.8"/>
    <polygon points="157,38 159,42 157,40 155,42" fill="#fbbf24" opacity="0.8"/>
  </g>

  <!-- === DIGITAL PARTICLES / SPARKS === -->
  <g opacity="0.7">
    <circle cx="82" cy="95" r="0.9" fill="#fbbf24" filter="url(#glow)"/>
    <circle cx="75" cy="108" r="0.7" fill="#f97316"/>
    <circle cx="88" cy="118" r="1" fill="#fbbf24" filter="url(#glow)"/>
    <circle cx="218" cy="95" r="0.9" fill="#fbbf24" filter="url(#glow)"/>
    <circle cx="225" cy="108" r="0.7" fill="#f97316"/>
    <circle cx="212" cy="118" r="1" fill="#fbbf24" filter="url(#glow)"/>
    <circle cx="130" cy="44" r="0.7" fill="#fbbf24"/>
    <circle cx="170" cy="44" r="0.7" fill="#fbbf24"/>
    <circle cx="115" cy="60" r="0.6" fill="#f97316"/>
    <circle cx="185" cy="60" r="0.6" fill="#f97316"/>
  </g>

  <!-- === TEXT === -->
  <!-- "AGENTIC" — main brand word -->
  <text x="150" y="180"
        font-family="'Arial', 'Helvetica Neue', sans-serif"
        font-size="13"
        font-weight="800"
        letter-spacing="5"
        text-anchor="middle"
        fill="url(#phoenixGrad)"
        filter="url(#glow)">AGENTIC</text>

  <!-- "LEAD GEN" — subtitle -->
  <text x="150" y="194"
        font-family="'Arial', 'Helvetica Neue', sans-serif"
        font-size="7.5"
        font-weight="400"
        letter-spacing="4"
        text-anchor="middle"
        fill="#9ca3af"
        opacity="0.85">LEAD  GEN</text>

  <!-- Thin separating line above text -->
  <line x1="100" y1="172" x2="200" y2="172" stroke="#ea580c" stroke-width="0.4" opacity="0.5"/>
</svg>
