<svg xmlns="http://www.w3.org/2000/svg" viewBox="0 0 300 200" width="300" height="200">
  <defs>
    <linearGradient id="goldGrad" x1="0%" y1="0%" x2="100%" y2="0%">
      <stop offset="0%" style="stop-color:#B8860B;stop-opacity:1" />
      <stop offset="50%" style="stop-color:#FFD700;stop-opacity:1" />
      <stop offset="100%" style="stop-color:#B8860B;stop-opacity:1" />
    </linearGradient>
    <linearGradient id="shaftGrad" x1="0%" y1="0%" x2="0%" y2="100%">
      <stop offset="0%" style="stop-color:#2D5A27;stop-opacity:1" />
      <stop offset="100%" style="stop-color:#1A3A16;stop-opacity:1" />
    </linearGradient>
    <linearGradient id="quiverGrad" x1="0%" y1="0%" x2="0%" y2="100%">
      <stop offset="0%" style="stop-color:#2D5A27;stop-opacity:1" />
      <stop offset="100%" style="stop-color:#0F2210;stop-opacity:1" />
    </linearGradient>
    <linearGradient id="bgGrad" x1="0%" y1="0%" x2="100%" y2="100%">
      <stop offset="0%" style="stop-color:#0A1A08;stop-opacity:1" />
      <stop offset="100%" style="stop-color:#142810;stop-opacity:1" />
    </linearGradient>
    <filter id="goldGlow">
      <feGaussianBlur stdDeviation="1.5" result="blur" />
      <feComposite in="SourceGraphic" in2="blur" operator="over" />
    </filter>
    <filter id="shadow">
      <feDropShadow dx="1" dy="2" stdDeviation="2" flood-color="#000000" flood-opacity="0.4" />
    </filter>
  </defs>

  <!-- Background shield/crest shape -->
  <path d="M150 8 L270 45 L270 120 Q270 175 150 195 Q30 175 30 120 L30 45 Z"
        fill="url(#bgGrad)" stroke="url(#goldGrad)" stroke-width="2.5" filter="url(#shadow)" />

  <!-- Inner shield border -->
  <path d="M150 18 L258 50 L258 118 Q258 166 150 184 Q42 166 42 118 L42 50 Z"
        fill="none" stroke="url(#goldGrad)" stroke-width="1" opacity="0.5" />

  <!-- Quiver body (cylindrical container, center-left) -->
  <rect x="108" y="70" width="22" height="62" rx="5" ry="5"
        fill="url(#quiverGrad)" stroke="url(#goldGrad)" stroke-width="1.2" />

  <!-- Quiver cap / top band -->
  <rect x="105" y="67" width="28" height="9" rx="4" ry="4"
        fill="url(#goldGrad)" opacity="0.9" />

  <!-- Quiver bottom band -->
  <rect x="105" y="122" width="28" height="8" rx="3" ry="3"
        fill="url(#goldGrad)" opacity="0.9" />

  <!-- Quiver decorative middle band -->
  <rect x="106" y="93" width="26" height="5" rx="2" ry="2"
        fill="url(#goldGrad)" opacity="0.7" />

  <!-- Quiver diagonal strap -->
  <line x1="108" y1="76" x2="130" y2="128"
        stroke="url(#goldGrad)" stroke-width="1.5" opacity="0.6" />

  <!-- Arrow 1 — center, straight up, slightly protruding from quiver -->
  <!-- Shaft -->
  <line x1="119" y1="20" x2="119" y2="72"
        stroke="url(#shaftGrad)" stroke-width="3" stroke-linecap="round" />
  <!-- Fletching -->
  <polygon points="119,72 113,88 119,84 125,88"
           fill="#1A3A16" stroke="url(#goldGrad)" stroke-width="0.8" opacity="0.9" />
  <!-- Arrowhead -->
  <polygon points="119,20 113,36 119,30 125,36"
           fill="url(#goldGrad)" filter="url(#goldGlow)" />

  <!-- Arrow 2 — left, angled slightly left -->
  <line x1="107" y1="24" x2="112" y2="72"
        stroke="url(#shaftGrad)" stroke-width="2.5" stroke-linecap="round" />
  <polygon points="107,24 100,40 107,34 113,39"
           fill="url(#goldGrad)" filter="url(#goldGlow)" />
  <polygon points="113,73 107,88 112,83 119,86"
           fill="#1A3A16" stroke="url(#goldGrad)" stroke-width="0.7" opacity="0.85" />

  <!-- Arrow 3 — right, angled slightly right -->
  <line x1="131" y1="24" x2="126" y2="72"
        stroke="url(#shaftGrad)" stroke-width="2.5" stroke-linecap="round" />
  <polygon points="131,24 125,40 131,34 138,39"
           fill="url(#goldGrad)" filter="url(#goldGlow)" />
  <polygon points="125,73 120,86 126,83 132,88"
           fill="#1A3A16" stroke="url(#goldGrad)" stroke-width="0.7" opacity="0.85" />

  <!-- Arrow 4 — far left, wider angle -->
  <line x1="96" y1="30" x2="106" y2="72"
        stroke="url(#shaftGrad)" stroke-width="2" stroke-linecap="round" />
  <polygon points="96,30 88,46 96,40 103,44"
           fill="url(#goldGrad)" filter="url(#goldGlow)" />

  <!-- Arrow 5 — far right, wider angle -->
  <line x1="142" y1="30" x2="132" y2="72"
        stroke="url(#shaftGrad)" stroke-width="2" stroke-linecap="round" />
  <polygon points="142,30 136,46 142,40 149,44"
           fill="url(#goldGrad)" filter="url(#goldGlow)" />

  <!-- Decorative gold stars / dots on shield -->
  <circle cx="72" cy="90" r="3" fill="url(#goldGrad)" opacity="0.7" />
  <circle cx="228" cy="90" r="3" fill="url(#goldGrad)" opacity="0.7" />
  <circle cx="72" cy="130" r="2" fill="url(#goldGrad)" opacity="0.5" />
  <circle cx="228" cy="130" r="2" fill="url(#goldGrad)" opacity="0.5" />

  <!-- Heraldic laurel hints — left -->
  <path d="M55 108 Q48 98 52 88 Q58 100 55 108 Z" fill="#2D5A27" opacity="0.8" />
  <path d="M55 108 Q45 105 44 95 Q53 103 55 108 Z" fill="#2D5A27" opacity="0.8" />
  <path d="M55 108 Q46 114 46 124 Q54 115 55 108 Z" fill="#2D5A27" opacity="0.8" />
  <path d="M55 108 Q49 118 52 128 Q58 116 55 108 Z" fill="#2D5A27" opacity="0.8" />
  <line x1="55" y1="85" x2="55" y2="130" stroke="#2D5A27" stroke-width="1.5" />

  <!-- Heraldic laurel hints — right -->
  <path d="M245 108 Q252 98 248 88 Q242 100 245 108 Z" fill="#2D5A27" opacity="0.8" />
  <path d="M245 108 Q255 105 256 95 Q247 103 245 108 Z" fill="#2D5A27" opacity="0.8" />
  <path d="M245 108 Q254 114 254 124 Q246 115 245 108 Z" fill="#2D5A27" opacity="0.8" />
  <path d="M245 108 Q251 118 248 128 Q242 116 245 108 Z" fill="#2D5A27" opacity="0.8" />
  <line x1="245" y1="85" x2="245" y2="130" stroke="#2D5A27" stroke-width="1.5" />

  <!-- Brand name -->
  <text x="150" y="156"
        font-family="Georgia, 'Times New Roman', serif"
        font-size="13"
        font-weight="bold"
        fill="url(#goldGrad)"
        text-anchor="middle"
        letter-spacing="3">AGENTIC</text>

  <text x="150" y="172"
        font-family="Georgia, 'Times New Roman', serif"
        font-size="10"
        fill="#A8C4A0"
        text-anchor="middle"
        letter-spacing="4">LEAD  GEN</text>

  <!-- Bottom divider line -->
  <line x1="95" y1="162" x2="205" y2="162"
        stroke="url(#goldGrad)" stroke-width="0.8" opacity="0.6" />

  <!-- Small diamond ornaments on divider -->
  <polygon points="150,157 153,160 150,163 147,160" fill="url(#goldGrad)" opacity="0.9" />
  <polygon points="100,162 103,159 100,156 97,159" fill="url(#goldGrad)" opacity="0.5" />
  <polygon points="200,162 203,159 200,156 197,159" fill="url(#goldGrad)" opacity="0.5" />
</svg>
