<svg xmlns="http://www.w3.org/2000/svg" viewBox="0 0 300 200" width="300" height="200">
  <defs>
    <linearGradient id="crownGrad" x1="0%" y1="0%" x2="100%" y2="100%">
      <stop offset="0%" style="stop-color:#7B2FBE;stop-opacity:1" />
      <stop offset="100%" style="stop-color:#5B1F8E;stop-opacity:1" />
    </linearGradient>
    <linearGradient id="goldGrad" x1="0%" y1="0%" x2="100%" y2="100%">
      <stop offset="0%" style="stop-color:#F0C040;stop-opacity:1" />
      <stop offset="100%" style="stop-color:#C89020;stop-opacity:1" />
    </linearGradient>
    <linearGradient id="nodeGrad" x1="0%" y1="0%" x2="100%" y2="100%">
      <stop offset="0%" style="stop-color:#FFD966;stop-opacity:1" />
      <stop offset="100%" style="stop-color:#C8950A;stop-opacity:1" />
    </linearGradient>
    <filter id="nodeglow">
      <feGaussianBlur stdDeviation="2" result="coloredBlur"/>
      <feMerge>
        <feMergeNode in="coloredBlur"/>
        <feMergeNode in="SourceGraphic"/>
      </feMerge>
    </filter>
  </defs>

  <!-- Crown body fill -->
  <polygon points="88,98 88,64 106,76 124,52 124,76 150,46 176,76 176,52 194,76 212,64 212,98"
           fill="url(#crownGrad)" />

  <!-- Crown outline stroke -->
  <polygon points="88,98 88,64 106,76 124,52 124,76 150,46 176,76 176,52 194,76 212,64 212,98"
           fill="none" stroke="url(#goldGrad)" stroke-width="1.2" stroke-linejoin="round" />

  <!-- Crown base band -->
  <rect x="88" y="86" width="124" height="12" rx="2" fill="url(#crownGrad)" />

  <!-- Connector lines (data network edges) -->
  <line x1="88" y1="64" x2="124" y2="52" stroke="url(#goldGrad)" stroke-width="0.8" opacity="0.6"/>
  <line x1="124" y1="52" x2="150" y2="46" stroke="url(#goldGrad)" stroke-width="0.8" opacity="0.6"/>
  <line x1="150" y1="46" x2="176" y2="52" stroke="url(#goldGrad)" stroke-width="0.8" opacity="0.6"/>
  <line x1="176" y1="52" x2="212" y2="64" stroke="url(#goldGrad)" stroke-width="0.8" opacity="0.6"/>
  <line x1="106" y1="76" x2="124" y2="52" stroke="url(#goldGrad)" stroke-width="0.7" opacity="0.5"/>
  <line x1="106" y1="76" x2="88" y2="64" stroke="url(#goldGrad)" stroke-width="0.7" opacity="0.5"/>
  <line x1="194" y1="76" x2="176" y2="52" stroke="url(#goldGrad)" stroke-width="0.7" opacity="0.5"/>
  <line x1="194" y1="76" x2="212" y2="64" stroke="url(#goldGrad)" stroke-width="0.7" opacity="0.5"/>
  <line x1="124" y1="76" x2="150" y2="46" stroke="url(#goldGrad)" stroke-width="0.7" opacity="0.4"/>
  <line x1="176" y1="76" x2="150" y2="46" stroke="url(#goldGrad)" stroke-width="0.7" opacity="0.4"/>

  <!-- Data node dots at crown points -->
  <circle cx="88" cy="64" r="4" fill="url(#nodeGrad)" filter="url(#nodeglow)"/>
  <circle cx="88" cy="64" r="2" fill="#FFE082"/>

  <circle cx="106" cy="76" r="3.5" fill="url(#nodeGrad)" filter="url(#nodeglow)"/>
  <circle cx="106" cy="76" r="1.8" fill="#FFE082"/>

  <circle cx="124" cy="52" r="4.5" fill="url(#nodeGrad)" filter="url(#nodeglow)"/>
  <circle cx="124" cy="52" r="2.2" fill="#FFFDE7"/>

  <circle cx="124" cy="76" r="3" fill="url(#nodeGrad)" filter="url(#nodeglow)"/>
  <circle cx="124" cy="76" r="1.5" fill="#FFE082"/>

  <circle cx="150" cy="46" r="5.5" fill="url(#nodeGrad)" filter="url(#nodeglow)"/>
  <circle cx="150" cy="46" r="2.8" fill="#FFFDE7"/>

  <circle cx="176" cy="76" r="3" fill="url(#nodeGrad)" filter="url(#nodeglow)"/>
  <circle cx="176" cy="76" r="1.5" fill="#FFE082"/>

  <circle cx="176" cy="52" r="4.5" fill="url(#nodeGrad)" filter="url(#nodeglow)"/>
  <circle cx="176" cy="52" r="2.2" fill="#FFFDE7"/>

  <circle cx="194" cy="76" r="3.5" fill="url(#nodeGrad)" filter="url(#nodeglow)"/>
  <circle cx="194" cy="76" r="1.8" fill="#FFE082"/>

  <circle cx="212" cy="64" r="4" fill="url(#nodeGrad)" filter="url(#nodeglow)"/>
  <circle cx="212" cy="64" r="2" fill="#FFE082"/>

  <!-- Gold accent line below crown base -->
  <rect x="88" y="98" width="124" height="2" rx="1" fill="url(#goldGrad)" opacity="0.9"/>

  <!-- Thin decorative rule above wordmark -->
  <line x1="106" y1="116" x2="194" y2="116" stroke="url(#goldGrad)" stroke-width="0.6" opacity="0.7"/>

  <!-- Wordmark: AGENTIC LEAD GEN -->
  <text
    x="150"
    y="134"
    text-anchor="middle"
    font-family="Georgia, 'Times New Roman', serif"
    font-size="14.5"
    font-weight="700"
    letter-spacing="4"
    fill="#4A1080"
  >AGENTIC</text>

  <text
    x="150"
    y="151"
    text-anchor="middle"
    font-family="Georgia, 'Times New Roman', serif"
    font-size="14.5"
    font-weight="700"
    letter-spacing="4"
    fill="#4A1080"
  >LEAD GEN</text>

  <!-- Gold underline rule below wordmark -->
  <line x1="100" y1="158" x2="200" y2="158" stroke="url(#goldGrad)" stroke-width="0.8" opacity="0.8"/>

  <!-- Tagline -->
  <text
    x="150"
    y="171"
    text-anchor="middle"
    font-family="Georgia, 'Times New Roman', serif"
    font-size="6.5"
    font-weight="400"
    letter-spacing="2.5"
    fill="#9B59B6"
    opacity="0.85"
  >PRECISION INTELLIGENCE</text>
</svg>
