<svg xmlns="http://www.w3.org/2000/svg" viewBox="0 0 300 200" width="300" height="200">
  <defs>
    <!-- Main flame gradient: deep orange base to yellow-white tip -->
    <linearGradient id="flameGrad" x1="0.5" y1="1" x2="0.5" y2="0">
      <stop offset="0%" stop-color="#C2300A"/>
      <stop offset="30%" stop-color="#F05A1A"/>
      <stop offset="60%" stop-color="#FFAA00"/>
      <stop offset="85%" stop-color="#FFE840"/>
      <stop offset="100%" stop-color="#FFFFF0"/>
    </linearGradient>
    <!-- Inner flame gradient -->
    <linearGradient id="innerFlameGrad" x1="0.5" y1="1" x2="0.5" y2="0">
      <stop offset="0%" stop-color="#FF5500"/>
      <stop offset="40%" stop-color="#FFCC00"/>
      <stop offset="100%" stop-color="#FFFFFF" stop-opacity="0.95"/>
    </linearGradient>
    <!-- Spark/glow gradient -->
    <radialGradient id="glowGrad" cx="50%" cy="50%" r="50%">
      <stop offset="0%" stop-color="#FF8800" stop-opacity="0.35"/>
      <stop offset="100%" stop-color="#FF4400" stop-opacity="0"/>
    </radialGradient>
    <!-- Text gradient -->
    <linearGradient id="textGrad" x1="0" y1="0" x2="1" y2="0">
      <stop offset="0%" stop-color="#FF8C42"/>
      <stop offset="50%" stop-color="#FFD166"/>
      <stop offset="100%" stop-color="#FF6B35"/>
    </linearGradient>
    <!-- Sub-text gradient -->
    <linearGradient id="subTextGrad" x1="0" y1="0" x2="1" y2="0">
      <stop offset="0%" stop-color="#FFAA55"/>
      <stop offset="100%" stop-color="#FF7722"/>
    </linearGradient>
    <!-- Clip for flame glow -->
    <filter id="flameShadow" x="-30%" y="-30%" width="160%" height="160%">
      <feGaussianBlur stdDeviation="4" result="blur"/>
      <feMerge>
        <feMergeNode in="blur"/>
        <feMergeNode in="SourceGraphic"/>
      </feMerge>
    </filter>
    <filter id="sparkGlow" x="-60%" y="-60%" width="220%" height="220%">
      <feGaussianBlur stdDeviation="2.5" result="blur"/>
      <feMerge>
        <feMergeNode in="blur"/>
        <feMergeNode in="SourceGraphic"/>
      </feMerge>
    </filter>
  </defs>

  <!-- Dark background -->
  <rect width="300" height="200" fill="#0A0A0F"/>

  <!-- Subtle radial glow behind flame -->
  <ellipse cx="62" cy="130" rx="38" ry="38" fill="url(#glowGrad)"/>

  <!-- Outer flame body — bold geometric shape -->
  <path d="
    M 62 148
    C 44 148 34 132 38 112
    C 41 96  48 88  44 70
    C 42 58  48 46  54 40
    C 52 56  58 62  64 58
    C 62 50  66 38  74 28
    C 76 44  70 56  72 66
    C 76 58  82 52  84 42
    C 90 58  86 72  80 88
    C 88 78  94 72  96 62
    C 98 80  92 96  84 108
    C 90 100 96 108 94 122
    C 92 138 80 148 62 148
    Z
  " fill="url(#flameGrad)" filter="url(#flameShadow)"/>

  <!-- Inner flame — brighter core -->
  <path d="
    M 62 142
    C 50 142 44 130 48 116
    C 50 104 56 96  54 82
    C 52 72  56 62  62 56
    C 62 68  66 74  70 70
    C 68 60  72 50  78 44
    C 80 58  76 68  78 78
    C 82 68  86 62  88 54
    C 90 68  86 80  80 92
    C 86 84  90 90  88 104
    C 86 120 76 142 62 142
    Z
  " fill="url(#innerFlameGrad)" opacity="0.92" filter="url(#flameShadow)"/>

  <!-- Highlight streak — left lean -->
  <path d="
    M 62 134
    C 56 120 54 102 58 84
    C 60 96  62 108 64 118
    C 64 128 63 134 62 134
    Z
  " fill="white" opacity="0.22"/>

  <!-- Spark particles -->
  <!-- Top spark — largest, brightest -->
  <circle cx="74" cy="22" r="2.8" fill="#FFF5AA" opacity="0.95" filter="url(#sparkGlow)"/>
  <!-- Upper right spark -->
  <circle cx="96" cy="46" r="1.8" fill="#FFDD55" opacity="0.85" filter="url(#sparkGlow)"/>
  <!-- Upper left spark -->
  <circle cx="44" cy="52" r="1.5" fill="#FFB830" opacity="0.8" filter="url(#sparkGlow)"/>
  <!-- Mid right spark -->
  <circle cx="100" cy="76" r="1.3" fill="#FF9933" opacity="0.7"/>
  <!-- Mid left spark -->
  <circle cx="36" cy="86" r="1.1" fill="#FF8822" opacity="0.65"/>
  <!-- Tiny top-right spark -->
  <circle cx="88" cy="30" r="1.0" fill="#FFFFFF" opacity="0.75"/>
  <!-- Tiny top-left spark -->
  <circle cx="52" cy="30" r="0.9" fill="#FFE566" opacity="0.7"/>

  <!-- Spark streaks — geometric dashes flying upward -->
  <line x1="78" y1="35" x2="83" y2="24" stroke="#FFEE88" stroke-width="1.2" stroke-linecap="round" opacity="0.7"/>
  <line x1="92" y1="55" x2="99" y2="44" stroke="#FFBB44" stroke-width="1.0" stroke-linecap="round" opacity="0.6"/>
  <line x1="42" y1="64" x2="36" y2="53" stroke="#FF9944" stroke-width="0.9" stroke-linecap="round" opacity="0.55"/>

  <!-- Tagline: "AGENTIC LEAD GEN" -->
  <text
    x="152"
    y="102"
    font-family="'Arial Black', 'Helvetica Neue', Arial, sans-serif"
    font-size="18"
    font-weight="900"
    letter-spacing="1.5"
    text-anchor="middle"
    fill="url(#textGrad)"
  >AGENTIC</text>

  <text
    x="152"
    y="124"
    font-family="'Arial Black', 'Helvetica Neue', Arial, sans-serif"
    font-size="18"
    font-weight="900"
    letter-spacing="1.5"
    text-anchor="middle"
    fill="url(#textGrad)"
  >LEAD GEN</text>

  <!-- Divider line -->
  <line x1="112" y1="131" x2="192" y2="131" stroke="#FF7722" stroke-width="1.2" opacity="0.6"/>

  <!-- Sub-tagline -->
  <text
    x="152"
    y="145"
    font-family="'Arial', 'Helvetica Neue', sans-serif"
    font-size="7.5"
    font-weight="400"
    letter-spacing="3.5"
    text-anchor="middle"
    fill="url(#subTextGrad)"
    opacity="0.85"
  >IGNITE  &bull;  SPARK  &bull;  LAUNCH</text>

  <!-- Bottom accent dots -->
  <circle cx="116" cy="158" r="1.5" fill="#FF7722" opacity="0.5"/>
  <circle cx="152" cy="158" r="1.5" fill="#FFB833" opacity="0.5"/>
  <circle cx="188" cy="158" r="1.5" fill="#FF7722" opacity="0.5"/>
</svg>
