<svg xmlns="http://www.w3.org/2000/svg" viewBox="0 0 300 200" width="300" height="200">
  <defs>
    <!-- Deep space background gradient -->
    <radialGradient id="spaceBg" cx="30%" cy="40%" r="70%">
      <stop offset="0%" stop-color="#0a0a1a"/>
      <stop offset="100%" stop-color="#000005"/>
    </radialGradient>

    <!-- Comet core glow -->
    <radialGradient id="cometCore" cx="50%" cy="50%" r="50%">
      <stop offset="0%" stop-color="#ffffff" stop-opacity="1"/>
      <stop offset="30%" stop-color="#e8f4ff" stop-opacity="0.95"/>
      <stop offset="70%" stop-color="#7ec8ff" stop-opacity="0.6"/>
      <stop offset="100%" stop-color="#4a90ff" stop-opacity="0"/>
    </radialGradient>

    <!-- Tail gradient: white core → blue → purple → transparent -->
    <linearGradient id="tailGrad" x1="100%" y1="0%" x2="0%" y2="0%">
      <stop offset="0%" stop-color="#ffffff" stop-opacity="1"/>
      <stop offset="8%" stop-color="#a8d8ff" stop-opacity="0.95"/>
      <stop offset="25%" stop-color="#5b9fff" stop-opacity="0.8"/>
      <stop offset="50%" stop-color="#7c4dff" stop-opacity="0.55"/>
      <stop offset="75%" stop-color="#5c1e9e" stop-opacity="0.25"/>
      <stop offset="100%" stop-color="#2a0060" stop-opacity="0"/>
    </linearGradient>

    <!-- Secondary tail -->
    <linearGradient id="tailGrad2" x1="100%" y1="0%" x2="0%" y2="0%">
      <stop offset="0%" stop-color="#c8e8ff" stop-opacity="0.7"/>
      <stop offset="30%" stop-color="#6b6bff" stop-opacity="0.4"/>
      <stop offset="70%" stop-color="#9b40ff" stop-opacity="0.15"/>
      <stop offset="100%" stop-color="#4a0080" stop-opacity="0"/>
    </linearGradient>

    <!-- Particle glow filter -->
    <filter id="glow" x="-50%" y="-50%" width="200%" height="200%">
      <feGaussianBlur stdDeviation="1.5" result="blur"/>
      <feMerge>
        <feMergeNode in="blur"/>
        <feMergeNode in="SourceGraphic"/>
      </feMerge>
    </filter>

    <!-- Strong core glow -->
    <filter id="coreGlow" x="-100%" y="-100%" width="300%" height="300%">
      <feGaussianBlur stdDeviation="4" result="blur1"/>
      <feGaussianBlur stdDeviation="8" in="SourceGraphic" result="blur2"/>
      <feMerge>
        <feMergeNode in="blur2"/>
        <feMergeNode in="blur1"/>
        <feMergeNode in="SourceGraphic"/>
      </feMerge>
    </filter>

    <!-- Soft text glow -->
    <filter id="textGlow" x="-20%" y="-50%" width="140%" height="200%">
      <feGaussianBlur stdDeviation="2" result="blur"/>
      <feMerge>
        <feMergeNode in="blur"/>
        <feMergeNode in="SourceGraphic"/>
      </feMerge>
    </filter>

    <!-- Clip for comet area -->
    <clipPath id="cometClip">
      <rect x="0" y="0" width="300" height="200"/>
    </clipPath>
  </defs>

  <!-- Background -->
  <rect width="300" height="200" fill="url(#spaceBg)"/>

  <!-- Subtle star field -->
  <g opacity="0.6">
    <circle cx="15" cy="12" r="0.5" fill="#fff" opacity="0.8"/>
    <circle cx="42" cy="28" r="0.4" fill="#c8d8ff" opacity="0.6"/>
    <circle cx="78" cy="8" r="0.6" fill="#fff" opacity="0.9"/>
    <circle cx="110" cy="18" r="0.3" fill="#fff" opacity="0.5"/>
    <circle cx="145" cy="6" r="0.5" fill="#d0e8ff" opacity="0.7"/>
    <circle cx="178" cy="22" r="0.4" fill="#fff" opacity="0.6"/>
    <circle cx="210" cy="10" r="0.5" fill="#fff" opacity="0.8"/>
    <circle cx="245" cy="30" r="0.3" fill="#c0d0ff" opacity="0.5"/>
    <circle cx="280" cy="15" r="0.4" fill="#fff" opacity="0.7"/>
    <circle cx="290" cy="45" r="0.5" fill="#fff" opacity="0.4"/>
    <circle cx="8" cy="55" r="0.4" fill="#fff" opacity="0.5"/>
    <circle cx="35" cy="68" r="0.3" fill="#d8e8ff" opacity="0.6"/>
    <circle cx="62" cy="50" r="0.5" fill="#fff" opacity="0.7"/>
    <circle cx="25" cy="88" r="0.4" fill="#fff" opacity="0.4"/>
    <circle cx="295" cy="80" r="0.3" fill="#fff" opacity="0.6"/>
    <circle cx="265" cy="62" r="0.5" fill="#c8e0ff" opacity="0.5"/>
    <circle cx="12" cy="130" r="0.4" fill="#fff" opacity="0.5"/>
    <circle cx="40" cy="148" r="0.3" fill="#fff" opacity="0.4"/>
    <circle cx="285" cy="130" r="0.4" fill="#d0d8ff" opacity="0.6"/>
    <circle cx="270" cy="155" r="0.5" fill="#fff" opacity="0.5"/>
    <circle cx="18" cy="170" r="0.3" fill="#fff" opacity="0.4"/>
    <circle cx="52" cy="185" r="0.4" fill="#c8d4ff" opacity="0.5"/>
    <circle cx="92" cy="175" r="0.3" fill="#fff" opacity="0.6"/>
    <circle cx="130" cy="188" r="0.5" fill="#fff" opacity="0.4"/>
    <circle cx="165" cy="178" r="0.3" fill="#d8e4ff" opacity="0.5"/>
    <circle cx="200" cy="190" r="0.4" fill="#fff" opacity="0.6"/>
    <circle cx="240" cy="182" r="0.3" fill="#fff" opacity="0.4"/>
    <circle cx="275" cy="192" r="0.5" fill="#c0ccff" opacity="0.5"/>
  </g>

  <!-- Comet trajectory: from top-left to center-right, angled ~20deg -->
  <!-- Comet core position: ~230, 78 -->

  <!-- === TAIL SYSTEM === -->
  <g clip-path="url(#cometClip)">

    <!-- Main tail body - wide sweep -->
    <path d="M 230 78 C 180 82, 120 90, 60 108 C 30 117, 5 125, -10 132"
          fill="none"
          stroke="url(#tailGrad)"
          stroke-width="18"
          stroke-linecap="round"
          opacity="0.5"/>

    <!-- Main tail body - medium -->
    <path d="M 230 78 C 180 81, 118 88, 55 105 C 25 113, 0 120, -15 127"
          fill="none"
          stroke="url(#tailGrad)"
          stroke-width="10"
          stroke-linecap="round"
          opacity="0.8"/>

    <!-- Core tail - tight bright -->
    <path d="M 230 78 C 185 79, 130 84, 75 98 C 45 106, 15 113, -5 119"
          fill="none"
          stroke="url(#tailGrad)"
          stroke-width="4"
          stroke-linecap="round"
          opacity="1"/>

    <!-- Secondary tail - upper wisp -->
    <path d="M 228 75 C 190 72, 140 71, 85 78 C 55 82, 25 86, 0 88"
          fill="none"
          stroke="url(#tailGrad2)"
          stroke-width="5"
          stroke-linecap="round"
          opacity="0.6"/>

    <!-- Secondary tail - lower wisp -->
    <path d="M 229 81 C 185 88, 130 98, 70 115 C 40 123, 10 130, -10 136"
          fill="none"
          stroke="url(#tailGrad2)"
          stroke-width="6"
          stroke-linecap="round"
          opacity="0.45"/>

    <!-- Data particle trail - scattered nodes -->
    <g filter="url(#glow)">
      <!-- Near particles (bright, blue-white) -->
      <circle cx="215" cy="80" r="1.8" fill="#a8d4ff" opacity="0.95"/>
      <circle cx="205" cy="83" r="1.4" fill="#88c4ff" opacity="0.85"/>
      <circle cx="198" cy="77" r="1.0" fill="#b0d8ff" opacity="0.9"/>
      <circle cx="190" cy="85" r="1.6" fill="#7ab8ff" opacity="0.8"/>
      <circle cx="183" cy="79" r="1.0" fill="#a0ccff" opacity="0.75"/>

      <!-- Mid particles (blue) -->
      <circle cx="172" cy="86" r="1.4" fill="#6aabff" opacity="0.75"/>
      <circle cx="165" cy="81" r="1.1" fill="#80b8ff" opacity="0.7"/>
      <circle cx="158" cy="89" r="1.5" fill="#5a9eff" opacity="0.65"/>
      <circle cx="150" cy="84" r="0.9" fill="#90c0ff" opacity="0.65"/>
      <circle cx="142" cy="90" r="1.3" fill="#5090ff" opacity="0.6"/>
      <circle cx="136" cy="85" r="1.0" fill="#7aacff" opacity="0.6"/>

      <!-- Transition particles (blue-purple) -->
      <circle cx="128" cy="92" r="1.2" fill="#7878ff" opacity="0.55"/>
      <circle cx="120" cy="88" r="0.9" fill="#8880ff" opacity="0.5"/>
      <circle cx="112" cy="94" r="1.1" fill="#9070ff" opacity="0.5"/>
      <circle cx="104" cy="90" r="0.8" fill="#8868ff" opacity="0.45"/>
      <circle cx="97" cy="97" r="1.0" fill="#9060f0" opacity="0.45"/>

      <!-- Far particles (purple, fading) -->
      <circle cx="88" cy="96" r="0.9" fill="#9050e8" opacity="0.38"/>
      <circle cx="80" cy="102" r="1.1" fill="#8848e0" opacity="0.35"/>
      <circle cx="72" cy="99" r="0.7" fill="#7840d8" opacity="0.3"/>
      <circle cx="64" cy="105" r="0.9" fill="#6835cc" opacity="0.28"/>
      <circle cx="56" cy="102" r="0.7" fill="#5828c0" opacity="0.22"/>
      <circle cx="48" cy="108" r="0.8" fill="#4820b0" opacity="0.18"/>
      <circle cx="38" cy="106" r="0.6" fill="#3818a0" opacity="0.14"/>
      <circle cx="28" cy="112" r="0.7" fill="#2d1090" stop-opacity="0.1"/>

      <!-- Scatter off-axis particles -->
      <circle cx="195" cy="73" r="0.9" fill="#90ccff" opacity="0.6"/>
      <circle cx="180" cy="91" r="1.0" fill="#6aa0ff" opacity="0.5"/>
      <circle cx="168" cy="75" r="0.8" fill="#9abcff" opacity="0.55"/>
      <circle cx="155" cy="94" r="0.9" fill="#7090ff" opacity="0.45"/>
      <circle cx="143" cy="80" r="0.7" fill="#8888ff" opacity="0.4"/>
      <circle cx="130" cy="97" r="0.8" fill="#8070f0" opacity="0.38"/>
      <circle cx="117" cy="83" r="0.7" fill="#9068e8" opacity="0.32"/>
      <circle cx="105" cy="99" r="0.8" fill="#8858e0" opacity="0.28"/>
    </g>

    <!-- Comet core halo (outermost glow) -->
    <circle cx="230" cy="78" r="18" fill="url(#cometCore)" opacity="0.35"/>
    <circle cx="230" cy="78" r="12" fill="url(#cometCore)" opacity="0.5"/>
    <circle cx="230" cy="78" r="7" fill="url(#cometCore)" opacity="0.75"/>

    <!-- Comet core (bright nucleus) -->
    <g filter="url(#coreGlow)">
      <circle cx="230" cy="78" r="5" fill="#ffffff" opacity="1"/>
      <circle cx="230" cy="78" r="3" fill="#f0f8ff" opacity="1"/>
      <circle cx="230" cy="78" r="1.5" fill="#ffffff" opacity="1"/>
    </g>

    <!-- Motion streak lines from core -->
    <line x1="230" y1="78" x2="222" y2="80" stroke="#c8e8ff" stroke-width="1.5" opacity="0.7" stroke-linecap="round"/>
    <line x1="230" y1="78" x2="220" y2="76" stroke="#b8d8ff" stroke-width="1" opacity="0.5" stroke-linecap="round"/>
    <line x1="230" y1="78" x2="221" y2="82" stroke="#d0ecff" stroke-width="0.8" opacity="0.45" stroke-linecap="round"/>

  </g>

  <!-- === TEXT === -->
  <!-- "AGENTIC" -->
  <text
    x="150"
    y="138"
    font-family="'Arial', 'Helvetica Neue', sans-serif"
    font-size="22"
    font-weight="900"
    letter-spacing="5"
    text-anchor="middle"
    fill="#ffffff"
    filter="url(#textGlow)"
    opacity="0.97">AGENTIC</text>

  <!-- "LEAD GEN" -->
  <text
    x="150"
    y="161"
    font-family="'Arial', 'Helvetica Neue', sans-serif"
    font-size="13"
    font-weight="400"
    letter-spacing="7"
    text-anchor="middle"
    fill="#7ec4ff"
    opacity="0.85">LEAD  GEN</text>

  <!-- Thin divider line under text -->
  <line x1="80" y1="170" x2="220" y2="170" stroke="#4a6aff" stroke-width="0.5" opacity="0.35"/>

  <!-- Tagline -->
  <text
    x="150"
    y="183"
    font-family="'Arial', 'Helvetica Neue', sans-serif"
    font-size="7"
    font-weight="300"
    letter-spacing="3"
    text-anchor="middle"
    fill="#7090c0"
    opacity="0.65">PIPELINE VELOCITY</text>

</svg>
