<svg xmlns="http://www.w3.org/2000/svg" viewBox="0 0 300 200" width="300" height="200">
  <defs>
    <!-- Motion blur filters for falling dominos -->
    <filter id="blur-mild" x="-20%" y="-20%" width="140%" height="140%">
      <feGaussianBlur stdDeviation="1.5 0.5"/>
    </filter>
    <filter id="blur-medium" x="-20%" y="-20%" width="140%" height="140%">
      <feGaussianBlur stdDeviation="2.5 0.8"/>
    </filter>
    <filter id="blur-strong" x="-30%" y="-30%" width="160%" height="160%">
      <feGaussianBlur stdDeviation="3.5 1.2"/>
    </filter>
    <filter id="blur-max" x="-30%" y="-30%" width="160%" height="160%">
      <feGaussianBlur stdDeviation="5 1.8"/>
    </filter>

    <!-- Shadow for standing domino -->
    <filter id="shadow" x="-10%" y="-10%" width="130%" height="130%">
      <feDropShadow dx="1" dy="2" stdDeviation="1.5" flood-color="#000" flood-opacity="0.25"/>
    </filter>

    <!-- Gradient for domino face -->
    <linearGradient id="tile-grad" x1="0%" y1="0%" x2="100%" y2="100%">
      <stop offset="0%" style="stop-color:#ffffff;stop-opacity:1"/>
      <stop offset="100%" style="stop-color:#f0f0f0;stop-opacity:1"/>
    </linearGradient>

    <!-- Ground shadow gradient -->
    <radialGradient id="ground-shadow-1" cx="50%" cy="50%" r="50%">
      <stop offset="0%" style="stop-color:#000;stop-opacity:0.18"/>
      <stop offset="100%" style="stop-color:#000;stop-opacity:0"/>
    </radialGradient>
    <radialGradient id="ground-shadow-2" cx="50%" cy="50%" r="50%">
      <stop offset="0%" style="stop-color:#000;stop-opacity:0.15"/>
      <stop offset="100%" style="stop-color:#000;stop-opacity:0"/>
    </radialGradient>
    <radialGradient id="ground-shadow-3" cx="50%" cy="50%" r="50%">
      <stop offset="0%" style="stop-color:#000;stop-opacity:0.13"/>
      <stop offset="100%" style="stop-color:#000;stop-opacity:0"/>
    </radialGradient>
    <radialGradient id="ground-shadow-4" cx="50%" cy="50%" r="50%">
      <stop offset="0%" style="stop-color:#000;stop-opacity:0.12"/>
      <stop offset="100%" style="stop-color:#000;stop-opacity:0"/>
    </radialGradient>
    <radialGradient id="ground-shadow-5" cx="50%" cy="50%" r="50%">
      <stop offset="0%" style="stop-color:#000;stop-opacity:0.1"/>
      <stop offset="100%" style="stop-color:#000;stop-opacity:0"/>
    </radialGradient>
  </defs>

  <!-- Background -->
  <rect width="300" height="200" fill="#fafafa"/>

  <!-- Baseline / ground line -->
  <line x1="18" y1="162" x2="282" y2="162" stroke="#e0e0e0" stroke-width="1"/>

  <!-- ============================================================
       DOMINO 1 — smallest, already fallen flat (horizontal)
       tile: 10w x 16h -> fallen: 16w x 10h, centered ~x=30
       ============================================================ -->
  <!-- ground shadow -->
  <ellipse cx="32" cy="163" rx="10" ry="3" fill="url(#ground-shadow-1)" filter="url(#blur-mild)"/>
  <!-- fallen tile body -->
  <g transform="translate(24, 153) rotate(90, 8, 5)" filter="url(#blur-mild)">
    <rect x="0" y="0" width="10" height="16" rx="1.2" ry="1.2" fill="url(#tile-grad)" stroke="#1a1a1a" stroke-width="0.9"/>
    <line x1="0" y1="8" x2="10" y2="8" stroke="#1a1a1a" stroke-width="0.6" opacity="0.4"/>
    <!-- dots top half: 1 dot -->
    <circle cx="5" cy="3.5" r="1" fill="#1a1a1a"/>
    <!-- dots bottom half: 2 dots -->
    <circle cx="2.8" cy="12.5" r="1" fill="#1a1a1a"/>
    <circle cx="7.2" cy="12.5" r="1" fill="#1a1a1a"/>
  </g>

  <!-- ============================================================
       DOMINO 2 — mid-fall, tilted ~65deg, tile: 13w x 21h
       ============================================================ -->
  <!-- ground shadow -->
  <ellipse cx="62" cy="163" rx="12" ry="3.5" fill="url(#ground-shadow-2)" filter="url(#blur-medium)"/>
  <!-- falling tile -->
  <g transform="translate(62, 162) rotate(-65)" filter="url(#blur-mild)">
    <rect x="-6.5" y="-21" width="13" height="21" rx="1.5" ry="1.5" fill="url(#tile-grad)" stroke="#1a1a1a" stroke-width="1"/>
    <line x1="-6.5" y1="-10.5" x2="6.5" y2="-10.5" stroke="#1a1a1a" stroke-width="0.7" opacity="0.4"/>
    <!-- dots top half: 2 dots -->
    <circle cx="-2.5" cy="-17.5" r="1.2" fill="#1a1a1a"/>
    <circle cx="2.5" cy="-17.5" r="1.2" fill="#1a1a1a"/>
    <!-- dots bottom half: 3 dots (triangle) -->
    <circle cx="-2.5" cy="-5" r="1.2" fill="#1a1a1a"/>
    <circle cx="2.5" cy="-7" r="1.2" fill="#1a1a1a"/>
    <circle cx="0" cy="-3" r="1.2" fill="#1a1a1a"/>
  </g>

  <!-- ============================================================
       DOMINO 3 — mid-fall, tilted ~45deg, tile: 16w x 26h
       ============================================================ -->
  <!-- ground shadow -->
  <ellipse cx="96" cy="163" rx="15" ry="4" fill="url(#ground-shadow-3)" filter="url(#blur-medium)"/>
  <!-- falling tile -->
  <g transform="translate(96, 162) rotate(-45)" filter="url(#blur-medium)">
    <rect x="-8" y="-26" width="16" height="26" rx="1.8" ry="1.8" fill="url(#tile-grad)" stroke="#1a1a1a" stroke-width="1.1"/>
    <line x1="-8" y1="-13" x2="8" y2="-13" stroke="#1a1a1a" stroke-width="0.8" opacity="0.4"/>
    <!-- dots top half: 2 dots -->
    <circle cx="-3" cy="-21" r="1.5" fill="#1a1a1a"/>
    <circle cx="3" cy="-21" r="1.5" fill="#1a1a1a"/>
    <!-- dots bottom half: 4 dots (2x2) -->
    <circle cx="-3" cy="-9" r="1.5" fill="#1a1a1a"/>
    <circle cx="3" cy="-9" r="1.5" fill="#1a1a1a"/>
    <circle cx="-3" cy="-4" r="1.5" fill="#1a1a1a"/>
    <circle cx="3" cy="-4" r="1.5" fill="#1a1a1a"/>
  </g>

  <!-- ============================================================
       DOMINO 4 — early fall, tilted ~25deg, tile: 20w x 33h
       ============================================================ -->
  <!-- ground shadow -->
  <ellipse cx="140" cy="164" rx="18" ry="5" fill="url(#ground-shadow-4)" filter="url(#blur-medium)"/>
  <!-- falling tile -->
  <g transform="translate(140, 162) rotate(-25)" filter="url(#blur-strong)">
    <rect x="-10" y="-33" width="20" height="33" rx="2" ry="2" fill="url(#tile-grad)" stroke="#1a1a1a" stroke-width="1.2"/>
    <line x1="-10" y1="-16.5" x2="10" y2="-16.5" stroke="#1a1a1a" stroke-width="0.9" opacity="0.4"/>
    <!-- dots top half: 3 dots -->
    <circle cx="-4" cy="-27" r="1.8" fill="#1a1a1a"/>
    <circle cx="0" cy="-23" r="1.8" fill="#1a1a1a"/>
    <circle cx="4" cy="-27" r="1.8" fill="#1a1a1a"/>
    <!-- dots bottom half: 5 dots (quincunx) -->
    <circle cx="-4" cy="-12" r="1.8" fill="#1a1a1a"/>
    <circle cx="4" cy="-12" r="1.8" fill="#1a1a1a"/>
    <circle cx="0" cy="-8.5" r="1.8" fill="#1a1a1a"/>
    <circle cx="-4" cy="-5" r="1.8" fill="#1a1a1a"/>
    <circle cx="4" cy="-5" r="1.8" fill="#1a1a1a"/>
  </g>

  <!-- ============================================================
       DOMINO 5 — just tipping, tilted ~8deg, tile: 25w x 42h
       ============================================================ -->
  <!-- ground shadow -->
  <ellipse cx="196" cy="164" rx="22" ry="5.5" fill="url(#ground-shadow-5)" filter="url(#blur-strong)"/>
  <!-- tipping tile -->
  <g transform="translate(196, 162) rotate(-8)" filter="url(#blur-max)">
    <rect x="-12.5" y="-42" width="25" height="42" rx="2.5" ry="2.5" fill="url(#tile-grad)" stroke="#1a1a1a" stroke-width="1.4"/>
    <line x1="-12.5" y1="-21" x2="12.5" y2="-21" stroke="#1a1a1a" stroke-width="1" opacity="0.4"/>
    <!-- dots top half: 4 dots (2x2) -->
    <circle cx="-5" cy="-36" r="2.2" fill="#1a1a1a"/>
    <circle cx="5" cy="-36" r="2.2" fill="#1a1a1a"/>
    <circle cx="-5" cy="-28" r="2.2" fill="#1a1a1a"/>
    <circle cx="5" cy="-28" r="2.2" fill="#1a1a1a"/>
    <!-- dots bottom half: 6 dots (3x2) -->
    <circle cx="-5" cy="-17" r="2.2" fill="#1a1a1a"/>
    <circle cx="5" cy="-17" r="2.2" fill="#1a1a1a"/>
    <circle cx="-5" cy="-11" r="2.2" fill="#1a1a1a"/>
    <circle cx="5" cy="-11" r="2.2" fill="#1a1a1a"/>
    <circle cx="-5" cy="-5" r="2.2" fill="#1a1a1a"/>
    <circle cx="5" cy="-5" r="2.2" fill="#1a1a1a"/>
  </g>

  <!-- ============================================================
       DOMINO 6 — standing upright, largest, tile: 32w x 54h
       ============================================================ -->
  <!-- ground shadow -->
  <ellipse cx="256" cy="165" rx="20" ry="5" fill="url(#ground-shadow-5)"/>
  <!-- standing tile -->
  <g transform="translate(240, 108)" filter="url(#shadow)">
    <rect x="0" y="0" width="32" height="54" rx="3" ry="3" fill="url(#tile-grad)" stroke="#1a1a1a" stroke-width="1.6"/>
    <line x1="0" y1="27" x2="32" y2="27" stroke="#1a1a1a" stroke-width="1.1" opacity="0.4"/>
    <!-- dots top half: 5 (quincunx) -->
    <circle cx="9" cy="8" r="2.6" fill="#1a1a1a"/>
    <circle cx="23" cy="8" r="2.6" fill="#1a1a1a"/>
    <circle cx="16" cy="13.5" r="2.6" fill="#1a1a1a"/>
    <circle cx="9" cy="19" r="2.6" fill="#1a1a1a"/>
    <circle cx="23" cy="19" r="2.6" fill="#1a1a1a"/>
    <!-- dots bottom half: 6 (3x2) -->
    <circle cx="9" cy="32" r="2.6" fill="#1a1a1a"/>
    <circle cx="23" cy="32" r="2.6" fill="#1a1a1a"/>
    <circle cx="9" cy="40" r="2.6" fill="#1a1a1a"/>
    <circle cx="23" cy="40" r="2.6" fill="#1a1a1a"/>
    <circle cx="9" cy="48" r="2.6" fill="#1a1a1a"/>
    <circle cx="23" cy="48" r="2.6" fill="#1a1a1a"/>
  </g>

  <!-- ============================================================
       Motion trail particles — kinetic energy dots
       ============================================================ -->
  <circle cx="50" cy="148" r="1" fill="#1a1a1a" opacity="0.15"/>
  <circle cx="55" cy="152" r="0.8" fill="#1a1a1a" opacity="0.12"/>
  <circle cx="78" cy="140" r="1.2" fill="#1a1a1a" opacity="0.18"/>
  <circle cx="84" cy="145" r="0.9" fill="#1a1a1a" opacity="0.13"/>
  <circle cx="116" cy="132" r="1.4" fill="#1a1a1a" opacity="0.2"/>
  <circle cx="122" cy="138" r="1" fill="#1a1a1a" opacity="0.15"/>
  <circle cx="162" cy="122" r="1.6" fill="#1a1a1a" opacity="0.22"/>
  <circle cx="168" cy="130" r="1.1" fill="#1a1a1a" opacity="0.16"/>
  <circle cx="210" cy="108" r="1.8" fill="#1a1a1a" opacity="0.18"/>
  <circle cx="216" cy="116" r="1.2" fill="#1a1a1a" opacity="0.13"/>

  <!-- ============================================================
       Typography — "Agentic Lead Gen"
       ============================================================ -->
  <text
    x="150"
    y="183"
    font-family="'Helvetica Neue', Helvetica, Arial, sans-serif"
    font-size="11"
    font-weight="700"
    letter-spacing="3.5"
    text-anchor="middle"
    fill="#1a1a1a"
    text-rendering="geometricPrecision"
  >AGENTIC LEAD GEN</text>
</svg>
