<svg xmlns="http://www.w3.org/2000/svg" viewBox="0 0 300 200" width="300" height="200">
  <defs>
    <!-- Dark background gradient -->
    <radialGradient id="bgGrad" cx="50%" cy="50%" r="50%">
      <stop offset="0%" stop-color="#0d0d1a"/>
      <stop offset="100%" stop-color="#050508"/>
    </radialGradient>

    <!-- Jewel tone gradients per segment -->
    <linearGradient id="seg1" x1="0%" y1="0%" x2="100%" y2="100%">
      <stop offset="0%" stop-color="#e040fb"/>
      <stop offset="100%" stop-color="#7b1fa2"/>
    </linearGradient>
    <linearGradient id="seg2" x1="0%" y1="0%" x2="100%" y2="100%">
      <stop offset="0%" stop-color="#00e5ff"/>
      <stop offset="100%" stop-color="#006064"/>
    </linearGradient>
    <linearGradient id="seg3" x1="0%" y1="0%" x2="100%" y2="100%">
      <stop offset="0%" stop-color="#69f0ae"/>
      <stop offset="100%" stop-color="#1b5e20"/>
    </linearGradient>
    <linearGradient id="seg4" x1="0%" y1="0%" x2="100%" y2="100%">
      <stop offset="0%" stop-color="#ff6d00"/>
      <stop offset="100%" stop-color="#bf360c"/>
    </linearGradient>
    <linearGradient id="seg5" x1="0%" y1="0%" x2="100%" y2="100%">
      <stop offset="0%" stop-color="#ffd740"/>
      <stop offset="100%" stop-color="#e65100"/>
    </linearGradient>
    <linearGradient id="seg6" x1="0%" y1="0%" x2="100%" y2="100%">
      <stop offset="0%" stop-color="#536dfe"/>
      <stop offset="100%" stop-color="#1a237e"/>
    </linearGradient>
    <linearGradient id="seg7" x1="0%" y1="0%" x2="100%" y2="100%">
      <stop offset="0%" stop-color="#f06292"/>
      <stop offset="100%" stop-color="#880e4f"/>
    </linearGradient>
    <linearGradient id="seg8" x1="0%" y1="0%" x2="100%" y2="100%">
      <stop offset="0%" stop-color="#26c6da"/>
      <stop offset="100%" stop-color="#004d40"/>
    </linearGradient>

    <!-- Glow filters -->
    <filter id="glow" x="-30%" y="-30%" width="160%" height="160%">
      <feGaussianBlur stdDeviation="3" result="blur"/>
      <feMerge>
        <feMergeNode in="blur"/>
        <feMergeNode in="SourceGraphic"/>
      </feMerge>
    </filter>
    <filter id="centerGlow" x="-50%" y="-50%" width="200%" height="200%">
      <feGaussianBlur stdDeviation="5" result="blur"/>
      <feMerge>
        <feMergeNode in="blur"/>
        <feMergeNode in="SourceGraphic"/>
      </feMerge>
    </filter>
    <filter id="textGlow" x="-20%" y="-20%" width="140%" height="140%">
      <feGaussianBlur stdDeviation="2" result="blur"/>
      <feMerge>
        <feMergeNode in="blur"/>
        <feMergeNode in="SourceGraphic"/>
      </feMerge>
    </filter>
  </defs>

  <!-- Background -->
  <rect width="300" height="200" fill="url(#bgGrad)"/>

  <!-- ===== OUTER RING — 8 kaleidoscope segments ===== -->
  <!-- Segment 1: 0–45deg — Magenta (Tech/SaaS) -->
  <path d="M150,100 L150,12 A88,88,0,0,1,212.2,37.8 Z" fill="url(#seg1)" opacity="0.85" filter="url(#glow)"/>
  <!-- Segment 2: 45–90deg — Cyan (Finance) -->
  <path d="M150,100 L212.2,37.8 A88,88,0,0,1,238,100 Z" fill="url(#seg2)" opacity="0.85" filter="url(#glow)"/>
  <!-- Segment 3: 90–135deg — Emerald (Healthcare) -->
  <path d="M150,100 L238,100 A88,88,0,0,1,212.2,162.2 Z" fill="url(#seg3)" opacity="0.85" filter="url(#glow)"/>
  <!-- Segment 4: 135–180deg — Amber (Energy) -->
  <path d="M150,100 L212.2,162.2 A88,88,0,0,1,150,188 Z" fill="url(#seg4)" opacity="0.85" filter="url(#glow)"/>
  <!-- Segment 5: 180–225deg — Gold (Retail) -->
  <path d="M150,100 L150,188 A88,88,0,0,1,87.8,162.2 Z" fill="url(#seg5)" opacity="0.85" filter="url(#glow)"/>
  <!-- Segment 6: 225–270deg — Indigo (Legal) -->
  <path d="M150,100 L87.8,162.2 A88,88,0,0,1,62,100 Z" fill="url(#seg6)" opacity="0.85" filter="url(#glow)"/>
  <!-- Segment 7: 270–315deg — Rose (Media) -->
  <path d="M150,100 L62,100 A88,88,0,0,1,87.8,37.8 Z" fill="url(#seg7)" opacity="0.85" filter="url(#glow)"/>
  <!-- Segment 8: 315–360deg — Teal (Logistics) -->
  <path d="M150,100 L87.8,37.8 A88,88,0,0,1,150,12 Z" fill="url(#seg8)" opacity="0.85" filter="url(#glow)"/>

  <!-- Segment divider spokes -->
  <g stroke="rgba(255,255,255,0.15)" stroke-width="0.8">
    <line x1="150" y1="100" x2="150" y2="12"/>
    <line x1="150" y1="100" x2="212.2" y2="37.8"/>
    <line x1="150" y1="100" x2="238" y2="100"/>
    <line x1="150" y1="100" x2="212.2" y2="162.2"/>
    <line x1="150" y1="100" x2="150" y2="188"/>
    <line x1="150" y1="100" x2="87.8" y2="162.2"/>
    <line x1="150" y1="100" x2="62" y2="100"/>
    <line x1="150" y1="100" x2="87.8" y2="37.8"/>
  </g>

  <!-- Outer border ring -->
  <circle cx="150" cy="100" r="88" fill="none" stroke="rgba(255,255,255,0.25)" stroke-width="1.5"/>

  <!-- Mid ring dark overlay -->
  <circle cx="150" cy="100" r="72" fill="#0a0a14" opacity="0.7"/>
  <circle cx="150" cy="100" r="72" fill="none" stroke="rgba(255,255,255,0.2)" stroke-width="1"/>

  <!-- ===== INNER PETALS — 8 colored petals ===== -->
  <g filter="url(#glow)">
    <ellipse cx="150" cy="58" rx="6" ry="11" fill="#e040fb" opacity="0.9" transform="rotate(0,150,100)"/>
    <ellipse cx="150" cy="58" rx="6" ry="11" fill="#00e5ff" opacity="0.9" transform="rotate(45,150,100)"/>
    <ellipse cx="150" cy="58" rx="6" ry="11" fill="#69f0ae" opacity="0.9" transform="rotate(90,150,100)"/>
    <ellipse cx="150" cy="58" rx="6" ry="11" fill="#ff6d00" opacity="0.9" transform="rotate(135,150,100)"/>
    <ellipse cx="150" cy="58" rx="6" ry="11" fill="#ffd740" opacity="0.9" transform="rotate(180,150,100)"/>
    <ellipse cx="150" cy="58" rx="6" ry="11" fill="#536dfe" opacity="0.9" transform="rotate(225,150,100)"/>
    <ellipse cx="150" cy="58" rx="6" ry="11" fill="#f06292" opacity="0.9" transform="rotate(270,150,100)"/>
    <ellipse cx="150" cy="58" rx="6" ry="11" fill="#26c6da" opacity="0.9" transform="rotate(315,150,100)"/>
  </g>

  <!-- Inner petal ring border -->
  <circle cx="150" cy="100" r="44" fill="none" stroke="rgba(255,255,255,0.2)" stroke-width="0.8"/>

  <!-- ===== CENTER MEDALLION ===== -->
  <circle cx="150" cy="100" r="38" fill="#07071a" filter="url(#centerGlow)"/>
  <circle cx="150" cy="100" r="38" fill="none" stroke="rgba(224,64,251,0.6)" stroke-width="2"/>
  <circle cx="150" cy="100" r="34" fill="none" stroke="rgba(0,229,255,0.3)" stroke-width="0.8"/>

  <!-- Diamond accents on center ring -->
  <g fill="rgba(255,255,255,0.7)" filter="url(#glow)">
    <polygon points="150,62 152,65 150,68 148,65" transform="rotate(0,150,100)"/>
    <polygon points="150,62 152,65 150,68 148,65" transform="rotate(45,150,100)"/>
    <polygon points="150,62 152,65 150,68 148,65" transform="rotate(90,150,100)"/>
    <polygon points="150,62 152,65 150,68 148,65" transform="rotate(135,150,100)"/>
    <polygon points="150,62 152,65 150,68 148,65" transform="rotate(180,150,100)"/>
    <polygon points="150,62 152,65 150,68 148,65" transform="rotate(225,150,100)"/>
    <polygon points="150,62 152,65 150,68 148,65" transform="rotate(270,150,100)"/>
    <polygon points="150,62 152,65 150,68 148,65" transform="rotate(315,150,100)"/>
  </g>

  <!-- ===== "ALG" MONOGRAM ===== -->
  <text
    x="150"
    y="107"
    font-family="'Helvetica Neue', Arial, sans-serif"
    font-size="20"
    font-weight="700"
    letter-spacing="2"
    text-anchor="middle"
    fill="white"
    filter="url(#textGlow)"
  >ALG</text>

  <!-- ===== WORDMARK ===== -->
  <line x1="60" y1="168" x2="240" y2="168" stroke="rgba(255,255,255,0.1)" stroke-width="0.5"/>
  <text
    x="150"
    y="183"
    font-family="'Helvetica Neue', Arial, sans-serif"
    font-size="9"
    font-weight="400"
    letter-spacing="4"
    text-anchor="middle"
    fill="rgba(255,255,255,0.55)"
  >AGENTIC LEAD GEN</text>

  <!-- ===== OUTER DECORATIVE DOTS ===== -->
  <g fill="rgba(255,255,255,0.4)" filter="url(#glow)">
    <circle cx="150" cy="7" r="1.5"/>
    <circle cx="243" cy="100" r="1.5"/>
    <circle cx="150" cy="193" r="1.5"/>
    <circle cx="57" cy="100" r="1.5"/>
    <circle cx="216" cy="33" r="1"/>
    <circle cx="216" cy="167" r="1"/>
    <circle cx="84" cy="167" r="1"/>
    <circle cx="84" cy="33" r="1"/>
  </g>
</svg>
