<svg xmlns="http://www.w3.org/2000/svg" viewBox="0 0 300 200" width="300" height="200">
  <defs>
    <!-- Background gradient -->
    <linearGradient id="bgGrad" x1="0%" y1="0%" x2="100%" y2="100%">
      <stop offset="0%" style="stop-color:#0a0a1a;stop-opacity:1" />
      <stop offset="100%" style="stop-color:#0d1a2e;stop-opacity:1" />
    </linearGradient>

    <!-- Glow gradient for revealed interior -->
    <radialGradient id="interiorGlow" cx="50%" cy="50%" r="50%">
      <stop offset="0%" style="stop-color:#00e5ff;stop-opacity:0.95" />
      <stop offset="35%" style="stop-color:#0077ff;stop-opacity:0.75" />
      <stop offset="70%" style="stop-color:#7c3aed;stop-opacity:0.5" />
      <stop offset="100%" style="stop-color:#0a0a1a;stop-opacity:0" />
    </radialGradient>

    <!-- Metallic zipper tooth gradient -->
    <linearGradient id="toothGrad" x1="0%" y1="0%" x2="100%" y2="100%">
      <stop offset="0%" style="stop-color:#d0d8e8" />
      <stop offset="40%" style="stop-color:#f0f4ff" />
      <stop offset="100%" style="stop-color:#8896aa" />
    </linearGradient>

    <!-- Zipper tape gradient -->
    <linearGradient id="tapeGrad" x1="0%" y1="0%" x2="0%" y2="100%">
      <stop offset="0%" style="stop-color:#4a5568" />
      <stop offset="50%" style="stop-color:#2d3748" />
      <stop offset="100%" style="stop-color:#1a202c" />
    </linearGradient>

    <!-- Pull tab gradient -->
    <linearGradient id="pullGrad" x1="0%" y1="0%" x2="100%" y2="100%">
      <stop offset="0%" style="stop-color:#e2e8f0" />
      <stop offset="50%" style="stop-color:#f7fafc" />
      <stop offset="100%" style="stop-color:#a0aec0" />
    </linearGradient>

    <!-- Node glow filter -->
    <filter id="nodeGlow" x="-50%" y="-50%" width="200%" height="200%">
      <feGaussianBlur stdDeviation="2.5" result="blur" />
      <feMerge>
        <feMergeNode in="blur" />
        <feMergeNode in="SourceGraphic" />
      </feMerge>
    </filter>

    <!-- Soft glow filter for lines -->
    <filter id="lineGlow" x="-20%" y="-20%" width="140%" height="140%">
      <feGaussianBlur stdDeviation="1.5" result="blur" />
      <feMerge>
        <feMergeNode in="blur" />
        <feMergeNode in="SourceGraphic" />
      </feMerge>
    </filter>

    <!-- Interior reveal clip -->
    <clipPath id="revealClip">
      <polygon points="150,30 260,55 270,145 150,165 30,145 40,55" />
    </clipPath>

    <!-- Zipper opening clip (diamond/V shape) -->
    <clipPath id="zipOpenClip">
      <polygon points="80,30 150,100 220,30 260,30 260,170 220,170 150,100 80,170 40,170 40,30" />
    </clipPath>

    <!-- Ambient glow filter -->
    <filter id="ambientGlow" x="-30%" y="-30%" width="160%" height="160%">
      <feGaussianBlur stdDeviation="6" result="blur" />
      <feMerge>
        <feMergeNode in="blur" />
        <feMergeNode in="SourceGraphic" />
      </feMerge>
    </filter>

    <!-- Text gradient -->
    <linearGradient id="textGrad" x1="0%" y1="0%" x2="100%" y2="0%">
      <stop offset="0%" style="stop-color:#7dd3fc" />
      <stop offset="50%" style="stop-color:#e0f2fe" />
      <stop offset="100%" style="stop-color:#a78bfa" />
    </linearGradient>
  </defs>

  <!-- Background -->
  <rect width="300" height="200" fill="url(#bgGrad)" rx="8" />

  <!-- ===== REVEALED INTERIOR: glowing network ===== -->
  <!-- Ambient interior glow blob -->
  <ellipse cx="150" cy="98" rx="82" ry="58" fill="url(#interiorGlow)" clip-path="url(#zipOpenClip)" opacity="0.85" />

  <!-- Network connection lines (inside reveal area) -->
  <g clip-path="url(#zipOpenClip)" filter="url(#lineGlow)">
    <!-- Central hub to satellite nodes -->
    <line x1="150" y1="98" x2="108" y2="72" stroke="#00e5ff" stroke-width="1.2" opacity="0.9" />
    <line x1="150" y1="98" x2="192" y2="72" stroke="#00e5ff" stroke-width="1.2" opacity="0.9" />
    <line x1="150" y1="98" x2="115" y2="125" stroke="#38bdf8" stroke-width="1.2" opacity="0.8" />
    <line x1="150" y1="98" x2="185" y2="125" stroke="#38bdf8" stroke-width="1.2" opacity="0.8" />
    <line x1="150" y1="98" x2="150" y2="60" stroke="#60a5fa" stroke-width="1" opacity="0.7" />
    <!-- Cross-connections -->
    <line x1="108" y1="72" x2="115" y2="125" stroke="#7c3aed" stroke-width="0.9" opacity="0.6" />
    <line x1="192" y1="72" x2="185" y2="125" stroke="#7c3aed" stroke-width="0.9" opacity="0.6" />
    <line x1="108" y1="72" x2="150" y2="60" stroke="#818cf8" stroke-width="0.8" opacity="0.5" />
    <line x1="192" y1="72" x2="150" y2="60" stroke="#818cf8" stroke-width="0.8" opacity="0.5" />
    <!-- Outer faint connections -->
    <line x1="108" y1="72" x2="88" y2="55" stroke="#22d3ee" stroke-width="0.7" opacity="0.45" />
    <line x1="192" y1="72" x2="212" y2="55" stroke="#22d3ee" stroke-width="0.7" opacity="0.45" />
    <line x1="115" y1="125" x2="95" y2="140" stroke="#22d3ee" stroke-width="0.7" opacity="0.35" />
    <line x1="185" y1="125" x2="205" y2="140" stroke="#22d3ee" stroke-width="0.7" opacity="0.35" />
  </g>

  <!-- Network nodes (inside reveal area) -->
  <g clip-path="url(#zipOpenClip)" filter="url(#nodeGlow)">
    <!-- Central hub node -->
    <circle cx="150" cy="98" r="6.5" fill="#00e5ff" opacity="0.98" />
    <circle cx="150" cy="98" r="3.5" fill="#ffffff" />

    <!-- Satellite nodes -->
    <circle cx="108" cy="72" r="4.5" fill="#38bdf8" opacity="0.95" />
    <circle cx="108" cy="72" r="2.2" fill="#e0f2fe" />

    <circle cx="192" cy="72" r="4.5" fill="#38bdf8" opacity="0.95" />
    <circle cx="192" cy="72" r="2.2" fill="#e0f2fe" />

    <circle cx="115" cy="125" r="4" fill="#60a5fa" opacity="0.9" />
    <circle cx="115" cy="125" r="1.8" fill="#e0f2fe" />

    <circle cx="185" cy="125" r="4" fill="#60a5fa" opacity="0.9" />
    <circle cx="185" cy="125" r="1.8" fill="#e0f2fe" />

    <circle cx="150" cy="60" r="3.5" fill="#a78bfa" opacity="0.9" />
    <circle cx="150" cy="60" r="1.5" fill="#ede9fe" />

    <!-- Outer smaller nodes -->
    <circle cx="88" cy="55" r="2.8" fill="#22d3ee" opacity="0.75" />
    <circle cx="212" cy="55" r="2.8" fill="#22d3ee" opacity="0.75" />
    <circle cx="95" cy="140" r="2.5" fill="#34d399" opacity="0.65" />
    <circle cx="205" cy="140" r="2.5" fill="#34d399" opacity="0.65" />
  </g>

  <!-- ===== ZIPPER STRUCTURE ===== -->

  <!-- Left zipper tape (closed side, top-left region) -->
  <path d="M 150,100 L 78,34 L 40,34 L 40,38 L 74,38 L 148,107 Z" fill="url(#tapeGrad)" opacity="0.9" />

  <!-- Right zipper tape (closed side, top-right region) -->
  <path d="M 150,100 L 222,34 L 260,34 L 260,38 L 226,38 L 152,107 Z" fill="url(#tapeGrad)" opacity="0.9" />

  <!-- Left zipper tape (open/lower) -->
  <path d="M 150,100 L 78,166 L 40,166 L 40,162 L 74,162 L 148,93 Z" fill="url(#tapeGrad)" opacity="0.9" />

  <!-- Right zipper tape (open/lower) -->
  <path d="M 150,100 L 222,166 L 260,166 L 260,162 L 226,162 L 152,93 Z" fill="url(#tapeGrad)" opacity="0.9" />

  <!-- ===== ZIPPER TEETH — LEFT SIDE (top, closed) ===== -->
  <g fill="url(#toothGrad)">
    <!-- Upper-left teeth going diagonally up-left from center -->
    <rect x="83" y="49" width="10" height="6" rx="1.5" transform="rotate(-38 88 52)" />
    <rect x="97" y="59" width="10" height="6" rx="1.5" transform="rotate(-38 102 62)" />
    <rect x="111" y="68" width="10" height="6" rx="1.5" transform="rotate(-38 116 71)" />
    <rect x="125" y="78" width="10" height="6" rx="1.5" transform="rotate(-38 130 81)" />
    <rect x="139" y="88" width="10" height="6" rx="1.5" transform="rotate(-38 144 91)" />
  </g>

  <!-- ===== ZIPPER TEETH — RIGHT SIDE (top, closed) ===== -->
  <g fill="url(#toothGrad)">
    <rect x="207" y="49" width="10" height="6" rx="1.5" transform="rotate(38 212 52)" />
    <rect x="193" y="59" width="10" height="6" rx="1.5" transform="rotate(38 198 62)" />
    <rect x="179" y="68" width="10" height="6" rx="1.5" transform="rotate(38 184 71)" />
    <rect x="165" y="78" width="10" height="6" rx="1.5" transform="rotate(38 170 81)" />
    <rect x="151" y="88" width="10" height="6" rx="1.5" transform="rotate(38 156 91)" />
  </g>

  <!-- ===== ZIPPER TEETH — LEFT SIDE (bottom, open) ===== -->
  <g fill="url(#toothGrad)" opacity="0.7">
    <rect x="83" y="145" width="10" height="6" rx="1.5" transform="rotate(38 88 148)" />
    <rect x="97" y="135" width="10" height="6" rx="1.5" transform="rotate(38 102 138)" />
    <rect x="111" y="125" width="10" height="6" rx="1.5" transform="rotate(38 116 128)" />
    <rect x="125" y="115" width="10" height="6" rx="1.5" transform="rotate(38 130 118)" />
  </g>

  <!-- ===== ZIPPER TEETH — RIGHT SIDE (bottom, open) ===== -->
  <g fill="url(#toothGrad)" opacity="0.7">
    <rect x="207" y="145" width="10" height="6" rx="1.5" transform="rotate(-38 212 148)" />
    <rect x="193" y="135" width="10" height="6" rx="1.5" transform="rotate(-38 198 138)" />
    <rect x="179" y="125" width="10" height="6" rx="1.5" transform="rotate(-38 184 128)" />
    <rect x="165" y="115" width="10" height="6" rx="1.5" transform="rotate(-38 170 118)" />
  </g>

  <!-- ===== ZIPPER SLIDER (pull tab) ===== -->
  <!-- Slider body -->
  <rect x="139" y="92" width="22" height="16" rx="4" fill="url(#pullGrad)" />
  <!-- Slider ridge detail -->
  <rect x="141" y="96" width="18" height="3" rx="1.5" fill="#8896aa" opacity="0.6" />
  <rect x="141" y="101" width="18" height="3" rx="1.5" fill="#8896aa" opacity="0.6" />
  <!-- Slider highlight -->
  <rect x="141" y="93" width="18" height="3" rx="1.5" fill="#ffffff" opacity="0.4" />

  <!-- Pull tab cord -->
  <path d="M 150,108 L 150,120 L 145,128 L 155,128 L 150,120" fill="none" stroke="#a0aec0" stroke-width="1.5" stroke-linecap="round" stroke-linejoin="round" />
  <circle cx="150" cy="130" r="4" fill="url(#pullGrad)" />
  <circle cx="150" cy="130" r="2" fill="#cbd5e0" />

  <!-- ===== TEXT ===== -->
  <!-- "Agentic" — top label -->
  <text x="150" y="24" text-anchor="middle" font-family="'Helvetica Neue', Arial, sans-serif" font-size="9" font-weight="600" letter-spacing="3.5" fill="#94a3b8" opacity="0.85">AGENTIC</text>

  <!-- "Lead Gen" — bottom label -->
  <text x="150" y="186" text-anchor="middle" font-family="'Helvetica Neue', Arial, sans-serif" font-size="13" font-weight="700" letter-spacing="2" fill="url(#textGrad)">LEAD GEN</text>

  <!-- Subtle tagline -->
  <text x="150" y="196" text-anchor="middle" font-family="'Helvetica Neue', Arial, sans-serif" font-size="6" letter-spacing="1.5" fill="#4a5568" opacity="0.9">UNCOVER · CONNECT · CONVERT</text>
</svg>
