<svg xmlns="http://www.w3.org/2000/svg" viewBox="0 0 300 200" width="300" height="200">
  <defs>
    <radialGradient id="bgGrad" cx="50%" cy="50%" r="60%">
      <stop offset="0%" stop-color="#0a0f1e"/>
      <stop offset="100%" stop-color="#020408"/>
    </radialGradient>
    <filter id="glow" x="-50%" y="-50%" width="200%" height="200%">
      <feGaussianBlur stdDeviation="1.8" result="blur"/>
      <feMerge>
        <feMergeNode in="blur"/>
        <feMergeNode in="SourceGraphic"/>
      </feMerge>
    </filter>
    <filter id="softGlow" x="-80%" y="-80%" width="360%" height="360%">
      <feGaussianBlur stdDeviation="3" result="blur"/>
      <feMerge>
        <feMergeNode in="blur"/>
        <feMergeNode in="SourceGraphic"/>
      </feMerge>
    </filter>
    <filter id="textGlow" x="-20%" y="-50%" width="140%" height="200%">
      <feGaussianBlur stdDeviation="2" result="blur"/>
      <feMerge>
        <feMergeNode in="blur"/>
        <feMergeNode in="SourceGraphic"/>
      </feMerge>
    </filter>
    <linearGradient id="edgeGrad1" x1="0%" y1="0%" x2="100%" y2="100%">
      <stop offset="0%" stop-color="#2a6fa8" stop-opacity="0.3"/>
      <stop offset="50%" stop-color="#5ab4e8" stop-opacity="0.7"/>
      <stop offset="100%" stop-color="#2a6fa8" stop-opacity="0.3"/>
    </linearGradient>
    <linearGradient id="edgeGrad2" x1="100%" y1="0%" x2="0%" y2="100%">
      <stop offset="0%" stop-color="#1d5a8a" stop-opacity="0.2"/>
      <stop offset="50%" stop-color="#4aa0d0" stop-opacity="0.6"/>
      <stop offset="100%" stop-color="#1d5a8a" stop-opacity="0.2"/>
    </linearGradient>
  </defs>
  <rect width="300" height="200" fill="url(#bgGrad)"/>
  <g opacity="0.04" stroke="#5ab4e8" stroke-width="0.5">
    <line x1="0" y1="40" x2="300" y2="40"/>
    <line x1="0" y1="80" x2="300" y2="80"/>
    <line x1="0" y1="120" x2="300" y2="120"/>
    <line x1="0" y1="160" x2="300" y2="160"/>
    <line x1="60" y1="0" x2="60" y2="200"/>
    <line x1="120" y1="0" x2="120" y2="200"/>
    <line x1="180" y1="0" x2="180" y2="200"/>
    <line x1="240" y1="0" x2="240" y2="200"/>
  </g>
  <g stroke="url(#edgeGrad2)" stroke-width="0.8" fill="none" opacity="0.45">
    <line x1="56" y1="82" x2="80" y2="70"/>
    <line x1="80" y1="70" x2="104" y2="82"/>
    <line x1="104" y1="82" x2="128" y2="70"/>
    <line x1="128" y1="70" x2="152" y2="82"/>
    <line x1="152" y1="82" x2="128" y2="94"/>
    <line x1="128" y1="94" x2="104" y2="82"/>
    <line x1="80" y1="94" x2="56" y2="82"/>
    <line x1="80" y1="94" x2="104" y2="82"/>
    <line x1="80" y1="70" x2="80" y2="94"/>
    <line x1="128" y1="70" x2="128" y2="94"/>
    <line x1="56" y1="58" x2="80" y2="46"/>
    <line x1="80" y1="46" x2="104" y2="58"/>
    <line x1="104" y1="58" x2="128" y2="46"/>
    <line x1="128" y1="46" x2="152" y2="58"/>
    <line x1="56" y1="58" x2="56" y2="82"/>
    <line x1="152" y1="58" x2="152" y2="82"/>
    <line x1="80" y1="46" x2="80" y2="70"/>
    <line x1="128" y1="46" x2="128" y2="70"/>
    <line x1="104" y1="58" x2="104" y2="82"/>
  </g>
  <g stroke="url(#edgeGrad1)" stroke-width="1.0" fill="none" opacity="0.65">
    <line x1="56" y1="106" x2="80" y2="94"/>
    <line x1="80" y1="94" x2="104" y2="106"/>
    <line x1="104" y1="106" x2="128" y2="94"/>
    <line x1="128" y1="94" x2="152" y2="106"/>
    <line x1="56" y1="106" x2="80" y2="118"/>
    <line x1="80" y1="118" x2="104" y2="106"/>
    <line x1="104" y1="106" x2="128" y2="118"/>
    <line x1="128" y1="118" x2="152" y2="106"/>
    <line x1="56" y1="82" x2="56" y2="106"/>
    <line x1="152" y1="82" x2="152" y2="106"/>
    <line x1="80" y1="94" x2="80" y2="118"/>
    <line x1="128" y1="94" x2="128" y2="118"/>
    <line x1="56" y1="82" x2="80" y2="94"/>
    <line x1="152" y1="82" x2="128" y2="94"/>
  </g>
  <g stroke="#5ab4e8" stroke-width="1.2" fill="none" filter="url(#glow)" opacity="0.85">
    <line x1="56" y1="130" x2="80" y2="118"/>
    <line x1="80" y1="118" x2="104" y2="130"/>
    <line x1="104" y1="130" x2="128" y2="118"/>
    <line x1="128" y1="118" x2="152" y2="130"/>
    <line x1="56" y1="130" x2="80" y2="142"/>
    <line x1="80" y1="142" x2="104" y2="130"/>
    <line x1="104" y1="130" x2="128" y2="142"/>
    <line x1="128" y1="142" x2="152" y2="130"/>
    <line x1="56" y1="106" x2="56" y2="130"/>
    <line x1="152" y1="106" x2="152" y2="130"/>
    <line x1="80" y1="118" x2="80" y2="142"/>
    <line x1="128" y1="118" x2="128" y2="142"/>
    <line x1="104" y1="130" x2="104" y2="154"/>
    <line x1="56" y1="106" x2="80" y2="118"/>
    <line x1="152" y1="106" x2="128" y2="118"/>
    <line x1="80" y1="142" x2="56" y2="130"/>
    <line x1="128" y1="142" x2="152" y2="130"/>
  </g>
  <g stroke="#7ecfff" stroke-width="1.0" fill="none" opacity="0.5">
    <line x1="104" y1="34" x2="80" y2="46"/>
    <line x1="104" y1="34" x2="128" y2="46"/>
    <line x1="104" y1="34" x2="104" y2="58"/>
    <line x1="152" y1="58" x2="176" y2="46"/>
    <line x1="152" y1="82" x2="176" y2="70"/>
    <line x1="176" y1="46" x2="176" y2="70"/>
    <line x1="152" y1="106" x2="176" y2="94"/>
    <line x1="176" y1="70" x2="176" y2="94"/>
    <line x1="56" y1="58" x2="32" y2="70"/>
    <line x1="56" y1="82" x2="32" y2="94"/>
    <line x1="32" y1="70" x2="32" y2="94"/>
  </g>
  <g filter="url(#softGlow)">
    <circle cx="80" cy="46" r="2.2" fill="#3a8fcc" opacity="0.6"/>
    <circle cx="104" cy="58" r="2.2" fill="#3a8fcc" opacity="0.6"/>
    <circle cx="128" cy="46" r="2.2" fill="#3a8fcc" opacity="0.6"/>
    <circle cx="56" cy="58" r="2.0" fill="#3a8fcc" opacity="0.5"/>
    <circle cx="152" cy="58" r="2.0" fill="#3a8fcc" opacity="0.5"/>
    <circle cx="80" cy="70" r="2.2" fill="#4aa8d8" opacity="0.7"/>
    <circle cx="104" cy="82" r="2.5" fill="#5ab4e8" opacity="0.8"/>
    <circle cx="128" cy="70" r="2.2" fill="#4aa8d8" opacity="0.7"/>
    <circle cx="56" cy="82" r="2.0" fill="#4aa8d8" opacity="0.6"/>
    <circle cx="152" cy="82" r="2.0" fill="#4aa8d8" opacity="0.6"/>
    <circle cx="80" cy="94" r="2.5" fill="#5ab4e8" opacity="0.85"/>
    <circle cx="128" cy="94" r="2.5" fill="#5ab4e8" opacity="0.85"/>
    <circle cx="104" cy="106" r="2.8" fill="#7ecfff" opacity="0.9"/>
    <circle cx="56" cy="106" r="2.2" fill="#4aa8d8" opacity="0.7"/>
    <circle cx="152" cy="106" r="2.2" fill="#4aa8d8" opacity="0.7"/>
    <circle cx="80" cy="118" r="2.8" fill="#7ecfff" opacity="0.95"/>
    <circle cx="128" cy="118" r="2.8" fill="#7ecfff" opacity="0.95"/>
    <circle cx="104" cy="130" r="3.0" fill="#a8e0ff" opacity="1.0"/>
    <circle cx="56" cy="130" r="2.2" fill="#5ab4e8" opacity="0.75"/>
    <circle cx="152" cy="130" r="2.2" fill="#5ab4e8" opacity="0.75"/>
    <circle cx="80" cy="142" r="2.5" fill="#6cc4f0" opacity="0.85"/>
    <circle cx="128" cy="142" r="2.5" fill="#6cc4f0" opacity="0.85"/>
    <circle cx="104" cy="34" r="2.5" fill="#5ab4e8" opacity="0.65"/>
    <circle cx="176" cy="46" r="1.8" fill="#3a8fcc" opacity="0.4"/>
    <circle cx="176" cy="70" r="1.8" fill="#3a8fcc" opacity="0.4"/>
    <circle cx="176" cy="94" r="1.8" fill="#3a8fcc" opacity="0.4"/>
    <circle cx="32" cy="70" r="1.8" fill="#3a8fcc" opacity="0.4"/>
    <circle cx="32" cy="94" r="1.8" fill="#3a8fcc" opacity="0.4"/>
  </g>
  <g opacity="0.35">
    <circle cx="104" cy="130" r="6" fill="none" stroke="#a8e0ff" stroke-width="0.8"/>
    <circle cx="80" cy="118" r="5" fill="none" stroke="#7ecfff" stroke-width="0.6"/>
    <circle cx="128" cy="118" r="5" fill="none" stroke="#7ecfff" stroke-width="0.6"/>
    <circle cx="104" cy="106" r="4.5" fill="none" stroke="#5ab4e8" stroke-width="0.5"/>
  </g>
  <text x="210" y="88" font-family="'Courier New', Courier, monospace" font-size="18" font-weight="700" letter-spacing="1" fill="#e8f6ff" filter="url(#textGlow)" text-anchor="middle">AGENTIC</text>
  <text x="210" y="110" font-family="'Courier New', Courier, monospace" font-size="12" font-weight="400" letter-spacing="2.5" fill="#5ab4e8" filter="url(#glow)" text-anchor="middle">LEAD  GEN</text>
  <line x1="170" y1="118" x2="252" y2="118" stroke="#2a6fa8" stroke-width="0.6" opacity="0.7"/>
  <text x="211" y="131" font-family="'Courier New', Courier, monospace" font-size="7" letter-spacing="1.8" fill="#2a6fa8" text-anchor="middle">STRUCTURED · PRECISE · SCALABLE</text>
  <g stroke="#1d5a8a" stroke-width="0.8" opacity="0.6">
    <polyline points="8,8 8,18 18,18" fill="none"/>
    <polyline points="292,8 292,18 282,18" fill="none"/>
    <polyline points="8,192 8,182 18,182" fill="none"/>
    <polyline points="292,192 292,182 282,182" fill="none"/>
  </g>
  <text x="291" y="196" font-family="'Courier New', Courier, monospace" font-size="5.5" fill="#1d4a6a" text-anchor="end" opacity="0.7">v2.0</text>
</svg>
