<svg xmlns="http://www.w3.org/2000/svg" viewBox="0 0 300 200" width="300" height="200">
  <defs>
    <linearGradient id="waveGrad" x1="0%" y1="0%" x2="100%" y2="0%">
      <stop offset="0%" style="stop-color:#7B2FFF;stop-opacity:1" />
      <stop offset="50%" style="stop-color:#C03FE8;stop-opacity:1" />
      <stop offset="100%" style="stop-color:#FF3CAC;stop-opacity:1" />
    </linearGradient>
    <linearGradient id="barGrad" x1="0%" y1="0%" x2="0%" y2="100%">
      <stop offset="0%" style="stop-color:#FF3CAC;stop-opacity:1" />
      <stop offset="100%" style="stop-color:#7B2FFF;stop-opacity:0.5" />
    </linearGradient>
    <linearGradient id="bgGrad" x1="0%" y1="0%" x2="100%" y2="100%">
      <stop offset="0%" style="stop-color:#0D0D1A;stop-opacity:1" />
      <stop offset="100%" style="stop-color:#1A0D2E;stop-opacity:1" />
    </linearGradient>
    <filter id="glow">
      <feGaussianBlur stdDeviation="2.5" result="coloredBlur"/>
      <feMerge>
        <feMergeNode in="coloredBlur"/>
        <feMergeNode in="SourceGraphic"/>
      </feMerge>
    </filter>
    <filter id="softGlow">
      <feGaussianBlur stdDeviation="4" result="coloredBlur"/>
      <feMerge>
        <feMergeNode in="coloredBlur"/>
        <feMergeNode in="SourceGraphic"/>
      </feMerge>
    </filter>
    <clipPath id="barClip">
      <rect x="0" y="0" width="300" height="200"/>
    </clipPath>
  </defs>

  <!-- Background -->
  <rect width="300" height="200" fill="url(#bgGrad)" rx="12"/>

  <!-- Subtle background glow orb -->
  <ellipse cx="150" cy="95" rx="110" ry="55" fill="#7B2FFF" opacity="0.07"/>

  <!-- Pulse rings emanating outward (outreach metaphor) -->
  <circle cx="150" cy="95" r="30" fill="none" stroke="#C03FE8" stroke-width="0.5" opacity="0.15"/>
  <circle cx="150" cy="95" r="55" fill="none" stroke="#C03FE8" stroke-width="0.5" opacity="0.10"/>
  <circle cx="150" cy="95" r="82" fill="none" stroke="#C03FE8" stroke-width="0.5" opacity="0.06"/>

  <!-- Equalizer bars — center-anchored, varying heights -->
  <!-- Bar heights (half-height from center): 18 22 30 42 52 60 52 42 30 22 18 12 18 22 30 42 52 60 52 42 30 22 18 -->
  <!-- Bar width: 6px, gap: 3px, 23 bars, total = 23*6 + 22*3 = 138+66 = 204px, start x = (300-204)/2 = 48 -->

  <g filter="url(#glow)" clip-path="url(#barClip)">
    <!-- Bar 1: h=18 -->
    <rect x="48" y="77" width="6" height="36" rx="3" fill="url(#barGrad)" opacity="0.55"/>
    <!-- Bar 2: h=22 -->
    <rect x="57" y="73" width="6" height="44" rx="3" fill="url(#barGrad)" opacity="0.62"/>
    <!-- Bar 3: h=30 -->
    <rect x="66" y="65" width="6" height="60" rx="3" fill="url(#barGrad)" opacity="0.70"/>
    <!-- Bar 4: h=42 -->
    <rect x="75" y="53" width="6" height="84" rx="3" fill="url(#barGrad)" opacity="0.78"/>
    <!-- Bar 5: h=52 -->
    <rect x="84" y="43" width="6" height="104" rx="3" fill="url(#barGrad)" opacity="0.85"/>
    <!-- Bar 6: h=60 -->
    <rect x="93" y="35" width="6" height="120" rx="3" fill="url(#waveGrad)" opacity="0.90"/>
    <!-- Bar 7: h=52 -->
    <rect x="102" y="43" width="6" height="104" rx="3" fill="url(#barGrad)" opacity="0.85"/>
    <!-- Bar 8: h=42 -->
    <rect x="111" y="53" width="6" height="84" rx="3" fill="url(#barGrad)" opacity="0.78"/>
    <!-- Bar 9: h=56 -->
    <rect x="120" y="39" width="6" height="112" rx="3" fill="url(#waveGrad)" opacity="0.88"/>
    <!-- Bar 10: h=64 (tallest) -->
    <rect x="129" y="31" width="6" height="128" rx="3" fill="url(#waveGrad)" opacity="0.95"/>
    <!-- Bar 11: h=64 (tallest, center) -->
    <rect x="138" y="31" width="6" height="128" rx="3" fill="url(#waveGrad)" opacity="1"/>
    <!-- Bar 12: h=64 (tallest, center) -->
    <rect x="147" y="31" width="6" height="128" rx="3" fill="url(#waveGrad)" opacity="1"/>
    <!-- Bar 13: h=64 (tallest) -->
    <rect x="156" y="31" width="6" height="128" rx="3" fill="url(#waveGrad)" opacity="0.95"/>
    <!-- Bar 14: h=56 -->
    <rect x="165" y="39" width="6" height="112" rx="3" fill="url(#waveGrad)" opacity="0.88"/>
    <!-- Bar 15: h=42 -->
    <rect x="174" y="53" width="6" height="84" rx="3" fill="url(#barGrad)" opacity="0.78"/>
    <!-- Bar 16: h=52 -->
    <rect x="183" y="43" width="6" height="104" rx="3" fill="url(#barGrad)" opacity="0.85"/>
    <!-- Bar 17: h=60 -->
    <rect x="192" y="35" width="6" height="120" rx="3" fill="url(#waveGrad)" opacity="0.90"/>
    <!-- Bar 18: h=52 -->
    <rect x="201" y="43" width="6" height="104" rx="3" fill="url(#barGrad)" opacity="0.85"/>
    <!-- Bar 19: h=42 -->
    <rect x="210" y="53" width="6" height="84" rx="3" fill="url(#barGrad)" opacity="0.78"/>
    <!-- Bar 20: h=30 -->
    <rect x="219" y="65" width="6" height="60" rx="3" fill="url(#barGrad)" opacity="0.70"/>
    <!-- Bar 21: h=22 -->
    <rect x="228" y="73" width="6" height="44" rx="3" fill="url(#barGrad)" opacity="0.62"/>
    <!-- Bar 22: h=18 -->
    <rect x="237" y="77" width="6" height="36" rx="3" fill="url(#barGrad)" opacity="0.55"/>
    <!-- Bar 23: h=12 -->
    <rect x="246" y="83" width="6" height="24" rx="3" fill="url(#barGrad)" opacity="0.45"/>
  </g>

  <!-- Horizontal center line (heartbeat baseline) -->
  <line x1="36" y1="95" x2="264" y2="95" stroke="#C03FE8" stroke-width="0.5" opacity="0.25" stroke-dasharray="3,4"/>

  <!-- Text: Agentic Lead Gen -->
  <text
    x="150"
    y="172"
    font-family="'SF Pro Display', 'Inter', 'Segoe UI', Arial, sans-serif"
    font-size="13.5"
    font-weight="700"
    letter-spacing="2.5"
    text-anchor="middle"
    fill="url(#waveGrad)"
    filter="url(#glow)"
  >AGENTIC LEAD GEN</text>

  <!-- Tagline -->
  <text
    x="150"
    y="187"
    font-family="'SF Pro Display', 'Inter', 'Segoe UI', Arial, sans-serif"
    font-size="6.5"
    font-weight="400"
    letter-spacing="3.5"
    text-anchor="middle"
    fill="#C03FE8"
    opacity="0.6"
  >SOUNDWAVE OUTREACH PULSE</text>
</svg>
