<svg xmlns="http://www.w3.org/2000/svg" viewBox="0 0 300 200" width="300" height="200">
  <defs>
    <linearGradient id="skyGrad" x1="0" y1="0" x2="0" y2="1">
      <stop offset="0%" stop-color="#0a1628"/>
      <stop offset="100%" stop-color="#0d2147"/>
    </linearGradient>
    <linearGradient id="waveGrad1" x1="0" y1="0" x2="0" y2="1">
      <stop offset="0%" stop-color="#1a3a6b"/>
      <stop offset="100%" stop-color="#0d2147"/>
    </linearGradient>
    <linearGradient id="crestGrad" x1="0" y1="0" x2="1" y2="0">
      <stop offset="0%" stop-color="#1a4a8a"/>
      <stop offset="60%" stop-color="#2563b0"/>
      <stop offset="100%" stop-color="#1a3a6b"/>
    </linearGradient>
  </defs>

  <!-- Background -->
  <rect width="300" height="200" fill="url(#skyGrad)"/>

  <!-- Distant horizon water -->
  <rect x="0" y="148" width="300" height="52" fill="#0a1e3d"/>

  <!-- Background small wave ripples -->
  <path d="M0 155 Q15 151 30 155 Q45 159 60 155 Q75 151 90 155 Q105 159 120 155 Q135 151 150 155 Q165 159 180 155 Q195 151 210 155 Q225 159 240 155 Q255 151 270 155 Q285 159 300 155 L300 160 L0 160Z" fill="#0f2a50" opacity="0.7"/>

  <!-- Main tidal wave body -->
  <path d="M-10 200 L-10 145 Q20 130 45 118 Q65 108 80 95 Q95 82 100 68 Q105 52 115 42 Q128 30 148 35 Q168 40 178 58 Q188 75 192 90 Q198 110 210 118 Q228 128 255 122 Q278 118 300 108 L300 200Z" fill="url(#waveGrad1)"/>

  <!-- Wave curl / tube interior shadow -->
  <path d="M100 68 Q105 52 115 42 Q128 30 148 35 Q168 40 178 58 Q186 72 188 85 Q180 72 168 65 Q152 57 138 60 Q122 64 112 75 Q106 82 104 90 Q100 80 100 68Z" fill="#0a1628"/>

  <!-- Wave crest curl top -->
  <path d="M90 95 Q95 82 100 68 Q106 82 104 90 Q112 75 122 64 Q138 60 152 57 Q168 65 180 72 Q186 78 188 85 Q192 90 192 90 Q198 110 210 118 Q195 108 185 100 Q172 90 162 82 Q148 72 134 74 Q118 77 110 88 Q100 102 98 115 Q88 106 90 95Z" fill="url(#crestGrad)"/>

  <!-- Foam lines on wave crest — Japanese woodblock style -->
  <path d="M108 88 Q120 78 136 76 Q152 74 164 83 Q174 90 180 100" fill="none" stroke="white" stroke-width="2.2" stroke-linecap="round" opacity="0.9"/>
  <path d="M104 96 Q118 85 136 82 Q155 79 168 89 Q180 98 186 112" fill="none" stroke="white" stroke-width="1.6" stroke-linecap="round" opacity="0.75"/>
  <path d="M99 108 Q115 96 136 92 Q158 88 172 98 Q184 108 190 122" fill="none" stroke="white" stroke-width="1.2" stroke-linecap="round" opacity="0.6"/>

  <!-- Foam drips from curl tip -->
  <path d="M148 35 Q155 28 162 32 Q170 37 168 45" fill="none" stroke="white" stroke-width="1.8" stroke-linecap="round" opacity="0.85"/>
  <path d="M135 37 Q128 30 120 35 Q115 40 116 48" fill="none" stroke="white" stroke-width="1.4" stroke-linecap="round" opacity="0.7"/>

  <!-- Spray dots at curl tip -->
  <circle cx="150" cy="30" r="1.5" fill="white" opacity="0.8"/>
  <circle cx="158" cy="27" r="1" fill="white" opacity="0.7"/>
  <circle cx="143" cy="28" r="1.2" fill="white" opacity="0.65"/>
  <circle cx="165" cy="31" r="0.8" fill="white" opacity="0.6"/>
  <circle cx="138" cy="31" r="0.9" fill="white" opacity="0.55"/>
  <circle cx="155" cy="24" r="0.7" fill="white" opacity="0.5"/>
  <circle cx="148" cy="22" r="0.6" fill="white" opacity="0.45"/>
  <circle cx="163" cy="25" r="0.6" fill="white" opacity="0.4"/>

  <!-- Water trough in front of wave -->
  <path d="M-10 145 Q20 130 45 118 Q65 108 80 95 Q88 106 90 95 Q80 110 70 122 Q50 136 20 146 L-10 150Z" fill="#0f2550"/>

  <!-- Foam lines on lower wave face -->
  <path d="M20 136 Q40 126 62 118 Q78 112 88 105" fill="none" stroke="white" stroke-width="1.4" stroke-linecap="round" opacity="0.5"/>
  <path d="M10 142 Q32 133 55 124 Q72 117 84 110" fill="none" stroke="white" stroke-width="1" stroke-linecap="round" opacity="0.35"/>

  <!-- Right wave shoulder foam -->
  <path d="M210 118 Q228 128 255 122 Q278 118 300 108" fill="none" stroke="white" stroke-width="1.8" stroke-linecap="round" opacity="0.55"/>
  <path d="M205 128 Q230 136 258 130 Q278 126 300 118" fill="none" stroke="white" stroke-width="1.2" stroke-linecap="round" opacity="0.4"/>

  <!-- Horizon wave lines — background texture -->
  <path d="M0 142 Q25 138 50 142 Q75 146 100 142 Q125 138 150 142 Q175 146 200 142 Q225 138 250 142 Q275 146 300 142" fill="none" stroke="white" stroke-width="0.8" opacity="0.25"/>
  <path d="M0 150 Q30 147 60 150 Q90 153 120 150 Q150 147 180 150 Q210 153 240 150 Q270 147 300 150" fill="none" stroke="white" stroke-width="0.6" opacity="0.2"/>

  <!-- Decorative separator line -->
  <line x1="80" y1="176" x2="220" y2="176" stroke="white" stroke-width="0.5" opacity="0.3"/>

  <!-- Main logotype -->
  <text x="150" y="172" font-family="'Arial Black', 'Arial', sans-serif" font-weight="900" font-size="16" fill="white" text-anchor="middle" letter-spacing="3" opacity="0.95">AGENTIC LEAD GEN</text>

  <!-- Tagline -->
  <text x="150" y="188" font-family="'Arial', sans-serif" font-weight="400" font-size="7" fill="white" text-anchor="middle" letter-spacing="4" opacity="0.55">TIDAL SURGE MOMENTUM</text>
</svg>
