<svg xmlns="http://www.w3.org/2000/svg" viewBox="0 0 300 200" width="300" height="200">
  <defs>
    <!-- Deep dark background gradient -->
    <linearGradient id="skyGrad" x1="0" y1="0" x2="0" y2="1">
      <stop offset="0%" stop-color="#020810"/>
      <stop offset="60%" stop-color="#050f1f"/>
      <stop offset="100%" stop-color="#0a1628"/>
    </linearGradient>

    <!-- Ground gradient -->
    <linearGradient id="groundGrad" x1="0" y1="0" x2="0" y2="1">
      <stop offset="0%" stop-color="#0c1a2e"/>
      <stop offset="100%" stop-color="#060d18"/>
    </linearGradient>

    <!-- Searchlight beam gradient - cone from source -->
    <linearGradient id="beamGrad" x1="0" y1="1" x2="1" y2="0" gradientUnits="userSpaceOnUse"
      x1="38" y1="162" x2="220" y2="30">
      <stop offset="0%" stop-color="#fffde0" stop-opacity="0.95"/>
      <stop offset="25%" stop-color="#fff5a0" stop-opacity="0.75"/>
      <stop offset="60%" stop-color="#ffeA30" stop-opacity="0.35"/>
      <stop offset="100%" stop-color="#ffcc00" stop-opacity="0.0"/>
    </linearGradient>

    <!-- Beam glow radial at source -->
    <radialGradient id="sourceGlow" cx="50%" cy="50%" r="50%">
      <stop offset="0%" stop-color="#ffffff" stop-opacity="1"/>
      <stop offset="30%" stop-color="#fffde0" stop-opacity="0.9"/>
      <stop offset="70%" stop-color="#ffd700" stop-opacity="0.5"/>
      <stop offset="100%" stop-color="#ff9900" stop-opacity="0"/>
    </radialGradient>

    <!-- Beam secondary scatter -->
    <linearGradient id="scatterGrad" x1="0" y1="1" x2="1" y2="0" gradientUnits="userSpaceOnUse"
      x1="38" y1="162" x2="240" y2="20">
      <stop offset="0%" stop-color="#fffff0" stop-opacity="0.4"/>
      <stop offset="40%" stop-color="#fff0a0" stop-opacity="0.15"/>
      <stop offset="100%" stop-color="#ffd700" stop-opacity="0"/>
    </linearGradient>

    <!-- Illuminated highlight for buildings -->
    <linearGradient id="buildingHighlight" x1="0" y1="0" x2="1" y2="0">
      <stop offset="0%" stop-color="#1a3a5c"/>
      <stop offset="50%" stop-color="#ffe87a" stop-opacity="0.7"/>
      <stop offset="100%" stop-color="#0f2040"/>
    </linearGradient>

    <!-- Fog/atmosphere layer -->
    <radialGradient id="fogGrad" cx="45%" cy="70%" r="60%">
      <stop offset="0%" stop-color="#3a6fa8" stop-opacity="0.12"/>
      <stop offset="100%" stop-color="#0a1628" stop-opacity="0"/>
    </radialGradient>

    <!-- Clip path for beam -->
    <clipPath id="beamClip">
      <rect x="0" y="0" width="300" height="200"/>
    </clipPath>

    <!-- Filter: soft glow blur -->
    <filter id="glow" x="-20%" y="-20%" width="140%" height="140%">
      <feGaussianBlur stdDeviation="2.5" result="blur"/>
      <feMerge>
        <feMergeNode in="blur"/>
        <feMergeNode in="SourceGraphic"/>
      </feMerge>
    </filter>

    <!-- Filter: strong glow for source -->
    <filter id="sourceGlowFilter" x="-100%" y="-100%" width="300%" height="300%">
      <feGaussianBlur stdDeviation="5" result="blur"/>
      <feMerge>
        <feMergeNode in="blur"/>
        <feMergeNode in="blur"/>
        <feMergeNode in="SourceGraphic"/>
      </feMerge>
    </filter>

    <!-- Filter: building illumination -->
    <filter id="buildingGlow" x="-30%" y="-30%" width="160%" height="160%">
      <feGaussianBlur stdDeviation="1.5" result="blur"/>
      <feMerge>
        <feMergeNode in="blur"/>
        <feMergeNode in="SourceGraphic"/>
      </feMerge>
    </filter>

    <!-- Filter: ambient beam diffusion -->
    <filter id="beamBlur">
      <feGaussianBlur stdDeviation="3"/>
    </filter>

    <!-- Stars pattern -->
    <pattern id="stars" x="0" y="0" width="50" height="50" patternUnits="userSpaceOnUse">
      <circle cx="5" cy="8" r="0.4" fill="#8ab4d4" opacity="0.6"/>
      <circle cx="22" cy="3" r="0.3" fill="#aac8e4" opacity="0.5"/>
      <circle cx="38" cy="12" r="0.5" fill="#ffffff" opacity="0.4"/>
      <circle cx="12" cy="28" r="0.3" fill="#8ab4d4" opacity="0.5"/>
      <circle cx="45" cy="22" r="0.4" fill="#aac8e4" opacity="0.3"/>
      <circle cx="30" cy="40" r="0.3" fill="#ffffff" opacity="0.4"/>
      <circle cx="8" cy="44" r="0.5" fill="#8ab4d4" opacity="0.3"/>
      <circle cx="48" cy="46" r="0.3" fill="#aac8e4" opacity="0.5"/>
    </pattern>
  </defs>

  <!-- Background sky -->
  <rect width="300" height="200" fill="url(#skyGrad)"/>

  <!-- Stars -->
  <rect width="300" height="140" fill="url(#stars)"/>

  <!-- Distant horizon glow (city ambient) -->
  <ellipse cx="195" cy="138" rx="90" ry="18" fill="#0d2a4a" opacity="0.6"/>
  <ellipse cx="195" cy="138" rx="60" ry="10" fill="#112e52" opacity="0.4"/>

  <!-- Ground plane -->
  <rect x="0" y="140" width="300" height="60" fill="url(#groundGrad)"/>

  <!-- Ground line subtle highlight -->
  <line x1="0" y1="140" x2="300" y2="140" stroke="#0d2a4a" stroke-width="1" opacity="0.7"/>

  <!-- === SEARCHLIGHT BEAM (background soft cone) === -->
  <polygon
    points="36,162 8,0 75,0"
    fill="url(#scatterGrad)"
    filter="url(#beamBlur)"
    opacity="0.5"
    clip-path="url(#beamClip)"
  />

  <!-- Main beam cone -->
  <polygon
    points="38,163 15,0 68,0"
    fill="url(#beamGrad)"
    opacity="0.85"
    clip-path="url(#beamClip)"
  />

  <!-- Inner bright beam core -->
  <polygon
    points="38,163 30,0 50,0"
    fill="#fffde8"
    opacity="0.45"
    clip-path="url(#beamClip)"
    filter="url(#beamBlur)"
  />

  <!-- Beam edge rays (atmospheric scatter) -->
  <line x1="38" y1="163" x2="5" y2="0" stroke="#fffde0" stroke-width="0.5" opacity="0.2"/>
  <line x1="38" y1="163" x2="75" y2="0" stroke="#fffde0" stroke-width="0.5" opacity="0.2"/>
  <line x1="38" y1="163" x2="40" y2="0" stroke="#ffffff" stroke-width="1" opacity="0.3"/>

  <!-- Fog/atmosphere overlay on beam -->
  <rect width="300" height="200" fill="url(#fogGrad)"/>

  <!-- === DISTANT CITY SILHOUETTES (being illuminated) === -->

  <!-- Background dim buildings (not in beam) -->
  <g opacity="0.25" fill="#0b1e35">
    <!-- Far right buildings -->
    <rect x="240" y="112" width="12" height="28"/>
    <rect x="255" y="118" width="8" height="22"/>
    <rect x="266" y="108" width="14" height="32"/>
    <rect x="283" y="120" width="10" height="20"/>
    <rect x="246" y="106" width="6" height="6"/>
    <!-- Far left buildings -->
    <rect x="0" y="120" width="10" height="20"/>
    <rect x="12" y="115" width="8" height="25"/>
  </g>

  <!-- Mid buildings (partially illuminated, beam edge) -->
  <g filter="url(#buildingGlow)">
    <!-- Building cluster in beam zone - illuminated face -->
    <rect x="90" y="105" width="16" height="35" fill="#0e2540" opacity="0.9"/>
    <rect x="90" y="103" width="4" height="3" fill="#0e2540" opacity="0.9"/><!-- antenna -->
    <!-- Lit face from beam -->
    <rect x="90" y="105" width="3" height="35" fill="#d4a820" opacity="0.5"/>

    <rect x="110" y="98" width="20" height="42" fill="#0c2238" opacity="0.9"/>
    <rect x="117" y="95" width="5" height="4" fill="#0c2238" opacity="0.9"/>
    <!-- Lit face -->
    <rect x="110" y="98" width="4" height="42" fill="#e8c030" opacity="0.55"/>
    <!-- Windows illuminated -->
    <rect x="115" y="102" width="3" height="3" fill="#ffe870" opacity="0.8"/>
    <rect x="120" y="102" width="3" height="3" fill="#ffe870" opacity="0.7"/>
    <rect x="115" y="110" width="3" height="3" fill="#ffe870" opacity="0.6"/>
    <rect x="120" y="110" width="3" height="3" fill="#ffe870" opacity="0.5"/>
    <rect x="115" y="118" width="3" height="3" fill="#ffd040" opacity="0.4"/>

    <rect x="135" y="110" width="14" height="30" fill="#0d2030" opacity="0.9"/>
    <rect x="140" y="107" width="4" height="4" fill="#0d2030"/>
    <!-- Lit face -->
    <rect x="135" y="110" width="3" height="30" fill="#c89010" opacity="0.4"/>
    <!-- Windows -->
    <rect x="139" y="114" width="3" height="2" fill="#ffd840" opacity="0.6"/>
    <rect x="144" y="114" width="3" height="2" fill="#ffd840" opacity="0.5"/>
    <rect x="139" y="120" width="3" height="2" fill="#ffcc20" opacity="0.4"/>

    <rect x="153" y="118" width="10" height="22" fill="#0e1e30" opacity="0.85"/>
    <!-- Lit face diminishing -->
    <rect x="153" y="118" width="2" height="22" fill="#a07008" opacity="0.3"/>

    <!-- Taller landmark building -->
    <rect x="170" y="95" width="18" height="45" fill="#0a1c2e" opacity="0.8"/>
    <rect x="177" y="90" width="4" height="6" fill="#0a1c2e" opacity="0.8"/>
    <rect x="178" y="87" width="2" height="4" fill="#0a1c2e" opacity="0.8"/>
    <!-- Barely lit edge -->
    <rect x="170" y="95" width="2" height="45" fill="#806005" opacity="0.25"/>
  </g>

  <!-- Foreground dark buildings (silhouette, not illuminated) -->
  <g fill="#06101e" opacity="0.95">
    <rect x="200" y="110" width="22" height="30"/>
    <rect x="205" y="105" width="6" height="6"/><!-- rooftop unit -->
    <rect x="225" y="115" width="15" height="25"/>
    <rect x="229" y="111" width="4" height="5"/>
    <rect x="242" y="120" width="12" height="20"/>
    <rect x="260" y="118" width="16" height="22"/>
    <rect x="268" y="113" width="5" height="6"/>
    <rect x="278" y="122" width="10" height="18"/>
    <rect x="287" y="126" width="8" height="14"/>
    <!-- Left side dark silhouettes -->
    <rect x="0" y="122" width="8" height="18"/>
  </g>

  <!-- Ground details - road/surface markings -->
  <line x1="0" y1="155" x2="300" y2="155" stroke="#0d2238" stroke-width="0.5" opacity="0.5"/>
  <!-- Beam ground pool of light -->
  <ellipse cx="42" cy="162" rx="22" ry="6" fill="#ffe060" opacity="0.25" filter="url(#beamBlur)"/>

  <!-- === SEARCHLIGHT HOUSING === -->
  <!-- Base mount -->
  <rect x="26" y="164" width="24" height="6" rx="2" fill="#1a3a5c"/>
  <rect x="29" y="162" width="18" height="4" rx="1" fill="#1e4268"/>
  <!-- Housing body -->
  <ellipse cx="38" cy="162" rx="10" ry="6" fill="#1e3f6a"/>
  <ellipse cx="38" cy="162" rx="8" ry="4.5" fill="#2a5490"/>
  <!-- Lens -->
  <ellipse cx="38" cy="162" rx="5" ry="3" fill="#fffde0" filter="url(#sourceGlowFilter)" opacity="0.95"/>
  <ellipse cx="38" cy="162" rx="3" ry="2" fill="#ffffff"/>
  <!-- Lens center hotspot -->
  <ellipse cx="38" cy="162" rx="1.5" ry="1" fill="#ffffff" opacity="0.95"/>
  <!-- Source glow halo -->
  <ellipse cx="38" cy="162" rx="14" ry="10" fill="url(#sourceGlow)" opacity="0.7" filter="url(#beamBlur)"/>

  <!-- Mounting arm -->
  <line x1="38" y1="166" x2="38" y2="172" stroke="#152e4a" stroke-width="3" stroke-linecap="round"/>
  <rect x="32" y="170" width="12" height="3" rx="1.5" fill="#0f2236"/>

  <!-- === TEXT === -->
  <!-- "AGENTIC" label -->
  <text
    x="150"
    y="160"
    text-anchor="middle"
    font-family="'Arial', 'Helvetica Neue', sans-serif"
    font-size="9"
    font-weight="700"
    letter-spacing="4"
    fill="#7aafd4"
    opacity="0.9"
  >AGENTIC</text>

  <!-- "LEAD GEN" main title -->
  <text
    x="150"
    y="175"
    text-anchor="middle"
    font-family="'Arial', 'Helvetica Neue', sans-serif"
    font-size="14"
    font-weight="900"
    letter-spacing="3"
    fill="#ffffff"
    filter="url(#glow)"
  >LEAD GEN</text>

  <!-- Subtle tagline -->
  <text
    x="150"
    y="187"
    text-anchor="middle"
    font-family="'Arial', 'Helvetica Neue', sans-serif"
    font-size="5.5"
    font-weight="400"
    letter-spacing="2.5"
    fill="#3a6fa8"
    opacity="0.8"
  >ILLUMINATE YOUR PROSPECTS</text>

  <!-- Decorative accent lines flanking title -->
  <line x1="68" y1="174" x2="96" y2="174" stroke="#2a5490" stroke-width="0.7" opacity="0.7"/>
  <line x1="204" y1="174" x2="232" y2="174" stroke="#2a5490" stroke-width="0.7" opacity="0.7"/>

  <!-- Small diamond accents -->
  <polygon points="100,174 103,171.5 106,174 103,176.5" fill="#3a6fa8" opacity="0.6"/>
  <polygon points="194,174 197,171.5 200,174 197,176.5" fill="#3a6fa8" opacity="0.6"/>
</svg>
