<svg xmlns="http://www.w3.org/2000/svg" viewBox="0 0 300 200" width="300" height="200">
  <defs>
    <radialGradient id="bgGrad" cx="50%" cy="45%" r="60%">
      <stop offset="0%" stop-color="#0a0f1e"/>
      <stop offset="100%" stop-color="#020408"/>
    </radialGradient>
    <radialGradient id="coreGlow" cx="50%" cy="50%" r="50%">
      <stop offset="0%" stop-color="#ffffff" stop-opacity="1"/>
      <stop offset="20%" stop-color="#e8f4ff" stop-opacity="0.95"/>
      <stop offset="50%" stop-color="#60b8ff" stop-opacity="0.6"/>
      <stop offset="100%" stop-color="#1a3a6e" stop-opacity="0"/>
    </radialGradient>
    <radialGradient id="outerHalo" cx="50%" cy="50%" r="50%">
      <stop offset="0%" stop-color="#4a9fff" stop-opacity="0.15"/>
      <stop offset="60%" stop-color="#1a5fa8" stop-opacity="0.05"/>
      <stop offset="100%" stop-color="#0d2a4e" stop-opacity="0"/>
    </radialGradient>
    <filter id="coreBlur" x="-100%" y="-100%" width="300%" height="300%">
      <feGaussianBlur stdDeviation="3.5"/>
    </filter>
    <filter id="softGlow" x="-100%" y="-100%" width="300%" height="300%">
      <feGaussianBlur stdDeviation="6"/>
    </filter>
    <clipPath id="bounds">
      <rect width="300" height="200"/>
    </clipPath>
  </defs>

  <rect width="300" height="200" fill="url(#bgGrad)"/>
  <circle cx="150" cy="88" r="70" fill="url(#outerHalo)" filter="url(#softGlow)"/>

  <g clip-path="url(#bounds)">

    <!-- Spiral arm strokes -->
    <path d="M 230 55 C 210 50, 190 55, 175 65 C 163 73, 158 80, 152 86"
          fill="none" stroke="#4a9fff" stroke-width="0.8" stroke-opacity="0.35" stroke-linecap="round"/>
    <path d="M 265 42 C 250 38, 238 44, 230 55"
          fill="none" stroke="#2a6aaf" stroke-width="0.5" stroke-opacity="0.2" stroke-linecap="round"/>
    <path d="M 220 125 C 205 115, 190 108, 175 100 C 164 93, 157 90, 151 88"
          fill="none" stroke="#5ab4ff" stroke-width="0.8" stroke-opacity="0.35" stroke-linecap="round"/>
    <path d="M 255 150 C 242 138, 230 130, 220 125"
          fill="none" stroke="#2a6aaf" stroke-width="0.5" stroke-opacity="0.2" stroke-linecap="round"/>
    <path d="M 72 120 C 90 112, 108 108, 124 100 C 137 93, 144 90, 149 88"
          fill="none" stroke="#4a9fff" stroke-width="0.8" stroke-opacity="0.35" stroke-linecap="round"/>
    <path d="M 40 138 C 52 130, 63 124, 72 120"
          fill="none" stroke="#2a6aaf" stroke-width="0.5" stroke-opacity="0.2" stroke-linecap="round"/>
    <path d="M 82 52 C 98 55, 115 62, 128 72 C 139 80, 145 84, 149 87"
          fill="none" stroke="#5ab4ff" stroke-width="0.8" stroke-opacity="0.35" stroke-linecap="round"/>
    <path d="M 48 38 C 60 42, 72 47, 82 52"
          fill="none" stroke="#2a6aaf" stroke-width="0.5" stroke-opacity="0.2" stroke-linecap="round"/>
    <path d="M 175 70 C 168 72, 162 76, 157 81 C 154 84, 152 86, 151 87"
          fill="none" stroke="#7dd3ff" stroke-width="0.6" stroke-opacity="0.45" stroke-linecap="round"/>
    <path d="M 172 108 C 165 104, 160 98, 155 93 C 153 91, 151 89, 150.5 88"
          fill="none" stroke="#7dd3ff" stroke-width="0.6" stroke-opacity="0.45" stroke-linecap="round"/>
    <path d="M 126 104 C 133 100, 139 96, 144 92 C 147 90, 149 89, 150 88"
          fill="none" stroke="#7dd3ff" stroke-width="0.6" stroke-opacity="0.45" stroke-linecap="round"/>
    <path d="M 130 72 C 136 76, 141 80, 145 84 C 147 86, 149 87, 150 88"
          fill="none" stroke="#7dd3ff" stroke-width="0.6" stroke-opacity="0.45" stroke-linecap="round"/>

    <!-- Ring 5 outermost dots -->
    <circle cx="265" cy="42"  r="1.4" fill="#2a5a9f" fill-opacity="0.45"/>
    <circle cx="248" cy="28"  r="1.2" fill="#2a5a9f" fill-opacity="0.38"/>
    <circle cx="230" cy="22"  r="1.0" fill="#2a5a9f" fill-opacity="0.32"/>
    <circle cx="210" cy="20"  r="1.3" fill="#2a5a9f" fill-opacity="0.40"/>
    <circle cx="188" cy="18"  r="1.1" fill="#2a5a9f" fill-opacity="0.35"/>
    <circle cx="168" cy="16"  r="1.2" fill="#2a5a9f" fill-opacity="0.38"/>
    <circle cx="148" cy="15"  r="1.0" fill="#2a5a9f" fill-opacity="0.32"/>
    <circle cx="128" cy="17"  r="1.3" fill="#2a5a9f" fill-opacity="0.40"/>
    <circle cx="108" cy="22"  r="1.1" fill="#2a5a9f" fill-opacity="0.35"/>
    <circle cx="90"  cy="28"  r="1.2" fill="#2a5a9f" fill-opacity="0.38"/>
    <circle cx="50"  cy="38"  r="1.4" fill="#2a5a9f" fill-opacity="0.42"/>
    <circle cx="35"  cy="55"  r="1.2" fill="#2a5a9f" fill-opacity="0.38"/>
    <circle cx="28"  cy="72"  r="1.0" fill="#2a5a9f" fill-opacity="0.32"/>
    <circle cx="25"  cy="92"  r="1.3" fill="#2a5a9f" fill-opacity="0.40"/>
    <circle cx="28"  cy="112" r="1.1" fill="#2a5a9f" fill-opacity="0.35"/>
    <circle cx="36"  cy="130" r="1.2" fill="#2a5a9f" fill-opacity="0.38"/>
    <circle cx="48"  cy="147" r="1.0" fill="#2a5a9f" fill-opacity="0.32"/>
    <circle cx="63"  cy="160" r="1.3" fill="#2a5a9f" fill-opacity="0.40"/>
    <circle cx="82"  cy="170" r="1.1" fill="#2a5a9f" fill-opacity="0.35"/>
    <circle cx="105" cy="176" r="1.2" fill="#2a5a9f" fill-opacity="0.38"/>
    <circle cx="128" cy="179" r="1.0" fill="#2a5a9f" fill-opacity="0.32"/>
    <circle cx="150" cy="180" r="1.3" fill="#2a5a9f" fill-opacity="0.40"/>
    <circle cx="172" cy="178" r="1.1" fill="#2a5a9f" fill-opacity="0.35"/>
    <circle cx="194" cy="174" r="1.2" fill="#2a5a9f" fill-opacity="0.38"/>
    <circle cx="215" cy="165" r="1.0" fill="#2a5a9f" fill-opacity="0.32"/>
    <circle cx="234" cy="153" r="1.3" fill="#2a5a9f" fill-opacity="0.40"/>
    <circle cx="250" cy="138" r="1.1" fill="#2a5a9f" fill-opacity="0.35"/>
    <circle cx="262" cy="120" r="1.2" fill="#2a5a9f" fill-opacity="0.38"/>
    <circle cx="270" cy="100" r="1.0" fill="#2a5a9f" fill-opacity="0.32"/>
    <circle cx="272" cy="78"  r="1.3" fill="#2a5a9f" fill-opacity="0.40"/>
    <circle cx="268" cy="59"  r="1.1" fill="#2a5a9f" fill-opacity="0.35"/>

    <!-- Ring 4 -->
    <circle cx="230" cy="55"  r="1.8" fill="#3a78c8" fill-opacity="0.55"/>
    <circle cx="215" cy="38"  r="1.6" fill="#3572c2" fill-opacity="0.50"/>
    <circle cx="195" cy="30"  r="1.5" fill="#3572c2" fill-opacity="0.48"/>
    <circle cx="172" cy="27"  r="1.7" fill="#3a78c8" fill-opacity="0.52"/>
    <circle cx="150" cy="26"  r="1.5" fill="#3572c2" fill-opacity="0.48"/>
    <circle cx="128" cy="30"  r="1.8" fill="#3a78c8" fill-opacity="0.55"/>
    <circle cx="107" cy="38"  r="1.6" fill="#3572c2" fill-opacity="0.50"/>
    <circle cx="88"  cy="52"  r="1.5" fill="#3572c2" fill-opacity="0.48"/>
    <circle cx="72"  cy="68"  r="1.7" fill="#3a78c8" fill-opacity="0.52"/>
    <circle cx="62"  cy="88"  r="1.5" fill="#3572c2" fill-opacity="0.48"/>
    <circle cx="65"  cy="108" r="1.8" fill="#3a78c8" fill-opacity="0.55"/>
    <circle cx="72"  cy="128" r="1.6" fill="#3572c2" fill-opacity="0.50"/>
    <circle cx="85"  cy="146" r="1.5" fill="#3572c2" fill-opacity="0.48"/>
    <circle cx="103" cy="160" r="1.7" fill="#3a78c8" fill-opacity="0.52"/>
    <circle cx="124" cy="167" r="1.5" fill="#3572c2" fill-opacity="0.48"/>
    <circle cx="150" cy="169" r="1.8" fill="#3a78c8" fill-opacity="0.55"/>
    <circle cx="175" cy="165" r="1.6" fill="#3572c2" fill-opacity="0.50"/>
    <circle cx="197" cy="156" r="1.5" fill="#3572c2" fill-opacity="0.48"/>
    <circle cx="215" cy="142" r="1.7" fill="#3a78c8" fill-opacity="0.52"/>
    <circle cx="228" cy="124" r="1.5" fill="#3572c2" fill-opacity="0.48"/>
    <circle cx="235" cy="103" r="1.8" fill="#3a78c8" fill-opacity="0.55"/>
    <circle cx="234" cy="79"  r="1.6" fill="#3572c2" fill-opacity="0.50"/>

    <!-- Ring 3 -->
    <circle cx="220" cy="68"  r="2.0" fill="#4a8ed8" fill-opacity="0.62"/>
    <circle cx="210" cy="52"  r="1.9" fill="#4888d4" fill-opacity="0.60"/>
    <circle cx="194" cy="44"  r="1.8" fill="#4888d4" fill-opacity="0.58"/>
    <circle cx="176" cy="40"  r="2.1" fill="#4a8ed8" fill-opacity="0.65"/>
    <circle cx="150" cy="39"  r="1.8" fill="#4888d4" fill-opacity="0.58"/>
    <circle cx="124" cy="43"  r="2.0" fill="#4a8ed8" fill-opacity="0.62"/>
    <circle cx="106" cy="52"  r="1.9" fill="#4888d4" fill-opacity="0.60"/>
    <circle cx="90"  cy="66"  r="1.8" fill="#4888d4" fill-opacity="0.58"/>
    <circle cx="80"  cy="84"  r="2.1" fill="#4a8ed8" fill-opacity="0.65"/>
    <circle cx="78"  cy="104" r="1.8" fill="#4888d4" fill-opacity="0.58"/>
    <circle cx="84"  cy="122" r="2.0" fill="#4a8ed8" fill-opacity="0.62"/>
    <circle cx="98"  cy="138" r="1.9" fill="#4888d4" fill-opacity="0.60"/>
    <circle cx="116" cy="150" r="1.8" fill="#4888d4" fill-opacity="0.58"/>
    <circle cx="138" cy="155" r="2.1" fill="#4a8ed8" fill-opacity="0.65"/>
    <circle cx="162" cy="154" r="1.8" fill="#4888d4" fill-opacity="0.58"/>
    <circle cx="184" cy="147" r="2.0" fill="#4a8ed8" fill-opacity="0.62"/>
    <circle cx="202" cy="134" r="1.9" fill="#4888d4" fill-opacity="0.60"/>
    <circle cx="214" cy="116" r="1.8" fill="#4888d4" fill-opacity="0.58"/>
    <circle cx="220" cy="96"  r="2.1" fill="#4a8ed8" fill-opacity="0.65"/>

    <!-- Ring 2 -->
    <circle cx="200" cy="76"  r="2.2" fill="#5aabee" fill-opacity="0.72"/>
    <circle cx="196" cy="60"  r="2.0" fill="#58a8ea" fill-opacity="0.70"/>
    <circle cx="182" cy="53"  r="2.1" fill="#58a8ea" fill-opacity="0.70"/>
    <circle cx="166" cy="50"  r="2.3" fill="#5aabee" fill-opacity="0.75"/>
    <circle cx="150" cy="50"  r="2.0" fill="#58a8ea" fill-opacity="0.70"/>
    <circle cx="134" cy="52"  r="2.2" fill="#5aabee" fill-opacity="0.72"/>
    <circle cx="119" cy="58"  r="2.0" fill="#58a8ea" fill-opacity="0.70"/>
    <circle cx="105" cy="68"  r="2.1" fill="#58a8ea" fill-opacity="0.70"/>
    <circle cx="97"  cy="82"  r="2.3" fill="#5aabee" fill-opacity="0.75"/>
    <circle cx="96"  cy="98"  r="2.0" fill="#58a8ea" fill-opacity="0.70"/>
    <circle cx="102" cy="114" r="2.2" fill="#5aabee" fill-opacity="0.72"/>
    <circle cx="114" cy="128" r="2.0" fill="#58a8ea" fill-opacity="0.70"/>
    <circle cx="130" cy="138" r="2.1" fill="#58a8ea" fill-opacity="0.70"/>
    <circle cx="150" cy="142" r="2.3" fill="#5aabee" fill-opacity="0.75"/>
    <circle cx="170" cy="138" r="2.0" fill="#58a8ea" fill-opacity="0.70"/>
    <circle cx="186" cy="128" r="2.2" fill="#5aabee" fill-opacity="0.72"/>
    <circle cx="198" cy="112" r="2.0" fill="#58a8ea" fill-opacity="0.70"/>
    <circle cx="204" cy="95"  r="2.3" fill="#5aabee" fill-opacity="0.75"/>

    <!-- Ring 1 -->
    <circle cx="175" cy="70"  r="2.4" fill="#7dd3ff" fill-opacity="0.82"/>
    <circle cx="168" cy="64"  r="2.2" fill="#7ad0fc" fill-opacity="0.80"/>
    <circle cx="158" cy="62"  r="2.3" fill="#7ad0fc" fill-opacity="0.80"/>
    <circle cx="150" cy="62"  r="2.5" fill="#7dd3ff" fill-opacity="0.85"/>
    <circle cx="140" cy="64"  r="2.2" fill="#7ad0fc" fill-opacity="0.80"/>
    <circle cx="131" cy="70"  r="2.4" fill="#7dd3ff" fill-opacity="0.82"/>
    <circle cx="124" cy="78"  r="2.2" fill="#7ad0fc" fill-opacity="0.80"/>
    <circle cx="120" cy="88"  r="2.3" fill="#7ad0fc" fill-opacity="0.80"/>
    <circle cx="122" cy="98"  r="2.5" fill="#7dd3ff" fill-opacity="0.85"/>
    <circle cx="130" cy="107" r="2.2" fill="#7ad0fc" fill-opacity="0.80"/>
    <circle cx="140" cy="114" r="2.4" fill="#7dd3ff" fill-opacity="0.82"/>
    <circle cx="150" cy="116" r="2.2" fill="#7ad0fc" fill-opacity="0.80"/>
    <circle cx="160" cy="113" r="2.3" fill="#7ad0fc" fill-opacity="0.80"/>
    <circle cx="169" cy="107" r="2.5" fill="#7dd3ff" fill-opacity="0.85"/>
    <circle cx="176" cy="98"  r="2.2" fill="#7ad0fc" fill-opacity="0.80"/>
    <circle cx="179" cy="88"  r="2.4" fill="#7dd3ff" fill-opacity="0.82"/>
    <circle cx="177" cy="78"  r="2.2" fill="#7ad0fc" fill-opacity="0.80"/>

    <!-- Micro ring -->
    <circle cx="162" cy="78"  r="1.8" fill="#b8eaff" fill-opacity="0.90"/>
    <circle cx="156" cy="74"  r="1.7" fill="#c4eeff" fill-opacity="0.88"/>
    <circle cx="150" cy="73"  r="2.0" fill="#c4eeff" fill-opacity="0.90"/>
    <circle cx="144" cy="75"  r="1.7" fill="#c4eeff" fill-opacity="0.88"/>
    <circle cx="139" cy="80"  r="1.8" fill="#b8eaff" fill-opacity="0.90"/>
    <circle cx="137" cy="87"  r="1.7" fill="#c4eeff" fill-opacity="0.88"/>
    <circle cx="139" cy="94"  r="1.8" fill="#b8eaff" fill-opacity="0.90"/>
    <circle cx="144" cy="100" r="1.7" fill="#c4eeff" fill-opacity="0.88"/>
    <circle cx="150" cy="103" r="2.0" fill="#c4eeff" fill-opacity="0.90"/>
    <circle cx="156" cy="101" r="1.7" fill="#c4eeff" fill-opacity="0.88"/>
    <circle cx="162" cy="96"  r="1.8" fill="#b8eaff" fill-opacity="0.90"/>
    <circle cx="164" cy="88"  r="1.7" fill="#c4eeff" fill-opacity="0.88"/>

    <!-- Core glow -->
    <circle cx="150" cy="88" r="22" fill="#4a9fff" fill-opacity="0.18" filter="url(#softGlow)"/>
    <circle cx="150" cy="88" r="14" fill="#7dd3ff" fill-opacity="0.40" filter="url(#coreBlur)"/>
    <circle cx="150" cy="88" r="8"  fill="#b8e8ff" fill-opacity="0.75" filter="url(#coreBlur)"/>
    <circle cx="150" cy="88" r="4.5" fill="url(#coreGlow)"/>
    <circle cx="150" cy="88" r="3.0" fill="#e8f6ff" fill-opacity="0.97"/>
    <circle cx="150" cy="88" r="1.8" fill="#ffffff"/>
    <circle cx="148.8" cy="86.8" r="0.9" fill="#ffffff" fill-opacity="0.95"/>

  </g>

  <!-- Text -->
  <text x="150" y="157"
        font-family="'Helvetica Neue', Helvetica, Arial, sans-serif"
        font-size="13" font-weight="300" fill="#7dd3ff" fill-opacity="0.80"
        letter-spacing="5.5" text-anchor="middle">AGENTIC</text>
  <text x="150" y="172"
        font-family="'Helvetica Neue', Helvetica, Arial, sans-serif"
        font-size="15" font-weight="600" fill="#ffffff" fill-opacity="0.95"
        letter-spacing="4" text-anchor="middle">LEAD GEN</text>
  <line x1="90" y1="148" x2="210" y2="148"
        stroke="#4a8ed8" stroke-width="0.5" stroke-opacity="0.40"/>

</svg>
