<svg xmlns="http://www.w3.org/2000/svg" viewBox="0 0 300 200" width="300" height="200">
  <defs>
    <!-- Sky gradient: amber to coral -->
    <linearGradient id="skyGrad" x1="0" y1="0" x2="0" y2="1">
      <stop offset="0%" stop-color="#FF6B35"/>
      <stop offset="40%" stop-color="#F7931E"/>
      <stop offset="75%" stop-color="#FFD166"/>
      <stop offset="100%" stop-color="#FFE8A3"/>
    </linearGradient>

    <!-- Sun core gradient -->
    <radialGradient id="sunGrad" cx="50%" cy="50%" r="50%">
      <stop offset="0%" stop-color="#FFFFFF" stop-opacity="1"/>
      <stop offset="30%" stop-color="#FFF3CD"/>
      <stop offset="100%" stop-color="#F7931E" stop-opacity="0.9"/>
    </radialGradient>

    <!-- Ground gradient -->
    <linearGradient id="groundGrad" x1="0" y1="0" x2="0" y2="1">
      <stop offset="0%" stop-color="#2D1B69"/>
      <stop offset="100%" stop-color="#1A0F3C"/>
    </linearGradient>

    <!-- Glow filter for sun -->
    <filter id="sunGlow" x="-50%" y="-50%" width="200%" height="200%">
      <feGaussianBlur stdDeviation="6" result="blur"/>
      <feMerge>
        <feMergeNode in="blur"/>
        <feMergeNode in="SourceGraphic"/>
      </feMerge>
    </filter>

    <!-- Ray bar glow -->
    <filter id="rayGlow" x="-30%" y="-30%" width="160%" height="160%">
      <feGaussianBlur stdDeviation="2.5" result="blur"/>
      <feMerge>
        <feMergeNode in="blur"/>
        <feMergeNode in="SourceGraphic"/>
      </feMerge>
    </filter>

    <!-- Horizon shimmer -->
    <linearGradient id="horizonShimmer" x1="0" y1="0" x2="1" y2="0">
      <stop offset="0%" stop-color="#FF6B35" stop-opacity="0"/>
      <stop offset="30%" stop-color="#FFD166" stop-opacity="0.6"/>
      <stop offset="50%" stop-color="#FFFFFF" stop-opacity="0.9"/>
      <stop offset="70%" stop-color="#FFD166" stop-opacity="0.6"/>
      <stop offset="100%" stop-color="#FF6B35" stop-opacity="0"/>
    </linearGradient>

    <clipPath id="skyClip">
      <rect x="0" y="0" width="300" height="140"/>
    </clipPath>
  </defs>

  <!-- Sky background -->
  <rect x="0" y="0" width="300" height="140" fill="url(#skyGrad)"/>

  <!-- Subtle atmospheric haze arc near horizon -->
  <ellipse cx="150" cy="140" rx="180" ry="30" fill="#FFE8A3" opacity="0.35"/>

  <!-- === SUN (half circle rising from horizon) === -->
  <g filter="url(#sunGlow)" clip-path="url(#skyClip)">
    <circle cx="150" cy="140" r="28" fill="url(#sunGrad)" opacity="0.95"/>
  </g>

  <!-- === DATA BAR / ARROW RAYS === -->
  <!-- Each ray is a bar with an arrowhead on top, arranged like a sunrise fan -->
  <!-- Rays: far-left, left, center-left, center, center-right, right, far-right -->

  <g filter="url(#rayGlow)" clip-path="url(#skyClip)">

    <!-- Ray 1: far left (short, ~-70deg from vertical) -->
    <g transform="translate(150,140) rotate(-68)">
      <rect x="-3.5" y="-52" width="7" height="38" rx="2" fill="#FFFFFF" opacity="0.55"/>
      <polygon points="0,-58 -5.5,-50 5.5,-50" fill="#FFFFFF" opacity="0.65"/>
    </g>

    <!-- Ray 2: left (~-50deg) -->
    <g transform="translate(150,140) rotate(-50)">
      <rect x="-4" y="-62" width="8" height="46" rx="2" fill="#FFE0A0" opacity="0.7"/>
      <polygon points="0,-70 -6,-61 6,-61" fill="#FFE0A0" opacity="0.8"/>
    </g>

    <!-- Ray 3: center-left (~-28deg) -->
    <g transform="translate(150,140) rotate(-27)">
      <rect x="-4.5" y="-74" width="9" height="56" rx="2" fill="#FFF0C0" opacity="0.82"/>
      <polygon points="0,-83 -7,-73 7,-73" fill="#FFF0C0" opacity="0.9"/>
    </g>

    <!-- Ray 4: center (straight up) -->
    <g transform="translate(150,140) rotate(0)">
      <rect x="-5" y="-84" width="10" height="64" rx="2.5" fill="#FFFFFF" opacity="0.95"/>
      <polygon points="0,-95 -7.5,-83 7.5,-83" fill="#FFFFFF" opacity="1"/>
    </g>

    <!-- Ray 5: center-right (~+28deg) -->
    <g transform="translate(150,140) rotate(27)">
      <rect x="-4.5" y="-74" width="9" height="56" rx="2" fill="#FFF0C0" opacity="0.82"/>
      <polygon points="0,-83 -7,-73 7,-73" fill="#FFF0C0" opacity="0.9"/>
    </g>

    <!-- Ray 6: right (~+50deg) -->
    <g transform="translate(150,140) rotate(50)">
      <rect x="-4" y="-62" width="8" height="46" rx="2" fill="#FFE0A0" opacity="0.7"/>
      <polygon points="0,-70 -6,-61 6,-61" fill="#FFE0A0" opacity="0.8"/>
    </g>

    <!-- Ray 7: far right (~+68deg) -->
    <g transform="translate(150,140) rotate(68)">
      <rect x="-3.5" y="-52" width="7" height="38" rx="2" fill="#FFFFFF" opacity="0.55"/>
      <polygon points="0,-58 -5.5,-50 5.5,-50" fill="#FFFFFF" opacity="0.65"/>
    </g>

  </g>

  <!-- === HORIZON LINE === -->
  <rect x="0" y="137" width="300" height="3" fill="url(#horizonShimmer)"/>
  <line x1="0" y1="140" x2="300" y2="140" stroke="#FFFFFF" stroke-width="0.8" opacity="0.4"/>

  <!-- === GROUND === -->
  <rect x="0" y="140" width="300" height="60" fill="url(#groundGrad)"/>

  <!-- Horizon glow reflection on ground -->
  <ellipse cx="150" cy="142" rx="130" ry="10" fill="#F7931E" opacity="0.18"/>

  <!-- === TEXT === -->
  <!-- "Agentic" -->
  <text
    x="150"
    y="165"
    text-anchor="middle"
    font-family="'Helvetica Neue', Helvetica, Arial, sans-serif"
    font-size="18"
    font-weight="700"
    letter-spacing="3"
    fill="#FFFFFF"
    opacity="0.97"
  >AGENTIC</text>

  <!-- Thin divider line -->
  <line x1="90" y1="171" x2="210" y2="171" stroke="#F7931E" stroke-width="0.8" opacity="0.7"/>

  <!-- "LEAD GEN" -->
  <text
    x="150"
    y="184"
    text-anchor="middle"
    font-family="'Helvetica Neue', Helvetica, Arial, sans-serif"
    font-size="10"
    font-weight="400"
    letter-spacing="5"
    fill="#FFD166"
    opacity="0.88"
  >LEAD GEN</text>

</svg>
