<svg xmlns="http://www.w3.org/2000/svg" viewBox="0 0 300 200" width="300" height="200">
  <defs>
    <linearGradient id="bgGrad" x1="0%" y1="0%" x2="0%" y2="100%">
      <stop offset="0%" style="stop-color:#ffffff;stop-opacity:1" />
      <stop offset="100%" style="stop-color:#f0faf3;stop-opacity:1" />
    </linearGradient>
    <linearGradient id="stemGrad" x1="0%" y1="100%" x2="0%" y2="0%">
      <stop offset="0%" style="stop-color:#2d8a4e;stop-opacity:1" />
      <stop offset="100%" style="stop-color:#4ade80;stop-opacity:1" />
    </linearGradient>
    <linearGradient id="leafGrad1" x1="0%" y1="100%" x2="100%" y2="0%">
      <stop offset="0%" style="stop-color:#16a34a;stop-opacity:1" />
      <stop offset="100%" style="stop-color:#86efac;stop-opacity:1" />
    </linearGradient>
    <linearGradient id="leafGrad2" x1="100%" y1="100%" x2="0%" y2="0%">
      <stop offset="0%" style="stop-color:#15803d;stop-opacity:1" />
      <stop offset="100%" style="stop-color:#a7f3d0;stop-opacity:1" />
    </linearGradient>
    <linearGradient id="soilGrad" x1="0%" y1="0%" x2="0%" y2="100%">
      <stop offset="0%" style="stop-color:#1e3a2f;stop-opacity:1" />
      <stop offset="100%" style="stop-color:#0f2419;stop-opacity:1" />
    </linearGradient>
    <linearGradient id="circuitGrad" x1="0%" y1="0%" x2="100%" y2="100%">
      <stop offset="0%" style="stop-color:#22c55e;stop-opacity:0.6" />
      <stop offset="100%" style="stop-color:#4ade80;stop-opacity:0.3" />
    </linearGradient>
    <filter id="glow">
      <feGaussianBlur stdDeviation="1.5" result="coloredBlur"/>
      <feMerge>
        <feMergeNode in="coloredBlur"/>
        <feMergeNode in="SourceGraphic"/>
      </feMerge>
    </filter>
    <filter id="softGlow">
      <feGaussianBlur stdDeviation="2.5" result="coloredBlur"/>
      <feMerge>
        <feMergeNode in="coloredBlur"/>
        <feMergeNode in="SourceGraphic"/>
      </feMerge>
    </filter>
  </defs>

  <!-- Background -->
  <rect width="300" height="200" fill="url(#bgGrad)" rx="12"/>

  <!-- Circuit board soil base -->
  <rect x="60" y="128" width="180" height="36" rx="5" fill="url(#soilGrad)"/>

  <!-- Circuit traces on soil -->
  <g stroke="url(#circuitGrad)" stroke-width="1.2" fill="none" opacity="0.85">
    <line x1="68" y1="138" x2="100" y2="138"/>
    <line x1="108" y1="138" x2="132" y2="138"/>
    <line x1="168" y1="138" x2="192" y2="138"/>
    <line x1="200" y1="138" x2="232" y2="138"/>
    <line x1="72" y1="150" x2="92" y2="150"/>
    <line x1="108" y1="150" x2="148" y2="150"/>
    <line x1="160" y1="150" x2="188" y2="150"/>
    <line x1="200" y1="150" x2="228" y2="150"/>
    <line x1="100" y1="133" x2="100" y2="143"/>
    <line x1="132" y1="133" x2="132" y2="145"/>
    <line x1="168" y1="133" x2="168" y2="145"/>
    <line x1="200" y1="133" x2="200" y2="143"/>
    <line x1="92" y1="145" x2="92" y2="155"/>
    <line x1="148" y1="143" x2="148" y2="155"/>
    <line x1="188" y1="143" x2="188" y2="155"/>
    <polyline points="100,138 104,138 104,142 108,142 108,138"/>
    <polyline points="168,138 164,138 164,142 160,142 160,138"/>
  </g>

  <!-- Circuit nodes -->
  <g fill="#4ade80" opacity="0.9">
    <circle cx="100" cy="138" r="2.2"/>
    <circle cx="132" cy="138" r="2.2"/>
    <circle cx="168" cy="138" r="2.2"/>
    <circle cx="200" cy="138" r="2.2"/>
    <circle cx="92"  cy="150" r="2.2"/>
    <circle cx="148" cy="150" r="2.2"/>
    <circle cx="188" cy="150" r="2.2"/>
    <circle cx="72"  cy="150" r="1.6"/>
    <circle cx="228" cy="150" r="1.6"/>
  </g>

  <!-- Soil surface highlight -->
  <rect x="60" y="128" width="180" height="3" rx="2" fill="#2d6a45" opacity="0.6"/>

  <!-- Main stem -->
  <path d="M150 128 C150 115 148 100 150 82" stroke="url(#stemGrad)" stroke-width="3.5" fill="none" stroke-linecap="round" filter="url(#glow)"/>

  <!-- Left leaf -->
  <g filter="url(#glow)">
    <path d="M150 100 C138 95 124 88 118 76 C128 70 142 76 150 88 Z" fill="url(#leafGrad1)" opacity="0.92"/>
    <path d="M150 100 C140 90 128 80 120 73" stroke="#86efac" stroke-width="0.8" fill="none" opacity="0.7"/>
    <path d="M127 82 C130 79 135 77 140 78" stroke="#ffffff" stroke-width="1.1" fill="none" opacity="0.6" stroke-linecap="round"/>
    <path d="M122 86 C127 81 134 78 141 80" stroke="#ffffff" stroke-width="0.8" fill="none" opacity="0.35" stroke-linecap="round"/>
  </g>

  <!-- Right leaf -->
  <g filter="url(#glow)">
    <path d="M150 95 C162 90 176 83 182 71 C172 65 158 71 150 83 Z" fill="url(#leafGrad2)" opacity="0.92"/>
    <path d="M150 95 C160 85 172 75 180 68" stroke="#a7f3d0" stroke-width="0.8" fill="none" opacity="0.7"/>
    <path d="M173 77 C170 74 165 72 160 73" stroke="#ffffff" stroke-width="1.1" fill="none" opacity="0.6" stroke-linecap="round"/>
    <path d="M178 81 C173 76 166 73 159 75" stroke="#ffffff" stroke-width="0.8" fill="none" opacity="0.35" stroke-linecap="round"/>
  </g>

  <!-- Sprout bud -->
  <ellipse cx="150" cy="80" rx="4" ry="6" fill="#4ade80" filter="url(#softGlow)" opacity="0.95"/>
  <ellipse cx="150" cy="79" rx="2.5" ry="4" fill="#86efac" opacity="0.85"/>

  <!-- Wifi signal arcs rising from sprout -->
  <g fill="none" stroke-linecap="round" opacity="0.75" filter="url(#glow)">
    <path d="M142 70 C144 65 150 62 156 65" stroke="#22c55e" stroke-width="1.8"/>
    <path d="M138 65 C141 58 150 54 159 58" stroke="#4ade80" stroke-width="1.4" opacity="0.7"/>
    <path d="M135 60 C139 51 150 47 161 51" stroke="#86efac" stroke-width="1.0" opacity="0.45"/>
  </g>
  <circle cx="150" cy="62" r="1.8" fill="#22c55e" opacity="0.9" filter="url(#glow)"/>

  <!-- Floating network nodes -->
  <g fill="#22c55e" opacity="0.5">
    <circle cx="108" cy="108" r="2"/>
    <circle cx="192" cy="112" r="2"/>
    <circle cx="118" cy="90" r="1.5"/>
    <circle cx="183" cy="94" r="1.5"/>
  </g>
  <g stroke="#22c55e" stroke-width="0.7" fill="none" opacity="0.25" stroke-dasharray="3,3">
    <line x1="110" y1="107" x2="136" y2="100"/>
    <line x1="190" y1="111" x2="164" y2="100"/>
  </g>

  <!-- Labels -->
  <text x="150" y="180" font-family="'Segoe UI', 'Inter', 'Helvetica Neue', Arial, sans-serif" font-size="13" font-weight="700" fill="#15803d" text-anchor="middle" letter-spacing="0.5">Agentic Lead Gen</text>
  <text x="150" y="193" font-family="'Segoe UI', 'Inter', 'Helvetica Neue', Arial, sans-serif" font-size="7.5" font-weight="400" fill="#4ade80" text-anchor="middle" letter-spacing="2.5">GROW · CONNECT · CONVERT</text>
</svg>
