<svg xmlns="http://www.w3.org/2000/svg" viewBox="0 0 300 200" width="300" height="200">
  <defs>
    <linearGradient id="bgGrad" x1="0%" y1="0%" x2="100%" y2="100%">
      <stop offset="0%" style="stop-color:#1a0f00;stop-opacity:1"/>
      <stop offset="100%" style="stop-color:#2d1a00;stop-opacity:1"/>
    </linearGradient>
    <linearGradient id="hexGold" x1="0%" y1="0%" x2="0%" y2="100%">
      <stop offset="0%" style="stop-color:#ffd966;stop-opacity:1"/>
      <stop offset="100%" style="stop-color:#cc8800;stop-opacity:1"/>
    </linearGradient>
    <linearGradient id="hexAmber" x1="0%" y1="0%" x2="0%" y2="100%">
      <stop offset="0%" style="stop-color:#ffb300;stop-opacity:1"/>
      <stop offset="100%" style="stop-color:#e65c00;stop-opacity:1"/>
    </linearGradient>
    <linearGradient id="hexLight" x1="0%" y1="0%" x2="0%" y2="100%">
      <stop offset="0%" style="stop-color:#ffe599;stop-opacity:1"/>
      <stop offset="100%" style="stop-color:#ffaa00;stop-opacity:1"/>
    </linearGradient>
    <linearGradient id="hexDeep" x1="0%" y1="0%" x2="0%" y2="100%">
      <stop offset="0%" style="stop-color:#f59500;stop-opacity:1"/>
      <stop offset="100%" style="stop-color:#b35900;stop-opacity:1"/>
    </linearGradient>
    <filter id="glow">
      <feGaussianBlur stdDeviation="2" result="coloredBlur"/>
      <feMerge>
        <feMergeNode in="coloredBlur"/>
        <feMergeNode in="SourceGraphic"/>
      </feMerge>
    </filter>
    <filter id="softGlow">
      <feGaussianBlur stdDeviation="3" result="coloredBlur"/>
      <feMerge>
        <feMergeNode in="coloredBlur"/>
        <feMergeNode in="SourceGraphic"/>
      </feMerge>
    </filter>
    <clipPath id="hexClip1">
      <polygon points="75,42 89,50 89,66 75,74 61,66 61,50"/>
    </clipPath>
    <clipPath id="hexClip2">
      <polygon points="103,42 117,50 117,66 103,74 89,66 89,50"/>
    </clipPath>
    <clipPath id="hexClip3">
      <polygon points="131,42 145,50 145,66 131,74 117,66 117,50"/>
    </clipPath>
    <clipPath id="hexClip4">
      <polygon points="89,66 103,74 103,90 89,98 75,90 75,74"/>
    </clipPath>
    <clipPath id="hexClip5">
      <polygon points="117,66 131,74 131,90 117,98 103,90 103,74"/>
    </clipPath>
  </defs>

  <!-- Background -->
  <rect width="300" height="200" fill="url(#bgGrad)"/>

  <!-- Subtle honeycomb texture bg -->
  <g opacity="0.06" stroke="#ffaa00" stroke-width="0.5" fill="none">
    <polygon points="20,15 30,9 40,15 40,27 30,33 20,27"/>
    <polygon points="40,15 50,9 60,15 60,27 50,33 40,27"/>
    <polygon points="240,15 250,9 260,15 260,27 250,33 240,27"/>
    <polygon points="260,15 270,9 280,15 280,27 270,33 260,27"/>
    <polygon points="250,150 260,144 270,150 270,162 260,168 250,162"/>
    <polygon points="20,155 30,149 40,155 40,167 30,173 20,167"/>
  </g>

  <!-- Outer hive structure shadow/depth -->
  <g opacity="0.3">
    <polygon points="75,44 89,52 89,68 75,76 61,68 61,52" fill="none" stroke="#6b3a00" stroke-width="3"/>
    <polygon points="103,44 117,52 117,68 103,76 89,68 89,52" fill="none" stroke="#6b3a00" stroke-width="3"/>
    <polygon points="131,44 145,52 145,68 131,76 117,68 117,52" fill="none" stroke="#6b3a00" stroke-width="3"/>
    <polygon points="89,68 103,76 103,92 89,100 75,92 75,76" fill="none" stroke="#6b3a00" stroke-width="3"/>
    <polygon points="117,68 131,76 131,92 117,100 103,92 103,76" fill="none" stroke="#6b3a00" stroke-width="3"/>
  </g>

  <!-- ===== HEXAGON 1 — SEARCH (top-left) ===== -->
  <polygon points="75,42 89,50 89,66 75,74 61,66 61,50" fill="url(#hexGold)" stroke="#ffd966" stroke-width="1.2"/>
  <!-- Magnifying glass icon -->
  <g clip-path="url(#hexClip1)" filter="url(#glow)">
    <circle cx="73" cy="56" r="6" fill="none" stroke="#3d1a00" stroke-width="2"/>
    <line x1="77.2" y1="60.2" x2="82" y2="65" stroke="#3d1a00" stroke-width="2.2" stroke-linecap="round"/>
    <circle cx="73" cy="56" r="2.5" fill="#3d1a00" opacity="0.3"/>
  </g>

  <!-- ===== HEXAGON 2 — ENRICH (top-center) ===== -->
  <polygon points="103,42 117,50 117,66 103,74 89,66 89,50" fill="url(#hexAmber)" stroke="#ffb300" stroke-width="1.2"/>
  <!-- Database/layers icon -->
  <g clip-path="url(#hexClip2)" filter="url(#glow)">
    <ellipse cx="103" cy="53" rx="8" ry="3" fill="#3d1a00" opacity="0.85"/>
    <rect x="95" y="53" width="16" height="5" fill="#3d1a00" opacity="0.6"/>
    <ellipse cx="103" cy="58" rx="8" ry="3" fill="#3d1a00" opacity="0.75"/>
    <rect x="95" y="58" width="16" height="4" fill="#3d1a00" opacity="0.5"/>
    <ellipse cx="103" cy="62" rx="8" ry="3" fill="#3d1a00" opacity="0.65"/>
  </g>

  <!-- ===== HEXAGON 3 — CONTACT (top-right) ===== -->
  <polygon points="131,42 145,50 145,66 131,74 117,66 117,50" fill="url(#hexLight)" stroke="#ffe599" stroke-width="1.2"/>
  <!-- Person/contact icon -->
  <g clip-path="url(#hexClip3)" filter="url(#glow)">
    <circle cx="131" cy="53" r="4.5" fill="#3d1a00" opacity="0.85"/>
    <path d="M122,68 Q122,60 131,60 Q140,60 140,68" fill="#3d1a00" opacity="0.75"/>
  </g>

  <!-- ===== HEXAGON 4 — SEND (bottom-left) ===== -->
  <polygon points="89,66 103,74 103,90 89,98 75,90 75,74" fill="url(#hexDeep)" stroke="#f59500" stroke-width="1.2"/>
  <!-- Paper plane / send icon -->
  <g clip-path="url(#hexClip4)" filter="url(#glow)">
    <polygon points="77,84 97,80 85,88" fill="#3d1a00" opacity="0.9"/>
    <polygon points="77,84 85,74 97,80" fill="#3d1a00" opacity="0.7"/>
    <line x1="85" y1="88" x2="88" y2="82" stroke="#3d1a00" stroke-width="1.5" opacity="0.8"/>
  </g>

  <!-- ===== HEXAGON 5 — AUTOMATE (bottom-right) ===== -->
  <polygon points="117,66 131,74 131,90 117,98 103,90 103,74" fill="url(#hexGold)" stroke="#ffd966" stroke-width="1.2"/>
  <!-- Lightning bolt / automate icon -->
  <g clip-path="url(#hexClip5)" filter="url(#glow)">
    <polygon points="121,72 114,84 118,84 115,96 126,80 121,80" fill="#3d1a00" opacity="0.9"/>
  </g>

  <!-- Hex cell borders glow layer -->
  <g filter="url(#softGlow)" opacity="0.6">
    <polygon points="75,42 89,50 89,66 75,74 61,66 61,50" fill="none" stroke="#ffdd44" stroke-width="0.8"/>
    <polygon points="103,42 117,50 117,66 103,74 89,66 89,50" fill="none" stroke="#ffcc00" stroke-width="0.8"/>
    <polygon points="131,42 145,50 145,66 131,74 117,66 117,50" fill="none" stroke="#ffee77" stroke-width="0.8"/>
    <polygon points="89,66 103,74 103,90 89,98 75,90 75,74" fill="none" stroke="#ffaa00" stroke-width="0.8"/>
    <polygon points="117,66 131,74 131,90 117,98 103,90 103,74" fill="none" stroke="#ffdd44" stroke-width="0.8"/>
  </g>

  <!-- Small bee accent -->
  <g opacity="0.7" filter="url(#glow)">
    <ellipse cx="155" cy="52" rx="5" ry="3.5" fill="#ffcc00" stroke="#cc7700" stroke-width="0.8"/>
    <line x1="153" y1="49" x2="151" y2="46" stroke="#ffee88" stroke-width="1" opacity="0.9"/>
    <line x1="157" y1="49" x2="159" y2="46" stroke="#ffee88" stroke-width="1" opacity="0.9"/>
    <ellipse cx="155" cy="52" rx="2" ry="3.5" fill="#cc7700" opacity="0.4"/>
    <line x1="152" y1="51" x2="158" y2="51" stroke="#3d1a00" stroke-width="0.7" opacity="0.8"/>
    <line x1="152" y1="53" x2="158" y2="53" stroke="#3d1a00" stroke-width="0.7" opacity="0.8"/>
    <line x1="160" y1="52" x2="163" y2="52" stroke="#ffcc00" stroke-width="0.8"/>
    <circle cx="166" cy="52" r="0.8" fill="#ffcc00" opacity="0.5"/>
    <circle cx="169" cy="52" r="0.5" fill="#ffcc00" opacity="0.3"/>
    <circle cx="171" cy="52" r="0.3" fill="#ffcc00" opacity="0.2"/>
  </g>

  <!-- WORDMARK -->
  <text x="103" y="122" font-family="'Helvetica Neue', Arial, sans-serif" font-weight="800" font-size="18" fill="#ffd966" text-anchor="middle" letter-spacing="2" filter="url(#glow)">AGENTIC</text>
  <text x="103" y="140" font-family="'Helvetica Neue', Arial, sans-serif" font-weight="400" font-size="11" fill="#ffaa44" text-anchor="middle" letter-spacing="5">LEAD GEN</text>

  <!-- Divider with hex accent -->
  <line x1="55" y1="148" x2="88" y2="148" stroke="#cc7700" stroke-width="0.8" opacity="0.7"/>
  <polygon points="103,145 107,148 103,151 99,148" fill="#ffaa00" opacity="0.9"/>
  <line x1="118" y1="148" x2="151" y2="148" stroke="#cc7700" stroke-width="0.8" opacity="0.7"/>

  <!-- Tagline -->
  <text x="103" y="162" font-family="'Helvetica Neue', Arial, sans-serif" font-weight="300" font-size="7.5" fill="#cc8800" text-anchor="middle" letter-spacing="3" opacity="0.9">DISCOVER · ENRICH · CONNECT</text>

  <!-- Corner hex decorations -->
  <g opacity="0.15" fill="none" stroke="#ffaa00" stroke-width="1">
    <polygon points="12,168 18,164 24,168 24,176 18,180 12,176"/>
    <polygon points="276,168 282,164 288,168 288,176 282,180 276,176"/>
  </g>
</svg>
