<svg xmlns="http://www.w3.org/2000/svg" viewBox="0 0 300 200" width="300" height="200">
  <defs>
    <!-- CRT amber glow filter -->
    <filter id="crt-glow" x="-20%" y="-20%" width="140%" height="140%">
      <feGaussianBlur stdDeviation="2.5" result="blur"/>
      <feComposite in="SourceGraphic" in2="blur" operator="over"/>
    </filter>
    <filter id="soft-glow" x="-30%" y="-30%" width="160%" height="160%">
      <feGaussianBlur stdDeviation="3" result="blur"/>
      <feBlend in="SourceGraphic" in2="blur" mode="screen"/>
    </filter>
    <filter id="text-glow" x="-10%" y="-10%" width="120%" height="120%">
      <feGaussianBlur stdDeviation="1.5" result="blur"/>
      <feComposite in="SourceGraphic" in2="blur" operator="over"/>
    </filter>
    <!-- Scanline pattern -->
    <pattern id="scanlines" x="0" y="0" width="300" height="2" patternUnits="userSpaceOnUse">
      <rect x="0" y="0" width="300" height="1" fill="rgba(0,0,0,0.18)"/>
    </pattern>
    <!-- Radial amber glow background -->
    <radialGradient id="screen-glow" cx="50%" cy="55%" r="55%">
      <stop offset="0%" stop-color="#3d2800"/>
      <stop offset="60%" stop-color="#1a1000"/>
      <stop offset="100%" stop-color="#0a0800"/>
    </radialGradient>
    <!-- Rocket body gradient -->
    <linearGradient id="rocket-body" x1="0%" y1="0%" x2="100%" y2="0%">
      <stop offset="0%" stop-color="#b36000"/>
      <stop offset="40%" stop-color="#ffaa00"/>
      <stop offset="100%" stop-color="#7a4000"/>
    </linearGradient>
    <!-- Flame gradient -->
    <radialGradient id="flame-grad" cx="50%" cy="20%" r="80%">
      <stop offset="0%" stop-color="#ffffff" stop-opacity="0.95"/>
      <stop offset="30%" stop-color="#ffe066"/>
      <stop offset="70%" stop-color="#ff6600"/>
      <stop offset="100%" stop-color="#ff2200" stop-opacity="0"/>
    </radialGradient>
    <!-- Grid fade -->
    <linearGradient id="grid-fade" x1="0%" y1="0%" x2="0%" y2="100%">
      <stop offset="0%" stop-color="#ffaa00" stop-opacity="0.25"/>
      <stop offset="100%" stop-color="#ffaa00" stop-opacity="0.04"/>
    </linearGradient>
    <!-- Arc gradient -->
    <linearGradient id="arc-grad" x1="0%" y1="100%" x2="100%" y2="0%">
      <stop offset="0%" stop-color="#ff8800" stop-opacity="0.9"/>
      <stop offset="50%" stop-color="#ffcc44" stop-opacity="0.6"/>
      <stop offset="100%" stop-color="#ffee99" stop-opacity="0.2"/>
    </linearGradient>
    <!-- Launchpad glow -->
    <radialGradient id="pad-glow" cx="50%" cy="0%" r="100%">
      <stop offset="0%" stop-color="#ff6600" stop-opacity="0.5"/>
      <stop offset="100%" stop-color="#ff6600" stop-opacity="0"/>
    </radialGradient>
    <!-- Border frame gradient -->
    <linearGradient id="border-grad" x1="0%" y1="0%" x2="100%" y2="100%">
      <stop offset="0%" stop-color="#cc7700"/>
      <stop offset="50%" stop-color="#ffaa22"/>
      <stop offset="100%" stop-color="#884400"/>
    </linearGradient>
    <!-- Corner clip -->
    <clipPath id="screen-clip">
      <rect x="3" y="3" width="294" height="194" rx="6" ry="6"/>
    </clipPath>
  </defs>

  <!-- Outer bezel -->
  <rect x="0" y="0" width="300" height="200" rx="8" ry="8" fill="#1a0e00"/>
  <rect x="1.5" y="1.5" width="297" height="197" rx="7" ry="7" fill="none" stroke="url(#border-grad)" stroke-width="2.5"/>

  <!-- Screen background -->
  <rect x="3" y="3" width="294" height="194" rx="5" ry="5" fill="url(#screen-glow)" clip-path="url(#screen-clip)"/>

  <!-- Grid lines (perspective ground plane) -->
  <g clip-path="url(#screen-clip)" opacity="0.55">
    <!-- Horizontal grid lines -->
    <line x1="3" y1="148" x2="297" y2="148" stroke="#ffaa00" stroke-width="0.4" opacity="0.4"/>
    <line x1="3" y1="158" x2="297" y2="158" stroke="#ffaa00" stroke-width="0.4" opacity="0.3"/>
    <line x1="3" y1="167" x2="297" y2="167" stroke="#ffaa00" stroke-width="0.3" opacity="0.25"/>
    <line x1="3" y1="175" x2="297" y2="175" stroke="#ffaa00" stroke-width="0.3" opacity="0.2"/>
    <line x1="3" y1="182" x2="297" y2="182" stroke="#ffaa00" stroke-width="0.25" opacity="0.15"/>
    <!-- Vertical perspective lines converging at horizon center -->
    <line x1="150" y1="148" x2="3" y2="197" stroke="#ffaa00" stroke-width="0.3" opacity="0.3"/>
    <line x1="150" y1="148" x2="60" y2="197" stroke="#ffaa00" stroke-width="0.3" opacity="0.3"/>
    <line x1="150" y1="148" x2="108" y2="197" stroke="#ffaa00" stroke-width="0.3" opacity="0.25"/>
    <line x1="150" y1="148" x2="150" y2="197" stroke="#ffaa00" stroke-width="0.3" opacity="0.3"/>
    <line x1="150" y1="148" x2="192" y2="197" stroke="#ffaa00" stroke-width="0.3" opacity="0.25"/>
    <line x1="150" y1="148" x2="240" y2="197" stroke="#ffaa00" stroke-width="0.3" opacity="0.3"/>
    <line x1="150" y1="148" x2="297" y2="197" stroke="#ffaa00" stroke-width="0.3" opacity="0.3"/>
  </g>

  <!-- Trajectory arc (dashed, from launchpad up-right) -->
  <g clip-path="url(#screen-clip)" filter="url(#soft-glow)">
    <path d="M 105 148 Q 140 60 240 25" fill="none" stroke="url(#arc-grad)" stroke-width="1.8" stroke-dasharray="4,3" opacity="0.85"/>
    <!-- Arc tick marks -->
    <line x1="130" y1="93" x2="136" y2="87" stroke="#ffcc44" stroke-width="1" opacity="0.7"/>
    <line x1="162" y1="62" x2="168" y2="57" stroke="#ffcc44" stroke-width="1" opacity="0.6"/>
    <line x1="197" y1="42" x2="203" y2="38" stroke="#ffcc44" stroke-width="1" opacity="0.5"/>
  </g>

  <!-- Stars in upper region -->
  <g clip-path="url(#screen-clip)">
    <circle cx="34" cy="18" r="0.8" fill="#ffdd88" opacity="0.6"/>
    <circle cx="72" cy="11" r="0.6" fill="#ffdd88" opacity="0.5"/>
    <circle cx="118" cy="22" r="0.7" fill="#ffdd88" opacity="0.55"/>
    <circle cx="168" cy="9" r="0.8" fill="#ffdd88" opacity="0.6"/>
    <circle cx="215" cy="18" r="0.6" fill="#ffdd88" opacity="0.5"/>
    <circle cx="255" cy="12" r="0.9" fill="#ffdd88" opacity="0.65"/>
    <circle cx="282" cy="27" r="0.6" fill="#ffdd88" opacity="0.45"/>
    <circle cx="44" cy="38" r="0.5" fill="#ffdd88" opacity="0.4"/>
    <circle cx="88" cy="31" r="0.7" fill="#ffcc66" opacity="0.5"/>
    <circle cx="230" cy="35" r="0.7" fill="#ffdd88" opacity="0.45"/>
    <circle cx="270" cy="44" r="0.5" fill="#ffdd88" opacity="0.4"/>
  </g>

  <!-- Launchpad base glow -->
  <ellipse cx="105" cy="149" rx="22" ry="5" fill="url(#pad-glow)" clip-path="url(#screen-clip)" opacity="0.7"/>

  <!-- Launchpad structure -->
  <g clip-path="url(#screen-clip)" filter="url(#crt-glow)">
    <!-- Pad base platform -->
    <rect x="86" y="147" width="38" height="4" rx="1" fill="#cc6600" opacity="0.95"/>
    <!-- Pad legs -->
    <line x1="92" y1="151" x2="88" y2="157" stroke="#aa5500" stroke-width="2"/>
    <line x1="118" y1="151" x2="122" y2="157" stroke="#aa5500" stroke-width="2"/>
    <line x1="100" y1="151" x2="98" y2="157" stroke="#884400" stroke-width="1.5"/>
    <line x1="110" y1="151" x2="112" y2="157" stroke="#884400" stroke-width="1.5"/>
    <!-- Ground beam -->
    <rect x="86" y="156" width="38" height="2.5" rx="1" fill="#8a4400" opacity="0.9"/>
    <!-- Support tower arm -->
    <rect x="117" y="120" width="3" height="28" rx="1" fill="#995500" opacity="0.8"/>
    <rect x="108" y="120" width="12" height="2" rx="1" fill="#cc7700" opacity="0.7"/>
  </g>

  <!-- Rocket flame/exhaust -->
  <g clip-path="url(#screen-clip)">
    <ellipse cx="105" cy="147" rx="5" ry="2.5" fill="#ffcc00" opacity="0.6" filter="url(#soft-glow)"/>
    <path d="M 101 147 Q 105 162 109 147" fill="url(#flame-grad)" opacity="0.75" filter="url(#soft-glow)"/>
    <path d="M 103 147 Q 105 155 107 147" fill="#ffffff" opacity="0.5" filter="url(#soft-glow)"/>
  </g>

  <!-- Rocket body -->
  <g clip-path="url(#screen-clip)" filter="url(#crt-glow)">
    <!-- Nozzle bell -->
    <path d="M 101 131 L 100 136 L 110 136 L 109 131 Z" fill="#884400"/>
    <!-- Main body -->
    <rect x="101" y="105" width="8" height="28" rx="1" fill="url(#rocket-body)"/>
    <!-- Body detail stripe -->
    <rect x="101" y="117" width="8" height="2" fill="#ffdd00" opacity="0.5"/>
    <!-- Nose cone -->
    <path d="M 101 105 Q 105 90 109 105 Z" fill="#ffaa22"/>
    <!-- Nose tip glow -->
    <circle cx="105" cy="91" r="1.5" fill="#ffe066" opacity="0.9" filter="url(#soft-glow)"/>
    <!-- Fins -->
    <path d="M 101 128 L 96 138 L 101 136 Z" fill="#aa5500"/>
    <path d="M 109 128 L 114 138 L 109 136 Z" fill="#cc6600"/>
    <!-- Window -->
    <circle cx="105" cy="111" r="2.2" fill="#1a1000" stroke="#ffcc44" stroke-width="0.8"/>
    <circle cx="105" cy="111" r="1.2" fill="#ffee88" opacity="0.3"/>
  </g>

  <!-- Data panel left -->
  <g clip-path="url(#screen-clip)" filter="url(#text-glow)">
    <!-- Panel border -->
    <rect x="8" y="10" width="58" height="95" rx="2" fill="none" stroke="#cc7700" stroke-width="0.6" opacity="0.5"/>
    <text x="13" y="22" font-family="monospace" font-size="5.5" fill="#ff9900" opacity="0.9">MISSION</text>
    <text x="13" y="30" font-family="monospace" font-size="5.5" fill="#ff9900" opacity="0.9">STS-AGLG</text>
    <line x1="10" y1="33" x2="64" y2="33" stroke="#cc6600" stroke-width="0.5" opacity="0.6"/>
    <text x="13" y="43" font-family="monospace" font-size="5" fill="#ffaa00" opacity="0.8">STAGE</text>
    <text x="13" y="51" font-family="monospace" font-size="5.5" fill="#ffee44" opacity="0.95">LAUNCH</text>
    <line x1="10" y1="55" x2="64" y2="55" stroke="#cc6600" stroke-width="0.5" opacity="0.4"/>
    <text x="13" y="64" font-family="monospace" font-size="5" fill="#ffaa00" opacity="0.8">LEADS</text>
    <text x="13" y="72" font-family="monospace" font-size="5.5" fill="#ffee44" opacity="0.95">04,829</text>
    <line x1="10" y1="76" x2="64" y2="76" stroke="#cc6600" stroke-width="0.5" opacity="0.4"/>
    <text x="13" y="85" font-family="monospace" font-size="5" fill="#ffaa00" opacity="0.8">STATUS</text>
    <text x="13" y="93" font-family="monospace" font-size="5.5" fill="#44ff88" opacity="0.9">GO/GO</text>
    <!-- Blinking cursor simulation -->
    <rect x="43" y="88" width="3.5" height="5.5" fill="#44ff88" opacity="0.7"/>
  </g>

  <!-- Data panel right -->
  <g clip-path="url(#screen-clip)" filter="url(#text-glow)">
    <rect x="234" y="10" width="58" height="95" rx="2" fill="none" stroke="#cc7700" stroke-width="0.6" opacity="0.5"/>
    <text x="239" y="22" font-family="monospace" font-size="5.5" fill="#ff9900" opacity="0.9">VECTOR</text>
    <text x="239" y="30" font-family="monospace" font-size="5.5" fill="#ffee44" opacity="0.9">3-2-1-GO</text>
    <line x1="236" y1="33" x2="290" y2="33" stroke="#cc6600" stroke-width="0.5" opacity="0.6"/>
    <text x="239" y="43" font-family="monospace" font-size="5" fill="#ffaa00" opacity="0.8">T-MINUS</text>
    <text x="239" y="51" font-family="monospace" font-size="6" fill="#ff4400" opacity="0.95">00:03</text>
    <line x1="236" y1="55" x2="290" y2="55" stroke="#cc6600" stroke-width="0.5" opacity="0.4"/>
    <text x="239" y="64" font-family="monospace" font-size="5" fill="#ffaa00" opacity="0.8">PIPELINE</text>
    <text x="239" y="72" font-family="monospace" font-size="5.5" fill="#ffee44" opacity="0.95">ARMED</text>
    <line x1="236" y1="76" x2="290" y2="76" stroke="#cc6600" stroke-width="0.5" opacity="0.4"/>
    <text x="239" y="85" font-family="monospace" font-size="5" fill="#ffaa00" opacity="0.8">THRUST</text>
    <!-- Thrust bar -->
    <rect x="239" y="88" width="44" height="5" rx="1" fill="#1a0800" stroke="#cc6600" stroke-width="0.5"/>
    <rect x="239" y="88" width="40" height="5" rx="1" fill="#ff6600" opacity="0.85"/>
  </g>

  <!-- Countdown arc indicator (top center) -->
  <g clip-path="url(#screen-clip)" filter="url(#text-glow)">
    <!-- Arc segments as countdown -->
    <path d="M 130 28 A 22 22 0 0 1 152 8" fill="none" stroke="#ff4400" stroke-width="3" stroke-linecap="round"/>
    <path d="M 152 8 A 22 22 0 0 1 174 28" fill="none" stroke="#ff6600" stroke-width="3" stroke-linecap="round"/>
    <path d="M 174 28 A 22 22 0 0 1 164 48" fill="none" stroke="#ff8800" stroke-width="3" stroke-linecap="round"/>
    <path d="M 136 48 A 22 22 0 0 1 130 28" fill="none" stroke="#cc4400" stroke-width="3" stroke-linecap="round" stroke-dasharray="5,2"/>
    <!-- Center number -->
    <text x="152" y="34" font-family="monospace" font-size="13" font-weight="bold" fill="#ff4400" text-anchor="middle" opacity="0.95">3</text>
  </g>

  <!-- Horizon scan line (CRT sweep) -->
  <line x1="3" y1="147" x2="297" y2="147" stroke="#ff8800" stroke-width="0.5" opacity="0.4" clip-path="url(#screen-clip)"/>

  <!-- Logo text block -->
  <g clip-path="url(#screen-clip)" filter="url(#text-glow)">
    <!-- Main title -->
    <text x="150" y="169" font-family="monospace" font-size="11" font-weight="bold" fill="#ffcc00" text-anchor="middle" letter-spacing="1.5" opacity="0.97">AGENTIC LEAD GEN</text>
    <!-- Tagline -->
    <text x="150" y="181" font-family="monospace" font-size="5.5" fill="#ff9900" text-anchor="middle" letter-spacing="2" opacity="0.8">MISSION CONTROL  LAUNCHPAD</text>
    <!-- Bottom separator -->
    <line x1="30" y1="185" x2="270" y2="185" stroke="#cc6600" stroke-width="0.4" opacity="0.5"/>
    <!-- Status bar -->
    <text x="20" y="193" font-family="monospace" font-size="4.5" fill="#ff8800" opacity="0.7">SYS:NOMINAL</text>
    <text x="150" y="193" font-family="monospace" font-size="4.5" fill="#ff8800" text-anchor="middle" opacity="0.7">ALL SYSTEMS GO</text>
    <text x="280" y="193" font-family="monospace" font-size="4.5" fill="#ff8800" text-anchor="end" opacity="0.7">REV:1.0</text>
  </g>

  <!-- Scanline overlay -->
  <rect x="3" y="3" width="294" height="194" rx="5" ry="5" fill="url(#scanlines)" opacity="0.4" clip-path="url(#screen-clip)"/>

  <!-- CRT vignette overlay -->
  <radialGradient id="vignette" cx="50%" cy="50%" r="70%">
    <stop offset="60%" stop-color="transparent"/>
    <stop offset="100%" stop-color="rgba(0,0,0,0.55)"/>
  </radialGradient>
  <rect x="3" y="3" width="294" height="194" rx="5" ry="5" fill="url(#vignette)" clip-path="url(#screen-clip)"/>

  <!-- Screen glare highlight -->
  <ellipse cx="100" cy="40" rx="60" ry="25" fill="rgba(255,200,80,0.04)" clip-path="url(#screen-clip)"/>
</svg>
