<svg xmlns="http://www.w3.org/2000/svg" viewBox="0 0 300 200" width="300" height="200">
  <defs>
    <radialGradient id="bgGlow" cx="38%" cy="50%" r="55%">
      <stop offset="0%" stop-color="#0a1a0a"/>
      <stop offset="100%" stop-color="#020804"/>
    </radialGradient>
    <radialGradient id="centerGlow" cx="50%" cy="50%" r="50%">
      <stop offset="0%" stop-color="#00ff41" stop-opacity="0.9"/>
      <stop offset="40%" stop-color="#00cc33" stop-opacity="0.5"/>
      <stop offset="100%" stop-color="#003300" stop-opacity="0"/>
    </radialGradient>
    <radialGradient id="outerGlow" cx="50%" cy="50%" r="50%">
      <stop offset="60%" stop-color="#001100" stop-opacity="0"/>
      <stop offset="85%" stop-color="#00ff41" stop-opacity="0.12"/>
      <stop offset="100%" stop-color="#003300" stop-opacity="0"/>
    </radialGradient>
    <filter id="textGlow" x="-20%" y="-50%" width="140%" height="200%">
      <feGaussianBlur in="SourceGraphic" stdDeviation="1.5" result="blur"/>
      <feMerge>
        <feMergeNode in="blur"/>
        <feMergeNode in="SourceGraphic"/>
      </feMerge>
    </filter>
    <filter id="reticleGlow" x="-30%" y="-30%" width="160%" height="160%">
      <feGaussianBlur in="SourceGraphic" stdDeviation="1.2" result="blur"/>
      <feMerge>
        <feMergeNode in="blur"/>
        <feMergeNode in="SourceGraphic"/>
      </feMerge>
    </filter>
    <filter id="dotGlow" x="-200%" y="-200%" width="500%" height="500%">
      <feGaussianBlur in="SourceGraphic" stdDeviation="2.5" result="blur"/>
      <feMerge>
        <feMergeNode in="blur"/>
        <feMergeNode in="SourceGraphic"/>
      </feMerge>
    </filter>
    <clipPath id="reticleClip">
      <circle cx="83" cy="100" r="72"/>
    </clipPath>
  </defs>

  <!-- Background -->
  <rect width="300" height="200" fill="url(#bgGlow)"/>

  <!-- Tactical grid overlay -->
  <g opacity="0.07" stroke="#00ff41" stroke-width="0.4">
    <line x1="10" y1="0" x2="10" y2="200"/><line x1="20" y1="0" x2="20" y2="200"/>
    <line x1="30" y1="0" x2="30" y2="200"/><line x1="40" y1="0" x2="40" y2="200"/>
    <line x1="50" y1="0" x2="50" y2="200"/><line x1="60" y1="0" x2="60" y2="200"/>
    <line x1="70" y1="0" x2="70" y2="200"/><line x1="80" y1="0" x2="80" y2="200"/>
    <line x1="90" y1="0" x2="90" y2="200"/><line x1="100" y1="0" x2="100" y2="200"/>
    <line x1="110" y1="0" x2="110" y2="200"/><line x1="120" y1="0" x2="120" y2="200"/>
    <line x1="130" y1="0" x2="130" y2="200"/><line x1="140" y1="0" x2="140" y2="200"/>
    <line x1="150" y1="0" x2="150" y2="200"/><line x1="160" y1="0" x2="160" y2="200"/>
    <line x1="170" y1="0" x2="170" y2="200"/><line x1="180" y1="0" x2="180" y2="200"/>
    <line x1="190" y1="0" x2="190" y2="200"/><line x1="200" y1="0" x2="200" y2="200"/>
    <line x1="210" y1="0" x2="210" y2="200"/><line x1="220" y1="0" x2="220" y2="200"/>
    <line x1="230" y1="0" x2="230" y2="200"/><line x1="240" y1="0" x2="240" y2="200"/>
    <line x1="250" y1="0" x2="250" y2="200"/><line x1="260" y1="0" x2="260" y2="200"/>
    <line x1="270" y1="0" x2="270" y2="200"/><line x1="280" y1="0" x2="280" y2="200"/>
    <line x1="290" y1="0" x2="290" y2="200"/>
    <line x1="0" y1="10" x2="300" y2="10"/><line x1="0" y1="20" x2="300" y2="20"/>
    <line x1="0" y1="30" x2="300" y2="30"/><line x1="0" y1="40" x2="300" y2="40"/>
    <line x1="0" y1="50" x2="300" y2="50"/><line x1="0" y1="60" x2="300" y2="60"/>
    <line x1="0" y1="70" x2="300" y2="70"/><line x1="0" y1="80" x2="300" y2="80"/>
    <line x1="0" y1="90" x2="300" y2="90"/><line x1="0" y1="100" x2="300" y2="100"/>
    <line x1="0" y1="110" x2="300" y2="110"/><line x1="0" y1="120" x2="300" y2="120"/>
    <line x1="0" y1="130" x2="300" y2="130"/><line x1="0" y1="140" x2="300" y2="140"/>
    <line x1="0" y1="150" x2="300" y2="150"/><line x1="0" y1="160" x2="300" y2="160"/>
    <line x1="0" y1="170" x2="300" y2="170"/><line x1="0" y1="180" x2="300" y2="180"/>
    <line x1="0" y1="190" x2="300" y2="190"/>
  </g>

  <!-- Ambient outer glow ring -->
  <circle cx="83" cy="100" r="72" fill="url(#outerGlow)"/>

  <!-- Reticle -->
  <g filter="url(#reticleGlow)">
    <circle cx="83" cy="100" r="68" fill="none" stroke="#00ff41" stroke-width="0.8" stroke-opacity="0.35" stroke-dasharray="4,3"/>
    <circle cx="83" cy="100" r="62" fill="none" stroke="#00ff41" stroke-width="1.1" stroke-opacity="0.5"/>
    <circle cx="83" cy="100" r="50" fill="none" stroke="#00ff41" stroke-width="0.7" stroke-opacity="0.4" stroke-dasharray="8,4"/>
    <circle cx="83" cy="100" r="38" fill="none" stroke="#00ff41" stroke-width="1.3" stroke-opacity="0.65"/>
    <circle cx="83" cy="100" r="24" fill="none" stroke="#00ff41" stroke-width="1.0" stroke-opacity="0.55" stroke-dasharray="5,3"/>
    <circle cx="83" cy="100" r="14" fill="none" stroke="#00ff41" stroke-width="1.6" stroke-opacity="0.85"/>

    <line x1="15" y1="100" x2="67" y2="100" stroke="#00ff41" stroke-width="1.0" stroke-opacity="0.75"/>
    <line x1="99" y1="100" x2="151" y2="100" stroke="#00ff41" stroke-width="1.0" stroke-opacity="0.75"/>
    <line x1="83" y1="32" x2="83" y2="84" stroke="#00ff41" stroke-width="1.0" stroke-opacity="0.75"/>
    <line x1="83" y1="116" x2="83" y2="168" stroke="#00ff41" stroke-width="1.0" stroke-opacity="0.75"/>

    <line x1="20" y1="97" x2="20" y2="103" stroke="#00ff41" stroke-width="0.7" stroke-opacity="0.5"/>
    <line x1="33" y1="97" x2="33" y2="103" stroke="#00ff41" stroke-width="0.7" stroke-opacity="0.5"/>
    <line x1="45" y1="97" x2="45" y2="103" stroke="#00ff41" stroke-width="0.7" stroke-opacity="0.5"/>
    <line x1="133" y1="97" x2="133" y2="103" stroke="#00ff41" stroke-width="0.7" stroke-opacity="0.5"/>
    <line x1="121" y1="97" x2="121" y2="103" stroke="#00ff41" stroke-width="0.7" stroke-opacity="0.5"/>
    <line x1="108" y1="97" x2="108" y2="103" stroke="#00ff41" stroke-width="0.7" stroke-opacity="0.5"/>
    <line x1="80" y1="38" x2="86" y2="38" stroke="#00ff41" stroke-width="0.7" stroke-opacity="0.5"/>
    <line x1="80" y1="51" x2="86" y2="51" stroke="#00ff41" stroke-width="0.7" stroke-opacity="0.5"/>
    <line x1="80" y1="62" x2="86" y2="62" stroke="#00ff41" stroke-width="0.7" stroke-opacity="0.5"/>
    <line x1="80" y1="138" x2="86" y2="138" stroke="#00ff41" stroke-width="0.7" stroke-opacity="0.5"/>
    <line x1="80" y1="149" x2="86" y2="149" stroke="#00ff41" stroke-width="0.7" stroke-opacity="0.5"/>
    <line x1="80" y1="162" x2="86" y2="162" stroke="#00ff41" stroke-width="0.7" stroke-opacity="0.5"/>

    <line x1="39" y1="56" x2="44" y2="51" stroke="#00ff41" stroke-width="0.8" stroke-opacity="0.45"/>
    <line x1="122" y1="56" x2="127" y2="51" stroke="#00ff41" stroke-width="0.8" stroke-opacity="0.45"/>
    <line x1="39" y1="144" x2="44" y2="149" stroke="#00ff41" stroke-width="0.8" stroke-opacity="0.45"/>
    <line x1="122" y1="144" x2="127" y2="149" stroke="#00ff41" stroke-width="0.8" stroke-opacity="0.45"/>

    <path d="M70,87 L70,83 L74,83" fill="none" stroke="#00ff41" stroke-width="1.4" stroke-opacity="0.9"/>
    <path d="M96,87 L96,83 L92,83" fill="none" stroke="#00ff41" stroke-width="1.4" stroke-opacity="0.9"/>
    <path d="M70,113 L70,117 L74,117" fill="none" stroke="#00ff41" stroke-width="1.4" stroke-opacity="0.9"/>
    <path d="M96,113 L96,117 L92,117" fill="none" stroke="#00ff41" stroke-width="1.4" stroke-opacity="0.9"/>
  </g>

  <!-- Center glow bloom -->
  <circle cx="83" cy="100" r="10" fill="url(#centerGlow)"/>
  <circle cx="83" cy="100" r="2.5" fill="#00ff41" filter="url(#dotGlow)"/>
  <circle cx="83" cy="100" r="1.2" fill="#aaffcc"/>

  <!-- HUD labels inside reticle -->
  <g clip-path="url(#reticleClip)" font-family="'Courier New', Courier, monospace" font-size="5" fill="#00ff41" opacity="0.45">
    <text x="22" y="74">ICP</text>
    <text x="118" y="74" text-anchor="end">LOCK</text>
    <text x="22" y="132">B2B</text>
    <text x="118" y="132" text-anchor="end">ON</text>
  </g>

  <!-- Outer HUD readouts -->
  <g font-family="'Courier New', Courier, monospace" font-size="5.5" fill="#00ff41" opacity="0.5">
    <text x="155" y="33">RNG: 00.00km</text>
    <text x="155" y="42">AZM: 090.0&#176;</text>
    <text x="0" y="174">LAT: 52.3&#176;N</text>
    <text x="0" y="182">LNG: 004.8&#176;E</text>
    <text x="47" y="192" font-size="5" opacity="0.6">[ TARGET LOCKED ]</text>
  </g>

  <!-- Wordmark -->
  <g filter="url(#textGlow)">
    <text x="165" y="88"
      font-family="'Courier New', Courier, monospace"
      font-size="22" font-weight="700" letter-spacing="3"
      fill="#00ff41" opacity="0.95">AGENTIC</text>
    <line x1="165" y1="95" x2="295" y2="95" stroke="#00ff41" stroke-width="0.6" stroke-opacity="0.4"/>
    <text x="165" y="115"
      font-family="'Courier New', Courier, monospace"
      font-size="20" font-weight="700" letter-spacing="2.5"
      fill="#00ff41" opacity="0.85">LEAD GEN</text>
    <text x="165" y="132"
      font-family="'Courier New', Courier, monospace"
      font-size="6.5" letter-spacing="2.8"
      fill="#00cc33" opacity="0.65">PRECISION &#183; ICP &#183; TARGETING</text>
  </g>

  <!-- Bottom status bar -->
  <rect x="0" y="188" width="300" height="12" fill="#000d00" opacity="0.7"/>
  <line x1="0" y1="188" x2="300" y2="188" stroke="#00ff41" stroke-width="0.4" stroke-opacity="0.3"/>
  <text x="8" y="196.5" font-family="'Courier New', Courier, monospace" font-size="5" fill="#00ff41" opacity="0.45" letter-spacing="1">SYS:ACTIVE</text>
  <text x="150" y="196.5" font-family="'Courier New', Courier, monospace" font-size="5" fill="#00ff41" opacity="0.45" letter-spacing="1" text-anchor="middle">MODE: ACQUISITION</text>
  <text x="292" y="196.5" font-family="'Courier New', Courier, monospace" font-size="5" fill="#00ff41" opacity="0.45" letter-spacing="1" text-anchor="end">v2.0</text>
</svg>
