<svg xmlns="http://www.w3.org/2000/svg" viewBox="0 0 300 200" width="300" height="200">
  <defs>
    <!-- Dark background gradient -->
    <linearGradient id="bgGrad" x1="0%" y1="0%" x2="0%" y2="100%">
      <stop offset="0%" style="stop-color:#0a0a0f;stop-opacity:1" />
      <stop offset="100%" style="stop-color:#111122;stop-opacity:1" />
    </linearGradient>

    <!-- Chrome ball gradient -->
    <radialGradient id="chrome1" cx="35%" cy="30%" r="60%">
      <stop offset="0%" style="stop-color:#e8eaf0;stop-opacity:1" />
      <stop offset="30%" style="stop-color:#9ea8b8;stop-opacity:1" />
      <stop offset="70%" style="stop-color:#3a4055;stop-opacity:1" />
      <stop offset="100%" style="stop-color:#1a1e2e;stop-opacity:1" />
    </radialGradient>

    <radialGradient id="chrome2" cx="35%" cy="30%" r="60%">
      <stop offset="0%" style="stop-color:#e8eaf0;stop-opacity:1" />
      <stop offset="30%" style="stop-color:#9ea8b8;stop-opacity:1" />
      <stop offset="70%" style="stop-color:#3a4055;stop-opacity:1" />
      <stop offset="100%" style="stop-color:#1a1e2e;stop-opacity:1" />
    </radialGradient>

    <radialGradient id="chrome3" cx="35%" cy="30%" r="60%">
      <stop offset="0%" style="stop-color:#e8eaf0;stop-opacity:1" />
      <stop offset="30%" style="stop-color:#9ea8b8;stop-opacity:1" />
      <stop offset="70%" style="stop-color:#3a4055;stop-opacity:1" />
      <stop offset="100%" style="stop-color:#1a1e2e;stop-opacity:1" />
    </radialGradient>

    <!-- Active ball glow (swinging ball) -->
    <radialGradient id="activeChrome" cx="35%" cy="30%" r="60%">
      <stop offset="0%" style="stop-color:#ffffff;stop-opacity:1" />
      <stop offset="25%" style="stop-color:#c8d8ff;stop-opacity:1" />
      <stop offset="60%" style="stop-color:#4a6aaa;stop-opacity:1" />
      <stop offset="100%" style="stop-color:#1a2a5e;stop-opacity:1" />
    </radialGradient>

    <!-- Glow filter for active ball -->
    <filter id="glow" x="-50%" y="-50%" width="200%" height="200%">
      <feGaussianBlur stdDeviation="3" result="blur" />
      <feMerge>
        <feMergeNode in="blur" />
        <feMergeNode in="SourceGraphic" />
      </feMerge>
    </filter>

    <!-- String shadow filter -->
    <filter id="stringShadow" x="-20%" y="-20%" width="140%" height="140%">
      <feGaussianBlur stdDeviation="0.5" result="blur" />
      <feMerge>
        <feMergeNode in="blur" />
        <feMergeNode in="SourceGraphic" />
      </feMerge>
    </filter>

    <!-- Frame bar gradient -->
    <linearGradient id="frameGrad" x1="0%" y1="0%" x2="0%" y2="100%">
      <stop offset="0%" style="stop-color:#7a8aaa;stop-opacity:1" />
      <stop offset="50%" style="stop-color:#c8d0e0;stop-opacity:1" />
      <stop offset="100%" style="stop-color:#5a6a8a;stop-opacity:1" />
    </linearGradient>

    <!-- Icon stage colors -->
    <radialGradient id="discoverGlow" cx="50%" cy="50%" r="50%">
      <stop offset="0%" style="stop-color:#60a0ff;stop-opacity:0.6" />
      <stop offset="100%" style="stop-color:#60a0ff;stop-opacity:0" />
    </radialGradient>
    <radialGradient id="closeGlow" cx="50%" cy="50%" r="50%">
      <stop offset="0%" style="stop-color:#60ffaa;stop-opacity:0.6" />
      <stop offset="100%" style="stop-color:#60ffaa;stop-opacity:0" />
    </radialGradient>

    <!-- Motion trail gradient -->
    <linearGradient id="trailGrad" x1="0%" y1="0%" x2="100%" y2="0%">
      <stop offset="0%" style="stop-color:#4a6aff;stop-opacity:0.8" />
      <stop offset="100%" style="stop-color:#4a6aff;stop-opacity:0" />
    </linearGradient>
    <linearGradient id="trailGradR" x1="0%" y1="0%" x2="100%" y2="0%">
      <stop offset="0%" style="stop-color:#40ffaa;stop-opacity:0" />
      <stop offset="100%" style="stop-color:#40ffaa;stop-opacity:0.8" />
    </linearGradient>
  </defs>

  <!-- Background -->
  <rect width="300" height="200" fill="url(#bgGrad)" rx="8" />

  <!-- Subtle grid lines for depth -->
  <line x1="0" y1="100" x2="300" y2="100" stroke="#ffffff" stroke-opacity="0.03" stroke-width="0.5"/>
  <line x1="150" y1="0" x2="150" y2="200" stroke="#ffffff" stroke-opacity="0.03" stroke-width="0.5"/>

  <!-- === NEWTON'S CRADLE FRAME === -->
  <!-- Top horizontal bar -->
  <rect x="55" y="38" width="195" height="5" rx="2.5" fill="url(#frameGrad)" />
  <!-- Left vertical support -->
  <rect x="55" y="38" width="4" height="65" rx="2" fill="url(#frameGrad)" />
  <!-- Right vertical support -->
  <rect x="246" y="38" width="4" height="65" rx="2" fill="url(#frameGrad)" />
  <!-- Top bar highlight -->
  <rect x="55" y="38" width="195" height="1.5" rx="0.75" fill="#ffffff" fill-opacity="0.5" />

  <!-- === LEFT SWINGING BALL (DISCOVER) — pulled back left at ~45° === -->
  <!-- Motion trail arc -->
  <path d="M 72 43 Q 55 75 57 105" stroke="url(#trailGrad)" stroke-width="2" fill="none" stroke-linecap="round" opacity="0.6"/>

  <!-- Ball 1 strings (angled left — swinging out) -->
  <line x1="74" y1="43" x2="57" y2="107" stroke="#8090aa" stroke-width="0.8" opacity="0.8" filter="url(#stringShadow)"/>
  <line x1="82" y1="43" x2="65" y2="107" stroke="#8090aa" stroke-width="0.8" opacity="0.8" filter="url(#stringShadow)"/>

  <!-- Ball 1 glow halo -->
  <circle cx="61" cy="118" r="14" fill="url(#discoverGlow)" />

  <!-- Ball 1 — swinging (DISCOVER) with active chrome -->
  <circle cx="61" cy="118" r="10" fill="url(#activeChrome)" filter="url(#glow)" />
  <!-- Ball 1 highlight -->
  <circle cx="57" cy="113" r="3" fill="#ffffff" fill-opacity="0.5" />
  <!-- Ball 1 icon: magnifying glass (discover) -->
  <circle cx="60" cy="117" r="3.5" stroke="#c8d8ff" stroke-width="1.2" fill="none" />
  <line x1="63" y1="120" x2="66" y2="123" stroke="#c8d8ff" stroke-width="1.2" stroke-linecap="round" />

  <!-- === BALLS 2–4 (resting, hanging vertical) === -->

  <!-- Ball 2 strings (ENRICH) -->
  <line x1="93" y1="43" x2="93" y2="107" stroke="#7080a0" stroke-width="0.8" opacity="0.7"/>
  <line x1="101" y1="43" x2="101" y2="107" stroke="#7080a0" stroke-width="0.8" opacity="0.7"/>
  <!-- Ball 2 (ENRICH) -->
  <circle cx="97" cy="118" r="10" fill="url(#chrome2)" />
  <circle cx="93" cy="113" r="3" fill="#ffffff" fill-opacity="0.3" />
  <!-- Enrich icon: lightning bolt / spark -->
  <polyline points="98,113 95,118 98,118 95,123" stroke="#a0b4cc" stroke-width="1.3" fill="none" stroke-linejoin="round" stroke-linecap="round"/>

  <!-- Ball 3 strings (QUALIFY) -->
  <line x1="126" y1="43" x2="126" y2="107" stroke="#7080a0" stroke-width="0.8" opacity="0.7"/>
  <line x1="134" y1="43" x2="134" y2="107" stroke="#7080a0" stroke-width="0.8" opacity="0.7"/>
  <!-- Ball 3 (QUALIFY) -->
  <circle cx="130" cy="118" r="10" fill="url(#chrome2)" />
  <circle cx="126" cy="113" r="3" fill="#ffffff" fill-opacity="0.3" />
  <!-- Qualify icon: checkmark in circle -->
  <circle cx="130" cy="118" r="4" stroke="#a0b4cc" stroke-width="1.2" fill="none" />
  <polyline points="127.5,118 129.5,120 133,115" stroke="#a0b4cc" stroke-width="1.2" fill="none" stroke-linecap="round" stroke-linejoin="round"/>

  <!-- Ball 4 strings (CONTACT) -->
  <line x1="159" y1="43" x2="159" y2="107" stroke="#7080a0" stroke-width="0.8" opacity="0.7"/>
  <line x1="167" y1="43" x2="167" y2="107" stroke="#7080a0" stroke-width="0.8" opacity="0.7"/>
  <!-- Ball 4 (CONTACT) -->
  <circle cx="163" cy="118" r="10" fill="url(#chrome2)" />
  <circle cx="159" cy="113" r="3" fill="#ffffff" fill-opacity="0.3" />
  <!-- Contact icon: person/envelope -->
  <rect x="159" y="115" width="8" height="6" rx="1" stroke="#a0b4cc" stroke-width="1.2" fill="none"/>
  <polyline points="159,115 163,119 167,115" stroke="#a0b4cc" stroke-width="1.2" fill="none" stroke-linejoin="round"/>

  <!-- === RIGHT SWINGING BALL (CLOSE) — pulled back right at ~45° === -->
  <!-- Motion trail arc -->
  <path d="M 228" y1="43 Q 248 75 244 105" stroke="url(#trailGradR)" stroke-width="2" fill="none" stroke-linecap="round" opacity="0.6"/>
  <path d="M 228 43 Q 248 75 244 105" stroke="url(#trailGradR)" stroke-width="2" fill="none" stroke-linecap="round" opacity="0.6"/>

  <!-- Ball 5 strings (angled right — swinging out) -->
  <line x1="226" y1="43" x2="239" y2="107" stroke="#8090aa" stroke-width="0.8" opacity="0.8" filter="url(#stringShadow)"/>
  <line x1="234" y1="43" x2="247" y2="107" stroke="#8090aa" stroke-width="0.8" opacity="0.8" filter="url(#stringShadow)"/>

  <!-- Ball 5 glow halo -->
  <circle cx="243" cy="118" r="14" fill="url(#closeGlow)" />

  <!-- Ball 5 — swinging (CLOSE) with active chrome -->
  <circle cx="243" cy="118" r="10" fill="url(#activeChrome)" filter="url(#glow)" />
  <!-- Ball 5 highlight -->
  <circle cx="239" cy="113" r="3" fill="#ffffff" fill-opacity="0.5" />
  <!-- Close icon: handshake / deal star -->
  <polygon points="243,112 244.5,116.5 249,116.5 245.5,119.5 247,124 243,121.5 239,124 240.5,119.5 237,116.5 241.5,116.5" fill="#80ffcc" fill-opacity="0.8" />

  <!-- === SHADOW ELLIPSES UNDER BALLS === -->
  <ellipse cx="61" cy="131" rx="9" ry="2.5" fill="#000000" fill-opacity="0.5" />
  <ellipse cx="97" cy="131" rx="9" ry="2.5" fill="#000000" fill-opacity="0.4" />
  <ellipse cx="130" cy="131" rx="9" ry="2.5" fill="#000000" fill-opacity="0.4" />
  <ellipse cx="163" cy="131" rx="9" ry="2.5" fill="#000000" fill-opacity="0.4" />
  <ellipse cx="243" cy="131" rx="9" ry="2.5" fill="#000000" fill-opacity="0.5" />

  <!-- === STAGE LABELS === -->
  <text x="61" y="148" text-anchor="middle" font-family="'SF Mono', 'Fira Code', monospace" font-size="5.5" fill="#6080aa" letter-spacing="0.3">DISC</text>
  <text x="97" y="148" text-anchor="middle" font-family="'SF Mono', 'Fira Code', monospace" font-size="5.5" fill="#6080aa" letter-spacing="0.3">ENRCH</text>
  <text x="130" y="148" text-anchor="middle" font-family="'SF Mono', 'Fira Code', monospace" font-size="5.5" fill="#6080aa" letter-spacing="0.3">QUAL</text>
  <text x="163" y="148" text-anchor="middle" font-family="'SF Mono', 'Fira Code', monospace" font-size="5.5" fill="#6080aa" letter-spacing="0.3">CONT</text>
  <text x="243" y="148" text-anchor="middle" font-family="'SF Mono', 'Fira Code', monospace" font-size="5.5" fill="#6080aa" letter-spacing="0.3">CLOSE</text>

  <!-- === MOMENTUM TRANSFER INDICATOR (center collision dot) === -->
  <circle cx="174" cy="118" r="2" fill="#ffffff" fill-opacity="0.15" />

  <!-- === TITLE TEXT === -->
  <text x="150" y="172" text-anchor="middle"
        font-family="'SF Pro Display', 'Helvetica Neue', Arial, sans-serif"
        font-size="13" font-weight="700" letter-spacing="2"
        fill="#c8d0e8">
    AGENTIC LEAD GEN
  </text>

  <!-- Subtitle -->
  <text x="150" y="185" text-anchor="middle"
        font-family="'SF Mono', 'Fira Code', monospace"
        font-size="6.5" letter-spacing="3"
        fill="#4a5a7a">
    PENDULUM MOMENTUM
  </text>

  <!-- Decorative separator line -->
  <line x1="80" y1="165" x2="220" y2="165" stroke="#2a3a5a" stroke-width="0.5" />
  <circle cx="150" cy="165" r="1.5" fill="#4a6aaa" fill-opacity="0.8"/>

  <!-- Corner accents -->
  <path d="M 8 8 L 20 8 M 8 8 L 8 20" stroke="#2a4a6a" stroke-width="1.5" stroke-linecap="round" fill="none"/>
  <path d="M 292 8 L 280 8 M 292 8 L 292 20" stroke="#2a4a6a" stroke-width="1.5" stroke-linecap="round" fill="none"/>
  <path d="M 8 192 L 20 192 M 8 192 L 8 180" stroke="#2a4a6a" stroke-width="1.5" stroke-linecap="round" fill="none"/>
  <path d="M 292 192 L 280 192 M 292 192 L 292 180" stroke="#2a4a6a" stroke-width="1.5" stroke-linecap="round" fill="none"/>
</svg>
