<svg xmlns="http://www.w3.org/2000/svg" viewBox="0 0 300 200" width="300" height="200" font-family="'Segoe UI', Arial, sans-serif">
  <!-- Background -->
  <rect width="300" height="200" fill="#ffffff"/>

  <!-- Outermost ring: Industry -->
  <circle cx="150" cy="105" r="88" fill="#FF6B35"/>
  <!-- Ring 4: Size -->
  <circle cx="150" cy="105" r="68" fill="#FF8C00"/>
  <!-- Ring 3: Budget -->
  <circle cx="150" cy="105" r="48" fill="#FFC107"/>
  <!-- Ring 2: Fit -->
  <circle cx="150" cy="105" r="28" fill="#FF3D00"/>
  <!-- Bullseye: Perfect Lead -->
  <circle cx="150" cy="105" r="14" fill="#B71C1C"/>
  <!-- Bullseye highlight -->
  <circle cx="150" cy="105" r="7" fill="#FFFFFF" opacity="0.35"/>

  <!-- Ring separator strokes -->
  <circle cx="150" cy="105" r="88" fill="none" stroke="#fff" stroke-width="1.5" opacity="0.6"/>
  <circle cx="150" cy="105" r="68" fill="none" stroke="#fff" stroke-width="1.5" opacity="0.6"/>
  <circle cx="150" cy="105" r="48" fill="none" stroke="#fff" stroke-width="1.5" opacity="0.6"/>
  <circle cx="150" cy="105" r="28" fill="none" stroke="#fff" stroke-width="1.5" opacity="0.6"/>
  <circle cx="150" cy="105" r="14" fill="none" stroke="#fff" stroke-width="1.5" opacity="0.6"/>

  <!-- Crosshair lines -->
  <line x1="150" y1="17" x2="150" y2="62" stroke="#fff" stroke-width="1.5" opacity="0.5"/>
  <line x1="150" y1="148" x2="150" y2="193" stroke="#fff" stroke-width="1.5" opacity="0.5"/>
  <line x1="62" y1="105" x2="107" y2="105" stroke="#fff" stroke-width="1.5" opacity="0.5"/>
  <line x1="193" y1="105" x2="238" y2="105" stroke="#fff" stroke-width="1.5" opacity="0.5"/>

  <!-- Label: INDUSTRY (outermost ring, top arc area) -->
  <text x="150" y="28" text-anchor="middle" font-size="8.5" font-weight="700" fill="#FF6B35" letter-spacing="1" text-decoration="none">INDUSTRY</text>

  <!-- Label: SIZE (ring 4) -->
  <text x="150" y="46" text-anchor="middle" font-size="7.5" font-weight="700" fill="#FF8C00" letter-spacing="0.8">SIZE</text>

  <!-- Label: BUDGET (ring 3, rendered on the ring itself) -->
  <!-- Left side of ring 3 -->
  <text x="98" y="108" text-anchor="middle" font-size="6.5" font-weight="700" fill="#fff" letter-spacing="0.5">BUDGET</text>

  <!-- Label: FIT (ring 2) -->
  <text x="179" y="108" text-anchor="middle" font-size="6.5" font-weight="700" fill="#fff" letter-spacing="0.5">FIT</text>

  <!-- Bullseye label: PERFECT LEAD -->
  <text x="150" y="101" text-anchor="middle" font-size="4.8" font-weight="800" fill="#fff" letter-spacing="0.3">PERFECT</text>
  <text x="150" y="109" text-anchor="middle" font-size="4.8" font-weight="800" fill="#fff" letter-spacing="0.3">LEAD</text>

  <!-- Arrow shaft -->
  <line x1="242" y1="63" x2="164" y2="97" stroke="#4A2C0A" stroke-width="3" stroke-linecap="round"/>
  <!-- Arrowhead -->
  <polygon points="161,95 170,88 168,100" fill="#4A2C0A"/>
  <!-- Arrow fletching -->
  <polygon points="245,60 253,55 248,65" fill="#CC3300" opacity="0.85"/>
  <polygon points="245,60 253,68 248,65" fill="#FF6B35" opacity="0.85"/>

  <!-- Bottom title area separator -->
  <rect x="20" y="168" width="260" height="1" fill="#FF6B35" opacity="0.25"/>

  <!-- Title text -->
  <text x="150" y="183" text-anchor="middle" font-size="13" font-weight="800" fill="#1A1A1A" letter-spacing="1.5">AGENTIC</text>
  <text x="150" y="197" text-anchor="middle" font-size="9" font-weight="600" fill="#FF6B35" letter-spacing="3">LEAD GEN</text>
</svg>
