<svg xmlns="http://www.w3.org/2000/svg" viewBox="0 0 300 200" width="300" height="200">
  <defs>
    <linearGradient id="leftGrad" x1="0%" y1="0%" x2="100%" y2="0%">
      <stop offset="0%" stop-color="#1a6fd4" stop-opacity="0.9"/>
      <stop offset="100%" stop-color="#2563eb" stop-opacity="1"/>
    </linearGradient>
    <linearGradient id="waistGrad" x1="0%" y1="0%" x2="100%" y2="0%">
      <stop offset="0%" stop-color="#2563eb"/>
      <stop offset="50%" stop-color="#7c3aed"/>
      <stop offset="100%" stop-color="#d97706"/>
    </linearGradient>
    <linearGradient id="rightGrad" x1="0%" y1="0%" x2="100%" y2="0%">
      <stop offset="0%" stop-color="#d97706" stop-opacity="1"/>
      <stop offset="100%" stop-color="#f59e0b" stop-opacity="0.9"/>
    </linearGradient>
    <linearGradient id="s1" x1="0%" y1="0%" x2="100%" y2="0%">
      <stop offset="0%" stop-color="#60a5fa" stop-opacity="0.5"/>
      <stop offset="100%" stop-color="#3b82f6" stop-opacity="0.9"/>
    </linearGradient>
    <linearGradient id="s2" x1="0%" y1="0%" x2="100%" y2="0%">
      <stop offset="0%" stop-color="#93c5fd" stop-opacity="0.4"/>
      <stop offset="100%" stop-color="#2563eb" stop-opacity="0.9"/>
    </linearGradient>
    <linearGradient id="s3" x1="0%" y1="0%" x2="100%" y2="0%">
      <stop offset="0%" stop-color="#bfdbfe" stop-opacity="0.3"/>
      <stop offset="100%" stop-color="#1d4ed8" stop-opacity="0.9"/>
    </linearGradient>
    <linearGradient id="r1" x1="0%" y1="0%" x2="100%" y2="0%">
      <stop offset="0%" stop-color="#d97706" stop-opacity="0.9"/>
      <stop offset="100%" stop-color="#fbbf24" stop-opacity="0.6"/>
    </linearGradient>
    <linearGradient id="r2" x1="0%" y1="0%" x2="100%" y2="0%">
      <stop offset="0%" stop-color="#b45309" stop-opacity="0.9"/>
      <stop offset="100%" stop-color="#f59e0b" stop-opacity="0.5"/>
    </linearGradient>
    <filter id="glow" x="-30%" y="-30%" width="160%" height="160%">
      <feGaussianBlur in="SourceGraphic" stdDeviation="3" result="blur"/>
      <feMerge>
        <feMergeNode in="blur"/>
        <feMergeNode in="SourceGraphic"/>
      </feMerge>
    </filter>
    <radialGradient id="dotGold" cx="50%" cy="50%" r="50%">
      <stop offset="0%" stop-color="#fde68a" stop-opacity="1"/>
      <stop offset="100%" stop-color="#f59e0b" stop-opacity="0"/>
    </radialGradient>
    <linearGradient id="bgGrad" x1="0%" y1="0%" x2="100%" y2="100%">
      <stop offset="0%" stop-color="#0f172a"/>
      <stop offset="100%" stop-color="#1e1b4b"/>
    </linearGradient>
  </defs>

  <!-- Background -->
  <rect width="300" height="200" fill="url(#bgGrad)" rx="12"/>

  <!-- LEFT BOWTIE TRIANGLE (filled) -->
  <path d="M 8,20 L 130,100 L 8,180 Z" fill="url(#leftGrad)" opacity="0.15"/>

  <!-- 7 input streams converging to waist at x=130, y=100 -->
  <path d="M 8,28 C 45,28 80,55 115,78 C 122,82 128,88 130,100" fill="none" stroke="url(#s3)" stroke-width="2.5" stroke-linecap="round"/>
  <path d="M 8,48 C 44,48 78,62 112,80 C 120,84 127,90 130,100" fill="none" stroke="url(#s2)" stroke-width="2.5" stroke-linecap="round"/>
  <path d="M 8,68 C 45,68 80,74 112,86 C 120,90 127,95 130,100" fill="none" stroke="url(#s1)" stroke-width="3" stroke-linecap="round"/>
  <path d="M 8,100 C 50,100 90,100 130,100" fill="none" stroke="url(#leftGrad)" stroke-width="3.5" stroke-linecap="round"/>
  <path d="M 8,132 C 45,132 80,126 112,114 C 120,110 127,105 130,100" fill="none" stroke="url(#s1)" stroke-width="3" stroke-linecap="round"/>
  <path d="M 8,152 C 44,152 78,138 112,120 C 120,116 127,110 130,100" fill="none" stroke="url(#s2)" stroke-width="2.5" stroke-linecap="round"/>
  <path d="M 8,172 C 45,172 80,145 115,122 C 122,118 128,112 130,100" fill="none" stroke="url(#s3)" stroke-width="2.5" stroke-linecap="round"/>

  <!-- Left source dots -->
  <circle cx="8" cy="28"  r="3.5" fill="#60a5fa" opacity="0.8"/>
  <circle cx="8" cy="48"  r="3.5" fill="#60a5fa" opacity="0.75"/>
  <circle cx="8" cy="68"  r="4"   fill="#3b82f6" opacity="0.85"/>
  <circle cx="8" cy="100" r="4.5" fill="#2563eb" opacity="0.95"/>
  <circle cx="8" cy="132" r="4"   fill="#3b82f6" opacity="0.85"/>
  <circle cx="8" cy="152" r="3.5" fill="#60a5fa" opacity="0.75"/>
  <circle cx="8" cy="172" r="3.5" fill="#60a5fa" opacity="0.8"/>

  <!-- WAIST: AI filter core -->
  <rect x="126" y="86" width="8" height="28" rx="4" fill="url(#waistGrad)" filter="url(#glow)"/>
  <circle cx="130" cy="100" r="11" fill="none" stroke="url(#waistGrad)" stroke-width="2" filter="url(#glow)" opacity="0.9"/>
  <circle cx="130" cy="100" r="6"  fill="#7c3aed" opacity="0.85" filter="url(#glow)"/>

  <!-- RIGHT BOWTIE TRIANGLE (filled, narrower = fewer leads) -->
  <path d="M 130,100 L 252,55 L 252,145 Z" fill="url(#rightGrad)" opacity="0.13"/>

  <!-- 2 output streams (high-quality leads) -->
  <path d="M 130,100 C 133,95 140,88 152,82 C 168,74 190,62 222,52" fill="none" stroke="url(#r1)" stroke-width="4.5" stroke-linecap="round"/>
  <path d="M 130,100 C 133,105 140,112 152,118 C 168,126 190,138 222,148" fill="none" stroke="url(#r2)" stroke-width="4.5" stroke-linecap="round"/>

  <!-- Output lead dots: premium, glowing -->
  <circle cx="222" cy="52"  r="7"   fill="url(#dotGold)" filter="url(#glow)"/>
  <circle cx="222" cy="52"  r="4"   fill="#fbbf24"/>
  <circle cx="222" cy="148" r="7"   fill="url(#dotGold)" filter="url(#glow)"/>
  <circle cx="222" cy="148" r="4"   fill="#f59e0b"/>

  <!-- Checkmarks on output nodes -->
  <path d="M 218,52 L 221,55 L 227,48" fill="none" stroke="#fde68a" stroke-width="1.8" stroke-linecap="round" stroke-linejoin="round"/>
  <path d="M 218,148 L 221,151 L 227,144" fill="none" stroke="#fde68a" stroke-width="1.8" stroke-linecap="round" stroke-linejoin="round"/>

  <!-- Floating noise particles on left (raw data) -->
  <circle cx="38"  cy="40"  r="1.5" fill="#93c5fd" opacity="0.6"/>
  <circle cx="62"  cy="30"  r="1"   fill="#bfdbfe" opacity="0.5"/>
  <circle cx="50"  cy="160" r="1.5" fill="#93c5fd" opacity="0.55"/>
  <circle cx="78"  cy="170" r="1"   fill="#bfdbfe" opacity="0.45"/>
  <circle cx="95"  cy="55"  r="1.2" fill="#60a5fa" opacity="0.5"/>
  <circle cx="82"  cy="145" r="1.2" fill="#60a5fa" opacity="0.5"/>
  <circle cx="28"  cy="118" r="1"   fill="#93c5fd" opacity="0.4"/>
  <circle cx="55"  cy="88"  r="0.9" fill="#bfdbfe" opacity="0.35"/>
  <circle cx="70"  cy="112" r="0.9" fill="#93c5fd" opacity="0.35"/>

  <!-- Zone labels -->
  <text x="34"  y="14"  text-anchor="middle" font-family="'Segoe UI', Inter, Arial, sans-serif" font-size="7"    fill="#60a5fa"  opacity="0.6"  letter-spacing="1">RAW DATA</text>
  <text x="222" y="40"  text-anchor="middle" font-family="'Segoe UI', Inter, Arial, sans-serif" font-size="7"    fill="#fbbf24"  opacity="0.65" letter-spacing="1">LEADS</text>
  <text x="130" y="79"  text-anchor="middle" font-family="'Segoe UI', Inter, Arial, sans-serif" font-size="6.5"  fill="#c4b5fd"  opacity="0.75" letter-spacing="0.5">AI</text>

  <!-- Wordmark -->
  <text x="150" y="176" text-anchor="middle" font-family="'Segoe UI', Inter, Arial, sans-serif" font-size="10.5" fill="#94a3b8"  opacity="0.85" font-weight="700" letter-spacing="2.5">AGENTIC LEAD GEN</text>
  <line x1="80" y1="181" x2="220" y2="181" stroke="#334155" stroke-width="0.5"/>
</svg>
