<svg xmlns="http://www.w3.org/2000/svg" viewBox="0 0 300 200" width="300" height="200">
  <defs>
    <filter id="glow-strong" x="-50%" y="-50%" width="200%" height="200%">
      <feGaussianBlur stdDeviation="3.5" result="blur1"/>
      <feGaussianBlur stdDeviation="1.5" result="blur2"/>
      <feMerge>
        <feMergeNode in="blur1"/>
        <feMergeNode in="blur2"/>
        <feMergeNode in="SourceGraphic"/>
      </feMerge>
    </filter>
    <filter id="glow-soft" x="-50%" y="-50%" width="200%" height="200%">
      <feGaussianBlur stdDeviation="2" result="blur"/>
      <feMerge>
        <feMergeNode in="blur"/>
        <feMergeNode in="SourceGraphic"/>
      </feMerge>
    </filter>
    <filter id="glow-text" x="-20%" y="-50%" width="140%" height="200%">
      <feGaussianBlur stdDeviation="2" result="blur"/>
      <feMerge>
        <feMergeNode in="blur"/>
        <feMergeNode in="SourceGraphic"/>
      </feMerge>
    </filter>
    <linearGradient id="pathGrad" x1="0%" y1="0%" x2="100%" y2="100%">
      <stop offset="0%" stop-color="#00d4ff" stop-opacity="0.9"/>
      <stop offset="50%" stop-color="#4af0ff" stop-opacity="1"/>
      <stop offset="100%" stop-color="#00aaff" stop-opacity="0.9"/>
    </linearGradient>
    <linearGradient id="bgGrad" x1="0%" y1="0%" x2="100%" y2="100%">
      <stop offset="0%" stop-color="#050d1a"/>
      <stop offset="100%" stop-color="#0a1628"/>
    </linearGradient>
    <linearGradient id="wallGrad" x1="0%" y1="0%" x2="0%" y2="100%">
      <stop offset="0%" stop-color="#1a2a3e"/>
      <stop offset="100%" stop-color="#0f1e30"/>
    </linearGradient>
    <radialGradient id="startGlow" cx="50%" cy="50%" r="50%">
      <stop offset="0%" stop-color="#00ff88" stop-opacity="1"/>
      <stop offset="100%" stop-color="#00cc66" stop-opacity="0"/>
    </radialGradient>
    <radialGradient id="endGlow" cx="50%" cy="50%" r="50%">
      <stop offset="0%" stop-color="#ff6b35" stop-opacity="1"/>
      <stop offset="100%" stop-color="#ff4400" stop-opacity="0"/>
    </radialGradient>
    <radialGradient id="ambientGlow" cx="45%" cy="50%" r="55%">
      <stop offset="0%" stop-color="#0066aa" stop-opacity="0.15"/>
      <stop offset="100%" stop-color="#000510" stop-opacity="0"/>
    </radialGradient>
    <!-- Animated dash for the solution path -->
    <style>
      .path-anim {
        stroke-dasharray: 8 4;
        animation: dash 1.8s linear infinite;
      }
      @keyframes dash {
        to { stroke-dashoffset: -24; }
      }
      .pulse-start {
        animation: pulseS 2s ease-in-out infinite;
      }
      @keyframes pulseS {
        0%, 100% { opacity: 1; r: 4; }
        50% { opacity: 0.6; r: 5.5; }
      }
      .pulse-end {
        animation: pulseE 2s ease-in-out infinite;
        animation-delay: 1s;
      }
      @keyframes pulseE {
        0%, 100% { opacity: 1; r: 4; }
        50% { opacity: 0.6; r: 5.5; }
      }
    </style>
  </defs>

  <!-- Background -->
  <rect width="300" height="200" fill="url(#bgGrad)" rx="8"/>
  <rect width="300" height="200" fill="url(#ambientGlow)" rx="8"/>

  <!-- Subtle grid texture -->
  <g opacity="0.06" stroke="#3a6fa0" stroke-width="0.4">
    <line x1="0" y1="20" x2="300" y2="20"/>
    <line x1="0" y1="40" x2="300" y2="40"/>
    <line x1="0" y1="60" x2="300" y2="60"/>
    <line x1="0" y1="80" x2="300" y2="80"/>
    <line x1="0" y1="100" x2="300" y2="100"/>
    <line x1="0" y1="120" x2="300" y2="120"/>
    <line x1="0" y1="140" x2="300" y2="140"/>
    <line x1="0" y1="160" x2="300" y2="160"/>
    <line x1="20" y1="0" x2="20" y2="200"/>
    <line x1="40" y1="0" x2="40" y2="200"/>
    <line x1="60" y1="0" x2="60" y2="200"/>
    <line x1="80" y1="0" x2="80" y2="200"/>
    <line x1="100" y1="0" x2="100" y2="200"/>
    <line x1="120" y1="0" x2="120" y2="200"/>
    <line x1="140" y1="0" x2="140" y2="200"/>
    <line x1="160" y1="0" x2="160" y2="200"/>
    <line x1="180" y1="0" x2="180" y2="200"/>
    <line x1="200" y1="0" x2="200" y2="200"/>
    <line x1="220" y1="0" x2="220" y2="200"/>
    <line x1="240" y1="0" x2="240" y2="200"/>
    <line x1="260" y1="0" x2="260" y2="200"/>
    <line x1="280" y1="0" x2="280" y2="200"/>
  </g>

  <!-- ===== MAZE WALLS ===== -->
  <!-- Maze occupies roughly x:18-222, y:14-146 -->
  <!-- Cell size: ~16px, 13 cols x 8 rows -->
  <g fill="url(#wallGrad)" stroke="#1e3550" stroke-width="0.5">

    <!-- Outer boundary -->
    <rect x="18" y="14" width="204" height="132" rx="2" fill="none" stroke="#2a4060" stroke-width="2"/>

    <!-- Horizontal walls (internal) -->
    <!-- Row 1 -->
    <rect x="18" y="30" width="32" height="3"/>
    <rect x="66" y="30" width="48" height="3"/>
    <rect x="130" y="30" width="32" height="3"/>
    <rect x="178" y="30" width="44" height="3"/>

    <!-- Row 2 -->
    <rect x="34" y="46" width="32" height="3"/>
    <rect x="82" y="46" width="16" height="3"/>
    <rect x="114" y="46" width="32" height="3"/>
    <rect x="162" y="46" width="32" height="3"/>
    <rect x="210" y="46" width="12" height="3"/>

    <!-- Row 3 -->
    <rect x="18" y="62" width="48" height="3"/>
    <rect x="82" y="62" width="32" height="3"/>
    <rect x="130" y="62" width="16" height="3"/>
    <rect x="162" y="62" width="48" height="3"/>

    <!-- Row 4 -->
    <rect x="34" y="78" width="16" height="3"/>
    <rect x="66" y="78" width="32" height="3"/>
    <rect x="114" y="78" width="16" height="3"/>
    <rect x="146" y="78" width="32" height="3"/>
    <rect x="194" y="78" width="28" height="3"/>

    <!-- Row 5 -->
    <rect x="18" y="94" width="32" height="3"/>
    <rect x="66" y="94" width="48" height="3"/>
    <rect x="130" y="94" width="32" height="3"/>
    <rect x="178" y="94" width="16" height="3"/>
    <rect x="210" y="94" width="12" height="3"/>

    <!-- Row 6 -->
    <rect x="34" y="110" width="32" height="3"/>
    <rect x="82" y="110" width="16" height="3"/>
    <rect x="114" y="110" width="32" height="3"/>
    <rect x="162" y="110" width="32" height="3"/>

    <!-- Row 7 -->
    <rect x="18" y="126" width="48" height="3"/>
    <rect x="82" y="126" width="32" height="3"/>
    <rect x="130" y="126" width="48" height="3"/>
    <rect x="194" y="126" width="28" height="3"/>

    <!-- Vertical walls (internal) -->
    <!-- Col 1 -->
    <rect x="34" y="14" width="3" height="16"/>
    <rect x="34" y="33" width="3" height="16"/>
    <rect x="34" y="65" width="3" height="16"/>
    <rect x="34" y="97" width="3" height="13"/>
    <rect x="34" y="129" width="3" height="17"/>

    <!-- Col 2 -->
    <rect x="50" y="30" width="3" height="16"/>
    <rect x="50" y="62" width="3" height="16"/>
    <rect x="50" y="94" width="3" height="32"/>

    <!-- Col 3 -->
    <rect x="66" y="14" width="3" height="32"/>
    <rect x="66" y="49" width="3" height="29"/>
    <rect x="66" y="97" width="3" height="29"/>

    <!-- Col 4 -->
    <rect x="82" y="30" width="3" height="32"/>
    <rect x="82" y="81" width="3" height="13"/>
    <rect x="82" y="113" width="3" height="33"/>

    <!-- Col 5 -->
    <rect x="98" y="14" width="3" height="32"/>
    <rect x="98" y="62" width="3" height="32"/>
    <rect x="98" y="113" width="3" height="33"/>

    <!-- Col 6 -->
    <rect x="114" y="30" width="3" height="16"/>
    <rect x="114" y="65" width="3" height="13"/>
    <rect x="114" y="97" width="3" height="16"/>

    <!-- Col 7 -->
    <rect x="130" y="14" width="3" height="16"/>
    <rect x="130" y="49" width="3" height="29"/>
    <rect x="130" y="97" width="3" height="29"/>

    <!-- Col 8 -->
    <rect x="146" y="30" width="3" height="48"/>
    <rect x="146" y="113" width="3" height="33"/>

    <!-- Col 9 -->
    <rect x="162" y="14" width="3" height="16"/>
    <rect x="162" y="65" width="3" height="13"/>
    <rect x="162" y="97" width="3" height="29"/>

    <!-- Col 10 -->
    <rect x="178" y="30" width="3" height="16"/>
    <rect x="178" y="62" width="3" height="32"/>
    <rect x="178" y="113" width="3" height="16"/>

    <!-- Col 11 -->
    <rect x="194" y="14" width="3" height="32"/>
    <rect x="194" y="65" width="3" height="13"/>
    <rect x="194" y="113" width="3" height="17"/>

    <!-- Col 12 -->
    <rect x="210" y="30" width="3" height="16"/>
    <rect x="210" y="62" width="3" height="32"/>
    <rect x="210" y="97" width="3" height="29"/>
  </g>

  <!-- ===== GLOW PATH SHADOW (outer bloom) ===== -->
  <polyline
    points="22,22 22,38 38,38 38,54 54,54 54,38 70,38 70,22 86,22 86,38 86,54 102,54 102,70 118,70 118,54 134,54 134,70 150,70 150,54 166,54 166,38 182,38 182,54 198,54 198,70 214,70 214,86 198,86 182,86 166,86 150,86 150,102 134,102 118,102 102,102 102,118 86,118 70,118 70,134 86,134 102,134 118,134 134,134 150,134 166,134 166,118 182,118 198,118 214,118 214,134 218,138"
    fill="none"
    stroke="#00aaff"
    stroke-width="10"
    stroke-linecap="round"
    stroke-linejoin="round"
    opacity="0.12"
    filter="url(#glow-strong)"
  />

  <!-- ===== GLOW PATH MID ===== -->
  <polyline
    points="22,22 22,38 38,38 38,54 54,54 54,38 70,38 70,22 86,22 86,38 86,54 102,54 102,70 118,70 118,54 134,54 134,70 150,70 150,54 166,54 166,38 182,38 182,54 198,54 198,70 214,70 214,86 198,86 182,86 166,86 150,86 150,102 134,102 118,102 102,102 102,118 86,118 70,118 70,134 86,134 102,134 118,134 134,134 150,134 166,134 166,118 182,118 198,118 214,118 214,134 218,138"
    fill="none"
    stroke="#00ccff"
    stroke-width="4"
    stroke-linecap="round"
    stroke-linejoin="round"
    opacity="0.5"
    filter="url(#glow-soft)"
  />

  <!-- ===== SOLUTION PATH (bright core) ===== -->
  <polyline
    class="path-anim"
    points="22,22 22,38 38,38 38,54 54,54 54,38 70,38 70,22 86,22 86,38 86,54 102,54 102,70 118,70 118,54 134,54 134,70 150,70 150,54 166,54 166,38 182,38 182,54 198,54 198,70 214,70 214,86 198,86 182,86 166,86 150,86 150,102 134,102 118,102 102,102 102,118 86,118 70,118 70,134 86,134 102,134 118,134 134,134 150,134 166,134 166,118 182,118 198,118 214,118 214,134 218,138"
    fill="none"
    stroke="url(#pathGrad)"
    stroke-width="2.2"
    stroke-linecap="round"
    stroke-linejoin="round"
    filter="url(#glow-soft)"
  />

  <!-- START node -->
  <circle cx="22" cy="22" r="5" fill="url(#startGlow)" filter="url(#glow-soft)" opacity="0.6"/>
  <circle class="pulse-start" cx="22" cy="22" r="4" fill="#00ff88" filter="url(#glow-soft)"/>
  <circle cx="22" cy="22" r="2" fill="#ccffe8"/>

  <!-- END node -->
  <circle cx="218" cy="138" r="5" fill="url(#endGlow)" filter="url(#glow-soft)" opacity="0.6"/>
  <circle class="pulse-end" cx="218" cy="138" r="4" fill="#ff6b35" filter="url(#glow-soft)"/>
  <circle cx="218" cy="138" r="2" fill="#ffd0b5"/>

  <!-- ===== TEXT SECTION ===== -->
  <!-- "Agentic" -->
  <text
    x="240" y="62"
    font-family="'Courier New', Courier, monospace"
    font-size="13"
    font-weight="700"
    letter-spacing="2"
    fill="#00d4ff"
    filter="url(#glow-text)"
    text-anchor="start"
  >AGENTIC</text>

  <!-- Divider line -->
  <line x1="238" y1="68" x2="292" y2="68" stroke="#00aaff" stroke-width="0.8" opacity="0.5"/>

  <!-- "LEAD GEN" -->
  <text
    x="240" y="82"
    font-family="'Courier New', Courier, monospace"
    font-size="10.5"
    font-weight="600"
    letter-spacing="1.5"
    fill="#7ed8f0"
    text-anchor="start"
  >LEAD GEN</text>

  <!-- Tagline -->
  <text
    x="240" y="98"
    font-family="'Courier New', Courier, monospace"
    font-size="6.5"
    letter-spacing="0.8"
    fill="#3a7a9a"
    text-anchor="start"
  >PATHFINDER AI</text>

  <!-- Small legend: START / END -->
  <circle cx="241" cy="116" r="3" fill="#00ff88" opacity="0.8"/>
  <text x="248" y="119" font-family="'Courier New', Courier, monospace" font-size="6" fill="#4a8a6a" letter-spacing="0.5">START</text>

  <circle cx="241" cy="128" r="3" fill="#ff6b35" opacity="0.8"/>
  <text x="248" y="131" font-family="'Courier New', Courier, monospace" font-size="6" fill="#8a5a4a" letter-spacing="0.5">GOAL</text>

  <!-- Bottom border accent -->
  <line x1="18" y1="152" x2="222" y2="152" stroke="#1a3a5a" stroke-width="0.8" opacity="0.6"/>
  <line x1="18" y1="154" x2="222" y2="154" stroke="#00aaff" stroke-width="0.4" opacity="0.2"/>

  <!-- Corner accent marks -->
  <g stroke="#00aaff" stroke-width="1.2" opacity="0.4" fill="none">
    <path d="M8,8 L8,16 L16,16"/>
    <path d="M292,8 L292,16 L284,16"/>
    <path d="M8,192 L8,184 L16,184"/>
    <path d="M292,192 L292,184 L284,184"/>
  </g>

  <!-- Outer glow border -->
  <rect x="1" y="1" width="298" height="198" rx="8" fill="none" stroke="#00aaff" stroke-width="0.6" opacity="0.15"/>
</svg>
