<svg xmlns="http://www.w3.org/2000/svg" viewBox="0 0 300 200" width="300" height="200">
  <defs>
    <linearGradient id="oceanDeep" x1="0%" y1="100%" x2="100%" y2="0%">
      <stop offset="0%" style="stop-color:#0a1628;stop-opacity:1" />
      <stop offset="30%" style="stop-color:#0d3b6e;stop-opacity:1" />
      <stop offset="60%" style="stop-color:#1565c0;stop-opacity:1" />
      <stop offset="80%" style="stop-color:#42a5f5;stop-opacity:1" />
      <stop offset="100%" style="stop-color:#e3f2fd;stop-opacity:1" />
    </linearGradient>
    <linearGradient id="foamGrad" x1="0%" y1="0%" x2="100%" y2="100%">
      <stop offset="0%" style="stop-color:#ffffff;stop-opacity:1" />
      <stop offset="50%" style="stop-color:#e3f2fd;stop-opacity:1" />
      <stop offset="100%" style="stop-color:#90caf9;stop-opacity:0.6" />
    </linearGradient>
    <linearGradient id="bgGrad" x1="0%" y1="0%" x2="100%" y2="100%">
      <stop offset="0%" style="stop-color:#071020;stop-opacity:1" />
      <stop offset="100%" style="stop-color:#0a1f3d;stop-opacity:1" />
    </linearGradient>
    <filter id="glow">
      <feGaussianBlur stdDeviation="2" result="coloredBlur"/>
      <feMerge>
        <feMergeNode in="coloredBlur"/>
        <feMergeNode in="SourceGraphic"/>
      </feMerge>
    </filter>
    <filter id="softglow">
      <feGaussianBlur stdDeviation="3" result="coloredBlur"/>
      <feMerge>
        <feMergeNode in="coloredBlur"/>
        <feMergeNode in="SourceGraphic"/>
      </feMerge>
    </filter>
  </defs>

  <!-- Background -->
  <rect width="300" height="200" fill="url(#bgGrad)" rx="8"/>

  <!-- Deep water base layer -->
  <polygon points="0,200 0,140 30,130 60,135 90,125 120,118 150,110 180,100 210,92 240,88 270,85 300,80 300,200" fill="url(#oceanDeep)" opacity="0.9"/>

  <!-- Wave body rear large facets -->
  <polygon points="0,165 20,150 50,145 80,150 110,140 140,128 170,118 200,108 220,100 240,95 260,90 280,88 300,85 300,160 270,155 240,150 210,148 180,145 150,142 120,145 90,148 60,152 30,158" fill="#0d3b6e" opacity="0.85"/>

  <!-- Large bottom-left facet -->
  <polygon points="0,170 40,148 80,142 120,138 150,130 140,155 90,162 45,168" fill="#0d4f8c" opacity="0.9"/>

  <!-- Center mass facets -->
  <polygon points="80,142 130,125 175,110 210,98 220,100 200,118 160,130 110,140" fill="#1565c0" opacity="0.88"/>
  <polygon points="130,125 180,108 220,95 250,88 260,90 235,102 190,116 145,132" fill="#1976d2" opacity="0.85"/>

  <!-- Upper facets building toward crest -->
  <polygon points="175,110 220,95 260,82 280,80 275,90 255,95 225,105 190,118" fill="#1e88e5" opacity="0.8"/>
  <polygon points="220,95 265,78 285,75 290,78 280,85 258,88 232,100" fill="#2196f3" opacity="0.78"/>

  <!-- Transition facets mid-wave -->
  <polygon points="150,130 200,112 240,100 260,95 250,108 215,120 175,135" fill="#42a5f5" opacity="0.75"/>
  <polygon points="200,112 245,96 275,88 285,90 268,100 240,108 212,120" fill="#64b5f6" opacity="0.7"/>

  <!-- Light catching facets -->
  <polygon points="240,92 270,80 290,76 295,82 278,88 255,94" fill="#90caf9" opacity="0.8"/>
  <polygon points="260,85 285,72 298,70 300,75 290,80 270,86" fill="#bbdefb" opacity="0.75"/>

  <!-- Wave crest curl base -->
  <polygon points="255,78 272,65 290,58 300,60 300,70 288,68 270,72" fill="#bbdefb" opacity="0.85"/>

  <!-- Crest overhang / curl -->
  <polygon points="260,72 275,58 292,52 298,55 296,62 280,65 265,70" fill="#e3f2fd" opacity="0.9"/>

  <!-- Foam curl tip -->
  <polygon points="268,65 282,52 295,46 300,50 298,57 285,60 272,64" fill="url(#foamGrad)" filter="url(#glow)"/>

  <!-- Foam spray at crest -->
  <polygon points="278,58 288,46 298,42 300,47 294,52 283,56" fill="#ffffff" opacity="0.95" filter="url(#glow)"/>

  <!-- Foam spray wisps -->
  <polygon points="272,54 280,44 290,40 294,46 284,50 274,53" fill="#e3f2fd" opacity="0.85"/>

  <!-- Cascading foam down the face -->
  <polygon points="235,98 255,85 275,80 278,88 260,94 240,100" fill="#90caf9" opacity="0.6" filter="url(#softglow)"/>
  <polygon points="215,108 240,94 262,89 264,96 244,103 220,112" fill="#bbdefb" opacity="0.55"/>
  <polygon points="190,120 220,106 248,98 250,105 222,114 196,126" fill="#e3f2fd" opacity="0.5"/>

  <!-- Foam line at base of wave -->
  <path d="M 0,162 C 20,158 50,154 80,150 C 110,146 140,142 170,140 C 200,138 230,138 260,136 C 280,135 295,134 305,134" stroke="#90caf9" stroke-width="1.5" fill="none" opacity="0.6"/>
  <path d="M 0,168 C 30,163 70,158 110,154 C 150,150 190,148 225,147 C 255,146 278,146 300,145" stroke="#64b5f6" stroke-width="1" fill="none" opacity="0.4"/>

  <!-- Foam specks at wave face -->
  <circle cx="242" cy="101" r="1.5" fill="#ffffff" opacity="0.8"/>
  <circle cx="255" cy="92" r="1.2" fill="#e3f2fd" opacity="0.85"/>
  <circle cx="268" cy="82" r="1.8" fill="#ffffff" opacity="0.9" filter="url(#glow)"/>
  <circle cx="276" cy="74" r="1.3" fill="#ffffff" opacity="0.95"/>
  <circle cx="283" cy="65" r="2" fill="#ffffff" opacity="0.9" filter="url(#glow)"/>
  <circle cx="290" cy="57" r="1.5" fill="#ffffff" opacity="0.85"/>
  <circle cx="228" cy="108" r="1.2" fill="#e3f2fd" opacity="0.7"/>
  <circle cx="215" cy="115" r="1" fill="#ffffff" opacity="0.6"/>

  <!-- Text: AGENTIC LEAD GEN -->
  <text x="150" y="182" font-family="'Arial', 'Helvetica', sans-serif" font-size="11" font-weight="700" letter-spacing="3" fill="#90caf9" text-anchor="middle" opacity="0.9">AGENTIC LEAD GEN</text>

  <!-- Subtle text underline accent -->
  <line x1="60" y1="185" x2="240" y2="185" stroke="#1976d2" stroke-width="0.5" opacity="0.5"/>

  <!-- Top-left accent: small data point dots suggesting leads -->
  <circle cx="18" cy="22" r="2" fill="#1e88e5" opacity="0.7"/>
  <circle cx="28" cy="18" r="1.5" fill="#42a5f5" opacity="0.6"/>
  <circle cx="38" cy="24" r="1.8" fill="#1565c0" opacity="0.65"/>
  <circle cx="46" cy="16" r="1.2" fill="#64b5f6" opacity="0.5"/>
  <circle cx="55" cy="21" r="2.2" fill="#1976d2" opacity="0.7"/>
  <circle cx="65" cy="14" r="1.5" fill="#42a5f5" opacity="0.55"/>

  <!-- Connecting lines for data/lead flow -->
  <polyline points="18,22 28,18 38,24 46,16 55,21 65,14" stroke="#2196f3" stroke-width="0.8" fill="none" opacity="0.45" stroke-dasharray="2,2"/>
</svg>
