<svg xmlns="http://www.w3.org/2000/svg" viewBox="0 0 300 200" width="300" height="200">
  <defs>
    <!-- Sunset gradient background -->
    <linearGradient id="skyGrad" x1="0" y1="0" x2="0" y2="1">
      <stop offset="0%" stop-color="#1a0533"/>
      <stop offset="35%" stop-color="#6b1f6e"/>
      <stop offset="65%" stop-color="#e85d28"/>
      <stop offset="100%" stop-color="#f5a623"/>
    </linearGradient>
    <!-- Water/ground gradient -->
    <linearGradient id="waterGrad" x1="0" y1="0" x2="0" y2="1">
      <stop offset="0%" stop-color="#0d1f3c"/>
      <stop offset="100%" stop-color="#0a1628"/>
    </linearGradient>
    <!-- Cliff gradient left -->
    <linearGradient id="cliffLeftGrad" x1="0" y1="0" x2="1" y2="0">
      <stop offset="0%" stop-color="#1c2e1a"/>
      <stop offset="100%" stop-color="#2d4a29"/>
    </linearGradient>
    <!-- Cliff gradient right -->
    <linearGradient id="cliffRightGrad" x1="0" y1="0" x2="1" y2="0">
      <stop offset="0%" stop-color="#2d4a29"/>
      <stop offset="100%" stop-color="#1c2e1a"/>
    </linearGradient>
    <!-- Data stream cable gradient -->
    <linearGradient id="cableGrad1" x1="0" y1="0" x2="1" y2="0">
      <stop offset="0%" stop-color="#ff6b35" stop-opacity="0.9"/>
      <stop offset="30%" stop-color="#ff9f1c" stop-opacity="1"/>
      <stop offset="60%" stop-color="#c77dff" stop-opacity="1"/>
      <stop offset="100%" stop-color="#7b2fff" stop-opacity="0.9"/>
    </linearGradient>
    <linearGradient id="cableGrad2" x1="0" y1="0" x2="1" y2="0">
      <stop offset="0%" stop-color="#ff9f1c" stop-opacity="0.7"/>
      <stop offset="50%" stop-color="#ffffff" stop-opacity="0.9"/>
      <stop offset="100%" stop-color="#c77dff" stop-opacity="0.7"/>
    </linearGradient>
    <!-- Tower gradient -->
    <linearGradient id="towerGrad" x1="0" y1="0" x2="1" y2="0">
      <stop offset="0%" stop-color="#8a8a9a"/>
      <stop offset="50%" stop-color="#d0d0e0"/>
      <stop offset="100%" stop-color="#8a8a9a"/>
    </linearGradient>
    <!-- Sun glow -->
    <radialGradient id="sunGlow" cx="50%" cy="50%" r="50%">
      <stop offset="0%" stop-color="#fff7d6" stop-opacity="1"/>
      <stop offset="40%" stop-color="#f5a623" stop-opacity="0.8"/>
      <stop offset="100%" stop-color="#e85d28" stop-opacity="0"/>
    </radialGradient>
    <!-- Deck gradient -->
    <linearGradient id="deckGrad" x1="0" y1="0" x2="0" y2="1">
      <stop offset="0%" stop-color="#c8c8d8"/>
      <stop offset="100%" stop-color="#888898"/>
    </linearGradient>
    <!-- Data particle glow -->
    <filter id="glow" x="-50%" y="-50%" width="200%" height="200%">
      <feGaussianBlur stdDeviation="1.5" result="blur"/>
      <feMerge>
        <feMergeNode in="blur"/>
        <feMergeNode in="SourceGraphic"/>
      </feMerge>
    </filter>
    <filter id="softGlow" x="-100%" y="-100%" width="300%" height="300%">
      <feGaussianBlur stdDeviation="3" result="blur"/>
      <feMerge>
        <feMergeNode in="blur"/>
        <feMergeNode in="SourceGraphic"/>
      </feMerge>
    </filter>
    <!-- Reflection gradient -->
    <linearGradient id="reflectGrad" x1="0" y1="0" x2="0" y2="1">
      <stop offset="0%" stop-color="#e85d28" stop-opacity="0.4"/>
      <stop offset="100%" stop-color="#f5a623" stop-opacity="0"/>
    </linearGradient>
  </defs>

  <!-- Background sky -->
  <rect width="300" height="200" fill="url(#skyGrad)"/>

  <!-- Sun glow orb -->
  <ellipse cx="150" cy="108" rx="28" ry="22" fill="url(#sunGlow)" opacity="0.85"/>

  <!-- Atmospheric haze bands -->
  <rect x="0" y="100" width="300" height="6" fill="#f5a623" opacity="0.08"/>
  <rect x="0" y="105" width="300" height="4" fill="#e85d28" opacity="0.06"/>

  <!-- Water below -->
  <rect x="0" y="148" width="300" height="52" fill="url(#waterGrad)"/>

  <!-- Water reflection ripples -->
  <ellipse cx="150" cy="158" rx="40" ry="6" fill="url(#reflectGrad)" opacity="0.5"/>
  <line x1="80" y1="162" x2="220" y2="162" stroke="#f5a623" stroke-width="0.5" opacity="0.15"/>
  <line x1="100" y1="168" x2="200" y2="168" stroke="#f5a623" stroke-width="0.5" opacity="0.1"/>
  <line x1="60" y1="175" x2="240" y2="175" stroke="#c77dff" stroke-width="0.5" opacity="0.08"/>

  <!-- Left cliff -->
  <polygon points="0,148 0,80 55,80 70,95 72,148" fill="url(#cliffLeftGrad)"/>
  <!-- Cliff face shading -->
  <polygon points="55,80 70,95 72,148 65,148 62,98 52,82" fill="#0f1f0d" opacity="0.4"/>
  <!-- Cliff top vegetation hint -->
  <ellipse cx="25" cy="79" rx="18" ry="5" fill="#1a3317" opacity="0.7"/>
  <ellipse cx="42" cy="77" rx="10" ry="4" fill="#1f3d1a" opacity="0.6"/>

  <!-- Right cliff -->
  <polygon points="300,148 300,80 245,80 230,95 228,148" fill="url(#cliffRightGrad)"/>
  <!-- Cliff face shading -->
  <polygon points="245,80 230,95 228,148 235,148 238,98 248,82" fill="#0f1f0d" opacity="0.4"/>
  <!-- Cliff top vegetation hint -->
  <ellipse cx="275" cy="79" rx="18" ry="5" fill="#1a3317" opacity="0.7"/>
  <ellipse cx="258" cy="77" rx="10" ry="4" fill="#1f3d1a" opacity="0.6"/>

  <!-- === BRIDGE === -->

  <!-- Bridge deck (roadway) -->
  <rect x="72" y="129" width="156" height="5" fill="url(#deckGrad)" rx="1"/>
  <!-- Deck underside shadow -->
  <rect x="72" y="133" width="156" height="2" fill="#333344" opacity="0.5"/>

  <!-- Vertical suspender cables (hangers) from deck to main cable -->
  <!-- Left span suspenders -->
  <line x1="90"  y1="129" x2="90"  y2="108" stroke="#aaaacc" stroke-width="0.6" opacity="0.6"/>
  <line x1="103" y1="129" x2="103" y2="103" stroke="#aaaacc" stroke-width="0.6" opacity="0.6"/>
  <line x1="116" y1="129" x2="116" y2="100" stroke="#aaaacc" stroke-width="0.6" opacity="0.6"/>
  <line x1="129" y1="129" x2="129" y2="99"  stroke="#aaaacc" stroke-width="0.6" opacity="0.6"/>
  <!-- Right span suspenders -->
  <line x1="210" y1="129" x2="210" y2="108" stroke="#aaaacc" stroke-width="0.6" opacity="0.6"/>
  <line x1="197" y1="129" x2="197" y2="103" stroke="#aaaacc" stroke-width="0.6" opacity="0.6"/>
  <line x1="184" y1="129" x2="184" y2="100" stroke="#aaaacc" stroke-width="0.6" opacity="0.6"/>
  <line x1="171" y1="129" x2="171" y2="99"  stroke="#aaaacc" stroke-width="0.6" opacity="0.6"/>

  <!-- LEFT TOWER -->
  <!-- Tower legs -->
  <rect x="127" y="80" width="5" height="52" fill="url(#towerGrad)" rx="1"/>
  <rect x="136" y="80" width="5" height="52" fill="url(#towerGrad)" rx="1"/>
  <!-- Tower crossbars -->
  <rect x="125" y="88"  width="18" height="3" fill="#b0b0c8" rx="0.5"/>
  <rect x="125" y="97"  width="18" height="3" fill="#b0b0c8" rx="0.5"/>
  <rect x="125" y="106" width="18" height="3" fill="#b0b0c8" rx="0.5"/>
  <!-- Tower caps -->
  <rect x="126" y="78" width="7" height="3" fill="#e0e0f0" rx="1"/>
  <rect x="135" y="78" width="7" height="3" fill="#e0e0f0" rx="1"/>

  <!-- RIGHT TOWER -->
  <rect x="159" y="80" width="5" height="52" fill="url(#towerGrad)" rx="1"/>
  <rect x="168" y="80" width="5" height="52" fill="url(#towerGrad)" rx="1"/>
  <!-- Tower crossbars -->
  <rect x="157" y="88"  width="18" height="3" fill="#b0b0c8" rx="0.5"/>
  <rect x="157" y="97"  width="18" height="3" fill="#b0b0c8" rx="0.5"/>
  <rect x="157" y="106" width="18" height="3" fill="#b0b0c8" rx="0.5"/>
  <!-- Tower caps -->
  <rect x="158" y="78" width="7" height="3" fill="#e0e0f0" rx="1"/>
  <rect x="167" y="78" width="7" height="3" fill="#e0e0f0" rx="1"/>

  <!-- DATA STREAM MAIN CABLES (suspension catenary curves) -->
  <!-- Primary cable - warm data stream -->
  <path d="M72,90 Q100,125 130,98 Q150,88 170,98 Q200,125 228,90"
        fill="none" stroke="url(#cableGrad1)" stroke-width="2.2"
        filter="url(#glow)" opacity="0.95"/>
  <!-- Secondary cable - cool data stream -->
  <path d="M72,94 Q100,130 130,102 Q150,92 170,102 Q200,130 228,94"
        fill="none" stroke="url(#cableGrad2)" stroke-width="1.2"
        filter="url(#glow)" opacity="0.75"/>
  <!-- Third subtle cable -->
  <path d="M72,97 Q100,134 130,105 Q150,95 170,105 Q200,134 228,97"
        fill="none" stroke="#c77dff" stroke-width="0.8"
        opacity="0.4"/>

  <!-- Data particles flowing along cable -->
  <!-- Warm particles (left-to-right) -->
  <circle cx="88"  cy="110" r="1.8" fill="#ff9f1c" filter="url(#glow)" opacity="0.95"/>
  <circle cx="108" cy="119" r="1.4" fill="#ff6b35" filter="url(#glow)" opacity="0.85"/>
  <circle cx="131" cy="99"  r="1.6" fill="#ffcc44" filter="url(#glow)" opacity="0.9"/>
  <circle cx="150" cy="89"  r="2.0" fill="#ffffff"  filter="url(#glow)" opacity="0.95"/>
  <!-- Cool particles (right-to-left) -->
  <circle cx="169" cy="99"  r="1.6" fill="#c77dff" filter="url(#glow)" opacity="0.9"/>
  <circle cx="192" cy="119" r="1.4" fill="#9b5de5" filter="url(#glow)" opacity="0.85"/>
  <circle cx="212" cy="110" r="1.8" fill="#7b2fff" filter="url(#glow)" opacity="0.95"/>
  <!-- Mid-bridge node burst -->
  <circle cx="150" cy="89" r="4" fill="#ff9f1c" opacity="0.15" filter="url(#softGlow)"/>

  <!-- VENDOR label on left cliff -->
  <text x="27" y="74" font-family="'Arial', sans-serif" font-size="7.5" font-weight="700"
        fill="#f5c88a" text-anchor="middle" letter-spacing="0.5" opacity="0.92">VENDOR</text>

  <!-- BUYER label on right cliff -->
  <text x="273" y="74" font-family="'Arial', sans-serif" font-size="7.5" font-weight="700"
        fill="#c9a8ff" text-anchor="middle" letter-spacing="0.5" opacity="0.92">BUYER</text>

  <!-- Brand name -->
  <text x="150" y="171" font-family="'Arial', sans-serif" font-size="11" font-weight="800"
        fill="#ffffff" text-anchor="middle" letter-spacing="1.5" opacity="0.97">AGENTIC LEAD GEN</text>
  <!-- Subtle tagline -->
  <text x="150" y="183" font-family="'Arial', sans-serif" font-size="5.5" font-weight="400"
        fill="#f5a623" text-anchor="middle" letter-spacing="2.5" opacity="0.75">BRIDGE CONNECTION</text>

  <!-- Decorative horizon line -->
  <line x1="0" y1="148" x2="300" y2="148" stroke="#f5a623" stroke-width="0.5" opacity="0.3"/>

  <!-- Subtle star field -->
  <circle cx="20"  cy="12" r="0.7" fill="#fff" opacity="0.6"/>
  <circle cx="55"  cy="8"  r="0.5" fill="#fff" opacity="0.5"/>
  <circle cx="90"  cy="18" r="0.6" fill="#fff" opacity="0.4"/>
  <circle cx="200" cy="10" r="0.7" fill="#fff" opacity="0.55"/>
  <circle cx="240" cy="20" r="0.5" fill="#fff" opacity="0.45"/>
  <circle cx="275" cy="7"  r="0.6" fill="#fff" opacity="0.5"/>
  <circle cx="185" cy="25" r="0.4" fill="#fff" opacity="0.35"/>
  <circle cx="35"  cy="28" r="0.5" fill="#fff" opacity="0.4"/>
</svg>
