<svg xmlns="http://www.w3.org/2000/svg" viewBox="0 0 300 200" width="300" height="200">
  <defs>
    <linearGradient id="goldGrad" x1="0%" y1="0%" x2="100%" y2="100%">
      <stop offset="0%" style="stop-color:#f0c040;stop-opacity:1" />
      <stop offset="50%" style="stop-color:#d4a017;stop-opacity:1" />
      <stop offset="100%" style="stop-color:#b8860b;stop-opacity:1" />
    </linearGradient>
    <filter id="glow">
      <feGaussianBlur stdDeviation="1.5" result="coloredBlur"/>
      <feMerge>
        <feMergeNode in="coloredBlur"/>
        <feMergeNode in="SourceGraphic"/>
      </feMerge>
    </filter>
    <filter id="goldGlow">
      <feGaussianBlur stdDeviation="2" result="coloredBlur"/>
      <feMerge>
        <feMergeNode in="coloredBlur"/>
        <feMergeNode in="SourceGraphic"/>
      </feMerge>
    </filter>
    <radialGradient id="bgRadial" cx="50%" cy="40%" r="60%">
      <stop offset="0%" style="stop-color:#1a2e55;stop-opacity:1" />
      <stop offset="100%" style="stop-color:#060e1f;stop-opacity:1" />
    </radialGradient>
  </defs>

  <!-- Background -->
  <rect width="300" height="200" fill="url(#bgRadial)" rx="8"/>

  <!-- Subtle grid lines -->
  <g opacity="0.06" stroke="#4a7ab5" stroke-width="0.5">
    <line x1="0" y1="50" x2="300" y2="50"/>
    <line x1="0" y1="100" x2="300" y2="100"/>
    <line x1="0" y1="150" x2="300" y2="150"/>
    <line x1="75" y1="0" x2="75" y2="200"/>
    <line x1="150" y1="0" x2="150" y2="200"/>
    <line x1="225" y1="0" x2="225" y2="200"/>
  </g>

  <!-- ===================== ANCHOR ===================== -->
  <!-- Anchor ring at top -->
  <circle cx="150" cy="32" r="10" fill="none" stroke="url(#goldGrad)" stroke-width="3.5" filter="url(#goldGlow)"/>
  <!-- Ring cross bar -->
  <line x1="140" y1="32" x2="160" y2="32" stroke="url(#goldGrad)" stroke-width="3.5" stroke-linecap="round" filter="url(#goldGlow)"/>

  <!-- Anchor shaft (vertical stem) -->
  <line x1="150" y1="42" x2="150" y2="130" stroke="url(#goldGrad)" stroke-width="4" stroke-linecap="round" filter="url(#goldGlow)"/>

  <!-- Anchor crossbar (horizontal stock) -->
  <line x1="118" y1="56" x2="182" y2="56" stroke="url(#goldGrad)" stroke-width="4" stroke-linecap="round" filter="url(#goldGlow)"/>
  <circle cx="118" cy="56" r="4" fill="url(#goldGrad)" filter="url(#goldGlow)"/>
  <circle cx="182" cy="56" r="4" fill="url(#goldGrad)" filter="url(#goldGlow)"/>

  <!-- Anchor flukes (curved arms) -->
  <path d="M150,130 Q120,128 112,142" fill="none" stroke="url(#goldGrad)" stroke-width="4" stroke-linecap="round" filter="url(#goldGlow)"/>
  <path d="M150,130 Q180,128 188,142" fill="none" stroke="url(#goldGrad)" stroke-width="4" stroke-linecap="round" filter="url(#goldGlow)"/>
  <!-- Left fluke tip -->
  <path d="M106,138 L112,142 L115,134" fill="none" stroke="url(#goldGrad)" stroke-width="3.5" stroke-linejoin="round" stroke-linecap="round" filter="url(#goldGlow)"/>
  <!-- Right fluke tip -->
  <path d="M194,138 L188,142 L185,134" fill="none" stroke="url(#goldGrad)" stroke-width="3.5" stroke-linejoin="round" stroke-linecap="round" filter="url(#goldGlow)"/>

  <!-- ===================== CHAIN NETWORK ===================== -->

  <!-- Network nodes -->
  <circle cx="82" cy="72" r="5" fill="url(#goldGrad)" filter="url(#goldGlow)" opacity="0.95"/>
  <circle cx="218" cy="72" r="5" fill="url(#goldGrad)" filter="url(#goldGlow)" opacity="0.95"/>
  <circle cx="68" cy="105" r="5" fill="url(#goldGrad)" filter="url(#goldGlow)" opacity="0.95"/>
  <circle cx="232" cy="105" r="5" fill="url(#goldGrad)" filter="url(#goldGlow)" opacity="0.95"/>
  <circle cx="85" cy="138" r="4.5" fill="url(#goldGrad)" filter="url(#goldGlow)" opacity="0.9"/>
  <circle cx="215" cy="138" r="4.5" fill="url(#goldGrad)" filter="url(#goldGlow)" opacity="0.9"/>
  <circle cx="118" cy="158" r="4" fill="url(#goldGrad)" filter="url(#goldGlow)" opacity="0.85"/>
  <circle cx="182" cy="158" r="4" fill="url(#goldGrad)" filter="url(#goldGlow)" opacity="0.85"/>
  <circle cx="150" cy="168" r="5" fill="url(#goldGrad)" filter="url(#goldGlow)" opacity="0.9"/>

  <!-- Chain: crossbar left end -> Node A -->
  <path d="M118,56 Q102,60 82,72" fill="none" stroke="url(#goldGrad)" stroke-width="2" stroke-dasharray="5,3" stroke-linecap="round" opacity="0.85" filter="url(#goldGlow)"/>
  <ellipse cx="100" cy="63" rx="4" ry="2.2" fill="none" stroke="url(#goldGrad)" stroke-width="1.8" transform="rotate(-28,100,63)" opacity="0.9" filter="url(#goldGlow)"/>

  <!-- Chain: crossbar right end -> Node B -->
  <path d="M182,56 Q198,60 218,72" fill="none" stroke="url(#goldGrad)" stroke-width="2" stroke-dasharray="5,3" stroke-linecap="round" opacity="0.85" filter="url(#goldGlow)"/>
  <ellipse cx="200" cy="63" rx="4" ry="2.2" fill="none" stroke="url(#goldGrad)" stroke-width="1.8" transform="rotate(28,200,63)" opacity="0.9" filter="url(#goldGlow)"/>

  <!-- Node A -> Node C -->
  <line x1="82" y1="72" x2="68" y2="105" stroke="url(#goldGrad)" stroke-width="2" stroke-dasharray="5,3" stroke-linecap="round" opacity="0.8" filter="url(#goldGlow)"/>
  <ellipse cx="75" cy="88" rx="4" ry="2" fill="none" stroke="url(#goldGrad)" stroke-width="1.8" transform="rotate(-78,75,88)" opacity="0.9" filter="url(#goldGlow)"/>

  <!-- Node B -> Node D -->
  <line x1="218" y1="72" x2="232" y2="105" stroke="url(#goldGrad)" stroke-width="2" stroke-dasharray="5,3" stroke-linecap="round" opacity="0.8" filter="url(#goldGlow)"/>
  <ellipse cx="225" cy="88" rx="4" ry="2" fill="none" stroke="url(#goldGrad)" stroke-width="1.8" transform="rotate(78,225,88)" opacity="0.9" filter="url(#goldGlow)"/>

  <!-- Node C -> Node E -->
  <line x1="68" y1="105" x2="85" y2="138" stroke="url(#goldGrad)" stroke-width="2" stroke-dasharray="5,3" stroke-linecap="round" opacity="0.8" filter="url(#goldGlow)"/>
  <ellipse cx="76" cy="121" rx="3.5" ry="2" fill="none" stroke="url(#goldGrad)" stroke-width="1.8" transform="rotate(62,76,121)" opacity="0.9" filter="url(#goldGlow)"/>

  <!-- Node D -> Node F -->
  <line x1="232" y1="105" x2="215" y2="138" stroke="url(#goldGrad)" stroke-width="2" stroke-dasharray="5,3" stroke-linecap="round" opacity="0.8" filter="url(#goldGlow)"/>
  <ellipse cx="224" cy="121" rx="3.5" ry="2" fill="none" stroke="url(#goldGrad)" stroke-width="1.8" transform="rotate(-62,224,121)" opacity="0.9" filter="url(#goldGlow)"/>

  <!-- Node E -> Node G -->
  <line x1="85" y1="138" x2="118" y2="158" stroke="url(#goldGrad)" stroke-width="2" stroke-dasharray="5,3" stroke-linecap="round" opacity="0.75" filter="url(#goldGlow)"/>
  <ellipse cx="101" cy="148" rx="3.5" ry="2" fill="none" stroke="url(#goldGrad)" stroke-width="1.6" transform="rotate(34,101,148)" opacity="0.85" filter="url(#goldGlow)"/>

  <!-- Node F -> Node H -->
  <line x1="215" y1="138" x2="182" y2="158" stroke="url(#goldGrad)" stroke-width="2" stroke-dasharray="5,3" stroke-linecap="round" opacity="0.75" filter="url(#goldGlow)"/>
  <ellipse cx="199" cy="148" rx="3.5" ry="2" fill="none" stroke="url(#goldGrad)" stroke-width="1.6" transform="rotate(-34,199,148)" opacity="0.85" filter="url(#goldGlow)"/>

  <!-- Node G -> Node I -->
  <line x1="118" y1="158" x2="150" y2="168" stroke="url(#goldGrad)" stroke-width="2" stroke-dasharray="5,3" stroke-linecap="round" opacity="0.8" filter="url(#goldGlow)"/>
  <ellipse cx="134" cy="163" rx="3.5" ry="2" fill="none" stroke="url(#goldGrad)" stroke-width="1.6" transform="rotate(18,134,163)" opacity="0.85" filter="url(#goldGlow)"/>

  <!-- Node H -> Node I -->
  <line x1="182" y1="158" x2="150" y2="168" stroke="url(#goldGrad)" stroke-width="2" stroke-dasharray="5,3" stroke-linecap="round" opacity="0.8" filter="url(#goldGlow)"/>
  <ellipse cx="166" cy="163" rx="3.5" ry="2" fill="none" stroke="url(#goldGrad)" stroke-width="1.6" transform="rotate(-18,166,163)" opacity="0.85" filter="url(#goldGlow)"/>

  <!-- Cross diagonal links for network depth -->
  <line x1="82" y1="72" x2="232" y2="105" stroke="url(#goldGrad)" stroke-width="1" stroke-dasharray="3,5" stroke-linecap="round" opacity="0.3"/>
  <line x1="218" y1="72" x2="68" y2="105" stroke="url(#goldGrad)" stroke-width="1" stroke-dasharray="3,5" stroke-linecap="round" opacity="0.3"/>
  <line x1="68" y1="105" x2="215" y2="138" stroke="url(#goldGrad)" stroke-width="1" stroke-dasharray="3,5" stroke-linecap="round" opacity="0.25"/>
  <line x1="232" y1="105" x2="85" y2="138" stroke="url(#goldGrad)" stroke-width="1" stroke-dasharray="3,5" stroke-linecap="round" opacity="0.25"/>

  <!-- ===================== WORDMARK ===================== -->
  <text x="150" y="188" font-family="Georgia, 'Times New Roman', serif" font-size="13" font-weight="700" letter-spacing="5" fill="url(#goldGrad)" text-anchor="middle" filter="url(#glow)">AGENTIC</text>
  <text x="150" y="199" font-family="Georgia, 'Times New Roman', serif" font-size="7.5" font-weight="400" letter-spacing="4.5" fill="#7a9cc4" text-anchor="middle" opacity="0.85">LEAD  GEN</text>

  <!-- Decorative rules flanking wordmark -->
  <line x1="30" y1="183" x2="95" y2="183" stroke="url(#goldGrad)" stroke-width="0.8" opacity="0.5"/>
  <line x1="205" y1="183" x2="270" y2="183" stroke="url(#goldGrad)" stroke-width="0.8" opacity="0.5"/>

  <!-- Border frames -->
  <rect width="298" height="198" x="1" y="1" fill="none" stroke="url(#goldGrad)" stroke-width="1" rx="7" opacity="0.35"/>
  <rect width="292" height="192" x="4" y="4" fill="none" stroke="#1a3a6e" stroke-width="0.5" rx="5" opacity="0.6"/>
</svg>
