<svg xmlns="http://www.w3.org/2000/svg" viewBox="0 0 300 200" width="300" height="200">
  <defs>
    <linearGradient id="skyGrad" x1="0%" y1="0%" x2="0%" y2="100%">
      <stop offset="0%" style="stop-color:#0f0c29;stop-opacity:1" />
      <stop offset="50%" style="stop-color:#302b63;stop-opacity:1" />
      <stop offset="100%" style="stop-color:#24243e;stop-opacity:1" />
    </linearGradient>
    <linearGradient id="groundGrad" x1="0%" y1="0%" x2="0%" y2="100%">
      <stop offset="0%" style="stop-color:#1a1a2e;stop-opacity:1" />
      <stop offset="100%" style="stop-color:#16213e;stop-opacity:1" />
    </linearGradient>
    <filter id="glow">
      <feGaussianBlur stdDeviation="1.5" result="blur"/>
      <feMerge>
        <feMergeNode in="blur"/>
        <feMergeNode in="SourceGraphic"/>
      </feMerge>
    </filter>
    <filter id="arcGlow">
      <feGaussianBlur stdDeviation="2" result="blur"/>
      <feMerge>
        <feMergeNode in="blur"/>
        <feMergeNode in="SourceGraphic"/>
      </feMerge>
    </filter>
  </defs>

  <!-- Background sky -->
  <rect width="300" height="200" fill="url(#skyGrad)"/>

  <!-- Ground strip -->
  <rect x="0" y="170" width="300" height="30" fill="url(#groundGrad)"/>

  <!-- Stars -->
  <circle cx="20" cy="15" r="0.8" fill="white" opacity="0.7"/>
  <circle cx="55" cy="30" r="0.6" fill="white" opacity="0.5"/>
  <circle cx="80" cy="10" r="1" fill="white" opacity="0.8"/>
  <circle cx="110" cy="25" r="0.6" fill="white" opacity="0.4"/>
  <circle cx="200" cy="12" r="0.8" fill="white" opacity="0.6"/>
  <circle cx="230" cy="28" r="0.6" fill="white" opacity="0.5"/>
  <circle cx="260" cy="8" r="1" fill="white" opacity="0.7"/>
  <circle cx="285" cy="22" r="0.7" fill="white" opacity="0.5"/>
  <circle cx="40" cy="50" r="0.5" fill="white" opacity="0.4"/>
  <circle cx="270" cy="45" r="0.5" fill="white" opacity="0.4"/>

  <!-- Broadcast arcs left -->
  <path d="M 150 88 A 22 22 0 0 0 128 110" stroke="#00e5ff" stroke-width="2.2" fill="none" opacity="0.9" filter="url(#arcGlow)" stroke-linecap="round"/>
  <path d="M 150 88 A 38 38 0 0 0 112 126" stroke="#b44fff" stroke-width="2" fill="none" opacity="0.85" filter="url(#arcGlow)" stroke-linecap="round"/>
  <path d="M 150 88 A 55 55 0 0 0 95 143" stroke="#ff4fa3" stroke-width="1.8" fill="none" opacity="0.75" filter="url(#arcGlow)" stroke-linecap="round"/>
  <path d="M 150 88 A 72 72 0 0 0 78 160" stroke="#ff8c42" stroke-width="1.5" fill="none" opacity="0.65" filter="url(#arcGlow)" stroke-linecap="round"/>
  <path d="M 150 88 A 90 90 0 0 0 60 178" stroke="#ffe040" stroke-width="1.2" fill="none" opacity="0.5" filter="url(#arcGlow)" stroke-linecap="round"/>

  <!-- Broadcast arcs right -->
  <path d="M 150 88 A 22 22 0 0 1 172 110" stroke="#00e5ff" stroke-width="2.2" fill="none" opacity="0.9" filter="url(#arcGlow)" stroke-linecap="round"/>
  <path d="M 150 88 A 38 38 0 0 1 188 126" stroke="#b44fff" stroke-width="2" fill="none" opacity="0.85" filter="url(#arcGlow)" stroke-linecap="round"/>
  <path d="M 150 88 A 55 55 0 0 1 205 143" stroke="#ff4fa3" stroke-width="1.8" fill="none" opacity="0.75" filter="url(#arcGlow)" stroke-linecap="round"/>
  <path d="M 150 88 A 72 72 0 0 1 222 160" stroke="#ff8c42" stroke-width="1.5" fill="none" opacity="0.65" filter="url(#arcGlow)" stroke-linecap="round"/>
  <path d="M 150 88 A 90 90 0 0 1 240 178" stroke="#ffe040" stroke-width="1.2" fill="none" opacity="0.5" filter="url(#arcGlow)" stroke-linecap="round"/>

  <!-- Broadcast arcs top -->
  <path d="M 128 88 A 22 22 0 0 1 172 88" stroke="#00e5ff" stroke-width="2.2" fill="none" opacity="0.9" filter="url(#arcGlow)" stroke-linecap="round"/>
  <path d="M 112 88 A 38 38 0 0 1 188 88" stroke="#b44fff" stroke-width="2" fill="none" opacity="0.85" filter="url(#arcGlow)" stroke-linecap="round"/>
  <path d="M 95 88 A 55 55 0 0 1 205 88" stroke="#ff4fa3" stroke-width="1.8" fill="none" opacity="0.75" filter="url(#arcGlow)" stroke-linecap="round"/>
  <path d="M 78 88 A 72 72 0 0 1 222 88" stroke="#ff8c42" stroke-width="1.5" fill="none" opacity="0.65" filter="url(#arcGlow)" stroke-linecap="round"/>
  <path d="M 60 88 A 90 90 0 0 1 240 88" stroke="#ffe040" stroke-width="1.2" fill="none" opacity="0.5" filter="url(#arcGlow)" stroke-linecap="round"/>

  <!-- Tower base triangle silhouette -->
  <polygon points="150,88 138,170 162,170" fill="#1a1a2e" stroke="#2d2d5e" stroke-width="0.5"/>

  <!-- Tower cross-braces -->
  <line x1="141" y1="105" x2="159" y2="105" stroke="#2d2d5e" stroke-width="1.2"/>
  <line x1="139.5" y1="118" x2="160.5" y2="118" stroke="#2d2d5e" stroke-width="1.2"/>
  <line x1="138" y1="131" x2="162" y2="131" stroke="#2d2d5e" stroke-width="1.2"/>
  <line x1="136.5" y1="144" x2="163.5" y2="144" stroke="#2d2d5e" stroke-width="1.2"/>
  <line x1="135" y1="157" x2="165" y2="157" stroke="#2d2d5e" stroke-width="1.2"/>

  <!-- Tower diagonal braces -->
  <line x1="141" y1="105" x2="139.5" y2="118" stroke="#2d2d5e" stroke-width="0.8" opacity="0.8"/>
  <line x1="159" y1="105" x2="160.5" y2="118" stroke="#2d2d5e" stroke-width="0.8" opacity="0.8"/>

  <!-- Tower main shaft -->
  <rect x="148" y="30" width="4" height="60" fill="#1a1a2e" stroke="#2a2a4e" stroke-width="0.5"/>

  <!-- Tower top platform -->
  <rect x="143" y="85" width="14" height="5" rx="1" fill="#16213e" stroke="#2d2d5e" stroke-width="0.8"/>

  <!-- Tower top antenna tip -->
  <rect x="149.2" y="18" width="1.6" height="14" fill="#1a1a2e"/>
  <circle cx="150" cy="17" r="2.5" fill="#1a1a2e"/>

  <!-- Beacon pulse at tip -->
  <circle cx="150" cy="17" r="3.5" fill="none" stroke="#00e5ff" stroke-width="1" opacity="0.7" filter="url(#glow)"/>
  <circle cx="150" cy="17" r="5" fill="none" stroke="#00e5ff" stroke-width="0.6" opacity="0.4" filter="url(#glow)"/>
  <circle cx="150" cy="17" r="1.5" fill="#00e5ff" opacity="0.95" filter="url(#glow)"/>

  <!-- Ground base platform -->
  <rect x="134" y="168" width="32" height="4" rx="1" fill="#16213e" stroke="#2d2d5e" stroke-width="0.8"/>

  <!-- Text -->
  <text x="150" y="190" font-family="'Arial', 'Helvetica', sans-serif" font-size="11" font-weight="700" fill="#e0e0ff" text-anchor="middle" letter-spacing="2" opacity="0.95">AGENTIC LEAD GEN</text>
  <text x="150" y="200" font-family="'Arial', 'Helvetica', sans-serif" font-size="5.5" fill="#7070a0" text-anchor="middle" letter-spacing="1.5" opacity="0.7">MULTI-CHANNEL SIGNAL</text>
</svg>
