<svg xmlns="http://www.w3.org/2000/svg" viewBox="0 0 300 200" width="300" height="200">
  <defs>
    <linearGradient id="lgL" x1="0%" y1="0%" x2="100%" y2="100%">
      <stop offset="0%" style="stop-color:#F97316;stop-opacity:1"/>
      <stop offset="100%" style="stop-color:#EA580C;stop-opacity:1"/>
    </linearGradient>
    <linearGradient id="lgR" x1="100%" y1="0%" x2="0%" y2="100%">
      <stop offset="0%" style="stop-color:#F59E0B;stop-opacity:1"/>
      <stop offset="100%" style="stop-color:#D97706;stop-opacity:1"/>
    </linearGradient>
    <linearGradient id="lgC" x1="0%" y1="0%" x2="100%" y2="0%">
      <stop offset="0%" style="stop-color:#F97316;stop-opacity:1"/>
      <stop offset="50%" style="stop-color:#FCD34D;stop-opacity:1"/>
      <stop offset="100%" style="stop-color:#F59E0B;stop-opacity:1"/>
    </linearGradient>
    <filter id="gl">
      <feGaussianBlur stdDeviation="2" result="b"/>
      <feMerge><feMergeNode in="b"/><feMergeNode in="SourceGraphic"/></feMerge>
    </filter>
    <filter id="sg">
      <feGaussianBlur stdDeviation="3.5" result="b"/>
      <feMerge><feMergeNode in="b"/><feMergeNode in="SourceGraphic"/></feMerge>
    </filter>
  </defs>
  <rect width="300" height="200" fill="#FFFFFF"/>
  <ellipse cx="150" cy="106" rx="82" ry="40" fill="#FEF3C7" opacity="0.50"/>
  <rect x="24" y="93" width="44" height="36" rx="6" fill="url(#lgL)"/>
  <rect x="48" y="69" width="11" height="30" rx="5" fill="url(#lgL)"/>
  <rect x="61" y="63" width="11" height="34" rx="5" fill="url(#lgL)"/>
  <rect x="61" y="97" width="11" height="30" rx="5" fill="url(#lgL)"/>
  <rect x="49" y="101" width="10" height="24" rx="4" fill="url(#lgL)"/>
  <rect x="14" y="98" width="18" height="11" rx="5" fill="url(#lgL)"/>
  <rect x="232" y="93" width="44" height="36" rx="6" fill="url(#lgR)"/>
  <rect x="241" y="69" width="11" height="30" rx="5" fill="url(#lgR)"/>
  <rect x="228" y="63" width="11" height="34" rx="5" fill="url(#lgR)"/>
  <rect x="228" y="97" width="11" height="30" rx="5" fill="url(#lgR)"/>
  <rect x="241" y="101" width="10" height="24" rx="4" fill="url(#lgR)"/>
  <rect x="268" y="98" width="18" height="11" rx="5" fill="url(#lgR)"/>
  <line x1="76" y1="111" x2="224" y2="111" stroke="url(#lgC)" stroke-width="2.6" filter="url(#gl)"/>
  <polyline points="99,111 99,89 122,89" fill="none" stroke="url(#lgC)" stroke-width="1.9" filter="url(#gl)"/>
  <polyline points="201,111 201,89 178,89" fill="none" stroke="url(#lgC)" stroke-width="1.9" filter="url(#gl)"/>
  <polyline points="111,111 111,133 134,133" fill="none" stroke="url(#lgC)" stroke-width="1.9" filter="url(#gl)"/>
  <polyline points="189,111 189,133 166,133" fill="none" stroke="url(#lgC)" stroke-width="1.9" filter="url(#gl)"/>
  <line x1="122" y1="86" x2="178" y2="86" stroke="url(#lgC)" stroke-width="1.4" stroke-dasharray="4,3" filter="url(#gl)"/>
  <line x1="134" y1="136" x2="166" y2="136" stroke="url(#lgC)" stroke-width="1.4" stroke-dasharray="4,3" filter="url(#gl)"/>
  <circle cx="99"  cy="111" r="3.3" fill="#F97316" filter="url(#gl)"/>
  <circle cx="201" cy="111" r="3.3" fill="#F59E0B" filter="url(#gl)"/>
  <circle cx="111" cy="111" r="2.9" fill="#FB923C" filter="url(#gl)"/>
  <circle cx="189" cy="111" r="2.9" fill="#FBBF24" filter="url(#gl)"/>
  <circle cx="99"  cy="89"  r="2.9" fill="#F97316" filter="url(#gl)"/>
  <circle cx="201" cy="89"  r="2.9" fill="#F59E0B" filter="url(#gl)"/>
  <circle cx="111" cy="133" r="2.9" fill="#FB923C" filter="url(#gl)"/>
  <circle cx="189" cy="133" r="2.9" fill="#FBBF24" filter="url(#gl)"/>
  <circle cx="122" cy="89"  r="2.3" fill="#FCD34D" filter="url(#gl)"/>
  <circle cx="178" cy="89"  r="2.3" fill="#FCD34D" filter="url(#gl)"/>
  <circle cx="134" cy="133" r="2.3" fill="#FCD34D" filter="url(#gl)"/>
  <circle cx="166" cy="133" r="2.3" fill="#FCD34D" filter="url(#gl)"/>
  <circle cx="150" cy="111" r="12"  fill="#FEF3C7" filter="url(#sg)"/>
  <circle cx="150" cy="111" r="8"   fill="#F97316" filter="url(#sg)"/>
  <circle cx="150" cy="111" r="3.8" fill="#FFFBEB"/>
  <polyline points="146,111 149.5,114.5 155.5,106.5" fill="none" stroke="#FFFFFF" stroke-width="2.1" stroke-linecap="round" stroke-linejoin="round"/>
  <text x="150" y="168" font-family="'Helvetica Neue',Helvetica,Arial,sans-serif" font-size="13.5" font-weight="700" fill="#1C1917" text-anchor="middle" letter-spacing="1.8">AGENTIC LEAD GEN</text>
  <text x="150" y="183" font-family="'Helvetica Neue',Helvetica,Arial,sans-serif" font-size="7.5" font-weight="400" fill="#F97316" text-anchor="middle" letter-spacing="3">AI  ·  B2B  ·  CONNECTIONS</text>
</svg>
