<svg xmlns="http://www.w3.org/2000/svg" viewBox="0 0 300 200" width="300" height="200">
  <defs>
    <radialGradient id="bgGrad" cx="50%" cy="50%" r="50%">
      <stop offset="0%" stop-color="#0a0e1a"/>
      <stop offset="100%" stop-color="#050709"/>
    </radialGradient>
    <radialGradient id="lensBody" cx="50%" cy="50%" r="50%">
      <stop offset="0%" stop-color="#1a1f2e"/>
      <stop offset="60%" stop-color="#0f1420"/>
      <stop offset="100%" stop-color="#070a12"/>
    </radialGradient>
    <radialGradient id="apertureGlow" cx="50%" cy="50%" r="50%">
      <stop offset="0%" stop-color="#ffffff" stop-opacity="1"/>
      <stop offset="15%" stop-color="#a8d4ff" stop-opacity="0.95"/>
      <stop offset="35%" stop-color="#4a9eff" stop-opacity="0.85"/>
      <stop offset="60%" stop-color="#1a5fcc" stop-opacity="0.6"/>
      <stop offset="100%" stop-color="#0a1a3a" stop-opacity="0"/>
    </radialGradient>
    <linearGradient id="bladeGrad1" x1="0%" y1="0%" x2="100%" y2="100%">
      <stop offset="0%" stop-color="#2a3148"/>
      <stop offset="50%" stop-color="#1c2235"/>
      <stop offset="100%" stop-color="#0e1220"/>
    </linearGradient>
    <linearGradient id="bladeGrad2" x1="100%" y1="0%" x2="0%" y2="100%">
      <stop offset="0%" stop-color="#323a55"/>
      <stop offset="50%" stop-color="#1e2438"/>
      <stop offset="100%" stop-color="#0e1220"/>
    </linearGradient>
    <linearGradient id="outerRingGrad" x1="0%" y1="0%" x2="100%" y2="100%">
      <stop offset="0%" stop-color="#3a4460"/>
      <stop offset="25%" stop-color="#4a5570"/>
      <stop offset="50%" stop-color="#2a3050"/>
      <stop offset="75%" stop-color="#1a2040"/>
      <stop offset="100%" stop-color="#3a4460"/>
    </linearGradient>
    <linearGradient id="innerRingGrad" x1="0%" y1="0%" x2="100%" y2="100%">
      <stop offset="0%" stop-color="#5a6888"/>
      <stop offset="50%" stop-color="#2a3450"/>
      <stop offset="100%" stop-color="#5a6888"/>
    </linearGradient>
    <linearGradient id="textGrad" x1="0%" y1="0%" x2="100%" y2="0%">
      <stop offset="0%" stop-color="#6a85b0"/>
      <stop offset="40%" stop-color="#9ab5d8"/>
      <stop offset="100%" stop-color="#6a85b0"/>
    </linearGradient>
    <linearGradient id="accentGrad" x1="0%" y1="0%" x2="100%" y2="0%">
      <stop offset="0%" stop-color="#4a9eff"/>
      <stop offset="50%" stop-color="#88ccff"/>
      <stop offset="100%" stop-color="#4a9eff"/>
    </linearGradient>
    <filter id="glowFilter" x="-50%" y="-50%" width="200%" height="200%">
      <feGaussianBlur stdDeviation="4" result="blur"/>
      <feComposite in="SourceGraphic" in2="blur" operator="over"/>
    </filter>
    <filter id="centerGlow" x="-100%" y="-100%" width="300%" height="300%">
      <feGaussianBlur stdDeviation="8" result="blur"/>
      <feComposite in="SourceGraphic" in2="blur" operator="over"/>
    </filter>
    <filter id="softGlow" x="-50%" y="-50%" width="200%" height="200%">
      <feGaussianBlur stdDeviation="2.5" result="blur"/>
      <feComposite in="SourceGraphic" in2="blur" operator="over"/>
    </filter>
    <clipPath id="lensClip">
      <circle cx="115" cy="95" r="78"/>
    </clipPath>
  </defs>

  <!-- Background -->
  <rect width="300" height="200" fill="url(#bgGrad)"/>

  <!-- Outer ring ambient glow -->
  <circle cx="115" cy="95" r="81" fill="none" stroke="#4a9eff" stroke-width="0.5" opacity="0.15" filter="url(#glowFilter)"/>

  <!-- Outer lens barrel -->
  <circle cx="115" cy="95" r="80" fill="url(#lensBody)" stroke="url(#outerRingGrad)" stroke-width="3"/>

  <!-- Outer ring measurement ticks -->
  <g stroke="#3a4460" stroke-width="1" opacity="0.6">
    <line x1="115" y1="15.5" x2="115" y2="19.5"/>
    <line x1="115" y1="170.5" x2="115" y2="174.5"/>
    <line x1="35.5" y1="95" x2="39.5" y2="95"/>
    <line x1="190.5" y1="95" x2="194.5" y2="95"/>
    <line x1="60" y1="40" x2="62.8" y2="43.9"/>
    <line x1="170" y1="40" x2="167.2" y2="43.9"/>
    <line x1="60" y1="150" x2="62.8" y2="146.1"/>
    <line x1="170" y1="150" x2="167.2" y2="146.1"/>
  </g>

  <!-- Depth rings -->
  <circle cx="115" cy="95" r="76" fill="none" stroke="#1a2035" stroke-width="2"/>
  <circle cx="115" cy="95" r="73" fill="none" stroke="url(#innerRingGrad)" stroke-width="1.5"/>
  <circle cx="115" cy="95" r="69" fill="#0a0d18" stroke="#141828" stroke-width="1"/>

  <!-- Iris blades (7-blade aperture) -->
  <path d="M115,95 L101,31 Q115,26 129,31 Z" fill="url(#bladeGrad1)" stroke="#2a3250" stroke-width="0.8" clip-path="url(#lensClip)"/>
  <path d="M115,95 L168,44 Q178,57 174,72 Z" fill="url(#bladeGrad2)" stroke="#2a3250" stroke-width="0.8" clip-path="url(#lensClip)"/>
  <path d="M115,95 L183,128 Q177,143 163,149 Z" fill="url(#bladeGrad1)" stroke="#2a3250" stroke-width="0.8" clip-path="url(#lensClip)"/>
  <path d="M115,95 L129,159 Q115,164 101,159 Z" fill="url(#bladeGrad2)" stroke="#2a3250" stroke-width="0.8" clip-path="url(#lensClip)"/>
  <path d="M115,95 L62,149 Q48,143 47,128 Z" fill="url(#bladeGrad1)" stroke="#2a3250" stroke-width="0.8" clip-path="url(#lensClip)"/>
  <path d="M115,95 L56,72 Q52,57 62,44 Z" fill="url(#bladeGrad2)" stroke="#2a3250" stroke-width="0.8" clip-path="url(#lensClip)"/>
  <path d="M115,95 L101,31 Q88,38 80,50 Z" fill="url(#bladeGrad1)" stroke="#2a3250" stroke-width="0.8" clip-path="url(#lensClip)"/>

  <!-- Blade edge highlights (metallic sheen) -->
  <path d="M115,95 L101,31 Q115,26 129,31 Z" fill="none" stroke="#4a5870" stroke-width="0.5" opacity="0.7" clip-path="url(#lensClip)"/>
  <path d="M115,95 L168,44 Q178,57 174,72 Z" fill="none" stroke="#4a5870" stroke-width="0.5" opacity="0.5" clip-path="url(#lensClip)"/>
  <path d="M115,95 L183,128 Q177,143 163,149 Z" fill="none" stroke="#4a5870" stroke-width="0.5" opacity="0.7" clip-path="url(#lensClip)"/>
  <path d="M115,95 L129,159 Q115,164 101,159 Z" fill="none" stroke="#4a5870" stroke-width="0.5" opacity="0.5" clip-path="url(#lensClip)"/>
  <path d="M115,95 L62,149 Q48,143 47,128 Z" fill="none" stroke="#4a5870" stroke-width="0.5" opacity="0.7" clip-path="url(#lensClip)"/>
  <path d="M115,95 L56,72 Q52,57 62,44 Z" fill="none" stroke="#4a5870" stroke-width="0.5" opacity="0.5" clip-path="url(#lensClip)"/>

  <!-- Inner aperture ring -->
  <circle cx="115" cy="95" r="28" fill="#050810" stroke="#1a2540" stroke-width="1.5"/>

  <!-- Aperture opening glow layers -->
  <circle cx="115" cy="95" r="26" fill="url(#apertureGlow)" filter="url(#centerGlow)"/>
  <circle cx="115" cy="95" r="20" fill="#4a9eff" opacity="0.3" filter="url(#softGlow)"/>
  <circle cx="115" cy="95" r="14" fill="#88ccff" opacity="0.5" filter="url(#softGlow)"/>
  <circle cx="115" cy="95" r="8" fill="#ffffff" opacity="0.9"/>
  <circle cx="115" cy="95" r="5" fill="#ffffff"/>

  <!-- Lens flare accent -->
  <line x1="109" y1="89" x2="104" y2="84" stroke="#ffffff" stroke-width="0.8" opacity="0.4"/>
  <circle cx="103" cy="83" r="1.5" fill="#ffffff" opacity="0.3"/>

  <!-- Inner aperture rim highlight -->
  <circle cx="115" cy="95" r="27" fill="none" stroke="#3a6aaa" stroke-width="0.8" opacity="0.6"/>

  <!-- Targeting crosshair -->
  <line x1="115" y1="82" x2="115" y2="85" stroke="#4a9eff" stroke-width="0.8" opacity="0.5"/>
  <line x1="115" y1="105" x2="115" y2="108" stroke="#4a9eff" stroke-width="0.8" opacity="0.5"/>
  <line x1="102" y1="95" x2="105" y2="95" stroke="#4a9eff" stroke-width="0.8" opacity="0.5"/>
  <line x1="125" y1="95" x2="128" y2="95" stroke="#4a9eff" stroke-width="0.8" opacity="0.5"/>

  <!-- AGENTIC label -->
  <text x="210" y="78" font-family="'Helvetica Neue', Arial, sans-serif" font-size="22" font-weight="700" letter-spacing="2" fill="url(#accentGrad)" text-anchor="middle">AGENTIC</text>

  <!-- Divider line -->
  <line x1="165" y1="86" x2="255" y2="86" stroke="#2a4060" stroke-width="0.8" opacity="0.8"/>

  <!-- LEAD GEN label -->
  <text x="210" y="105" font-family="'Helvetica Neue', Arial, sans-serif" font-size="18" font-weight="400" letter-spacing="3.5" fill="url(#textGrad)" text-anchor="middle">LEAD GEN</text>

  <!-- Tagline -->
  <text x="210" y="122" font-family="'Helvetica Neue', Arial, sans-serif" font-size="7.5" font-weight="300" letter-spacing="2.5" fill="#3a5070" text-anchor="middle">PRECISION PROSPECT TARGETING</text>

  <!-- Bottom accent line -->
  <line x1="165" y1="128" x2="255" y2="128" stroke="#1a3050" stroke-width="0.6" opacity="0.6"/>

  <!-- Tech dots decoration -->
  <circle cx="168" cy="140" r="1.2" fill="#2a4a6a"/>
  <circle cx="173" cy="140" r="1.2" fill="#3a5a7a"/>
  <circle cx="178" cy="140" r="1.2" fill="#4a9eff" opacity="0.8"/>
  <circle cx="183" cy="140" r="1.2" fill="#3a5a7a"/>
  <circle cx="188" cy="140" r="1.2" fill="#2a4a6a"/>

  <!-- Bottom brand rule -->
  <rect x="165" y="148" width="90" height="0.5" fill="url(#accentGrad)" opacity="0.25"/>
</svg>
