<svg xmlns="http://www.w3.org/2000/svg" viewBox="0 0 300 200" width="300" height="200" style="background:#ffffff">
  <defs>
    <linearGradient id="dishGrad" x1="0%" y1="0%" x2="100%" y2="100%">
      <stop offset="0%" style="stop-color:#e8ecf0;stop-opacity:1"/>
      <stop offset="100%" style="stop-color:#b8c4ce;stop-opacity:1"/>
    </linearGradient>
    <linearGradient id="dishInner" x1="0%" y1="0%" x2="100%" y2="100%">
      <stop offset="0%" style="stop-color:#d0d8e0;stop-opacity:1"/>
      <stop offset="100%" style="stop-color:#9aaab8;stop-opacity:1"/>
    </linearGradient>
    <linearGradient id="poleGrad" x1="0%" y1="0%" x2="100%" y2="0%">
      <stop offset="0%" style="stop-color:#8a9aaa;stop-opacity:1"/>
      <stop offset="100%" style="stop-color:#b8c4ce;stop-opacity:1"/>
    </linearGradient>
    <filter id="signalGlow">
      <feGaussianBlur stdDeviation="2" result="blur"/>
      <feComposite in="SourceGraphic" in2="blur" operator="over"/>
    </filter>
    <clipPath id="dishClip">
      <ellipse cx="108" cy="105" rx="52" ry="58"/>
    </clipPath>
  </defs>

  <!-- Signal arcs radiating outward from focal point -->
  <!-- Arc 1 - innermost -->
  <path d="M 155 72 Q 175 88 168 115 Q 162 135 148 148"
        fill="none" stroke="#2563eb" stroke-width="2.5" stroke-linecap="round"
        opacity="0.9" filter="url(#signalGlow)"/>
  <!-- Arc 2 -->
  <path d="M 162 62 Q 192 82 184 118 Q 176 148 156 162"
        fill="none" stroke="#3b82f6" stroke-width="2.2" stroke-linecap="round"
        opacity="0.75" filter="url(#signalGlow)"/>
  <!-- Arc 3 -->
  <path d="M 170 51 Q 210 76 200 122 Q 190 162 164 178"
        fill="none" stroke="#60a5fa" stroke-width="2" stroke-linecap="round"
        opacity="0.6" filter="url(#signalGlow)"/>
  <!-- Arc 4 - outermost -->
  <path d="M 178 40 Q 228 70 217 126 Q 206 176 172 194"
        fill="none" stroke="#93c5fd" stroke-width="1.8" stroke-linecap="round"
        opacity="0.45" filter="url(#signalGlow)"/>

  <!-- Dish shadow/base shape for depth -->
  <ellipse cx="111" cy="108" rx="54" ry="60" fill="#9aaab8" opacity="0.3" transform="rotate(-15 111 108)"/>

  <!-- Main parabolic dish body -->
  <path d="M 68 58 Q 58 105 78 148 Q 92 168 115 162 Q 138 155 155 128 Q 168 105 158 72 Q 145 48 118 48 Q 90 48 68 58 Z"
        fill="url(#dishGrad)" stroke="#8a9aaa" stroke-width="1.5"/>

  <!-- Dish inner surface (concave highlight) -->
  <path d="M 76 68 Q 68 105 85 142 Q 97 158 116 153 Q 133 147 147 124 Q 158 104 149 76 Q 138 55 115 56 Q 92 56 76 68 Z"
        fill="url(#dishInner)" stroke="#a0b0be" stroke-width="0.8"/>

  <!-- Dish surface ribs for industrial detail -->
  <path d="M 88 58 Q 80 105 95 148" fill="none" stroke="#8a9aaa" stroke-width="0.8" opacity="0.6"/>
  <path d="M 108 52 Q 100 105 108 155" fill="none" stroke="#8a9aaa" stroke-width="0.8" opacity="0.6"/>
  <path d="M 128 54 Q 126 105 122 153" fill="none" stroke="#8a9aaa" stroke-width="0.8" opacity="0.5"/>
  <path d="M 146 62 Q 150 105 140 148" fill="none" stroke="#8a9aaa" stroke-width="0.8" opacity="0.4"/>

  <!-- Horizontal rib lines -->
  <path d="M 72 80 Q 113 74 152 82" fill="none" stroke="#8a9aaa" stroke-width="0.7" opacity="0.5"/>
  <path d="M 68 105 Q 113 99 158 106" fill="none" stroke="#8a9aaa" stroke-width="0.7" opacity="0.5"/>
  <path d="M 74 130 Q 113 124 152 130" fill="none" stroke="#8a9aaa" stroke-width="0.7" opacity="0.5"/>

  <!-- Dish rim edge highlight -->
  <path d="M 68 58 Q 58 105 78 148 Q 92 168 115 162 Q 138 155 155 128 Q 168 105 158 72 Q 145 48 118 48 Q 90 48 68 58 Z"
        fill="none" stroke="#d0d8e0" stroke-width="1" opacity="0.8"/>

  <!-- Feed arm (strut pointing to focal point) -->
  <line x1="115" y1="105" x2="150" y2="75" stroke="url(#poleGrad)" stroke-width="3" stroke-linecap="round"/>
  <line x1="115" y1="105" x2="150" y2="75" stroke="#ffffff" stroke-width="1" stroke-linecap="round" opacity="0.5"/>

  <!-- Feed horn / focal point -->
  <circle cx="151" cy="73" r="5" fill="#b8c4ce" stroke="#8a9aaa" stroke-width="1.5"/>
  <circle cx="151" cy="73" r="3" fill="#2563eb" opacity="0.9"/>
  <circle cx="151" cy="73" r="1.5" fill="#93c5fd"/>

  <!-- Mount pole -->
  <rect x="109" y="162" width="12" height="28" rx="2" fill="url(#poleGrad)" stroke="#8a9aaa" stroke-width="1"/>
  <rect x="110" y="162" width="4" height="28" rx="1" fill="#d0d8e0" opacity="0.5"/>

  <!-- Base mount -->
  <rect x="96" y="188" width="38" height="6" rx="3" fill="#8a9aaa" stroke="#6a7a8a" stroke-width="1"/>
  <rect x="100" y="187" width="30" height="4" rx="2" fill="#b8c4ce" opacity="0.6"/>

  <!-- Tilt joint -->
  <ellipse cx="115" cy="163" rx="8" ry="5" fill="#9aaab8" stroke="#6a7a8a" stroke-width="1"/>
  <ellipse cx="115" cy="163" rx="5" ry="3" fill="#b8c4ce"/>

  <!-- Brand label -->
  <text x="150" y="26" font-family="'Helvetica Neue', Arial, sans-serif" font-size="13" font-weight="700" fill="#1e3a5f" letter-spacing="0.5" text-anchor="middle">AGENTIC</text>
  <text x="150" y="41" font-family="'Helvetica Neue', Arial, sans-serif" font-size="9" font-weight="400" fill="#2563eb" letter-spacing="2" text-anchor="middle">LEAD GEN</text>

  <!-- Small signal dot indicators on arcs -->
  <circle cx="168" cy="114" r="2" fill="#2563eb" opacity="0.8"/>
  <circle cx="183" cy="118" r="2" fill="#3b82f6" opacity="0.65"/>
  <circle cx="199" cy="122" r="2" fill="#60a5fa" opacity="0.5"/>
  <circle cx="216" cy="126" r="2" fill="#93c5fd" opacity="0.4"/>
</svg>
