<svg xmlns="http://www.w3.org/2000/svg" viewBox="0 0 300 200" width="300" height="200">
  <defs>
    <!-- Deep blue to silver gradient for iris -->
    <radialGradient id="irisGrad" cx="50%" cy="50%" r="50%">
      <stop offset="0%" stop-color="#0a0f2e"/>
      <stop offset="30%" stop-color="#0d2150"/>
      <stop offset="65%" stop-color="#1a4a8a"/>
      <stop offset="100%" stop-color="#4a8fd4"/>
    </radialGradient>

    <!-- Pupil gradient -->
    <radialGradient id="pupilGrad" cx="40%" cy="35%" r="60%">
      <stop offset="0%" stop-color="#1e3a6e"/>
      <stop offset="50%" stop-color="#0a1525"/>
      <stop offset="100%" stop-color="#000d1a"/>
    </radialGradient>

    <!-- Silver metallic gradient for eye outline -->
    <linearGradient id="eyeOutlineGrad" x1="0%" y1="0%" x2="100%" y2="100%">
      <stop offset="0%" stop-color="#c0d8f0"/>
      <stop offset="40%" stop-color="#8ab4d8"/>
      <stop offset="70%" stop-color="#5a8ab8"/>
      <stop offset="100%" stop-color="#9ec4e8"/>
    </linearGradient>

    <!-- Glow filter for the eye -->
    <filter id="eyeGlow" x="-20%" y="-40%" width="140%" height="180%">
      <feGaussianBlur stdDeviation="3" result="blur"/>
      <feComposite in="SourceGraphic" in2="blur" operator="over"/>
    </filter>

    <!-- Outer glow filter -->
    <filter id="outerGlow" x="-30%" y="-60%" width="160%" height="220%">
      <feGaussianBlur stdDeviation="6" result="blur"/>
      <feFlood flood-color="#1a5fa8" flood-opacity="0.5" result="color"/>
      <feComposite in="color" in2="blur" operator="in" result="shadow"/>
      <feComposite in="SourceGraphic" in2="shadow" operator="over"/>
    </filter>

    <!-- Silver text gradient -->
    <linearGradient id="textGrad" x1="0%" y1="0%" x2="0%" y2="100%">
      <stop offset="0%" stop-color="#d0e8ff"/>
      <stop offset="50%" stop-color="#8ab0d0"/>
      <stop offset="100%" stop-color="#5a80a8"/>
    </linearGradient>

    <!-- Data ring gradient -->
    <linearGradient id="ringGrad1" x1="0%" y1="0%" x2="100%" y2="100%">
      <stop offset="0%" stop-color="#2a6fba" stop-opacity="0.9"/>
      <stop offset="100%" stop-color="#1a3f7a" stop-opacity="0.3"/>
    </linearGradient>
    <linearGradient id="ringGrad2" x1="100%" y1="0%" x2="0%" y2="100%">
      <stop offset="0%" stop-color="#3a8fd8" stop-opacity="0.8"/>
      <stop offset="100%" stop-color="#0d2a5e" stop-opacity="0.2"/>
    </linearGradient>

    <!-- Circuit node glow -->
    <filter id="nodeGlow">
      <feGaussianBlur stdDeviation="2.5" result="blur"/>
      <feFlood flood-color="#60b8ff" flood-opacity="0.8" result="color"/>
      <feComposite in="color" in2="blur" operator="in" result="glow"/>
      <feComposite in="SourceGraphic" in2="glow" operator="over"/>
    </filter>

    <!-- "A" letterform glow -->
    <filter id="aGlow">
      <feGaussianBlur stdDeviation="1.5" result="blur"/>
      <feFlood flood-color="#80d0ff" flood-opacity="0.9" result="color"/>
      <feComposite in="color" in2="blur" operator="in" result="glow"/>
      <feComposite in="SourceGraphic" in2="glow" operator="over"/>
    </filter>

    <!-- Clip path for iris segments -->
    <clipPath id="irisClip">
      <circle cx="150" cy="92" r="32"/>
    </clipPath>

    <!-- Clip path for eye shape -->
    <clipPath id="eyeShapeClip">
      <path d="M60,92 Q105,40 150,40 Q195,40 240,92 Q195,144 150,144 Q105,144 60,92 Z"/>
    </clipPath>

    <!-- Background gradient -->
    <radialGradient id="bgGrad" cx="50%" cy="45%" r="60%">
      <stop offset="0%" stop-color="#060d20"/>
      <stop offset="100%" stop-color="#020508"/>
    </radialGradient>
  </defs>

  <!-- Background -->
  <rect width="300" height="200" fill="url(#bgGrad)" rx="4"/>

  <!-- Subtle grid dots in background -->
  <g opacity="0.12">
    <circle cx="20" cy="20" r="1" fill="#4a7ab8"/>
    <circle cx="50" cy="20" r="1" fill="#4a7ab8"/>
    <circle cx="80" cy="20" r="1" fill="#4a7ab8"/>
    <circle cx="220" cy="20" r="1" fill="#4a7ab8"/>
    <circle cx="250" cy="20" r="1" fill="#4a7ab8"/>
    <circle cx="280" cy="20" r="1" fill="#4a7ab8"/>
    <circle cx="20" cy="170" r="1" fill="#4a7ab8"/>
    <circle cx="50" cy="170" r="1" fill="#4a7ab8"/>
    <circle cx="80" cy="170" r="1" fill="#4a7ab8"/>
    <circle cx="220" cy="170" r="1" fill="#4a7ab8"/>
    <circle cx="250" cy="170" r="1" fill="#4a7ab8"/>
    <circle cx="280" cy="170" r="1" fill="#4a7ab8"/>
    <circle cx="20" cy="50" r="1" fill="#4a7ab8"/>
    <circle cx="20" cy="80" r="1" fill="#4a7ab8"/>
    <circle cx="20" cy="110" r="1" fill="#4a7ab8"/>
    <circle cx="20" cy="140" r="1" fill="#4a7ab8"/>
    <circle cx="280" cy="50" r="1" fill="#4a7ab8"/>
    <circle cx="280" cy="80" r="1" fill="#4a7ab8"/>
    <circle cx="280" cy="110" r="1" fill="#4a7ab8"/>
    <circle cx="280" cy="140" r="1" fill="#4a7ab8"/>
  </g>

  <!-- Outer ambient glow behind eye -->
  <ellipse cx="150" cy="92" rx="95" ry="50" fill="#0d3060" opacity="0.35" filter="url(#eyeGlow)"/>

  <!-- Eye white / sclera area (subtle) -->
  <path d="M60,92 Q105,40 150,40 Q195,40 240,92 Q195,144 150,144 Q105,144 60,92 Z"
        fill="#04101f" stroke="none"/>

  <!-- Iris base fill -->
  <circle cx="150" cy="92" r="38" fill="url(#irisGrad)"/>

  <!-- Data ring segments — outer ring (12 segments) -->
  <g clip-path="url(#irisClip)">
    <!-- Ring 1 (outermost data ring) - dashed segments -->
    <circle cx="150" cy="92" r="30" fill="none" stroke="#2a6fba" stroke-width="3"
            stroke-dasharray="8.4 5.5" stroke-dashoffset="0" opacity="0.7"/>
    <!-- Ring 2 -->
    <circle cx="150" cy="92" r="24" fill="none" stroke="#1e5a9e" stroke-width="2.5"
            stroke-dasharray="6.5 4.5" stroke-dashoffset="3" opacity="0.65"/>
    <!-- Ring 3 -->
    <circle cx="150" cy="92" r="18" fill="none" stroke="#3a80c0" stroke-width="2"
            stroke-dasharray="4.8 3.8" stroke-dashoffset="1.5" opacity="0.6"/>

    <!-- Radial spoke lines (data segments) -->
    <line x1="150" y1="60" x2="150" y2="92" stroke="#2860a0" stroke-width="0.7" opacity="0.5"/>
    <line x1="150" y1="92" x2="150" y2="124" stroke="#2860a0" stroke-width="0.7" opacity="0.5"/>
    <line x1="118" y1="92" x2="182" y2="92" stroke="#2860a0" stroke-width="0.7" opacity="0.5"/>
    <line x1="127" y1="64.3" x2="173" y2="119.7" stroke="#2860a0" stroke-width="0.7" opacity="0.35" transform="rotate(45,150,92)"/>
    <line x1="127" y1="64.3" x2="173" y2="119.7" stroke="#2860a0" stroke-width="0.7" opacity="0.35" transform="rotate(-45,150,92)"/>
    <line x1="127" y1="64.3" x2="173" y2="119.7" stroke="#2860a0" stroke-width="0.7" opacity="0.25" transform="rotate(22.5,150,92)"/>
    <line x1="127" y1="64.3" x2="173" y2="119.7" stroke="#2860a0" stroke-width="0.7" opacity="0.25" transform="rotate(-22.5,150,92)"/>
    <line x1="127" y1="64.3" x2="173" y2="119.7" stroke="#2860a0" stroke-width="0.7" opacity="0.25" transform="rotate(67.5,150,92)"/>
    <line x1="127" y1="64.3" x2="173" y2="119.7" stroke="#2860a0" stroke-width="0.7" opacity="0.25" transform="rotate(-67.5,150,92)"/>
  </g>

  <!-- Iris bright arc highlight (top-left) -->
  <path d="M122,70 A32,32 0 0,1 178,70" fill="none" stroke="#7ab8e8" stroke-width="1.5"
        opacity="0.45" stroke-linecap="round"/>

  <!-- Pupil -->
  <circle cx="150" cy="92" r="15" fill="url(#pupilGrad)"/>

  <!-- "A" letterform as circuit node inside pupil -->
  <g filter="url(#aGlow)">
    <!-- A crossbar and legs with circuit aesthetic -->
    <path d="M144,101 L148,83 L150,79 L152,83 L156,101"
          fill="none" stroke="#a0d8ff" stroke-width="1.8" stroke-linejoin="round" stroke-linecap="round"/>
    <!-- crossbar -->
    <line x1="145.5" y1="94" x2="154.5" y2="94" stroke="#a0d8ff" stroke-width="1.8" stroke-linecap="round"/>
    <!-- apex circuit node dot -->
    <circle cx="150" cy="79" r="1.8" fill="#c8ecff"/>
    <!-- base corner nodes -->
    <circle cx="144" cy="101" r="1.4" fill="#80c0f0"/>
    <circle cx="156" cy="101" r="1.4" fill="#80c0f0"/>
  </g>

  <!-- Pupil inner glow reflection -->
  <ellipse cx="145" cy="86" rx="3.5" ry="2" fill="#4a90d0" opacity="0.4"/>

  <!-- Eye outline / lash line — upper lid -->
  <path d="M60,92 Q105,40 150,40 Q195,40 240,92"
        fill="none" stroke="url(#eyeOutlineGrad)" stroke-width="2.2" stroke-linecap="round"/>
  <!-- Eye outline — lower lid -->
  <path d="M60,92 Q105,144 150,144 Q195,144 240,92"
        fill="none" stroke="#4a7ab0" stroke-width="1.4" stroke-linecap="round" opacity="0.7"/>

  <!-- Corner tear duct details -->
  <circle cx="62" cy="92" r="2.5" fill="#1a4a7a" stroke="#3a7ab8" stroke-width="0.8"/>
  <circle cx="238" cy="92" r="2.5" fill="#1a4a7a" stroke="#3a7ab8" stroke-width="0.8"/>

  <!-- Eyelash tick marks (upper lid) -->
  <g stroke="#7aaedc" stroke-width="1" stroke-linecap="round" opacity="0.5">
    <line x1="90" y1="58" x2="93" y2="52"/>
    <line x1="110" y1="47" x2="112" y2="41"/>
    <line x1="130" y1="41" x2="131" y2="35"/>
    <line x1="150" y1="40" x2="150" y2="34"/>
    <line x1="170" y1="41" x2="169" y2="35"/>
    <line x1="190" y1="47" x2="188" y2="41"/>
    <line x1="210" y1="58" x2="207" y2="52"/>
  </g>

  <!-- Circuit trace lines extending from eye corners -->
  <g stroke="#2a5a8a" stroke-width="0.8" stroke-linecap="round" opacity="0.6">
    <!-- Left side traces -->
    <line x1="62" y1="92" x2="40" y2="92"/>
    <line x1="40" y1="92" x2="35" y2="85"/>
    <line x1="40" y1="92" x2="35" y2="99"/>
    <circle cx="35" cy="85" r="1.5" fill="#3a7ab8"/>
    <circle cx="35" cy="99" r="1.5" fill="#3a7ab8"/>
    <!-- Right side traces -->
    <line x1="238" y1="92" x2="260" y2="92"/>
    <line x1="260" y1="92" x2="265" y2="85"/>
    <line x1="260" y1="92" x2="265" y2="99"/>
    <circle cx="265" cy="85" r="1.5" fill="#3a7ab8"/>
    <circle cx="265" cy="99" r="1.5" fill="#3a7ab8"/>
  </g>

  <!-- Outer iris ring highlight -->
  <circle cx="150" cy="92" r="38" fill="none" stroke="#3a7abf" stroke-width="1.2" opacity="0.5"/>
  <!-- Outer iris ring silver edge -->
  <circle cx="150" cy="92" r="39.5" fill="none" stroke="#6aaad8" stroke-width="0.6" opacity="0.35"
          stroke-dasharray="3 3"/>

  <!-- Scanning line effect across iris (horizontal, subtle) -->
  <line x1="113" y1="88" x2="187" y2="88" stroke="#5aaae0" stroke-width="0.5" opacity="0.3"
        clip-path="url(#irisClip)"/>
  <line x1="113" y1="96" x2="187" y2="96" stroke="#5aaae0" stroke-width="0.3" opacity="0.2"
        clip-path="url(#irisClip)"/>

  <!-- Text: AGENTIC LEAD GEN -->
  <text x="150" y="163"
        font-family="'Helvetica Neue', 'Arial', sans-serif"
        font-size="13.5"
        font-weight="700"
        letter-spacing="4"
        text-anchor="middle"
        fill="url(#textGrad)">AGENTIC LEAD GEN</text>

  <!-- Subtle underline with circuit dots -->
  <line x1="72" y1="169" x2="228" y2="169" stroke="#2a5a88" stroke-width="0.6" opacity="0.5"/>
  <circle cx="72" cy="169" r="1.5" fill="#4a8ab8" opacity="0.6"/>
  <circle cx="228" cy="169" r="1.5" fill="#4a8ab8" opacity="0.6"/>

  <!-- Tagline -->
  <text x="150" y="183"
        font-family="'Helvetica Neue', 'Arial', sans-serif"
        font-size="7"
        font-weight="400"
        letter-spacing="2.5"
        text-anchor="middle"
        fill="#3a6a9a"
        opacity="0.8">EYE OF INTELLIGENCE</text>

  <!-- Top-corner data decorations -->
  <g opacity="0.3" stroke="#3a6a98" stroke-width="0.7" fill="none">
    <path d="M15,15 L15,8 L22,8"/>
    <path d="M285,15 L285,8 L278,8"/>
    <path d="M15,185 L15,192 L22,192"/>
    <path d="M285,185 L285,192 L278,192"/>
  </g>
</svg>
