<svg xmlns="http://www.w3.org/2000/svg" viewBox="0 0 300 200" width="300" height="200">
  <defs>
    <linearGradient id="bgGrad" x1="0%" y1="0%" x2="0%" y2="100%">
      <stop offset="0%" style="stop-color:#0a0e1a;stop-opacity:1" />
      <stop offset="100%" style="stop-color:#1a1f2e;stop-opacity:1" />
    </linearGradient>
    <radialGradient id="cloudGrad" cx="50%" cy="40%" r="60%">
      <stop offset="0%" style="stop-color:#3d4a5c;stop-opacity:1" />
      <stop offset="60%" style="stop-color:#2a3344;stop-opacity:1" />
      <stop offset="100%" style="stop-color:#1a2030;stop-opacity:1" />
    </radialGradient>
    <radialGradient id="vortexGrad" cx="50%" cy="20%" r="80%">
      <stop offset="0%" style="stop-color:#00b4ff;stop-opacity:0.15" />
      <stop offset="40%" style="stop-color:#0066cc;stop-opacity:0.08" />
      <stop offset="100%" style="stop-color:#001133;stop-opacity:0" />
    </radialGradient>
    <radialGradient id="leadGrad" cx="50%" cy="50%" r="50%">
      <stop offset="0%" style="stop-color:#00d4ff;stop-opacity:1" />
      <stop offset="60%" style="stop-color:#0088ff;stop-opacity:1" />
      <stop offset="100%" style="stop-color:#0044cc;stop-opacity:1" />
    </radialGradient>
    <filter id="blueGlow" x="-20%" y="-20%" width="140%" height="140%">
      <feGaussianBlur stdDeviation="2.5" result="blur" />
      <feComposite in="SourceGraphic" in2="blur" operator="over" />
    </filter>
    <filter id="strongGlow" x="-30%" y="-30%" width="160%" height="160%">
      <feGaussianBlur stdDeviation="4" result="blur" />
      <feFlood flood-color="#00b4ff" flood-opacity="0.6" result="color" />
      <feComposite in="color" in2="blur" operator="in" result="glow" />
      <feMerge>
        <feMergeNode in="glow" />
        <feMergeNode in="SourceGraphic" />
      </feMerge>
    </filter>
    <filter id="iconGlow" x="-20%" y="-20%" width="140%" height="140%">
      <feGaussianBlur stdDeviation="1.5" result="blur" />
      <feFlood flood-color="#00d4ff" flood-opacity="0.5" result="color" />
      <feComposite in="color" in2="blur" operator="in" result="glow" />
      <feMerge>
        <feMergeNode in="glow" />
        <feMergeNode in="SourceGraphic" />
      </feMerge>
    </filter>
  </defs>

  <!-- Background -->
  <rect width="300" height="200" fill="url(#bgGrad)" rx="8" />

  <!-- Storm cloud mass at top -->
  <ellipse cx="150" cy="22" rx="110" ry="22" fill="url(#cloudGrad)" opacity="0.95" />
  <ellipse cx="105" cy="16" rx="55" ry="18" fill="#3a4555" opacity="0.8" />
  <ellipse cx="195" cy="16" rx="55" ry="18" fill="#3a4555" opacity="0.8" />
  <ellipse cx="150" cy="14" rx="70" ry="16" fill="#4a5568" opacity="0.7" />

  <!-- Vortex ambient glow -->
  <ellipse cx="150" cy="30" rx="90" ry="25" fill="url(#vortexGrad)" />

  <!-- TORNADO FUNNEL BODY -->
  <polygon points="55,20 245,20 172,145 128,145" fill="#2d3a4a" opacity="0.7" />
  <polygon points="75,25 225,25 168,138 132,138" fill="#344155" opacity="0.5" />
  <polygon points="92,30 208,30 164,130 136,130" fill="#3d4d60" opacity="0.4" />
  <polygon points="108,36 192,36 160,122 140,122" fill="#4a5a6e" opacity="0.35" />

  <!-- Spiral swirl lines — converging to tip -->
  <path d="M68,22 Q95,45 108,72 Q118,95 128,118 Q131,130 129,143" stroke="#00aaee" stroke-width="1.2" fill="none" opacity="0.55" stroke-dasharray="4,3" />
  <path d="M82,20 Q105,42 115,68 Q124,92 131,115 Q133,128 130,144" stroke="#0088cc" stroke-width="0.9" fill="none" opacity="0.4" stroke-dasharray="3,4" />
  <path d="M100,19 Q118,40 124,64 Q130,88 134,112 Q136,127 132,144" stroke="#00ccff" stroke-width="0.8" fill="none" opacity="0.35" stroke-dasharray="2,5" />
  <path d="M232,22 Q205,45 192,72 Q182,95 172,118 Q169,130 171,143" stroke="#00aaee" stroke-width="1.2" fill="none" opacity="0.55" stroke-dasharray="4,3" />
  <path d="M218,20 Q195,42 185,68 Q176,92 169,115 Q167,128 170,144" stroke="#0088cc" stroke-width="0.9" fill="none" opacity="0.4" stroke-dasharray="3,4" />
  <path d="M200,19 Q182,40 176,64 Q170,88 166,112 Q164,127 168,144" stroke="#00ccff" stroke-width="0.8" fill="none" opacity="0.35" stroke-dasharray="2,5" />
  <path d="M150,20 Q152,55 151,88 Q150,115 150,143" stroke="#00d4ff" stroke-width="1" fill="none" opacity="0.5" stroke-dasharray="3,3" />
  <path d="M135,21 Q140,56 143,90 Q146,117 149,143" stroke="#00b4ff" stroke-width="0.8" fill="none" opacity="0.4" stroke-dasharray="2,4" />
  <path d="M165,21 Q160,56 157,90 Q154,117 151,143" stroke="#00b4ff" stroke-width="0.8" fill="none" opacity="0.4" stroke-dasharray="2,4" />

  <!-- Horizontal vortex rotation rings -->
  <ellipse cx="150" cy="38" rx="78" ry="5" fill="none" stroke="#5a6e82" stroke-width="1.2" opacity="0.6" />
  <ellipse cx="150" cy="55" rx="62" ry="4" fill="none" stroke="#4d6275" stroke-width="1" opacity="0.55" />
  <ellipse cx="150" cy="70" rx="50" ry="3.5" fill="none" stroke="#406070" stroke-width="0.9" opacity="0.5" />
  <ellipse cx="150" cy="85" rx="40" ry="3" fill="none" stroke="#385e6e" stroke-width="0.9" opacity="0.45" />
  <ellipse cx="150" cy="100" rx="31" ry="2.5" fill="none" stroke="#305c6c" stroke-width="0.8" opacity="0.4" />
  <ellipse cx="150" cy="115" rx="23" ry="2" fill="none" stroke="#285a6a" stroke-width="0.8" opacity="0.38" />
  <ellipse cx="150" cy="128" rx="16" ry="1.5" fill="none" stroke="#205868" stroke-width="0.7" opacity="0.35" />

  <!-- Company icons being pulled into vortex -->
  <!-- Top-left: office building -->
  <g transform="translate(72,24) rotate(-12)" filter="url(#iconGlow)" opacity="0.88">
    <rect x="0" y="4" width="14" height="11" rx="1" fill="#2a4a6a" stroke="#00aaff" stroke-width="1.2" />
    <rect x="2" y="6" width="2.5" height="2.5" fill="#00ccff" opacity="0.8" />
    <rect x="5.5" y="6" width="2.5" height="2.5" fill="#00ccff" opacity="0.8" />
    <rect x="9" y="6" width="2.5" height="2.5" fill="#00ccff" opacity="0.8" />
    <rect x="2" y="10" width="2.5" height="2.5" fill="#00aaff" opacity="0.7" />
    <rect x="5.5" y="10" width="2.5" height="2.5" fill="#00aaff" opacity="0.7" />
    <rect x="4.5" y="11" width="5" height="4" fill="#1a3a5a" stroke="#0088dd" stroke-width="0.8" />
    <polygon points="7,0 14,4 0,4" fill="#3a5a7a" stroke="#00aaff" stroke-width="1" />
  </g>
  <!-- Top-right: circuit/tech chip -->
  <g transform="translate(202,22) rotate(10)" filter="url(#iconGlow)" opacity="0.85">
    <rect x="0" y="0" width="14" height="14" rx="2" fill="#1a3a2a" stroke="#00ffaa" stroke-width="1.2" />
    <circle cx="4" cy="4" r="1.5" fill="#00ffaa" opacity="0.9" />
    <circle cx="10" cy="4" r="1.5" fill="#00ffaa" opacity="0.9" />
    <circle cx="4" cy="10" r="1.5" fill="#00dd88" opacity="0.8" />
    <circle cx="10" cy="10" r="1.5" fill="#00dd88" opacity="0.8" />
    <line x1="4" y1="4" x2="10" y2="4" stroke="#00cc88" stroke-width="0.8" opacity="0.7" />
    <line x1="4" y1="4" x2="4" y2="10" stroke="#00cc88" stroke-width="0.8" opacity="0.7" />
    <line x1="10" y1="4" x2="10" y2="10" stroke="#00cc88" stroke-width="0.8" opacity="0.7" />
    <line x1="4" y1="10" x2="10" y2="10" stroke="#00cc88" stroke-width="0.8" opacity="0.7" />
    <circle cx="7" cy="7" r="2" fill="none" stroke="#00ffcc" stroke-width="1" />
  </g>
  <!-- Mid-left: globe -->
  <g transform="translate(88,44) rotate(-6)" filter="url(#iconGlow)" opacity="0.82">
    <circle cx="7" cy="7" r="6.5" fill="#1a2a4a" stroke="#44aaff" stroke-width="1.2" />
    <ellipse cx="7" cy="7" rx="3" ry="6.5" fill="none" stroke="#44aaff" stroke-width="0.8" opacity="0.7" />
    <line x1="0.5" y1="7" x2="13.5" y2="7" stroke="#44aaff" stroke-width="0.8" opacity="0.7" />
    <line x1="1.5" y1="4" x2="12.5" y2="4" stroke="#44aaff" stroke-width="0.6" opacity="0.5" />
    <line x1="1.5" y1="10" x2="12.5" y2="10" stroke="#44aaff" stroke-width="0.6" opacity="0.5" />
  </g>
  <!-- Mid-right: bar chart -->
  <g transform="translate(196,46) rotate(8)" filter="url(#iconGlow)" opacity="0.8">
    <rect x="0" y="0" width="14" height="12" rx="1.5" fill="#2a1a4a" stroke="#aa44ff" stroke-width="1.2" />
    <rect x="2" y="8" width="2.5" height="3" fill="#aa44ff" opacity="0.85" />
    <rect x="5.5" y="5" width="2.5" height="6" fill="#cc66ff" opacity="0.85" />
    <rect x="9" y="3" width="2.5" height="8" fill="#aa44ff" opacity="0.85" />
    <polyline points="3.25,7.5 6.75,4.5 10.25,2.5" fill="none" stroke="#ff88ff" stroke-width="1" opacity="0.7" />
  </g>
  <!-- Center-left: magnifier -->
  <g transform="translate(120,28) rotate(-4)" filter="url(#iconGlow)" opacity="0.78">
    <circle cx="5" cy="5" r="4.5" fill="none" stroke="#00ccff" stroke-width="1.5" />
    <circle cx="5" cy="5" r="2.5" fill="#0a2030" />
    <line x1="8.2" y1="8.2" x2="11.5" y2="11.5" stroke="#00ccff" stroke-width="1.8" stroke-linecap="round" />
  </g>
  <!-- Center-right: contacts -->
  <g transform="translate(165,27) rotate(5)" filter="url(#iconGlow)" opacity="0.78">
    <circle cx="5" cy="3.5" r="2.5" fill="#2a3a5a" stroke="#88ccff" stroke-width="1.1" />
    <path d="M0,11 Q0,7 5,7 Q10,7 10,11" fill="#2a3a5a" stroke="#88ccff" stroke-width="1.1" />
    <circle cx="11" cy="4" r="2" fill="#1a2a4a" stroke="#66aaff" stroke-width="0.9" />
    <path d="M7,11.5 Q7.5,8.5 11,8.5 Q14,8.5 14,11.5" fill="#1a2a4a" stroke="#66aaff" stroke-width="0.9" />
  </g>
  <!-- Lower-left: neural/AI -->
  <g transform="translate(100,72) rotate(-8)" filter="url(#iconGlow)" opacity="0.72">
    <ellipse cx="7" cy="6.5" rx="6" ry="6" fill="#1a2a1a" stroke="#44ff88" stroke-width="1.2" />
    <line x1="4" y1="3" x2="4" y2="5" stroke="#44ff88" stroke-width="0.8" opacity="0.8" />
    <line x1="7" y1="2" x2="7" y2="4" stroke="#44ff88" stroke-width="0.8" opacity="0.8" />
    <line x1="10" y1="3" x2="10" y2="5" stroke="#44ff88" stroke-width="0.8" opacity="0.8" />
    <line x1="3" y1="6.5" x2="11" y2="6.5" stroke="#44ff88" stroke-width="1" opacity="0.7" />
    <line x1="4" y1="8" x2="4" y2="10" stroke="#44ff88" stroke-width="0.8" opacity="0.8" />
    <line x1="7" y1="9" x2="7" y2="11" stroke="#44ff88" stroke-width="0.8" opacity="0.8" />
    <line x1="10" y1="8" x2="10" y2="10" stroke="#44ff88" stroke-width="0.8" opacity="0.8" />
  </g>
  <!-- Lower-right: value/dollar -->
  <g transform="translate(178,74) rotate(9)" filter="url(#iconGlow)" opacity="0.7">
    <circle cx="7" cy="7" r="6.5" fill="#2a2a0a" stroke="#ffcc00" stroke-width="1.2" />
    <text x="7" y="11" text-anchor="middle" font-size="9" font-weight="bold" fill="#ffcc00" font-family="Arial, sans-serif">$</text>
  </g>
  <!-- Deep compressed icons -->
  <g transform="translate(133,100) rotate(-3) scale(0.75)" filter="url(#iconGlow)" opacity="0.6">
    <rect x="0" y="0" width="10" height="10" rx="1.5" fill="#1a2a3a" stroke="#0088cc" stroke-width="1" />
    <rect x="1.5" y="1.5" width="2.5" height="2.5" fill="#0088cc" opacity="0.8" />
    <rect x="6" y="1.5" width="2.5" height="2.5" fill="#0088cc" opacity="0.8" />
    <rect x="1.5" y="6" width="2.5" height="2.5" fill="#0066aa" opacity="0.7" />
    <rect x="6" y="6" width="2.5" height="2.5" fill="#0066aa" opacity="0.7" />
  </g>
  <g transform="translate(155,102) rotate(4) scale(0.7)" filter="url(#iconGlow)" opacity="0.58">
    <circle cx="6" cy="6" r="5.5" fill="#1a1a2a" stroke="#6644ff" stroke-width="1" />
    <line x1="6" y1="2" x2="6" y2="10" stroke="#6644ff" stroke-width="0.9" opacity="0.8" />
    <line x1="2" y1="6" x2="10" y2="6" stroke="#6644ff" stroke-width="0.9" opacity="0.8" />
  </g>

  <!-- LIGHTNING BOLTS -->
  <polyline points="82,25 76,40 83,40 74,58" stroke="#00d4ff" stroke-width="2.2" fill="none" filter="url(#strongGlow)" stroke-linecap="round" stroke-linejoin="round" />
  <polyline points="82,25 76,40 83,40 74,58" stroke="#ffffff" stroke-width="0.8" fill="none" opacity="0.9" stroke-linecap="round" stroke-linejoin="round" />
  <polyline points="218,25 224,40 217,40 226,58" stroke="#00d4ff" stroke-width="2.2" fill="none" filter="url(#strongGlow)" stroke-linecap="round" stroke-linejoin="round" />
  <polyline points="218,25 224,40 217,40 226,58" stroke="#ffffff" stroke-width="0.8" fill="none" opacity="0.9" stroke-linecap="round" stroke-linejoin="round" />
  <polyline points="115,52 111,62 116,61 110,75" stroke="#44ccff" stroke-width="1.4" fill="none" filter="url(#blueGlow)" stroke-linecap="round" stroke-linejoin="round" />
  <polyline points="185,52 189,62 184,61 190,75" stroke="#44ccff" stroke-width="1.4" fill="none" filter="url(#blueGlow)" stroke-linecap="round" stroke-linejoin="round" />

  <!-- FUNNEL EDGES — electric blue outline -->
  <line x1="58" y1="19" x2="129" y2="146" stroke="#0099ff" stroke-width="2" opacity="0.75" filter="url(#blueGlow)" />
  <line x1="242" y1="19" x2="171" y2="146" stroke="#0099ff" stroke-width="2" opacity="0.75" filter="url(#blueGlow)" />
  <line x1="72" y1="20" x2="133" y2="140" stroke="#44bbff" stroke-width="0.8" opacity="0.45" />
  <line x1="228" y1="20" x2="167" y2="140" stroke="#44bbff" stroke-width="0.8" opacity="0.45" />

  <!-- LEAD POINT — concentrated energy tip -->
  <ellipse cx="150" cy="150" rx="22" ry="10" fill="#0044aa" opacity="0.25" />
  <ellipse cx="150" cy="150" rx="14" ry="6" fill="#0066cc" opacity="0.35" />
  <line x1="150" y1="146" x2="150" y2="158" stroke="#00aaff" stroke-width="3" stroke-linecap="round" filter="url(#blueGlow)" />
  <polygon points="150,165 144,153 150,148 156,153" fill="url(#leadGrad)" filter="url(#strongGlow)" />
  <polygon points="150,165 144,153 150,148 156,153" fill="none" stroke="#88eeff" stroke-width="0.8" opacity="0.8" />
  <circle cx="150" cy="165" r="1.8" fill="#00ffff" filter="url(#strongGlow)" />
  <line x1="150" y1="167" x2="148" y2="174" stroke="#00ccff" stroke-width="0.9" opacity="0.6" />
  <line x1="150" y1="167" x2="152" y2="174" stroke="#00ccff" stroke-width="0.9" opacity="0.6" />
  <line x1="150" y1="167" x2="144" y2="172" stroke="#0099ff" stroke-width="0.7" opacity="0.5" />
  <line x1="150" y1="167" x2="156" y2="172" stroke="#0099ff" stroke-width="0.7" opacity="0.5" />

  <!-- WORDMARK -->
  <text x="150" y="188" text-anchor="middle" font-family="'Helvetica Neue', Arial, sans-serif" font-size="13" font-weight="700" letter-spacing="1.5" fill="#e8f4ff" filter="url(#blueGlow)">AGENTIC LEAD GEN</text>
  <line x1="62" y1="192" x2="238" y2="192" stroke="#0077cc" stroke-width="0.6" opacity="0.5" />

  <!-- Cloud shimmer -->
  <ellipse cx="130" cy="13" rx="35" ry="6" fill="#5a6a7a" opacity="0.4" />
  <ellipse cx="170" cy="11" rx="25" ry="5" fill="#6a7a8a" opacity="0.3" />

  <!-- Electric particle scatter -->
  <circle cx="112" cy="62" r="1.2" fill="#00ddff" opacity="0.7" />
  <circle cx="185" cy="65" r="1.2" fill="#00ddff" opacity="0.65" />
  <circle cx="130" cy="88" r="1" fill="#00bbff" opacity="0.6" />
  <circle cx="170" cy="91" r="1" fill="#00bbff" opacity="0.55" />
  <circle cx="143" cy="112" r="0.9" fill="#0099ee" opacity="0.55" />
  <circle cx="158" cy="114" r="0.9" fill="#0099ee" opacity="0.5" />
  <circle cx="150" cy="130" r="0.8" fill="#0088dd" opacity="0.5" />
  <circle cx="95" cy="45" r="1.3" fill="#22eeff" opacity="0.6" />
  <circle cx="205" cy="48" r="1.3" fill="#22eeff" opacity="0.55" />
</svg>
