<svg xmlns="http://www.w3.org/2000/svg" viewBox="0 0 300 200" width="300" height="200">
  <defs>
    <!-- Background gradient -->
    <linearGradient id="bgGrad" x1="0%" y1="0%" x2="100%" y2="100%">
      <stop offset="0%" style="stop-color:#0a0e1a;stop-opacity:1" />
      <stop offset="100%" style="stop-color:#0d1530;stop-opacity:1" />
    </linearGradient>

    <!-- Golden glow for eyes -->
    <radialGradient id="eyeGlowLeft" cx="50%" cy="50%" r="50%">
      <stop offset="0%" style="stop-color:#ffd700;stop-opacity:1" />
      <stop offset="40%" style="stop-color:#ffaa00;stop-opacity:0.9" />
      <stop offset="70%" style="stop-color:#ff8c00;stop-opacity:0.6" />
      <stop offset="100%" style="stop-color:#ff6600;stop-opacity:0" />
    </radialGradient>
    <radialGradient id="eyeGlowRight" cx="50%" cy="50%" r="50%">
      <stop offset="0%" style="stop-color:#ffd700;stop-opacity:1" />
      <stop offset="40%" style="stop-color:#ffaa00;stop-opacity:0.9" />
      <stop offset="70%" style="stop-color:#ff8c00;stop-opacity:0.6" />
      <stop offset="100%" style="stop-color:#ff6600;stop-opacity:0" />
    </radialGradient>

    <!-- Eye inner gradient (dark iris) -->
    <radialGradient id="eyeInner" cx="50%" cy="50%" r="50%">
      <stop offset="0%" style="stop-color:#0a0e1a;stop-opacity:1" />
      <stop offset="60%" style="stop-color:#0d1a3a;stop-opacity:1" />
      <stop offset="100%" style="stop-color:#112244;stop-opacity:1" />
    </radialGradient>

    <!-- Pupil gradient -->
    <radialGradient id="pupilGrad" cx="50%" cy="50%" r="50%">
      <stop offset="0%" style="stop-color:#000510;stop-opacity:1" />
      <stop offset="100%" style="stop-color:#020a20;stop-opacity:1" />
    </radialGradient>

    <!-- Feather body gradient -->
    <linearGradient id="bodyGrad" x1="0%" y1="0%" x2="100%" y2="100%">
      <stop offset="0%" style="stop-color:#1a2744" />
      <stop offset="50%" style="stop-color:#0f1a30" />
      <stop offset="100%" style="stop-color:#0a1020" />
    </linearGradient>
    <linearGradient id="wingGrad" x1="0%" y1="0%" x2="100%" y2="100%">
      <stop offset="0%" style="stop-color:#162238" />
      <stop offset="100%" style="stop-color:#08101e" />
    </linearGradient>

    <!-- Glow filter for eyes -->
    <filter id="glowFilter" x="-50%" y="-50%" width="200%" height="200%">
      <feGaussianBlur stdDeviation="4" result="blur" />
      <feMerge>
        <feMergeNode in="blur" />
        <feMergeNode in="SourceGraphic" />
      </feMerge>
    </filter>
    <filter id="softGlow" x="-80%" y="-80%" width="260%" height="260%">
      <feGaussianBlur stdDeviation="6" result="blur" />
      <feMerge>
        <feMergeNode in="blur" />
        <feMergeNode in="SourceGraphic" />
      </feMerge>
    </filter>
    <filter id="subtleGlow" x="-30%" y="-30%" width="160%" height="160%">
      <feGaussianBlur stdDeviation="2.5" result="blur" />
      <feMerge>
        <feMergeNode in="blur" />
        <feMergeNode in="SourceGraphic" />
      </feMerge>
    </filter>
  </defs>

  <!-- Background -->
  <rect width="300" height="200" fill="url(#bgGrad)" rx="8" />

  <!-- ===================== OWL BODY — geometric low-poly ===================== -->

  <!-- Tail / bottom base -->
  <polygon points="150,170 118,158 182,158" fill="#0c1525" />
  <polygon points="150,170 118,158 130,172" fill="#0e1a2e" />
  <polygon points="150,170 182,158 168,172" fill="#0e1a2e" />

  <!-- Lower body polygon cluster -->
  <polygon points="118,158 100,140 138,148" fill="#111e35" />
  <polygon points="182,158 200,140 162,148" fill="#111e35" />
  <polygon points="118,158 138,148 150,158" fill="#162140" />
  <polygon points="182,158 162,148 150,158" fill="#162140" />
  <polygon points="138,148 162,148 150,158" fill="#1a2848" />

  <!-- Mid body -->
  <polygon points="100,140 110,118 138,148" fill="#0f1c33" />
  <polygon points="200,140 190,118 162,148" fill="#0f1c33" />
  <polygon points="110,118 138,148 130,120" fill="#162444" />
  <polygon points="190,118 162,148 170,120" fill="#162444" />
  <polygon points="130,120 138,148 150,125" fill="#1d2f55" />
  <polygon points="170,120 162,148 150,125" fill="#1d2f55" />
  <polygon points="138,148 162,148 150,125" fill="#203560" />

  <!-- Left wing -->
  <polygon points="100,140 78,130 95,108" fill="url(#wingGrad)" />
  <polygon points="78,130 60,120 80,108" fill="#0d1828" />
  <polygon points="95,108 78,130 80,108" fill="#10203a" />
  <polygon points="60,120 80,108 68,95" fill="#0b1523" />
  <polygon points="80,108 95,108 82,92" fill="#0e1e34" />
  <polygon points="82,92 80,108 68,95" fill="#0c1828" />
  <!-- Wing tip feathers -->
  <polygon points="60,120 50,115 62,108" fill="#0a1420" />
  <polygon points="68,95 60,88 72,85" fill="#0a1420" />

  <!-- Right wing -->
  <polygon points="200,140 222,130 205,108" fill="url(#wingGrad)" />
  <polygon points="222,130 240,120 220,108" fill="#0d1828" />
  <polygon points="205,108 222,130 220,108" fill="#10203a" />
  <polygon points="240,120 220,108 232,95" fill="#0b1523" />
  <polygon points="220,108 205,108 218,92" fill="#0e1e34" />
  <polygon points="218,92 220,108 232,95" fill="#0c1828" />
  <!-- Wing tip feathers -->
  <polygon points="240,120 250,115 238,108" fill="#0a1420" />
  <polygon points="232,95 240,88 228,85" fill="#0a1420" />

  <!-- Upper body / chest -->
  <polygon points="110,118 130,120 118,100" fill="#1a2c50" />
  <polygon points="190,118 170,120 182,100" fill="#1a2c50" />
  <polygon points="118,100 130,120 150,110" fill="#1e3360" />
  <polygon points="182,100 170,120 150,110" fill="#1e3360" />
  <polygon points="130,120 170,120 150,110" fill="#243a6e" />

  <!-- Shoulders / upper -->
  <polygon points="110,118 95,108 112,95" fill="#162240" />
  <polygon points="190,118 205,108 188,95" fill="#162240" />
  <polygon points="112,95 118,100 105,85" fill="#1a2a4a" />
  <polygon points="188,95 182,100 195,85" fill="#1a2a4a" />

  <!-- Head base -->
  <polygon points="112,95 118,100 108,78" fill="#1d2f55" />
  <polygon points="188,95 182,100 192,78" fill="#1d2f55" />
  <polygon points="108,78 118,100 128,80" fill="#233668" />
  <polygon points="192,78 182,100 172,80" fill="#233668" />
  <polygon points="118,100 150,110 150,88" fill="#2a3f78" />
  <polygon points="182,100 150,110 150,88" fill="#2a3f78" />
  <polygon points="128,80 118,100 150,88" fill="#253a70" />
  <polygon points="172,80 182,100 150,88" fill="#253a70" />

  <!-- Crown / top of head -->
  <polygon points="108,78 128,80 118,62" fill="#1e3060" />
  <polygon points="192,78 172,80 182,62" fill="#1e3060" />
  <polygon points="118,62 128,80 138,60" fill="#243870" />
  <polygon points="182,62 172,80 162,60" fill="#243870" />
  <polygon points="128,80 172,80 150,88" fill="#2d4888" />
  <polygon points="128,80 138,60 150,68" fill="#2a4280" />
  <polygon points="172,80 162,60 150,68" fill="#2a4280" />
  <polygon points="138,60 162,60 150,68" fill="#334e98" />

  <!-- Ear tufts (horns) -->
  <!-- Left tuft -->
  <polygon points="118,62 108,48 126,55" fill="#1a2a4e" />
  <polygon points="108,48 114,38 122,48" fill="#162040" />
  <polygon points="114,38 122,48 118,32" fill="#101830" />
  <!-- Right tuft -->
  <polygon points="182,62 192,48 174,55" fill="#1a2a4e" />
  <polygon points="192,48 186,38 178,48" fill="#162040" />
  <polygon points="186,38 178,48 182,32" fill="#101830" />

  <!-- Forehead center -->
  <polygon points="138,60 162,60 150,50" fill="#2e4a8e" />
  <polygon points="138,60 150,50 132,52" fill="#263e7a" />
  <polygon points="162,60 150,50 168,52" fill="#263e7a" />

  <!-- ===================== EYE SOCKETS ===================== -->
  <!-- Left eye socket -->
  <circle cx="128" cy="90" r="20" fill="#0a1020" opacity="0.9" />
  <!-- Right eye socket -->
  <circle cx="172" cy="90" r="20" fill="#0a1020" opacity="0.9" />

  <!-- ===================== GOLDEN EYES — Data viz circles ===================== -->

  <!-- LEFT EYE — golden ring glow -->
  <circle cx="128" cy="90" r="18" fill="none" stroke="#ffd700" stroke-width="2.5" opacity="0.3" filter="url(#softGlow)" />
  <circle cx="128" cy="90" r="16" fill="url(#eyeGlowLeft)" filter="url(#softGlow)" />
  <circle cx="128" cy="90" r="14" fill="url(#eyeInner)" />

  <!-- Left eye data viz: concentric rings (like a radar chart) -->
  <circle cx="128" cy="90" r="13" fill="none" stroke="#ffd700" stroke-width="1.2" opacity="0.7" />
  <circle cx="128" cy="90" r="10" fill="none" stroke="#ffaa00" stroke-width="0.8" opacity="0.6" />
  <circle cx="128" cy="90" r="7" fill="none" stroke="#ff8c00" stroke-width="0.7" opacity="0.5" />
  <circle cx="128" cy="90" r="4" fill="none" stroke="#ffd700" stroke-width="0.6" opacity="0.5" />

  <!-- Left eye data arcs (pie segments) -->
  <!-- Arc segment 1 (top) -->
  <path d="M128,77 A13,13 0 0,1 139,84" fill="none" stroke="#ffd700" stroke-width="2.5" opacity="0.8" stroke-linecap="round" filter="url(#subtleGlow)" />
  <!-- Arc segment 2 (right) -->
  <path d="M139,84 A13,13 0 0,1 136,97" fill="none" stroke="#ffcc00" stroke-width="2" opacity="0.7" stroke-linecap="round" filter="url(#subtleGlow)" />
  <!-- Arc segment 3 (bottom-left) -->
  <path d="M136,97 A13,13 0 0,1 116,87" fill="none" stroke="#ff9900" stroke-width="1.5" opacity="0.6" stroke-linecap="round" filter="url(#subtleGlow)" />
  <!-- Arc segment 4 (top-left) -->
  <path d="M116,87 A13,13 0 0,1 128,77" fill="none" stroke="#ffdd44" stroke-width="1" opacity="0.5" stroke-linecap="round" filter="url(#subtleGlow)" />

  <!-- Left eye data bars (radial lines inside) -->
  <line x1="128" y1="80" x2="128" y2="84" stroke="#ffd700" stroke-width="1.5" opacity="0.7" />
  <line x1="135" y1="83" x2="132" y2="86" stroke="#ffaa00" stroke-width="1.5" opacity="0.6" />
  <line x1="135" y1="97" x2="132" y2="94" stroke="#ff8c00" stroke-width="1.2" opacity="0.5" />
  <line x1="121" y1="83" x2="124" y2="86" stroke="#ffcc00" stroke-width="1.2" opacity="0.6" />

  <!-- Left pupil -->
  <circle cx="128" cy="90" r="3.5" fill="url(#pupilGrad)" />
  <circle cx="128" cy="90" r="2" fill="#000510" />
  <!-- Pupil gleam -->
  <circle cx="130" cy="88" r="0.8" fill="#ffd700" opacity="0.9" />

  <!-- LEFT EYE outer glow ring -->
  <circle cx="128" cy="90" r="17" fill="none" stroke="#ffd700" stroke-width="1" opacity="0.5" filter="url(#glowFilter)" />


  <!-- RIGHT EYE — golden ring glow -->
  <circle cx="172" cy="90" r="18" fill="none" stroke="#ffd700" stroke-width="2.5" opacity="0.3" filter="url(#softGlow)" />
  <circle cx="172" cy="90" r="16" fill="url(#eyeGlowRight)" filter="url(#softGlow)" />
  <circle cx="172" cy="90" r="14" fill="url(#eyeInner)" />

  <!-- Right eye data viz: concentric rings -->
  <circle cx="172" cy="90" r="13" fill="none" stroke="#ffd700" stroke-width="1.2" opacity="0.7" />
  <circle cx="172" cy="90" r="10" fill="none" stroke="#ffaa00" stroke-width="0.8" opacity="0.6" />
  <circle cx="172" cy="90" r="7" fill="none" stroke="#ff8c00" stroke-width="0.7" opacity="0.5" />
  <circle cx="172" cy="90" r="4" fill="none" stroke="#ffd700" stroke-width="0.6" opacity="0.5" />

  <!-- Right eye data arcs (different segments for variety) -->
  <!-- Segment 1 -->
  <path d="M172,77 A13,13 0 0,1 183,86" fill="none" stroke="#ffd700" stroke-width="3" opacity="0.85" stroke-linecap="round" filter="url(#subtleGlow)" />
  <!-- Segment 2 -->
  <path d="M183,86 A13,13 0 0,1 178,99" fill="none" stroke="#ffbb00" stroke-width="1.8" opacity="0.65" stroke-linecap="round" filter="url(#subtleGlow)" />
  <!-- Segment 3 -->
  <path d="M178,99 A13,13 0 0,1 161,99" fill="none" stroke="#ff9900" stroke-width="1.2" opacity="0.5" stroke-linecap="round" filter="url(#subtleGlow)" />
  <!-- Segment 4 -->
  <path d="M161,99 A13,13 0 0,1 161,81" fill="none" stroke="#ffdd44" stroke-width="0.9" opacity="0.4" stroke-linecap="round" filter="url(#subtleGlow)" />
  <!-- Segment 5 (gap) -->
  <path d="M161,81 A13,13 0 0,1 172,77" fill="none" stroke="#ffc800" stroke-width="0.7" opacity="0.4" stroke-linecap="round" filter="url(#subtleGlow)" />

  <!-- Right eye data bars -->
  <line x1="172" y1="80" x2="172" y2="84" stroke="#ffd700" stroke-width="1.5" opacity="0.7" />
  <line x1="179" y1="83" x2="176" y2="86" stroke="#ffaa00" stroke-width="1.5" opacity="0.6" />
  <line x1="179" y1="97" x2="176" y2="94" stroke="#ff8c00" stroke-width="1.2" opacity="0.5" />
  <line x1="165" y1="83" x2="168" y2="86" stroke="#ffcc00" stroke-width="1.2" opacity="0.6" />

  <!-- Right pupil -->
  <circle cx="172" cy="90" r="3.5" fill="url(#pupilGrad)" />
  <circle cx="172" cy="90" r="2" fill="#000510" />
  <!-- Pupil gleam -->
  <circle cx="174" cy="88" r="0.8" fill="#ffd700" opacity="0.9" />

  <!-- RIGHT EYE outer glow ring -->
  <circle cx="172" cy="90" r="17" fill="none" stroke="#ffd700" stroke-width="1" opacity="0.5" filter="url(#glowFilter)" />

  <!-- ===================== BEAK ===================== -->
  <polygon points="142,105 158,105 150,116" fill="#d4a000" opacity="0.9" />
  <polygon points="142,105 150,110 150,116" fill="#b88800" opacity="0.9" />
  <polygon points="158,105 150,110 150,116" fill="#e0b800" opacity="0.9" />

  <!-- ===================== FACE DETAILS ===================== -->
  <!-- Facial disc (subtle) -->
  <ellipse cx="150" cy="95" rx="30" ry="25" fill="none" stroke="#1e3060" stroke-width="1" opacity="0.4" />

  <!-- Feather texture lines (body) -->
  <line x1="132" y1="125" x2="140" y2="130" stroke="#0d1a30" stroke-width="0.5" opacity="0.6" />
  <line x1="136" y1="135" x2="144" y2="140" stroke="#0d1a30" stroke-width="0.5" opacity="0.6" />
  <line x1="168" y1="125" x2="160" y2="130" stroke="#0d1a30" stroke-width="0.5" opacity="0.6" />
  <line x1="164" y1="135" x2="156" y2="140" stroke="#0d1a30" stroke-width="0.5" opacity="0.6" />
  <line x1="140" y1="145" x2="150" y2="150" stroke="#0d1a30" stroke-width="0.5" opacity="0.5" />
  <line x1="160" y1="145" x2="150" y2="150" stroke="#0d1a30" stroke-width="0.5" opacity="0.5" />

  <!-- Chest highlight -->
  <polygon points="140,118 160,118 150,135" fill="#1e3060" opacity="0.4" />

  <!-- ===================== TALONS / FEET ===================== -->
  <!-- Left foot -->
  <line x1="132" y1="168" x2="122" y2="178" stroke="#ffd700" stroke-width="1.5" opacity="0.7" />
  <line x1="132" y1="168" x2="128" y2="180" stroke="#ffd700" stroke-width="1.5" opacity="0.7" />
  <line x1="132" y1="168" x2="135" y2="180" stroke="#ffd700" stroke-width="1.5" opacity="0.7" />
  <!-- Right foot -->
  <line x1="168" y1="168" x2="178" y2="178" stroke="#ffd700" stroke-width="1.5" opacity="0.7" />
  <line x1="168" y1="168" x2="172" y2="180" stroke="#ffd700" stroke-width="1.5" opacity="0.7" />
  <line x1="168" y1="168" x2="165" y2="180" stroke="#ffd700" stroke-width="1.5" opacity="0.7" />

  <!-- ===================== AMBIENT DATA DOTS around owl ===================== -->
  <!-- Floating data points suggesting intelligence/data analysis -->
  <circle cx="62" cy="72" r="1.5" fill="#ffd700" opacity="0.5" />
  <circle cx="70" cy="58" r="1" fill="#ffaa00" opacity="0.4" />
  <circle cx="55" cy="88" r="1.2" fill="#ffd700" opacity="0.35" />
  <circle cx="238" cy="72" r="1.5" fill="#ffd700" opacity="0.5" />
  <circle cx="230" cy="58" r="1" fill="#ffaa00" opacity="0.4" />
  <circle cx="245" cy="88" r="1.2" fill="#ffd700" opacity="0.35" />
  <circle cx="88" cy="48" r="1" fill="#ffcc44" opacity="0.3" />
  <circle cx="212" cy="48" r="1" fill="#ffcc44" opacity="0.3" />

  <!-- Connecting data lines (network feel) -->
  <line x1="62" y1="72" x2="70" y2="58" stroke="#ffd700" stroke-width="0.5" opacity="0.2" />
  <line x1="70" y1="58" x2="88" y2="48" stroke="#ffd700" stroke-width="0.5" opacity="0.15" />
  <line x1="238" y1="72" x2="230" y2="58" stroke="#ffd700" stroke-width="0.5" opacity="0.2" />
  <line x1="230" y1="58" x2="212" y2="48" stroke="#ffd700" stroke-width="0.5" opacity="0.15" />

  <!-- ===================== TEXT ===================== -->
  <!-- Main wordmark -->
  <text x="150" y="193" font-family="'Segoe UI', 'Helvetica Neue', Arial, sans-serif" font-size="11" font-weight="700" fill="#ffd700" text-anchor="middle" letter-spacing="3" opacity="0.95">AGENTIC LEAD GEN</text>
  <!-- Tagline sub -->
  <text x="150" y="200" font-family="'Segoe UI', 'Helvetica Neue', Arial, sans-serif" font-size="0" fill="#8899bb" text-anchor="middle" letter-spacing="2">PROSPECT INTELLIGENCE</text>
</svg>
