<svg xmlns="http://www.w3.org/2000/svg" viewBox="0 0 300 200" width="300" height="200">
  <defs>
    <!-- Ocean depth gradient: light surface to deep dark -->
    <linearGradient id="oceanDepth" x1="0" y1="0" x2="0" y2="1">
      <stop offset="0%" stop-color="#0ea5c8" stop-opacity="0.85"/>
      <stop offset="30%" stop-color="#0d7fa3"/>
      <stop offset="65%" stop-color="#065c7a"/>
      <stop offset="100%" stop-color="#021f2e"/>
    </linearGradient>

    <!-- Submarine body gradient -->
    <linearGradient id="subBody" x1="0" y1="0" x2="0" y2="1">
      <stop offset="0%" stop-color="#4dd9c0"/>
      <stop offset="50%" stop-color="#1ca88a"/>
      <stop offset="100%" stop-color="#0d7a63"/>
    </linearGradient>

    <!-- Submarine highlight -->
    <linearGradient id="subHighlight" x1="0" y1="0" x2="0" y2="1">
      <stop offset="0%" stop-color="#ffffff" stop-opacity="0.45"/>
      <stop offset="100%" stop-color="#ffffff" stop-opacity="0"/>
    </linearGradient>

    <!-- Treasure glow -->
    <radialGradient id="treasureGlow" cx="50%" cy="50%" r="50%">
      <stop offset="0%" stop-color="#ffd700" stop-opacity="0.9"/>
      <stop offset="60%" stop-color="#f59e0b" stop-opacity="0.5"/>
      <stop offset="100%" stop-color="#f59e0b" stop-opacity="0"/>
    </radialGradient>

    <!-- Sonar ring clip -->
    <clipPath id="oceanClip">
      <rect x="0" y="0" width="300" height="200"/>
    </clipPath>

    <!-- Depth haze filter -->
    <filter id="depthBlur" x="-20%" y="-20%" width="140%" height="140%">
      <feGaussianBlur stdDeviation="1.2"/>
    </filter>

    <!-- Glow filter for sonar/treasure -->
    <filter id="softGlow" x="-30%" y="-30%" width="160%" height="160%">
      <feGaussianBlur stdDeviation="2.5" result="blur"/>
      <feMerge>
        <feMergeNode in="blur"/>
        <feMergeNode in="SourceGraphic"/>
      </feMerge>
    </filter>

    <!-- Propeller spin animation via transform origin -->
  </defs>

  <!-- Ocean background -->
  <rect x="0" y="0" width="300" height="200" fill="url(#oceanDepth)"/>

  <!-- Surface shimmer lines -->
  <g opacity="0.18">
    <path d="M0 22 Q40 18 80 22 Q120 26 160 22 Q200 18 240 22 Q270 26 300 22" stroke="#7ff0f0" stroke-width="1.5" fill="none"/>
    <path d="M0 28 Q50 24 100 28 Q150 32 200 28 Q250 24 300 28" stroke="#7ff0f0" stroke-width="0.8" fill="none"/>
  </g>

  <!-- Deep water caustic shimmer (subtle) -->
  <g opacity="0.07" filter="url(#depthBlur)">
    <ellipse cx="60" cy="155" rx="22" ry="6" fill="#4dd9c0"/>
    <ellipse cx="140" cy="170" rx="18" ry="5" fill="#4dd9c0"/>
    <ellipse cx="220" cy="160" rx="25" ry="7" fill="#4dd9c0"/>
    <ellipse cx="100" cy="185" rx="14" ry="4" fill="#4dd9c0"/>
    <ellipse cx="260" cy="180" rx="16" ry="5" fill="#4dd9c0"/>
  </g>

  <!-- Sonar ping circles (emanating from submarine nose, clipped to ocean) -->
  <g clip-path="url(#oceanClip)" filter="url(#softGlow)">
    <!-- Outermost ring -->
    <ellipse cx="198" cy="105" rx="52" ry="38" fill="none" stroke="#2dd4bf" stroke-width="1.1" stroke-opacity="0.22"/>
    <!-- Mid ring -->
    <ellipse cx="198" cy="105" rx="36" ry="26" fill="none" stroke="#2dd4bf" stroke-width="1.4" stroke-opacity="0.38"/>
    <!-- Inner ring -->
    <ellipse cx="198" cy="105" rx="20" ry="15" fill="none" stroke="#4aecd4" stroke-width="1.8" stroke-opacity="0.6"/>
    <!-- Innermost active ping -->
    <ellipse cx="198" cy="105" rx="9" ry="7" fill="none" stroke="#a5f3e8" stroke-width="2" stroke-opacity="0.85"/>
  </g>

  <!-- Dive angle bubbles trail (behind sub) -->
  <g opacity="0.5">
    <circle cx="82" cy="80" r="2.5" fill="none" stroke="#a5f3e8" stroke-width="1.2"/>
    <circle cx="75" cy="72" r="1.8" fill="none" stroke="#a5f3e8" stroke-width="1"/>
    <circle cx="88" cy="68" r="1.3" fill="none" stroke="#a5f3e8" stroke-width="0.9"/>
    <circle cx="70" cy="63" r="2" fill="none" stroke="#a5f3e8" stroke-width="1"/>
    <circle cx="80" cy="58" r="1.5" fill="none" stroke="#a5f3e8" stroke-width="0.8"/>
    <circle cx="65" cy="55" r="1" fill="none" stroke="#a5f3e8" stroke-width="0.7"/>
  </g>

  <!-- === SUBMARINE (diving at ~-15 deg angle, moving right-downward) === -->
  <g transform="translate(150, 105) rotate(-14)">

    <!-- Propeller blades (rear) -->
    <g transform="translate(-62, 0)">
      <ellipse cx="0" cy="-10" rx="3.5" ry="8" fill="#1ca88a" opacity="0.9" transform="rotate(-30)"/>
      <ellipse cx="0" cy="10"  rx="3.5" ry="8" fill="#1ca88a" opacity="0.9" transform="rotate(30)"/>
      <ellipse cx="-10" cy="0" rx="8" ry="3.5" fill="#0d7a63" opacity="0.9" transform="rotate(15)"/>
      <ellipse cx="10"  cy="0" rx="8" ry="3.5" fill="#0d7a63" opacity="0.9" transform="rotate(-15)"/>
      <!-- Propeller hub -->
      <circle cx="0" cy="0" r="4" fill="#0a5a49"/>
      <circle cx="0" cy="0" r="2" fill="#4dd9c0"/>
    </g>

    <!-- Tail fin (vertical stabilizer) -->
    <path d="M-52 -4 L-38 -18 L-34 -18 L-44 -4 Z" fill="#0d7a63"/>
    <path d="M-52  4 L-38  18 L-34  18 L-44  4 Z" fill="#0d7a63"/>

    <!-- Main hull body -->
    <ellipse cx="0" cy="0" rx="55" ry="16" fill="url(#subBody)"/>

    <!-- Hull highlight (top shine) -->
    <ellipse cx="0" cy="-5" rx="50" ry="8" fill="url(#subHighlight)"/>

    <!-- Nose cone -->
    <path d="M52 0 Q66 0 74 4 Q66 8 52 0 Z" fill="#1ca88a"/>
    <path d="M52 0 Q66 0 74 -4 Q66 -8 52 0 Z" fill="#4dd9c0" opacity="0.7"/>

    <!-- Conning tower (sail) -->
    <rect x="-8" y="-29" width="22" height="15" rx="4" fill="#1ca88a"/>
    <!-- Periscope -->
    <rect x="10" y="-37" width="3" height="10" rx="1.5" fill="#0d7a63"/>
    <rect x="10" y="-39" width="7" height="3" rx="1.5" fill="#0d7a63"/>
    <!-- Conning tower window -->
    <circle cx="4" cy="-23" r="4" fill="#021f2e" stroke="#4dd9c0" stroke-width="1.2"/>
    <circle cx="4" cy="-23" r="2" fill="#0ea5c8" opacity="0.7"/>

    <!-- Port holes -->
    <circle cx="10" cy="0" r="5" fill="#021f2e" stroke="#4dd9c0" stroke-width="1.3"/>
    <circle cx="10" cy="0" r="2.5" fill="#0ea5c8" opacity="0.6"/>
    <circle cx="-12" cy="0" r="4" fill="#021f2e" stroke="#4dd9c0" stroke-width="1"/>
    <circle cx="-12" cy="0" r="2" fill="#0ea5c8" opacity="0.5"/>

    <!-- Dive planes (hydroplanes) -->
    <path d="M20 12 L28 22 L32 22 L28 12 Z" fill="#0d7a63"/>
    <path d="M20 -12 L28 -22 L32 -22 L28 -12 Z" fill="#0d7a63"/>

    <!-- Sonar dome (nose ring detail) -->
    <circle cx="68" cy="0" r="4.5" fill="#0ea5c8" stroke="#4aecd4" stroke-width="1" opacity="0.8"/>
  </g>

  <!-- === TREASURE CHEST at depth === -->
  <g transform="translate(248, 174)" filter="url(#softGlow)">
    <!-- Glow halo -->
    <circle cx="0" cy="0" r="18" fill="url(#treasureGlow)" opacity="0.7"/>

    <!-- Chest body -->
    <rect x="-11" y="-5" width="22" height="14" rx="2" fill="#92400e"/>
    <rect x="-11" y="-5" width="22" height="5" rx="2" fill="#78350f"/>

    <!-- Chest lid arc -->
    <path d="M-11 -5 Q0 -14 11 -5 Z" fill="#a16207"/>

    <!-- Chest band -->
    <rect x="-11" y="-1" width="22" height="2.5" fill="#ca8a04"/>
    <!-- Lock -->
    <rect x="-2.5" y="-2" width="5" height="5" rx="1" fill="#fbbf24"/>
    <circle cx="0" cy="-3" r="2" fill="none" stroke="#fbbf24" stroke-width="1.2"/>

    <!-- Gold coins spilling out -->
    <ellipse cx="13" cy="6" rx="4" ry="2.5" fill="#fcd34d" opacity="0.9"/>
    <ellipse cx="15" cy="3" rx="3" ry="2" fill="#fbbf24" opacity="0.85"/>
    <ellipse cx="-13" cy="5" rx="3.5" ry="2" fill="#fcd34d" opacity="0.8"/>
  </g>

  <!-- Tiny fish silhouettes (deep) -->
  <g opacity="0.3" fill="#0d7a63">
    <path d="M55 148 Q62 145 68 148 Q62 151 55 148 Z"/>
    <path d="M68 148 L63 144 L63 152 Z"/>
    <path d="M38 162 Q44 160 49 162 Q44 164 38 162 Z"/>
    <path d="M49 162 L45 158 L45 166 Z"/>
  </g>

  <!-- Text: "AGENTIC LEAD GEN" -->
  <text
    x="150" y="193"
    font-family="'Helvetica Neue', Helvetica, Arial, sans-serif"
    font-size="11"
    font-weight="700"
    letter-spacing="2.5"
    text-anchor="middle"
    fill="#4dd9c0"
    opacity="0.92">AGENTIC LEAD GEN</text>

  <!-- Subtle divider line under text -->
  <line x1="90" y1="196" x2="210" y2="196" stroke="#2dd4bf" stroke-width="0.5" opacity="0.4"/>
</svg>
