<svg xmlns="http://www.w3.org/2000/svg" viewBox="0 0 300 200" width="300" height="200">
  <defs>
    <!-- Dark background gradient -->
    <radialGradient id="bgGrad" cx="50%" cy="50%" r="70%">
      <stop offset="0%" stop-color="#0a0e1a"/>
      <stop offset="100%" stop-color="#020408"/>
    </radialGradient>

    <!-- Left neuron body glow -->
    <radialGradient id="neuronLeftGlow" cx="50%" cy="50%" r="50%">
      <stop offset="0%" stop-color="#1a6fd4" stop-opacity="0.9"/>
      <stop offset="40%" stop-color="#0d4a9e" stop-opacity="0.7"/>
      <stop offset="100%" stop-color="#071e3d" stop-opacity="0"/>
    </radialGradient>

    <!-- Right neuron body glow -->
    <radialGradient id="neuronRightGlow" cx="50%" cy="50%" r="50%">
      <stop offset="0%" stop-color="#1a6fd4" stop-opacity="0.9"/>
      <stop offset="40%" stop-color="#0d4a9e" stop-opacity="0.7"/>
      <stop offset="100%" stop-color="#071e3d" stop-opacity="0"/>
    </radialGradient>

    <!-- Electric spark gradient -->
    <linearGradient id="sparkGrad" x1="0%" y1="0%" x2="100%" y2="0%">
      <stop offset="0%" stop-color="#4dc8ff" stop-opacity="0.6"/>
      <stop offset="30%" stop-color="#00d4ff"/>
      <stop offset="50%" stop-color="#ffffff"/>
      <stop offset="70%" stop-color="#00d4ff"/>
      <stop offset="100%" stop-color="#4dc8ff" stop-opacity="0.6"/>
    </linearGradient>

    <!-- Spark halo blur -->
    <filter id="sparkGlow" x="-50%" y="-50%" width="200%" height="200%">
      <feGaussianBlur stdDeviation="2.5" result="blur"/>
      <feMerge>
        <feMergeNode in="blur"/>
        <feMergeNode in="blur"/>
        <feMergeNode in="SourceGraphic"/>
      </feMerge>
    </filter>

    <!-- Neuron body glow filter -->
    <filter id="neuronGlowFilter" x="-60%" y="-60%" width="220%" height="220%">
      <feGaussianBlur stdDeviation="5" result="blur"/>
      <feMerge>
        <feMergeNode in="blur"/>
        <feMergeNode in="SourceGraphic"/>
      </feMerge>
    </filter>

    <!-- Dendrite glow filter -->
    <filter id="dendriteGlow" x="-20%" y="-20%" width="140%" height="140%">
      <feGaussianBlur stdDeviation="1.5" result="blur"/>
      <feMerge>
        <feMergeNode in="blur"/>
        <feMergeNode in="SourceGraphic"/>
      </feMerge>
    </filter>

    <!-- Core spark intense glow -->
    <filter id="coreGlow" x="-100%" y="-100%" width="300%" height="300%">
      <feGaussianBlur stdDeviation="4" result="blur1"/>
      <feGaussianBlur stdDeviation="8" result="blur2"/>
      <feMerge>
        <feMergeNode in="blur2"/>
        <feMergeNode in="blur1"/>
        <feMergeNode in="SourceGraphic"/>
      </feMerge>
    </filter>

    <!-- Text gradient -->
    <linearGradient id="textGrad" x1="0%" y1="0%" x2="100%" y2="0%">
      <stop offset="0%" stop-color="#4dc8ff"/>
      <stop offset="50%" stop-color="#a0e8ff"/>
      <stop offset="100%" stop-color="#4dc8ff"/>
    </linearGradient>

    <!-- Axon terminal button glow -->
    <radialGradient id="terminalGlow" cx="50%" cy="50%" r="50%">
      <stop offset="0%" stop-color="#00d4ff"/>
      <stop offset="60%" stop-color="#0077bb"/>
      <stop offset="100%" stop-color="#003366" stop-opacity="0"/>
    </radialGradient>

    <!-- Myelin sheath pattern -->
    <linearGradient id="myelinGrad" x1="0%" y1="0%" x2="0%" y2="100%">
      <stop offset="0%" stop-color="#0d4a9e"/>
      <stop offset="50%" stop-color="#1a6fd4"/>
      <stop offset="100%" stop-color="#0d4a9e"/>
    </linearGradient>
  </defs>

  <!-- Background -->
  <rect width="300" height="200" fill="url(#bgGrad)"/>

  <!-- Subtle grid lines (scientific illustration feel) -->
  <g opacity="0.04" stroke="#4dc8ff" stroke-width="0.5">
    <line x1="0" y1="40" x2="300" y2="40"/>
    <line x1="0" y1="80" x2="300" y2="80"/>
    <line x1="0" y1="120" x2="300" y2="120"/>
    <line x1="0" y1="160" x2="300" y2="160"/>
    <line x1="60" y1="0" x2="60" y2="200"/>
    <line x1="120" y1="0" x2="120" y2="200"/>
    <line x1="180" y1="0" x2="180" y2="200"/>
    <line x1="240" y1="0" x2="240" y2="200"/>
  </g>

  <!-- ==================== LEFT NEURON ==================== -->
  <g id="neuron-left">
    <!-- Glow halo around soma -->
    <circle cx="72" cy="90" r="28" fill="url(#neuronLeftGlow)" opacity="0.6"/>

    <!-- Dendrites (left neuron) -->
    <g filter="url(#dendriteGlow)" stroke="#1a6fd4" fill="none">
      <!-- Upper dendrite branch -->
      <path d="M 58 75 Q 40 58 25 50" stroke-width="1.8" stroke="#1a6fd4" opacity="0.9"/>
      <path d="M 40 62 Q 30 52 20 42" stroke-width="1.2" stroke="#1a6fd4" opacity="0.7"/>
      <path d="M 25 50 Q 14 45 8 38" stroke-width="0.9" stroke="#1a6fd4" opacity="0.5"/>
      <path d="M 25 50 Q 18 55 12 58" stroke-width="0.9" stroke="#1a6fd4" opacity="0.5"/>

      <!-- Upper-right dendrite -->
      <path d="M 68 68 Q 62 48 55 35" stroke-width="1.5" stroke="#1a6fd4" opacity="0.8"/>
      <path d="M 55 35 Q 50 22 42 15" stroke-width="1.0" stroke="#1a6fd4" opacity="0.55"/>
      <path d="M 55 35 Q 62 26 65 18" stroke-width="0.9" stroke="#1a6fd4" opacity="0.5"/>

      <!-- Lower dendrite -->
      <path d="M 58 106 Q 42 118 28 128" stroke-width="1.8" stroke="#1a6fd4" opacity="0.85"/>
      <path d="M 28 128 Q 16 136 8 142" stroke-width="1.1" stroke="#1a6fd4" opacity="0.55"/>
      <path d="M 28 128 Q 22 140 18 152" stroke-width="0.9" stroke="#1a6fd4" opacity="0.5"/>
      <path d="M 42 118 Q 36 130 30 140" stroke-width="1.0" stroke="#1a6fd4" opacity="0.6"/>

      <!-- Lower-right dendrite -->
      <path d="M 68 110 Q 60 130 52 148" stroke-width="1.4" stroke="#1a6fd4" opacity="0.7"/>
      <path d="M 52 148 Q 48 160 44 170" stroke-width="0.9" stroke="#1a6fd4" opacity="0.45"/>
    </g>

    <!-- Dendrite tips (small dots) -->
    <g fill="#4dc8ff" opacity="0.7">
      <circle cx="8" cy="38" r="1.5"/>
      <circle cx="12" cy="58" r="1.5"/>
      <circle cx="20" cy="42" r="1.3"/>
      <circle cx="42" cy="15" r="1.5"/>
      <circle cx="65" cy="18" r="1.5"/>
      <circle cx="8" cy="142" r="1.5"/>
      <circle cx="18" cy="152" r="1.5"/>
      <circle cx="30" cy="140" r="1.3"/>
      <circle cx="44" cy="170" r="1.5"/>
    </g>

    <!-- Axon hillock (tapers into axon going right) -->
    <path d="M 88 86 Q 95 88 105 90 Q 112 91 118 90" stroke="#1a6fd4" stroke-width="2.2" fill="none" filter="url(#dendriteGlow)"/>

    <!-- Myelin sheath segments on axon -->
    <g opacity="0.85">
      <rect x="108" y="87" width="6" height="6" rx="3" fill="#0d4a9e" opacity="0.0"/>
    </g>

    <!-- Soma (cell body) -->
    <circle cx="72" cy="90" r="16" fill="#071e3d" stroke="#1a6fd4" stroke-width="1.5" filter="url(#neuronGlowFilter)"/>
    <!-- Nucleus -->
    <circle cx="72" cy="90" r="8" fill="#0a2a5e" stroke="#2a7fd4" stroke-width="1"/>
    <!-- Nucleolus -->
    <circle cx="72" cy="90" r="3.5" fill="#1a6fd4" opacity="0.8"/>

    <!-- Axon terminal bulb (pre-synaptic) -->
    <circle cx="125" cy="90" r="7" fill="url(#terminalGlow)" stroke="#00d4ff" stroke-width="1.2" filter="url(#neuronGlowFilter)" opacity="0.95"/>
    <circle cx="125" cy="90" r="3.5" fill="#00d4ff" opacity="0.6"/>

    <!-- Vesicle dots in terminal -->
    <circle cx="123" cy="88" r="1.2" fill="#4dc8ff" opacity="0.8"/>
    <circle cx="127" cy="91" r="1.0" fill="#4dc8ff" opacity="0.7"/>
    <circle cx="124" cy="93" r="1.1" fill="#4dc8ff" opacity="0.7"/>
  </g>

  <!-- ==================== RIGHT NEURON ==================== -->
  <g id="neuron-right">
    <!-- Glow halo around soma -->
    <circle cx="228" cy="90" r="28" fill="url(#neuronRightGlow)" opacity="0.6"/>

    <!-- Dendrites (right neuron — pointing right/outward) -->
    <g filter="url(#dendriteGlow)" stroke="#1a6fd4" fill="none">
      <!-- Upper dendrite -->
      <path d="M 242 75 Q 260 58 275 50" stroke-width="1.8" stroke="#1a6fd4" opacity="0.9"/>
      <path d="M 260 62 Q 270 52 280 42" stroke-width="1.2" stroke="#1a6fd4" opacity="0.7"/>
      <path d="M 275 50 Q 286 45 292 38" stroke-width="0.9" stroke="#1a6fd4" opacity="0.5"/>
      <path d="M 275 50 Q 282 55 288 58" stroke-width="0.9" stroke="#1a6fd4" opacity="0.5"/>

      <!-- Upper-left dendrite -->
      <path d="M 232 68 Q 238 48 245 35" stroke-width="1.5" stroke="#1a6fd4" opacity="0.8"/>
      <path d="M 245 35 Q 250 22 258 15" stroke-width="1.0" stroke="#1a6fd4" opacity="0.55"/>
      <path d="M 245 35 Q 238 26 235 18" stroke-width="0.9" stroke="#1a6fd4" opacity="0.5"/>

      <!-- Lower dendrite -->
      <path d="M 242 106 Q 258 118 272 128" stroke-width="1.8" stroke="#1a6fd4" opacity="0.85"/>
      <path d="M 272 128 Q 284 136 292 142" stroke-width="1.1" stroke="#1a6fd4" opacity="0.55"/>
      <path d="M 272 128 Q 278 140 282 152" stroke-width="0.9" stroke="#1a6fd4" opacity="0.5"/>
      <path d="M 258 118 Q 264 130 270 140" stroke-width="1.0" stroke="#1a6fd4" opacity="0.6"/>

      <!-- Lower-left dendrite -->
      <path d="M 232 110 Q 240 130 248 148" stroke-width="1.4" stroke="#1a6fd4" opacity="0.7"/>
      <path d="M 248 148 Q 252 160 256 170" stroke-width="0.9" stroke="#1a6fd4" opacity="0.45"/>
    </g>

    <!-- Dendrite tips -->
    <g fill="#4dc8ff" opacity="0.7">
      <circle cx="292" cy="38" r="1.5"/>
      <circle cx="288" cy="58" r="1.5"/>
      <circle cx="280" cy="42" r="1.3"/>
      <circle cx="258" cy="15" r="1.5"/>
      <circle cx="235" cy="18" r="1.5"/>
      <circle cx="292" cy="142" r="1.5"/>
      <circle cx="282" cy="152" r="1.5"/>
      <circle cx="270" cy="140" r="1.3"/>
      <circle cx="256" cy="170" r="1.5"/>
    </g>

    <!-- Axon going left toward synaptic gap -->
    <path d="M 212 86 Q 205 88 195 90 Q 188 91 182 90" stroke="#1a6fd4" stroke-width="2.2" fill="none" filter="url(#dendriteGlow)"/>

    <!-- Soma -->
    <circle cx="228" cy="90" r="16" fill="#071e3d" stroke="#1a6fd4" stroke-width="1.5" filter="url(#neuronGlowFilter)"/>
    <!-- Nucleus -->
    <circle cx="228" cy="90" r="8" fill="#0a2a5e" stroke="#2a7fd4" stroke-width="1"/>
    <!-- Nucleolus -->
    <circle cx="228" cy="90" r="3.5" fill="#1a6fd4" opacity="0.8"/>

    <!-- Axon terminal bulb (post-synaptic) -->
    <circle cx="175" cy="90" r="7" fill="url(#terminalGlow)" stroke="#00d4ff" stroke-width="1.2" filter="url(#neuronGlowFilter)" opacity="0.95"/>
    <circle cx="175" cy="90" r="3.5" fill="#00d4ff" opacity="0.6"/>

    <!-- Receptor dots -->
    <circle cx="173" cy="88" r="1.2" fill="#4dc8ff" opacity="0.8"/>
    <circle cx="177" cy="91" r="1.0" fill="#4dc8ff" opacity="0.7"/>
    <circle cx="174" cy="93" r="1.1" fill="#4dc8ff" opacity="0.7"/>
  </g>

  <!-- ==================== SYNAPTIC GAP + ELECTRIC SPARK ==================== -->
  <g id="synaptic-spark">

    <!-- Gap ambient glow (wide soft) -->
    <ellipse cx="150" cy="90" rx="30" ry="18" fill="#0044aa" opacity="0.18" filter="url(#coreGlow)"/>

    <!-- Outer spark halo 1 (widest, most diffuse) -->
    <path d="M 133 90 Q 138 82 142 88 Q 146 94 150 86 Q 154 78 158 84 Q 162 90 167 90"
          stroke="#003388" stroke-width="6" fill="none" opacity="0.25" filter="url(#coreGlow)"/>

    <!-- Outer spark halo 2 -->
    <path d="M 133 90 Q 138 82 142 88 Q 146 94 150 86 Q 154 78 158 84 Q 162 90 167 90"
          stroke="#0066cc" stroke-width="4" fill="none" opacity="0.4" filter="url(#sparkGlow)"/>

    <!-- Mid spark glow -->
    <path d="M 133 90 Q 138 82 142 88 Q 146 94 150 86 Q 154 78 158 84 Q 162 90 167 90"
          stroke="#00aaee" stroke-width="2.8" fill="none" opacity="0.7" filter="url(#sparkGlow)"/>

    <!-- Main spark body -->
    <path d="M 133 90 Q 138 82 142 88 Q 146 94 150 86 Q 154 78 158 84 Q 162 90 167 90"
          stroke="url(#sparkGrad)" stroke-width="1.8" fill="none" filter="url(#sparkGlow)"/>

    <!-- Bright core of spark (white-hot center) -->
    <path d="M 133 90 Q 138 82 142 88 Q 146 94 150 86 Q 154 78 158 84 Q 162 90 167 90"
          stroke="white" stroke-width="0.7" fill="none" opacity="0.9"/>

    <!-- Small arc branches off main spark -->
    <path d="M 142 88 Q 141 80 138 76" stroke="#00d4ff" stroke-width="0.9" fill="none" opacity="0.7" filter="url(#sparkGlow)"/>
    <path d="M 150 86 Q 152 78 154 74" stroke="#00d4ff" stroke-width="0.9" fill="none" opacity="0.65" filter="url(#sparkGlow)"/>
    <path d="M 146 92 Q 144 100 141 104" stroke="#00d4ff" stroke-width="0.8" fill="none" opacity="0.6" filter="url(#sparkGlow)"/>
    <path d="M 155 83 Q 157 92 158 98" stroke="#4dc8ff" stroke-width="0.8" fill="none" opacity="0.55" filter="url(#sparkGlow)"/>
    <path d="M 150 86 Q 148 96 146 102" stroke="#00d4ff" stroke-width="0.7" fill="none" opacity="0.5" filter="url(#sparkGlow)"/>

    <!-- Spark emission particles -->
    <g filter="url(#coreGlow)">
      <circle cx="138" cy="76" r="1.2" fill="#00d4ff" opacity="0.8"/>
      <circle cx="154" cy="74" r="1.0" fill="#4dc8ff" opacity="0.75"/>
      <circle cx="141" cy="104" r="1.1" fill="#00d4ff" opacity="0.7"/>
      <circle cx="158" cy="98" r="1.0" fill="#4dc8ff" opacity="0.65"/>
      <circle cx="146" cy="102" r="0.9" fill="#00d4ff" opacity="0.6"/>
    </g>

    <!-- Intense spark nodes (peak voltage points) -->
    <circle cx="142" cy="88" r="2.2" fill="white" opacity="0.9" filter="url(#coreGlow)"/>
    <circle cx="150" cy="86" r="2.5" fill="white" opacity="1" filter="url(#coreGlow)"/>
    <circle cx="158" cy="84" r="2.2" fill="white" opacity="0.9" filter="url(#coreGlow)"/>

    <!-- Synaptic cleft horizontal lines (scientific detail) -->
    <line x1="131" y1="85" x2="131" y2="95" stroke="#1a6fd4" stroke-width="0.6" opacity="0.5"/>
    <line x1="169" y1="85" x2="169" y2="95" stroke="#1a6fd4" stroke-width="0.6" opacity="0.5"/>
  </g>

  <!-- ==================== TYPOGRAPHY ==================== -->
  <g id="text-group">
    <!-- Main title -->
    <text x="150" y="148"
          font-family="'Courier New', Courier, monospace"
          font-size="14"
          font-weight="700"
          letter-spacing="2.5"
          text-anchor="middle"
          fill="url(#textGrad)"
          filter="url(#dendriteGlow)">AGENTIC LEAD GEN</text>

    <!-- Subtitle -->
    <text x="150" y="164"
          font-family="'Courier New', Courier, monospace"
          font-size="6.5"
          font-weight="400"
          letter-spacing="3.5"
          text-anchor="middle"
          fill="#4dc8ff"
          opacity="0.65">SYNAPSE · SPARK · CONNECTION</text>

    <!-- Decorative lines flanking title -->
    <line x1="18" y1="148" x2="52" y2="148" stroke="#1a6fd4" stroke-width="0.7" opacity="0.5"/>
    <line x1="248" y1="148" x2="282" y2="148" stroke="#1a6fd4" stroke-width="0.7" opacity="0.5"/>
    <circle cx="15" cy="148" r="1.5" fill="#1a6fd4" opacity="0.5"/>
    <circle cx="285" cy="148" r="1.5" fill="#1a6fd4" opacity="0.5"/>
  </g>

  <!-- ==================== BORDER (scientific frame) ==================== -->
  <rect x="2" y="2" width="296" height="196" rx="4" ry="4"
        fill="none" stroke="#1a3a6a" stroke-width="0.8" opacity="0.6"/>
  <rect x="5" y="5" width="290" height="190" rx="3" ry="3"
        fill="none" stroke="#0d2a4e" stroke-width="0.4" opacity="0.4"/>

  <!-- Corner accents -->
  <g stroke="#1a6fd4" stroke-width="1.2" fill="none" opacity="0.7">
    <path d="M 2 18 L 2 2 L 18 2"/>
    <path d="M 282 2 L 298 2 L 298 18"/>
    <path d="M 2 182 L 2 198 L 18 198"/>
    <path d="M 282 198 L 298 198 L 298 182"/>
  </g>
</svg>
