<svg xmlns="http://www.w3.org/2000/svg" viewBox="0 0 300 200" width="300" height="200">
  <defs>
    <!-- Main waterfall gradient: blue to teal -->
    <linearGradient id="waterGrad" x1="0%" y1="0%" x2="0%" y2="100%">
      <stop offset="0%" stop-color="#1a78c2"/>
      <stop offset="40%" stop-color="#0ea5c8"/>
      <stop offset="100%" stop-color="#0ecbb8"/>
    </linearGradient>
    <!-- Tier platform gradient -->
    <linearGradient id="tierGrad" x1="0%" y1="0%" x2="0%" y2="100%">
      <stop offset="0%" stop-color="#1e3a5f"/>
      <stop offset="100%" stop-color="#162d4a"/>
    </linearGradient>
    <!-- Falling water column gradient -->
    <linearGradient id="fallGrad1" x1="0%" y1="0%" x2="100%" y2="0%">
      <stop offset="0%" stop-color="#1a78c2" stop-opacity="0.3"/>
      <stop offset="40%" stop-color="#2196f3" stop-opacity="0.9"/>
      <stop offset="100%" stop-color="#1a78c2" stop-opacity="0.3"/>
    </linearGradient>
    <linearGradient id="fallGrad2" x1="0%" y1="0%" x2="100%" y2="0%">
      <stop offset="0%" stop-color="#0ea5c8" stop-opacity="0.3"/>
      <stop offset="40%" stop-color="#00bcd4" stop-opacity="0.9"/>
      <stop offset="100%" stop-color="#0ea5c8" stop-opacity="0.3"/>
    </linearGradient>
    <linearGradient id="fallGrad3" x1="0%" y1="0%" x2="100%" y2="0%">
      <stop offset="0%" stop-color="#0ecbb8" stop-opacity="0.3"/>
      <stop offset="40%" stop-color="#26c6da" stop-opacity="0.9"/>
      <stop offset="100%" stop-color="#0ecbb8" stop-opacity="0.3"/>
    </linearGradient>
    <!-- Pool glow gradient -->
    <radialGradient id="poolGrad" cx="50%" cy="40%" r="60%">
      <stop offset="0%" stop-color="#0ecbb8" stop-opacity="0.6"/>
      <stop offset="100%" stop-color="#0a8fa0" stop-opacity="0.2"/>
    </radialGradient>
    <!-- Mist/spray blur filter -->
    <filter id="mist" x="-20%" y="-20%" width="140%" height="140%">
      <feGaussianBlur stdDeviation="1.5" result="blur"/>
      <feComposite in="SourceGraphic" in2="blur" operator="over"/>
    </filter>
    <filter id="softGlow" x="-10%" y="-10%" width="120%" height="120%">
      <feGaussianBlur stdDeviation="2" result="glow"/>
      <feMerge>
        <feMergeNode in="glow"/>
        <feMergeNode in="SourceGraphic"/>
      </feMerge>
    </filter>
    <!-- Water shimmer -->
    <linearGradient id="shimmer" x1="0%" y1="0%" x2="100%" y2="0%">
      <stop offset="0%" stop-color="#ffffff" stop-opacity="0"/>
      <stop offset="50%" stop-color="#ffffff" stop-opacity="0.25"/>
      <stop offset="100%" stop-color="#ffffff" stop-opacity="0"/>
    </linearGradient>
  </defs>

  <!-- Background -->
  <rect width="300" height="200" fill="#0b1e35"/>

  <!-- Subtle background glow behind waterfall -->
  <ellipse cx="148" cy="110" rx="70" ry="90" fill="#1a4a7a" fill-opacity="0.18"/>

  <!-- ═══════════════════════════════════════════
       TIER 1 — CRAWL  (top, widest, x=50..250, y=28)
       ═══════════════════════════════════════════ -->
  <!-- Tier 1 platform rock/ledge -->
  <rect x="50" y="28" width="200" height="14" rx="3" fill="url(#tierGrad)"/>
  <rect x="50" y="28" width="200" height="4" rx="2" fill="#2a5a8a" fill-opacity="0.5"/>
  <!-- Water pool on tier 1 -->
  <rect x="52" y="32" width="196" height="10" rx="2" fill="url(#waterGrad)" opacity="0.85"/>
  <!-- Shimmer on tier 1 water -->
  <rect x="52" y="33" width="196" height="4" rx="1" fill="url(#shimmer)" opacity="0.6"/>

  <!-- CRAWL label badge -->
  <rect x="80" y="14" width="46" height="13" rx="6" fill="#1a78c2" fill-opacity="0.85"/>
  <text x="103" y="24" font-family="'SF Pro Display', 'Helvetica Neue', Arial, sans-serif" font-size="7" font-weight="600" fill="#e0f4ff" text-anchor="middle" letter-spacing="0.8">CRAWL</text>

  <!-- Waterfall fall 1: Tier1 → Tier2 -->
  <!-- Left column -->
  <rect x="88" y="42" width="12" height="26" rx="2" fill="url(#fallGrad1)" filter="url(#mist)"/>
  <!-- Center column (main flow) -->
  <rect x="141" y="42" width="18" height="26" rx="2" fill="url(#fallGrad1)"/>
  <!-- Right column -->
  <rect x="200" y="42" width="12" height="26" rx="2" fill="url(#fallGrad1)" filter="url(#mist)"/>
  <!-- Spray particles tier1→2 -->
  <circle cx="83" cy="55" r="1.2" fill="#7ddcf0" fill-opacity="0.5"/>
  <circle cx="79" cy="60" r="0.8" fill="#7ddcf0" fill-opacity="0.4"/>
  <circle cx="218" cy="52" r="1" fill="#7ddcf0" fill-opacity="0.5"/>
  <circle cx="222" cy="58" r="0.8" fill="#7ddcf0" fill-opacity="0.35"/>
  <circle cx="155" cy="48" r="1" fill="#a8eeff" fill-opacity="0.4"/>

  <!-- ═══════════════════════════════════════════
       TIER 2 — ENRICH  (x=68..232, y=68)
       ═══════════════════════════════════════════ -->
  <rect x="68" y="68" width="164" height="14" rx="3" fill="url(#tierGrad)"/>
  <rect x="68" y="68" width="164" height="4" rx="2" fill="#2a6080" fill-opacity="0.5"/>
  <!-- Water pool on tier 2 -->
  <rect x="70" y="72" width="160" height="10" rx="2" fill="url(#waterGrad)" opacity="0.82"/>
  <rect x="70" y="73" width="160" height="4" rx="1" fill="url(#shimmer)" opacity="0.55"/>

  <!-- ENRICH label badge -->
  <rect x="78" y="54" width="48" height="13" rx="6" fill="#0a8db5" fill-opacity="0.85"/>
  <text x="102" y="64" font-family="'SF Pro Display', 'Helvetica Neue', Arial, sans-serif" font-size="7" font-weight="600" fill="#e0f9ff" text-anchor="middle" letter-spacing="0.8">ENRICH</text>

  <!-- Waterfall fall 2: Tier2 → Tier3 -->
  <rect x="100" y="82" width="11" height="26" rx="2" fill="url(#fallGrad2)" filter="url(#mist)"/>
  <rect x="144" y="82" width="16" height="26" rx="2" fill="url(#fallGrad2)"/>
  <rect x="189" y="82" width="11" height="26" rx="2" fill="url(#fallGrad2)" filter="url(#mist)"/>
  <!-- Spray particles -->
  <circle cx="96" cy="94" r="1.1" fill="#5de0e6" fill-opacity="0.5"/>
  <circle cx="93" cy="100" r="0.8" fill="#5de0e6" fill-opacity="0.4"/>
  <circle cx="204" cy="90" r="1" fill="#5de0e6" fill-opacity="0.45"/>
  <circle cx="207" cy="96" r="0.7" fill="#5de0e6" fill-opacity="0.35"/>

  <!-- ═══════════════════════════════════════════
       TIER 3 — QUALIFY  (x=86..214, y=108)
       ═══════════════════════════════════════════ -->
  <rect x="86" y="108" width="128" height="14" rx="3" fill="url(#tierGrad)"/>
  <rect x="86" y="108" width="128" height="4" rx="2" fill="#1a6070" fill-opacity="0.5"/>
  <!-- Water pool on tier 3 -->
  <rect x="88" y="112" width="124" height="10" rx="2" fill="url(#waterGrad)" opacity="0.78"/>
  <rect x="88" y="113" width="124" height="4" rx="1" fill="url(#shimmer)" opacity="0.5"/>

  <!-- QUALIFY label badge -->
  <rect x="78" y="94" width="50" height="13" rx="6" fill="#087a8a" fill-opacity="0.85"/>
  <text x="103" y="104" font-family="'SF Pro Display', 'Helvetica Neue', Arial, sans-serif" font-size="7" font-weight="600" fill="#d0fff8" text-anchor="middle" letter-spacing="0.8">QUALIFY</text>

  <!-- Waterfall fall 3: Tier3 → Basin -->
  <rect x="114" y="122" width="10" height="22" rx="2" fill="url(#fallGrad3)" filter="url(#mist)"/>
  <rect x="145" y="122" width="14" height="22" rx="2" fill="url(#fallGrad3)"/>
  <rect x="175" y="122" width="10" height="22" rx="2" fill="url(#fallGrad3)" filter="url(#mist)"/>
  <!-- Spray particles -->
  <circle cx="110" cy="132" r="1" fill="#3de8d0" fill-opacity="0.5"/>
  <circle cx="107" cy="137" r="0.7" fill="#3de8d0" fill-opacity="0.4"/>
  <circle cx="189" cy="130" r="0.9" fill="#3de8d0" fill-opacity="0.45"/>
  <circle cx="192" cy="136" r="0.7" fill="#3de8d0" fill-opacity="0.35"/>

  <!-- ═══════════════════════════════════════════
       TIER 4 — OUTREACH  (base basin, x=104..196, y=144)
       ═══════════════════════════════════════════ -->
  <!-- Basin walls -->
  <rect x="104" y="144" width="92" height="16" rx="3" fill="url(#tierGrad)"/>
  <rect x="104" y="144" width="92" height="5" rx="2" fill="#106070" fill-opacity="0.5"/>
  <!-- Basin water with glow -->
  <rect x="106" y="148" width="88" height="12" rx="2" fill="url(#poolGrad)"/>
  <rect x="106" y="148" width="88" height="12" rx="2" fill="url(#waterGrad)" opacity="0.7"/>
  <rect x="106" y="149" width="88" height="5" rx="1" fill="url(#shimmer)" opacity="0.5"/>
  <!-- Ripple rings in basin -->
  <ellipse cx="150" cy="154" rx="18" ry="4" fill="none" stroke="#0ecbb8" stroke-width="0.8" stroke-opacity="0.5"/>
  <ellipse cx="150" cy="154" rx="30" ry="5.5" fill="none" stroke="#0ecbb8" stroke-width="0.5" stroke-opacity="0.3"/>
  <ellipse cx="150" cy="154" rx="40" ry="7" fill="none" stroke="#0ecbb8" stroke-width="0.4" stroke-opacity="0.15"/>

  <!-- OUTREACH label badge -->
  <rect x="94" y="130" width="58" height="13" rx="6" fill="#06656e" fill-opacity="0.9"/>
  <text x="123" y="140" font-family="'SF Pro Display', 'Helvetica Neue', Arial, sans-serif" font-size="7" font-weight="600" fill="#c0fff6" text-anchor="middle" letter-spacing="0.8">OUTREACH</text>

  <!-- Connecting mist/flow dots along left edge -->
  <circle cx="86" cy="47" r="0.9" fill="#5bc8f5" fill-opacity="0.45"/>
  <circle cx="82" cy="65" r="0.7" fill="#5bc8f5" fill-opacity="0.3"/>
  <circle cx="98" cy="88" r="0.8" fill="#3de0e0" fill-opacity="0.4"/>
  <circle cx="95" cy="105" r="0.6" fill="#3de0e0" fill-opacity="0.3"/>
  <circle cx="112" cy="126" r="0.7" fill="#2de8cc" fill-opacity="0.4"/>

  <!-- ═══════════════════════════════════════════
       BRAND TEXT
       ═══════════════════════════════════════════ -->
  <!-- Brand name -->
  <text x="150" y="177" font-family="'SF Pro Display', 'Helvetica Neue', Arial, sans-serif" font-size="13" font-weight="700" fill="url(#waterGrad)" text-anchor="middle" letter-spacing="0.5">Agentic Lead Gen</text>
  <!-- Tagline -->
  <text x="150" y="191" font-family="'SF Pro Display', 'Helvetica Neue', Arial, sans-serif" font-size="6.5" font-weight="400" fill="#5ab8d4" text-anchor="middle" letter-spacing="1.5" opacity="0.8">WATERFALL PIPELINE</text>

  <!-- Subtle corner accent lines -->
  <line x1="18" y1="12" x2="18" y2="28" stroke="#1a78c2" stroke-width="1" stroke-opacity="0.4"/>
  <line x1="12" y1="18" x2="28" y2="18" stroke="#1a78c2" stroke-width="1" stroke-opacity="0.4"/>
  <line x1="282" y1="172" x2="282" y2="188" stroke="#0ecbb8" stroke-width="1" stroke-opacity="0.4"/>
  <line x1="276" y1="182" x2="292" y2="182" stroke="#0ecbb8" stroke-width="1" stroke-opacity="0.4"/>
</svg>
