<svg xmlns="http://www.w3.org/2000/svg" viewBox="0 0 300 200" width="300" height="200">
  <defs>
    <!-- Deep space background gradient -->
    <radialGradient id="bgGrad" cx="50%" cy="50%" r="70%">
      <stop offset="0%" stop-color="#0a0014"/>
      <stop offset="60%" stop-color="#050008"/>
      <stop offset="100%" stop-color="#000005"/>
    </radialGradient>

    <!-- Wormhole center gradient: deep purple to blinding white -->
    <radialGradient id="wormholeCore" cx="50%" cy="50%" r="50%">
      <stop offset="0%"  stop-color="#ffffff" stop-opacity="1"/>
      <stop offset="12%" stop-color="#e8d4ff" stop-opacity="1"/>
      <stop offset="28%" stop-color="#b366ff" stop-opacity="1"/>
      <stop offset="50%" stop-color="#6600cc" stop-opacity="0.95"/>
      <stop offset="72%" stop-color="#2d0066" stop-opacity="0.85"/>
      <stop offset="90%" stop-color="#0d0030" stop-opacity="0.6"/>
      <stop offset="100%" stop-color="#000010" stop-opacity="0"/>
    </radialGradient>

    <!-- Outer glow halo -->
    <radialGradient id="haloGrad" cx="50%" cy="50%" r="50%">
      <stop offset="0%"  stop-color="#9933ff" stop-opacity="0"/>
      <stop offset="55%" stop-color="#6600cc" stop-opacity="0.25"/>
      <stop offset="80%" stop-color="#4400aa" stop-opacity="0.45"/>
      <stop offset="100%" stop-color="#220066" stop-opacity="0"/>
    </radialGradient>

    <!-- Swirl ring gradient -->
    <linearGradient id="swirlGrad1" x1="0%" y1="0%" x2="100%" y2="100%">
      <stop offset="0%"  stop-color="#cc88ff" stop-opacity="0.9"/>
      <stop offset="50%" stop-color="#7722dd" stop-opacity="0.5"/>
      <stop offset="100%" stop-color="#330088" stop-opacity="0.1"/>
    </linearGradient>
    <linearGradient id="swirlGrad2" x1="100%" y1="0%" x2="0%" y2="100%">
      <stop offset="0%"  stop-color="#aaffee" stop-opacity="0.7"/>
      <stop offset="50%" stop-color="#0088cc" stop-opacity="0.4"/>
      <stop offset="100%" stop-color="#003366" stop-opacity="0.05"/>
    </linearGradient>

    <!-- Data stream gradient -->
    <linearGradient id="streamGrad" x1="0%" y1="0%" x2="100%" y2="0%">
      <stop offset="0%"  stop-color="#00ffcc" stop-opacity="0"/>
      <stop offset="40%" stop-color="#00ffcc" stop-opacity="0.7"/>
      <stop offset="100%" stop-color="#ffffff" stop-opacity="0.9"/>
    </linearGradient>
    <linearGradient id="streamGrad2" x1="0%" y1="0%" x2="100%" y2="0%">
      <stop offset="0%"  stop-color="#ff66ff" stop-opacity="0"/>
      <stop offset="40%" stop-color="#cc44ff" stop-opacity="0.6"/>
      <stop offset="100%" stop-color="#ffffff" stop-opacity="0.8"/>
    </linearGradient>
    <linearGradient id="streamGrad3" x1="0%" y1="0%" x2="100%" y2="0%">
      <stop offset="0%"  stop-color="#66aaff" stop-opacity="0"/>
      <stop offset="50%" stop-color="#4488ff" stop-opacity="0.65"/>
      <stop offset="100%" stop-color="#ccddff" stop-opacity="0.85"/>
    </linearGradient>

    <!-- Clip for portal circle -->
    <clipPath id="portalClip">
      <circle cx="110" cy="96" r="72"/>
    </clipPath>

    <!-- Glow filter -->
    <filter id="glow" x="-40%" y="-40%" width="180%" height="180%">
      <feGaussianBlur stdDeviation="3" result="coloredBlur"/>
      <feMerge>
        <feMergeNode in="coloredBlur"/>
        <feMergeNode in="SourceGraphic"/>
      </feMerge>
    </filter>
    <filter id="softGlow" x="-60%" y="-60%" width="220%" height="220%">
      <feGaussianBlur stdDeviation="6" result="coloredBlur"/>
      <feMerge>
        <feMergeNode in="coloredBlur"/>
        <feMergeNode in="SourceGraphic"/>
      </feMerge>
    </filter>
    <filter id="textGlow" x="-20%" y="-60%" width="140%" height="220%">
      <feGaussianBlur stdDeviation="2.5" result="coloredBlur"/>
      <feMerge>
        <feMergeNode in="coloredBlur"/>
        <feMergeNode in="SourceGraphic"/>
      </feMerge>
    </filter>
  </defs>

  <!-- ── BACKGROUND ── -->
  <rect width="300" height="200" fill="url(#bgGrad)"/>

  <!-- Subtle star field -->
  <g fill="#ffffff" opacity="0.5">
    <circle cx="8"   cy="12"  r="0.5"/>
    <circle cx="25"  cy="5"   r="0.7"/>
    <circle cx="50"  cy="18"  r="0.4"/>
    <circle cx="72"  cy="8"   r="0.6"/>
    <circle cx="38"  cy="35"  r="0.3"/>
    <circle cx="15"  cy="55"  r="0.5"/>
    <circle cx="60"  cy="48"  r="0.4"/>
    <circle cx="180" cy="10"  r="0.6"/>
    <circle cx="210" cy="25"  r="0.4"/>
    <circle cx="240" cy="8"   r="0.7"/>
    <circle cx="265" cy="18"  r="0.3"/>
    <circle cx="285" cy="40"  r="0.5"/>
    <circle cx="295" cy="15"  r="0.4"/>
    <circle cx="200" cy="55"  r="0.5"/>
    <circle cx="270" cy="60"  r="0.3"/>
    <circle cx="190" cy="185" r="0.6"/>
    <circle cx="220" cy="175" r="0.4"/>
    <circle cx="255" cy="190" r="0.5"/>
    <circle cx="280" cy="170" r="0.3"/>
    <circle cx="295" cy="185" r="0.6"/>
    <circle cx="10"  cy="170" r="0.4"/>
    <circle cx="35"  cy="185" r="0.5"/>
    <circle cx="55"  cy="165" r="0.3"/>
    <circle cx="165" cy="30"  r="0.5"/>
    <circle cx="170" cy="170" r="0.4"/>
  </g>

  <!-- ── OUTER HALO / ATMOSPHERIC GLOW ── -->
  <ellipse cx="110" cy="96" rx="88" ry="88" fill="url(#haloGrad)" filter="url(#softGlow)"/>

  <!-- ── SPIRAL RINGS (swirling arms, clipped to portal) ── -->
  <!-- Each ellipse is tilted to create depth/perspective -->
  <g clip-path="url(#portalClip)" opacity="0.85">
    <!-- Outermost dim ring -->
    <ellipse cx="110" cy="96" rx="70" ry="68" fill="none"
             stroke="#4400aa" stroke-width="1.5" stroke-opacity="0.4"/>
    <!-- Ring 1 -->
    <ellipse cx="110" cy="96" rx="65" ry="55" fill="none"
             stroke="url(#swirlGrad1)" stroke-width="2.5"
             stroke-dasharray="40 15 25 10 60 20"
             transform="rotate(-20 110 96)" filter="url(#glow)"/>
    <!-- Ring 2 -->
    <ellipse cx="110" cy="96" rx="55" ry="48" fill="none"
             stroke="url(#swirlGrad2)" stroke-width="2"
             stroke-dasharray="55 10 30 15"
             transform="rotate(35 110 96)" filter="url(#glow)"/>
    <!-- Ring 3 -->
    <ellipse cx="110" cy="96" rx="48" ry="38" fill="none"
             stroke="#aa55ff" stroke-width="2.5" stroke-opacity="0.7"
             stroke-dasharray="45 12 20 8 35 18"
             transform="rotate(-55 110 96)" filter="url(#glow)"/>
    <!-- Ring 4 -->
    <ellipse cx="110" cy="96" rx="40" ry="30" fill="none"
             stroke="#cc88ff" stroke-width="2" stroke-opacity="0.65"
             stroke-dasharray="30 10 50 15"
             transform="rotate(70 110 96)" filter="url(#glow)"/>
    <!-- Ring 5 -->
    <ellipse cx="110" cy="96" rx="32" ry="24" fill="none"
             stroke="#ddaaff" stroke-width="2" stroke-opacity="0.75"
             stroke-dasharray="35 8 22 12"
             transform="rotate(-85 110 96)" filter="url(#glow)"/>
    <!-- Ring 6 inner -->
    <ellipse cx="110" cy="96" rx="24" ry="18" fill="none"
             stroke="#eeccff" stroke-width="1.8" stroke-opacity="0.8"
             stroke-dasharray="25 6 18 10"
             transform="rotate(110 110 96)" filter="url(#glow)"/>
  </g>

  <!-- ── SPIRAL SWIRL PATHS — arms flowing into center ── -->
  <g filter="url(#glow)">
    <!-- Arm 1: teal/cyan top-left arc spiraling in -->
    <path d="M 50 35 Q 85 20 110 45 Q 130 65 118 88 Q 112 96 110 96"
          fill="none" stroke="#00ffcc" stroke-width="1.5" stroke-opacity="0.7"
          stroke-linecap="round"/>
    <path d="M 42 30 Q 78 12 108 40 Q 132 62 120 90"
          fill="none" stroke="#00ffcc" stroke-width="0.8" stroke-opacity="0.35"
          stroke-linecap="round"/>

    <!-- Arm 2: purple right arc -->
    <path d="M 178 55 Q 165 30 142 42 Q 122 58 116 82 Q 112 92 110 96"
          fill="none" stroke="#cc44ff" stroke-width="1.5" stroke-opacity="0.7"
          stroke-linecap="round"/>
    <path d="M 185 60 Q 170 28 146 38 Q 124 54 118 80"
          fill="none" stroke="#cc44ff" stroke-width="0.8" stroke-opacity="0.3"
          stroke-linecap="round"/>

    <!-- Arm 3: blue bottom arc -->
    <path d="M 62 160 Q 75 148 88 138 Q 100 128 106 114 Q 110 104 110 96"
          fill="none" stroke="#4488ff" stroke-width="1.4" stroke-opacity="0.65"
          stroke-linecap="round"/>

    <!-- Arm 4: magenta top-right small tendril -->
    <path d="M 155 20 Q 148 40 135 58 Q 124 74 114 88"
          fill="none" stroke="#ff66aa" stroke-width="1.2" stroke-opacity="0.55"
          stroke-linecap="round"/>

    <!-- Arm 5: teal bottom-left tendril -->
    <path d="M 38 130 Q 55 125 70 120 Q 88 112 100 106 Q 107 101 110 96"
          fill="none" stroke="#00ccaa" stroke-width="1.2" stroke-opacity="0.5"
          stroke-linecap="round"/>
  </g>

  <!-- ── DATA STREAMS (pixel-like dashes rushing inward) ── -->
  <g filter="url(#glow)">
    <!-- Stream 1: horizontal from right -->
    <line x1="195" y1="88" x2="148" y2="92" stroke="url(#streamGrad2)"
          stroke-width="1.2" stroke-linecap="round"/>
    <line x1="200" y1="94" x2="152" y2="95" stroke="url(#streamGrad2)"
          stroke-width="0.8" stroke-opacity="0.5" stroke-linecap="round"/>
    <!-- Dashes -->
    <line x1="205" y1="90" x2="215" y2="90" stroke="#cc44ff" stroke-width="1.2" stroke-opacity="0.6"/>
    <line x1="218" y1="91" x2="225" y2="91" stroke="#cc44ff" stroke-width="0.9" stroke-opacity="0.4"/>

    <!-- Stream 2: diagonal top-right -->
    <line x1="190" y1="42" x2="148" y2="70" stroke="url(#streamGrad)"
          stroke-width="1.2" stroke-linecap="round"/>
    <line x1="198" y1="38" x2="207" y2="33" stroke="#00ffcc" stroke-width="1.1" stroke-opacity="0.5"/>
    <line x1="210" y1="30" x2="218" y2="26" stroke="#00ffcc" stroke-width="0.8" stroke-opacity="0.35"/>

    <!-- Stream 3: from lower right -->
    <line x1="195" y1="140" x2="148" y2="120" stroke="url(#streamGrad3)"
          stroke-width="1.2" stroke-linecap="round"/>
    <line x1="203" y1="145" x2="212" y2="150" stroke="#4488ff" stroke-width="1" stroke-opacity="0.5"/>

    <!-- Stream 4: from far left top -->
    <line x1="12" y1="72" x2="62" y2="80" stroke="url(#streamGrad)"
          stroke-width="1" stroke-opacity="0.4" stroke-linecap="round"/>
    <line x1="5"  y1="74" x2="10" y2="73" stroke="#00ffcc" stroke-width="0.9" stroke-opacity="0.4"/>

    <!-- Binary / data particles -->
    <text x="170" y="78" fill="#00ffcc" font-family="monospace" font-size="5" opacity="0.55">10110</text>
    <text x="175" y="108" fill="#cc44ff" font-family="monospace" font-size="4.5" opacity="0.45">01001</text>
    <text x="200" y="65" fill="#aaddff" font-family="monospace" font-size="4" opacity="0.4">1101</text>
    <text x="205" y="125" fill="#aaffdd" font-family="monospace" font-size="4" opacity="0.35">0110</text>
    <text x="22"  y="68"  fill="#cc88ff" font-family="monospace" font-size="4" opacity="0.3">1001</text>
  </g>

  <!-- ── WORMHOLE CORE (radial fill) ── -->
  <circle cx="110" cy="96" r="72" fill="url(#wormholeCore)" filter="url(#softGlow)"/>

  <!-- Bright inner iris -->
  <circle cx="110" cy="96" r="18" fill="none"
          stroke="#ffffff" stroke-width="1.5" stroke-opacity="0.6" filter="url(#glow)"/>
  <circle cx="110" cy="96" r="10" fill="none"
          stroke="#ffffff" stroke-width="2" stroke-opacity="0.9" filter="url(#glow)"/>
  <!-- White hot center point -->
  <circle cx="110" cy="96" r="4" fill="#ffffff" filter="url(#softGlow)"/>
  <circle cx="110" cy="96" r="1.5" fill="#ffffff"/>

  <!-- ── PORTAL RIM — crisp glowing edge ── -->
  <circle cx="110" cy="96" r="72" fill="none"
          stroke="#9933ff" stroke-width="2.5" stroke-opacity="0.6" filter="url(#glow)"/>
  <circle cx="110" cy="96" r="71" fill="none"
          stroke="#cc88ff" stroke-width="1" stroke-opacity="0.4"/>

  <!-- ── TYPOGRAPHY ── -->
  <!-- "AGENTIC" — primary headline -->
  <text x="196" y="88"
        font-family="'Arial Black', 'Arial', sans-serif"
        font-weight="900"
        font-size="22"
        letter-spacing="2"
        fill="#ffffff"
        filter="url(#textGlow)">AGENTIC</text>

  <!-- "LEAD GEN" — secondary -->
  <text x="197" y="112"
        font-family="'Arial', sans-serif"
        font-weight="700"
        font-size="15"
        letter-spacing="4"
        fill="#cc88ff"
        filter="url(#textGlow)">LEAD GEN</text>

  <!-- Tagline -->
  <text x="197" y="130"
        font-family="'Arial', sans-serif"
        font-weight="400"
        font-size="6.5"
        letter-spacing="2.5"
        fill="#7755aa"
        opacity="0.85">BEYOND THE EVENT HORIZON</text>

  <!-- Thin separator line -->
  <line x1="197" y1="117" x2="292" y2="117"
        stroke="#6622aa" stroke-width="0.8" stroke-opacity="0.6"/>

  <!-- Bottom micro-label -->
  <text x="197" y="165"
        font-family="'Arial', sans-serif"
        font-weight="400"
        font-size="5.5"
        letter-spacing="1.5"
        fill="#440088"
        opacity="0.7">AI · DISCOVERY · AUTOMATION</text>
</svg>
